<?xml version="1.0" encoding="utf-8"?>
<!-- Generator: Adobe Illustrator 26.0.1, SVG Export Plug-In . SVG Version: 6.00 Build 0)  -->
<svg version="1.1" id="Layer_1" xmlns="http://www.w3.org/2000/svg" xmlns:xlink="http://www.w3.org/1999/xlink" x="0px" y="0px"
	 viewBox="0 0 640 480" style="enable-background:new 0 0 640 480;" xml:space="preserve">
<style type="text/css">
	.st0{fill:#CCE0EE;}
	.st1{fill:#EDB9BC;}
	.st2{fill:#5769B3;}
	.st3{fill:#FFFFFF;}
	.st4{fill:#DD5050;}
	.st5{fill:#404259;}
	.st6{fill:#EFC266;}
	.st7{fill:#A8DAF5;}
	.st8{fill:#F2F2F2;}
	.st9{fill:#CCB8C6;}
	.st10{opacity:0.59;}
	.st11{fill:#CBC1CB;}
	.st12{fill:#3B3348;}
	.st13{fill:#AD3544;}
	.st14{fill:#C74551;}
	.st15{fill:#DA565D;}
	.st16{opacity:0.47;}
	.st17{fill:#DC7F7A;}
	.st18{fill:#DAE382;}
	.st19{fill:#E89F90;}
	.st20{fill:#D1B299;}
	.st21{fill:#BF635F;}
	.st22{fill:#CC6C67;}
	.st23{fill:#E79E8F;}
	.st24{fill:#21202B;}
	.st25{opacity:0.25;}
	.st26{fill:#BB5151;}
	.st27{fill:#85554A;}
	.st28{fill:#CD5959;}
	.st29{opacity:0.3;}
	.st30{fill:#554C66;}
	.st31{fill:#37374F;}
	.st32{fill:#DF665C;}
	.st33{fill:#F8E6C7;}
	.st34{fill:#ADAF62;}
	.st35{fill:#AFD6F0;}
	.st36{fill:#EBE6EA;}
	.st37{fill:#E48C82;}
	.st38{fill:#F4D8A2;}
</style>
<g>
	<g>
		<g>
			<g>
				<g>
					<path class="st0" d="M503.4,100.7c-5.1-2.4-10.4-4.6-15.8-6.4L288.8,213.9c-1.3,5.8-2.3,11.7-3,17.8L503.4,100.7z"/>
				</g>
			</g>
		</g>
		<g>
			<g>
				<g>
					<path class="st0" d="M564.2,151.9c-3-4.2-6.1-8.2-9.5-12l-264.3,159c1.4,5.1,2.9,10,4.7,14.9L564.2,151.9z"/>
				</g>
			</g>
		</g>
		<g>
			<g>
				<g>
					<path class="st0" d="M576.9,172.9c-2.2-4.3-4.6-8.5-7.1-12.5l-270.9,163c1.9,4.4,4.1,8.8,6.3,13L576.9,172.9z"/>
				</g>
			</g>
		</g>
		<g>
			<g>
				<g>
					<path class="st1" d="M573.8,339.2l-134,80.7c0.2,0,0.3,0,0.5,0c9.5,0,18.9-1,27.9-2.7l88.6-53.3
						C563.2,356.2,568.9,347.9,573.8,339.2z"/>
				</g>
			</g>
		</g>
		<g>
			<g>
				<g>
					<path class="st0" d="M513.9,106.2l-229.3,138c-0.1,3-0.2,6-0.2,9c0,2.9,0.1,5.9,0.2,8.8l243.5-146.5
						C523.5,112,518.8,109,513.9,106.2z"/>
				</g>
			</g>
		</g>
		<g>
			<g>
				<g>
					<path class="st0" d="M292.6,199.8L474.4,90.5c-7.6-1.8-15.5-3-23.5-3.6l-149,89.7C298.3,184,295.2,191.8,292.6,199.8z"/>
				</g>
			</g>
		</g>
		<g>
			<g>
				<g>
					<path class="st0" d="M547.7,132.3c-3.5-3.6-7.2-7-11.1-10.3l-251,151.1c0.6,5.2,1.4,10.4,2.4,15.5L547.7,132.3z"/>
				</g>
			</g>
		</g>
		<g>
			<g>
				<g>
					<path class="st0" d="M595.9,263.7L368,400.8c6.3,3.5,12.7,6.6,19.5,9.2l205.6-123.8C594.5,278.9,595.4,271.4,595.9,263.7z"/>
				</g>
			</g>
		</g>
		<g>
			<g>
				<g>
					<path class="st1" d="M582.1,322.4c3.1-7.2,5.7-14.7,7.8-22.4L400.1,414.2c7.2,2,14.5,3.5,22,4.5L582.1,322.4z"/>
				</g>
			</g>
		</g>
		<g>
			<g>
				<g>
					<path class="st0" d="M431.5,86.7c-49.7,3-93.1,30.8-119.7,72L431.5,86.7z"/>
				</g>
			</g>
		</g>
		<g>
			<g>
				<g>
					<path class="st0" d="M589.9,206.4L325.3,365.6c3.7,4.4,7.7,8.5,11.8,12.4l256.6-154.4C592.7,217.8,591.5,212,589.9,206.4z"/>
				</g>
			</g>
		</g>
		<g>
			<g>
				<g>
					<path class="st0" d="M586.9,196.4c-1.7-4.9-3.5-9.7-5.6-14.4l-271,163.1c2.7,4.3,5.6,8.5,8.6,12.6L586.9,196.4z"/>
				</g>
			</g>
		</g>
		<g>
			<g>
				<g>
					<path class="st0" d="M596.2,251.7c0-5.8-0.4-11.5-1-17.2L345.1,385.1c4.2,3.5,8.6,6.8,13.2,9.8L596.2,251.7z"/>
				</g>
			</g>
		</g>
	</g>
	<g>
		<g>
			<g>
				<path class="st2" d="M484.8,228.2h-43.6c-1.1,0-2-1-2-2.1c0-1.2,0.9-2.1,2-2.1h41.6v-29.1c0-1.2,0.9-2.1,2-2.1H528v-30
					c0-0.8,0.5-1.6,1.2-2l39.2-18.4c1-0.5,2.2,0,2.6,1.1c0.4,1.1,0,2.3-1,2.8l-38,17.8v30.7c0,1.2-0.9,2.1-2,2.1h-43.2V226
					C486.8,227.2,485.9,228.2,484.8,228.2z"/>
			</g>
		</g>
		<g>
			<g>
				<path class="st2" d="M564.2,158.8c-0.2-0.1-0.3-0.1-0.5-0.2c-0.9-0.6-1.2-1.9-0.6-2.9l6.5-11.3l-14.4-1.5
					c-1.1-0.1-1.9-1.2-1.8-2.3c0.1-1.2,1.1-2,2.2-1.9l17.6,1.9c0.7,0.1,1.3,0.5,1.6,1.2s0.3,1.4-0.1,2.1l-8.2,14.1
					C566,158.7,565.1,159.1,564.2,158.8z"/>
			</g>
		</g>
		<g>
			<g>
				<g>
					<ellipse class="st3" cx="530.3" cy="162" rx="3.9" ry="4.1"/>
				</g>
			</g>
			<g>
				<g>
					<path class="st2" d="M530.3,167.8c-3,0-5.5-2.6-5.5-5.8s2.5-5.8,5.5-5.8s5.5,2.6,5.5,5.8C535.7,165.2,533.3,167.8,530.3,167.8z
						 M530.3,159.6c-1.3,0-2.3,1.1-2.3,2.4s1,2.4,2.3,2.4s2.3-1.1,2.3-2.4S531.5,159.6,530.3,159.6z"/>
				</g>
			</g>
		</g>
		<g>
			<g>
				<g>
					<ellipse class="st3" cx="527.4" cy="194.6" rx="6.7" ry="7.1"/>
				</g>
			</g>
			<g>
				<g>
					<path class="st2" d="M527.4,204.7c-5.2,0-9.4-4.5-9.4-10.1s4.2-10.1,9.4-10.1s9.4,4.5,9.4,10.1
						C536.8,200.1,532.6,204.7,527.4,204.7z M527.4,190.4c-2.2,0-3.9,1.9-3.9,4.2s1.8,4.2,3.9,4.2c2.2,0,3.9-1.9,3.9-4.2
						S529.5,190.4,527.4,190.4z"/>
				</g>
			</g>
		</g>
		<g>
			<g>
				<g>
					<ellipse class="st3" cx="484.5" cy="195.3" rx="4.4" ry="4.7"/>
				</g>
			</g>
			<g>
				<g>
					<path class="st2" d="M484.5,201.9c-3.4,0-6.2-3-6.2-6.6s2.8-6.6,6.2-6.6s6.2,3,6.2,6.6C490.7,199,487.9,201.9,484.5,201.9z
						 M484.5,192.6c-1.4,0-2.6,1.2-2.6,2.7s1.1,2.7,2.6,2.7s2.6-1.2,2.6-2.7C487,193.8,485.9,192.6,484.5,192.6z"/>
				</g>
			</g>
		</g>
		<g>
			<g>
				<g>
					<ellipse class="st3" cx="439.5" cy="225.9" rx="4.4" ry="4.7"/>
				</g>
			</g>
			<g>
				<g>
					<path class="st2" d="M439.5,232.5c-3.4,0-6.2-3-6.2-6.6s2.8-6.6,6.2-6.6s6.2,3,6.2,6.6C445.6,229.6,442.9,232.5,439.5,232.5z
						 M439.5,223.2c-1.4,0-2.6,1.2-2.6,2.7s1.1,2.7,2.6,2.7s2.6-1.2,2.6-2.7C442,224.4,440.9,223.2,439.5,223.2z"/>
				</g>
			</g>
		</g>
		<g>
			<g>
				<g>
					<ellipse class="st3" cx="483.7" cy="225.3" rx="7.2" ry="7.7"/>
				</g>
			</g>
			<g>
				<g>
					<path class="st2" d="M483.7,236.1c-5.6,0-10.1-4.9-10.1-10.8c0-6,4.5-10.8,10.1-10.8s10.1,4.9,10.1,10.8
						C493.8,231.3,489.3,236.1,483.7,236.1z M483.7,220.8c-2.3,0-4.2,2-4.2,4.5s1.9,4.5,4.2,4.5c2.3,0,4.2-2,4.2-4.5
						C487.9,222.8,486,220.8,483.7,220.8z"/>
				</g>
			</g>
		</g>
	</g>
	<g>
		<g>
			<g>
				<g>
					<ellipse class="st4" cx="544.9" cy="366.7" rx="68.8" ry="73.5"/>
				</g>
			</g>
			<g>
				<g>
					<ellipse class="st3" cx="544.9" cy="366.7" rx="56" ry="59.9"/>
				</g>
			</g>
			<g>
				<g>
					<ellipse class="st4" cx="544.9" cy="366.7" rx="43.5" ry="46.6"/>
				</g>
			</g>
			<g>
				<g>
					<ellipse class="st3" cx="544.9" cy="366.7" rx="29.8" ry="31.9"/>
				</g>
			</g>
			<g>
				<g>
					<ellipse class="st4" cx="544.9" cy="366.7" rx="18.7" ry="20"/>
				</g>
			</g>
		</g>
		<g>
			<g>
				<g>
					<polygon class="st2" points="621.5,288.6 620.8,282.1 625.2,277.7 625.4,280.8 627,276 631.1,271.8 630.4,279.6 637.5,278.4 
						631.4,284.7 627.2,285.2 630.3,286.6 626.6,290.3 					"/>
				</g>
			</g>
			<g>
				<g>
					<path class="st5" d="M635.3,274.6c0.2-0.2,0.2-0.5,0-0.7s-0.5-0.2-0.7,0l-77.3,78.2c-0.2,0.2-0.2,0.5,0,0.8
						c0.2,0.2,0.5,0.2,0.7,0L635.3,274.6L635.3,274.6z"/>
				</g>
			</g>
			<g>
				<g>
					<polygon class="st6" points="557.9,352.1 563,353 545.8,364.8 557,346.3 					"/>
				</g>
			</g>
		</g>
		<g>
			<g>
				<polygon class="st4" points="549.8,364.6 546.1,361.3 541.6,365.4 544,367.8 				"/>
			</g>
		</g>
	</g>
	<g>
		<g>
			<path class="st7" d="M147.1,420.9c-32.7-2.1-63-23.5-81.4-52.6C38,324.6,26.9,253.6,60.1,209.8c32.1-42.5,90.9-46.4,136.4-29.4
				c31.9,12,59.9,37.5,72.8,71c30,78.2-43.7,172-119.3,169.6C149,421,148,420.9,147.1,420.9z"/>
		</g>
	</g>
	<g>
		<g>
			<g>
				<g>
					<g>
						<path class="st8" d="M221.1,202.7c14,0,14.4,13.1,14.4,18.7h-50.6l17.4-12.2L221.1,202.7z"/>
					</g>
				</g>
				<g>
					<g>
						<g>
							<path class="st9" d="M186.2,221.4H235c0-7.5-1.8-18.3-13.9-18.4l-18.6,6.4L186.2,221.4z"/>
						</g>
					</g>
				</g>
			</g>
		</g>
		<g>
			<g>
				<g>
					<path class="st8" d="M224.3,202.8c-9.8,0-14.9,6.1-14.9,25.1s0,149.9,0,149.9s-2.8,20.7-22.4,20.7s-103.9,0-103.9,0
						s21.7-7.8,21.7-20.7s0-149.9,0-149.9s-1.2-25.1,13.5-25.1C133.1,202.8,224.3,202.8,224.3,202.8z"/>
				</g>
			</g>
		</g>
		<g>
			<g>
				<g>
					<path class="st9" d="M67.5,383.6c0.3,3.2,2.2,12.9,14.2,14.9c4.3,0.7,16.1,1.1,35,1.1l0,0c26.4,0,59.8-0.8,73.4-1.1
						c-4.9-2.1-11.2-6.3-11.6-14.8h-111V383.6z"/>
				</g>
			</g>
		</g>
		<g>
			<g>
				<path class="st9" d="M188.5,240.1c0,1-0.8,1.9-1.7,1.9h-66.2c-1,0-1.7-0.8-1.7-1.9l0,0c0-1,0.8-1.9,1.7-1.9h66.2
					C187.7,238.2,188.5,239,188.5,240.1L188.5,240.1z"/>
			</g>
		</g>
		<g>
			<g>
				<path class="st9" d="M188.5,260.6c0,1-0.8,1.9-1.7,1.9h-66.2c-1,0-1.7-0.8-1.7-1.9l0,0c0-1,0.8-1.9,1.7-1.9h66.2
					C187.7,258.7,188.5,259.6,188.5,260.6L188.5,260.6z"/>
			</g>
		</g>
		<g>
			<g>
				<path class="st9" d="M188.5,269.9c0,1-0.8,1.9-1.7,1.9h-66.2c-1,0-1.7-0.8-1.7-1.9l0,0c0-1,0.8-1.9,1.7-1.9h66.2
					C187.7,268,188.5,268.9,188.5,269.9L188.5,269.9z"/>
			</g>
		</g>
		<g>
			<g>
				<path class="st9" d="M150.2,249.4c0,1-0.8,1.9-1.7,1.9h-22.7c-1,0-1.7-0.8-1.7-1.9l0,0c0-1,0.8-1.9,1.7-1.9h22.7
					C149.4,247.5,150.2,248.4,150.2,249.4L150.2,249.4z"/>
			</g>
		</g>
		<g>
			<g>
				<path class="st9" d="M181.6,249.4c0,1-0.8,1.9-1.7,1.9h-22.7c-1,0-1.7-0.8-1.7-1.9l0,0c0-1,0.8-1.9,1.7-1.9h22.7
					C180.8,247.5,181.6,248.4,181.6,249.4L181.6,249.4z"/>
			</g>
		</g>
		<g>
			<g>
				<path class="st9" d="M188.5,286.7c0,1-0.8,1.9-1.7,1.9h-66.2c-1,0-1.7-0.8-1.7-1.9l0,0c0-1,0.8-1.9,1.7-1.9h66.2
					C187.7,284.8,188.5,285.7,188.5,286.7L188.5,286.7z"/>
			</g>
		</g>
		<g>
			<g>
				<path class="st9" d="M188.5,307.2c0,1-0.8,1.9-1.7,1.9h-66.2c-1,0-1.7-0.8-1.7-1.9l0,0c0-1,0.8-1.9,1.7-1.9h66.2
					C187.7,305.3,188.5,306.2,188.5,307.2L188.5,307.2z"/>
			</g>
		</g>
		<g>
			<g>
				<path class="st9" d="M188.5,316.5c0,1-0.8,1.9-1.7,1.9h-66.2c-1,0-1.7-0.8-1.7-1.9l0,0c0-1,0.8-1.9,1.7-1.9h66.2
					C187.7,314.6,188.5,315.5,188.5,316.5L188.5,316.5z"/>
			</g>
		</g>
		<g>
			<g>
				<path class="st9" d="M150.2,296c0,1-0.8,1.9-1.7,1.9h-22.7c-1,0-1.7-0.8-1.7-1.9l0,0c0-1,0.8-1.9,1.7-1.9h22.7
					C149.4,294.1,150.2,295,150.2,296L150.2,296z"/>
			</g>
		</g>
		<g>
			<g>
				<path class="st9" d="M181.6,296c0,1-0.8,1.9-1.7,1.9h-22.7c-1,0-1.7-0.8-1.7-1.9l0,0c0-1,0.8-1.9,1.7-1.9h22.7
					C180.8,294.1,181.6,295,181.6,296L181.6,296z"/>
			</g>
		</g>
		<g>
			<g>
				<path class="st9" d="M188.5,325.8c0,1-0.8,1.9-1.7,1.9h-66.2c-1,0-1.7-0.8-1.7-1.9l0,0c0-1,0.8-1.9,1.7-1.9h66.2
					C187.7,324,188.5,324.8,188.5,325.8L188.5,325.8z"/>
			</g>
		</g>
		<g>
			<g>
				<path class="st9" d="M150.2,337c0,1-0.8,1.9-1.7,1.9h-22.7c-1,0-1.7-0.8-1.7-1.9l0,0c0-1,0.8-1.9,1.7-1.9h22.7
					C149.4,335.2,150.2,336,150.2,337L150.2,337z"/>
			</g>
		</g>
		<g>
			<g>
				<path class="st9" d="M181.6,337c0,1-0.8,1.9-1.7,1.9h-22.7c-1,0-1.7-0.8-1.7-1.9l0,0c0-1,0.8-1.9,1.7-1.9h22.7
					C180.8,335.2,181.6,336,181.6,337L181.6,337z"/>
			</g>
		</g>
		<g class="st10">
			<g>
				<g>
					<path class="st11" d="M153.9,353.8l-0.6,0.2c-3.2-7.5-11.1-11.7-18.8-9.6s-12.7,9.8-12.1,18.1l-0.8,0.2l1.6,6.7l0.9-0.3
						c3.4,7,11,10.9,18.5,8.9s12.4-9.4,12.2-17.3l0.8-0.2L153.9,353.8z M135.2,347.4c6.1-1.7,12.4,1.5,15.1,7.3l-0.8,0.2
						c-2.6-5.3-8.4-8.3-14.1-6.7c-5.7,1.6-9.5,7.1-9.4,13.2l-0.8,0.2C125.1,355.1,129.1,349.1,135.2,347.4z M128.3,360.8
						c0.2-4.7,3.2-8.9,7.7-10.2c4.5-1.2,9,0.9,11.3,5L128.3,360.8z M148.6,362.4c-0.5,4.4-3.4,8.2-7.6,9.4
						c-4.2,1.2-8.5-0.7-10.9-4.3L148.6,362.4z M141.8,374.9c-5.9,1.6-11.9-1.3-14.8-6.6l0.8-0.2c2.8,4.9,8.3,7.5,13.8,6
						s9.1-6.6,9.4-12.4l0.8-0.2C151.6,367.7,147.7,373.3,141.8,374.9z"/>
				</g>
			</g>
		</g>
		<g>
			<g>
				<path class="st12" d="M115.9,377.4c-0.2,0-0.4-0.1-0.5-0.2c-0.3-0.2-0.4-0.6-0.4-0.8c-0.8-3.3-0.2-7,1.6-9.8
					c0.3-0.4,0.6-0.9,1.2-1.2c0.4-0.2,0.8-0.2,1.2,0c0.1-0.6,0.2-1.1,0.3-1.7c0.5-2.5,0.9-5.2,0.3-7.7l-5.9,13.2
					c-0.1,0.2-0.3,0.3-0.5,0.2c-0.2-0.1-0.3-0.3-0.2-0.5l6.3-14.1c0.1-0.1,0.2-0.2,0.3-0.2c0.1,0,0.3,0.1,0.3,0.3c1,2.9,0.5,6,0,9
					c-0.1,0.6-0.2,1.3-0.4,1.9c0.2,0.2,0.4,0.4,0.6,0.6c0.3,0.5,0.5,1.1,0.6,1.6l1.4-2.1c0.2-0.3,0.8-1.2,1.6-1
					c0.4,0.1,0.7,0.4,0.9,0.8c1.3-0.4,2.8,0,3.8,1.1c0.2-0.7,0.6-1.4,1.1-1.7c0.3-0.2,0.7-0.3,1.1-0.1c0.5,0.2,0.8,0.7,1.1,1.1
					c0.2,0.2,0.3,0.5,0.5,0.7c0.7,0.7,1.9,0.3,3.6-1.1c2.1-1.8,4.4-3.2,6.9-4.1c1.1-0.4,1.9-0.3,2.4,0.3c0.1,0.2,0.1,0.4-0.1,0.5
					c-0.2,0.1-0.4,0.1-0.5-0.1c-0.3-0.5-1.2-0.2-1.5-0.1c-2.4,0.9-4.6,2.3-6.6,4c-0.7,0.6-3,2.6-4.6,1.1c-0.2-0.2-0.4-0.5-0.6-0.8
					c-0.2-0.4-0.4-0.7-0.7-0.8c-0.2-0.1-0.4,0-0.5,0.1c-0.5,0.3-0.8,1.2-1,1.9c0,0.2-0.1,0.3-0.3,0.3c-0.1,0-0.3,0-0.4-0.2
					c-0.7-1.2-2.2-1.7-3.5-1.4c0.2,1.9-0.8,3.8-2.3,4.6c-0.1,0.1-0.2,0.1-0.3,0c-0.1,0-0.2-0.1-0.2-0.2c-0.5-1.8,0.4-4,2-4.8
					c-0.1-0.2-0.2-0.3-0.3-0.3c-0.2-0.1-0.5,0.2-0.8,0.7l-1.9,2.9c-0.1,0.1-0.2,0.2-0.4,0.2c-0.1,0-0.3-0.2-0.3-0.3
					c-0.1-0.8-0.2-1.6-0.7-2.2c0-0.1-0.1-0.1-0.2-0.2c-0.6,3.1-1.3,6.2-2.2,9.2c-0.2,0.6-0.6,1.3-1.1,1.5
					C116.1,377.4,116,377.4,115.9,377.4z M118.3,366.1c-0.1,0-0.2,0-0.4,0.1c-0.3,0.1-0.6,0.5-0.8,0.9c-1.7,2.6-2.2,6.1-1.5,9.2
					c0,0.2,0.1,0.3,0.2,0.4c0.1,0,0.1,0,0.1,0c0.2-0.1,0.5-0.5,0.6-0.9c0.8-3.1,1.6-6.3,2.2-9.5
					C118.6,366.1,118.5,366.1,118.3,366.1z M124,366.8c-1,0.7-1.7,2-1.5,3.3C123.5,369.4,124.1,368.1,124,366.8z"/>
			</g>
		</g>
		<g>
			<g>
				<g>
					<polygon class="st13" points="188.9,340.2 176.6,339 173.5,373.7 180.1,367.8 185.8,374.9 					"/>
				</g>
			</g>
			<g>
				<g>
					<polygon class="st14" points="193.4,336.3 182,341.3 194.2,373.6 197.6,365.1 205.7,368.6 					"/>
				</g>
			</g>
			<g>
				<g>
					<ellipse class="st15" cx="183.2" cy="330.3" rx="16.7" ry="17.9"/>
				</g>
			</g>
			<g class="st16">
				<g>
					<path class="st15" d="M194.5,317.1c-1.7-1.7-3.7-2.9-5.9-3.7l-4.4,7.6l-2.3-8.5c-1.1,0.1-2.3,0.3-3.4,0.7
						c-1.1,0.3-2.2,0.8-3.2,1.4l2.2,8.1l-7.2-3.7c-1.5,1.9-2.6,4.1-3.2,6.5l7.4,3.9l-8,2.5c0.1,1.2,0.3,2.4,0.6,3.6s0.8,2.3,1.3,3.4
						l6.7-2.1l-3.7,6.4c1.6,1.7,3.6,3.1,5.7,4l4.7-8.2l2.5,9.3c1.1-0.1,2.3-0.3,3.4-0.7c1.1-0.3,2.2-0.8,3.2-1.4l-2.6-9.7l8.4,4.3
						c1.3-2,2.3-4.3,2.8-6.7l-6-3.1l6.4-2c-0.1-1.2-0.3-2.4-0.6-3.6s-0.8-2.3-1.3-3.4l-7.6,2.4L194.5,317.1z"/>
				</g>
			</g>
			<g>
				<g>
					<ellipse class="st3" cx="183.2" cy="330.3" rx="11.4" ry="12.2"/>
				</g>
			</g>
		</g>
		<g>
			<g>
				<path class="st12" d="M131.6,227.3h-1.1v-11.1h3.2c1.1,0,1.9,0.2,2.5,0.7s0.9,1.2,0.9,2.2c0,0.8-0.2,1.4-0.7,2
					c-0.5,0.5-1.1,0.8-2,0.9l3,5.3h-1.3l-2.9-5.2h-1.8v5.2H131.6z M131.6,221.1h1.9c0.5,0,0.9-0.1,1.2-0.2c0.3-0.1,0.6-0.2,0.8-0.4
					s0.3-0.4,0.4-0.6c0.1-0.2,0.1-0.5,0.1-0.8s0-0.5-0.1-0.7s-0.2-0.4-0.4-0.6c-0.2-0.2-0.5-0.3-0.8-0.4c-0.3-0.1-0.7-0.1-1.2-0.1
					h-1.9V221.1z"/>
			</g>
			<g>
				<path class="st12" d="M139.6,223.9c0,0.4,0.1,0.7,0.2,1c0.1,0.3,0.3,0.6,0.5,0.8s0.5,0.4,0.8,0.6s0.6,0.2,1,0.2
					c0.5,0,1-0.1,1.3-0.4c0.4-0.3,0.7-0.6,0.9-0.9l0.7,0.7c-0.4,0.6-0.9,1-1.4,1.2s-1,0.4-1.6,0.4c-0.5,0-1-0.1-1.4-0.3
					s-0.8-0.5-1.1-0.8s-0.6-0.8-0.7-1.2c-0.2-0.5-0.3-1-0.3-1.5c0-0.6,0.1-1.1,0.3-1.5c0.2-0.5,0.4-0.9,0.7-1.2s0.7-0.6,1.1-0.8
					c0.4-0.2,0.9-0.3,1.4-0.3s1,0.1,1.4,0.3s0.8,0.5,1,0.8c0.3,0.3,0.5,0.7,0.6,1.2c0.1,0.4,0.2,0.9,0.2,1.4v0.5h-5.6V223.9z
					 M144.3,223.1c0-0.7-0.2-1.3-0.6-1.7c-0.4-0.4-0.9-0.7-1.6-0.7c-0.3,0-0.6,0.1-0.9,0.2c-0.3,0.1-0.6,0.3-0.8,0.5
					s-0.4,0.5-0.5,0.8s-0.2,0.6-0.2,0.9H144.3z"/>
			</g>
			<g>
				<path class="st12" d="M147.4,219.9l1.6,6l0,0l1.8-6h1l1.8,6l0,0l1.6-6h1.1l-2.2,7.4H153l-1.8-6l0,0l-1.8,6h-1.1l-2.2-7.4H147.4z
					"/>
			</g>
			<g>
				<path class="st12" d="M162.1,222.8v-0.2c0-1.3-0.6-1.9-1.8-1.9c-0.8,0-1.5,0.3-2.1,0.9l-0.6-0.7c0.6-0.7,1.6-1.1,2.9-1.1
					c0.3,0,0.7,0.1,1,0.2c0.3,0.1,0.6,0.3,0.8,0.5s0.4,0.5,0.5,0.8s0.2,0.7,0.2,1.2v3.3c0,0.3,0,0.6,0,0.9c0,0.3,0.1,0.6,0.1,0.8
					h-0.9c0-0.2-0.1-0.4-0.1-0.6c0-0.2,0-0.4,0-0.6l0,0c-0.3,0.5-0.6,0.8-1,1.1c-0.4,0.2-0.9,0.3-1.4,0.3c-0.3,0-0.6,0-0.9-0.1
					c-0.3-0.1-0.5-0.2-0.8-0.4c-0.2-0.2-0.4-0.4-0.5-0.7s-0.2-0.6-0.2-0.9c0-0.6,0.1-1.1,0.4-1.4c0.3-0.3,0.7-0.6,1.1-0.8
					c0.4-0.2,0.9-0.3,1.4-0.3s1-0.1,1.4-0.1h0.5V222.8z M161.6,223.6c-0.2,0-0.5,0-0.9,0s-0.7,0.1-1.1,0.2c-0.3,0.1-0.6,0.3-0.9,0.5
					c-0.2,0.2-0.4,0.5-0.4,0.9c0,0.2,0,0.4,0.1,0.6c0.1,0.2,0.2,0.3,0.4,0.4c0.2,0.1,0.3,0.2,0.5,0.2s0.4,0.1,0.6,0.1
					c0.4,0,0.7-0.1,0.9-0.2c0.3-0.1,0.5-0.3,0.7-0.5s0.3-0.5,0.4-0.8c0.1-0.3,0.1-0.6,0.1-0.9v-0.5H161.6z"/>
			</g>
			<g>
				<path class="st12" d="M165.5,222.2c0-0.3,0-0.7,0-1s0-0.8,0-1.3h1v1.4l0,0c0.1-0.2,0.2-0.4,0.3-0.6c0.1-0.2,0.3-0.3,0.5-0.5
					c0.2-0.1,0.4-0.3,0.6-0.4c0.2-0.1,0.5-0.1,0.8-0.1s0.5,0,0.7,0.1l-0.2,1c-0.1-0.1-0.3-0.1-0.6-0.1c-0.4,0-0.7,0.1-1,0.2
					c-0.3,0.2-0.5,0.3-0.7,0.6c-0.2,0.2-0.3,0.5-0.4,0.8c-0.1,0.3-0.1,0.5-0.1,0.8v4.2h-1L165.5,222.2L165.5,222.2z"/>
			</g>
			<g>
				<path class="st12" d="M176.8,227.3h-1v-1.2l0,0c-0.2,0.3-0.3,0.5-0.6,0.6c-0.2,0.2-0.4,0.3-0.7,0.4c-0.2,0.1-0.5,0.2-0.7,0.3
					s-0.5,0.1-0.7,0.1c-0.5,0-1-0.1-1.5-0.3c-0.4-0.2-0.8-0.5-1.2-0.8c-0.3-0.3-0.6-0.8-0.8-1.2c-0.2-0.5-0.3-1-0.3-1.5
					c0-0.6,0.1-1.1,0.3-1.5c0.2-0.5,0.4-0.9,0.8-1.2c0.3-0.3,0.7-0.6,1.2-0.8c0.4-0.2,0.9-0.3,1.5-0.3c0.2,0,0.5,0,0.7,0.1
					s0.5,0.1,0.7,0.3c0.2,0.1,0.5,0.3,0.7,0.4c0.2,0.2,0.4,0.4,0.6,0.6l0,0v-5.8h1V227.3z M170.6,223.6c0,0.4,0.1,0.8,0.2,1.1
					c0.1,0.4,0.3,0.7,0.5,0.9c0.2,0.3,0.5,0.5,0.8,0.6c0.3,0.2,0.7,0.2,1.1,0.2c0.4,0,0.8-0.1,1.1-0.2c0.3-0.2,0.6-0.4,0.9-0.6
					c0.2-0.3,0.4-0.6,0.6-0.9c0.1-0.4,0.2-0.7,0.2-1.1c0-0.4-0.1-0.8-0.2-1.1c-0.1-0.4-0.3-0.7-0.6-0.9s-0.5-0.5-0.9-0.6
					c-0.3-0.2-0.7-0.2-1.1-0.2c-0.4,0-0.8,0.1-1.1,0.2c-0.3,0.2-0.6,0.4-0.8,0.6c-0.2,0.3-0.4,0.6-0.5,0.9
					C170.6,222.8,170.6,223.2,170.6,223.6z"/>
			</g>
		</g>
	</g>
	<g>
		<g>
			<g>
				<path class="st17" d="M296.1,292.1l-7.6-19.3c0,0-1.5-14.5,0-15.3s14.8,0.1,14.8,0.1s-1.3,8.8-2.3,18.8c0,0.1,3.1,6.1,3.1,6.1
					L296.1,292.1z"/>
			</g>
		</g>
		<g>
			<g>
				<path class="st17" d="M291.1,278.4c0,0-3.8-4.2-7.5-11.7c-1.4-2.8-7-8.1-5.2-9.1c1.8-0.9,7.6,6.7,8.2,6.5s1.4-5.6,1.4-5.6
					l3.2,8.1L291.1,278.4z"/>
			</g>
		</g>
		<g>
			<g>
				<path class="st17" d="M288.3,261.8c0,0-3.5-20.1-2-20.7c1.5-0.6,4.8,15.7,4.8,15.7s-0.5-18.2,1-18.5s3.2,18.8,3.2,18.8
					s2.7-17.5,4.1-17.4c1.4,0.2,0.2,17.8,0.2,17.8s4.4-13.4,5.7-13.3c1.3,0.2-2,13.2-2,13.2l-2,8.7L288.3,261.8z"/>
			</g>
		</g>
	</g>
	<g>
		<g>
			<path class="st18" d="M390.2,250.1c0,0-14.9,5.4-33.2,15.9c0,0,14.2,55.9,21.4,79.8l3.7,41.5l65-16.4l-1.6-36.9l-1-75.2
				c0,0-23.8-9.9-31.2-9.6C406,249.7,390.2,250.1,390.2,250.1z"/>
		</g>
	</g>
	<g>
		<g>
			<polygon class="st19" points="392.2,221.5 390.2,254.7 410.7,252.3 408.6,226.2 			"/>
		</g>
	</g>
	<g>
		<g>
			<polygon class="st18" points="413.4,249.3 410.3,245.7 398.6,250.3 390.1,247.4 385.9,255.7 399.7,254.7 412.8,253.5 			"/>
		</g>
	</g>
	<g>
		<g>
			<polygon class="st4" points="397.1,252.3 393.3,256.1 395.7,262.4 399.9,262.3 403.1,255.5 			"/>
		</g>
	</g>
	<g>
		<g>
			<polygon class="st20" points="376.7,369.8 374.6,405.1 406.1,422.2 422.1,421.6 444.8,405.6 442.2,368.1 			"/>
		</g>
	</g>
	<g>
		<g>
			<path class="st2" d="M401.9,433l2-9.3l3.4,13.4c8.9-1.4,15.1,0,24.1,0c5.5,0,10.7,0.1,16.7,0.3l3.9-40.8l-8.4-24.9l-66.8-0.7
				l-6.9,18.8l-6.3,47.9C376.8,441.7,388.7,435.4,401.9,433z"/>
		</g>
	</g>
	<g>
		<g>
			<path class="st21" d="M406.2,226.3c0,0,1.8,20.2-15.2,17.6l0.2-7.2L406.2,226.3z"/>
		</g>
	</g>
	<g>
		<g>
			<path class="st22" d="M380.6,211.4c0,0-2.6-2.4-4.1-0.9c-1.6,1.7-1.4,7.4,3.8,8.2C380.3,218.7,381.4,215.8,380.6,211.4z"/>
		</g>
	</g>
	<path class="st23" d="M380.9,195.3l-1.8,9.5l0.9,9.7l0.6,11.7l2.6,6.8c0.8,2,2.3,3.6,4.3,4.5l1.4,0.6l1.9,0.6
		c1.7,0.6,3.5,0.6,5.2-0.1l4.5-1.7l5.6-5.3l2.6-5.5l1.1-8l0.4-5.7l-1.8-10.6l-5.2,0.5h-5.4l-4.4-5.8L380.9,195.3z"/>
	<g>
		<g>
			<path class="st24" d="M400.8,215.8c0.3-1.7-0.1-3.2-0.7-3.3s-1.4,1.2-1.6,2.9c-0.3,1.7,0.1,3.2,0.7,3.3
				C399.8,218.9,400.5,217.6,400.8,215.8z"/>
		</g>
	</g>
	<g>
		<g>
			<path class="st24" d="M386.8,214.1c0.2-1.7-0.1-3.2-0.8-3.3c-0.6-0.1-1.4,1.2-1.6,2.9s0.1,3.2,0.8,3.3S386.5,215.8,386.8,214.1z"
				/>
		</g>
	</g>
	<g>
		<g class="st25">
			<g>
				<path class="st3" d="M386.2,193.3L386.2,193.3L386.2,193.3z"/>
			</g>
		</g>
	</g>
	<g>
		<g>
			<path class="st26" d="M391.2,223.7c0,0,0.1,0,0.1-0.1c0.3-0.3,0.3-0.6,0.2-1.1c-0.1-0.2-0.3-0.3-0.5-0.4c-0.1,0-0.1,0-0.2,0
				l-0.2-0.1c-0.3-0.1-0.6-0.2-0.9-0.4s-0.5-0.6-0.4-0.9c0-0.2,0.1-0.3,0.3-0.5l0,0c1.1-1.6,1.7-3.6,1.8-5.6c0-0.1-0.1-0.2-0.2-0.2
				s-0.2,0.1-0.2,0.2c0,1.9-0.6,3.8-1.7,5.4l0,0c-0.1,0.2-0.3,0.4-0.3,0.6c-0.1,0.5,0.2,1,0.5,1.3c0.3,0.2,0.6,0.4,0.9,0.5l0.2,0.1
				c0.1,0,0.1,0,0.2,0.1c0.1,0,0.3,0.1,0.3,0.2c0.1,0.3,0.1,0.5-0.1,0.7C391.1,223.5,391.1,223.6,391.2,223.7L391.2,223.7z"/>
		</g>
	</g>
	<g>
		<g>
			<path class="st27" d="M382.5,200.2c0,0-2.2,6.5-3.3,10.2c0,0-1-12.7-0.4-13.5S382.5,200.2,382.5,200.2z"/>
		</g>
	</g>
	<g>
		<g>
			<path class="st3" d="M394.6,226.6c1.3,0.3,1.5,1.6,0.9,2.8c-0.9,1.9-3.3,2.3-5.1,2c-1.8-0.3-3.8-1.5-4.2-3.6
				c-0.1-0.4-0.1-0.9,0.2-1.2c0.3-0.4,0.7-0.5,1.2-0.4c0.8,0,1.6,0.5,2.5,0.6c0.8,0.2,1.6,0.1,2.4-0.1
				C393.2,226.6,393.9,226.4,394.6,226.6z"/>
		</g>
	</g>
	<g>
		<g>
			<path class="st27" d="M404.5,210.4c-1.4-2-4.8-3.1-7-2.3c-0.5,0.2-0.6,1.1,0,1.2c1.1,0.2,2.3,0.1,3.4,0.4
				c1.1,0.3,2.1,0.9,3.2,1.2C404.4,211,404.7,210.7,404.5,210.4L404.5,210.4z"/>
		</g>
	</g>
	<g>
		<g>
			<path class="st27" d="M382.8,208.4c1.2-0.2,2.3-0.7,3.5-0.8c1-0.1,2.1,0.2,3.1,0.2c0.6,0,0.8-0.9,0.3-1.2
				c-2.1-1.1-5.5-0.7-7.3,1.1C382.2,208.1,382.5,208.5,382.8,208.4L382.8,208.4z"/>
		</g>
	</g>
	<g>
		<g>
			<path class="st27" d="M407.3,184.7c1.1,0.6,2.3,1.3,3.2,2.3c1.5,1.7,2.1,4.3,3.7,6c0.5-1,0.9-2,1.4-3c0,1-0.3,2.5,0,3.4
				s1.4,1.1,2.3,1.2c-0.8,0.1-1.6,0.3-2.4,0.4c2.5,2.8,3.8,6.9,3.2,10.8c-0.2,1.1-0.5,2.3-0.9,3.3c-0.8,2.2-2,4.3-3.2,6.4
				c-1,1.6-2.1,3.2-3.7,3.9c-0.9-1.2-1.2-2.8-1.4-4.4c-0.6-4.4-1.8-7.9-2-12.3c-5.5,2.1-10.8,1.8-16.6,0.9c1.7-0.1,3.4-0.9,4.6-2.4
				c-3.3,1.3-6.9,1.6-10.3,0.9c-1.6-0.3-3.1-0.9-4.6-1.4c-2.5-0.9-5-1.8-7-3.6c1.4-0.2,2.7-0.7,3.8-1.5c-2-0.7-4-1.5-5.3-3.2
				c4.9-1,9.6-3,13.8-5.8c1.9-1.3,3.7-2.8,5.8-3.6c1.8-0.7,3.8-0.9,5.7-0.9c1.7,0,3.4,0,5.1,0.5
				C404.1,182.9,405.7,183.8,407.3,184.7z"/>
		</g>
	</g>
	<g>
		<g>
			<g>
				<path class="st19" d="M409.7,218.2c0,0,2.4-5.6,6.4-0.7c1.6,1.9-1.3,8.2-7.2,6C408.9,223.4,407.2,221.8,409.7,218.2z"/>
			</g>
		</g>
		<g>
			<g>
				<path class="st28" d="M410.3,221.7c0.7,0.5,2.4,1.1,3.5,0.5c0.1,0,0.1-0.2,0.1-0.3s-0.1-0.1-0.2-0.1c-1.1,0.6-3-0.2-3.3-0.6
					l0.1-0.1c0.4-0.3,1-0.7,0.9-1.6c0-0.4-0.2-0.6-0.4-0.8c-0.2-0.1-0.3-0.2-0.5-0.2c0.4-0.7,1.4-2.2,2.5-2c1,0.2,1.8,0.7,2.2,1.3
					c0.5,0.8,0.4,1.7,0.4,1.7c0,0.1,0,0.2,0.1,0.2s0.2,0,0.2-0.1c0,0,0.2-1-0.4-2c-0.5-0.8-1.3-1.2-2.4-1.5c-1.6-0.3-3,2.3-3,2.5
					c0,0.1,0,0.1,0,0.2c0,0.1,0.1,0.1,0.2,0.1c0,0,0.3-0.1,0.6,0.1c0.1,0.1,0.2,0.3,0.3,0.5c0.1,0.6-0.4,1-0.7,1.2
					c-0.2,0.1-0.3,0.2-0.3,0.3s0,0.2,0.1,0.3C410.1,221.5,410.2,221.6,410.3,221.7z"/>
			</g>
		</g>
	</g>
	<g class="st29">
		<g>
			<path class="st3" d="M405.6,189.9c-0.1,0.8-1,1-1.7,1.3s-1.5,0.8-1.8,1.5c-0.4,0.7-0.2,1.8,0.4,2.2c0.5,0.3,1.1,0.3,1.5,0.7
				c0.5,0.5,0.3,1.4-0.1,1.9s-1,0.9-1.6,1.2c-0.6,0.4-1.1,0.8-1.3,1.5c-0.1,0.3-0.1,0.6,0.1,0.9c0.1,0.1,0.2,0.2,0.4,0.3
				c1.3,0.7,2.9,0.1,4.3-0.6c0.6-0.3,1.2-0.6,1.4-1.3c0.3-0.9-0.4-1.9-0.6-2.8c-0.2-1.1,0.5-2.2,1.3-2.9s1.9-1.1,2.8-1.7
				c0.2-0.1,0.4-0.3,0.5-0.5c0.2-0.4,0-0.8-0.2-1.1c-0.3-0.3-0.6-0.5-0.9-0.8c-0.9-0.8-1.1-2.2-2.1-2.9c-0.4-0.3-0.9-0.5-1.4-0.6
				c-1-0.3-2.1-0.5-3.1-0.7c-0.3,0-0.5-0.1-0.8,0.1c-0.6,0.3-0.5,1.3,0,1.8s1.1,0.6,1.7,0.9C405.2,188.6,405.8,189.2,405.6,189.9z"
				/>
		</g>
	</g>
	<g class="st29">
		<g>
			<path class="st3" d="M414.7,201.5c-0.6,0.1-1,0.6-1.4,1.2c-0.3,0.5-0.6,1.1-1,1.6c-0.3,0.4-1,0.7-1.3,0.3
				c-0.2-0.2-0.2-0.5-0.3-0.8c-0.2-0.5-0.7-0.9-0.6-1.4c0-0.5,0.5-0.8,1-0.9c0.4-0.1,0.9-0.1,1.3-0.3c0.3-0.2,0.5-0.4,0.7-0.7
				c0.5-0.6,1.1-1.3,1-2.1c0-0.1,0-0.1,0-0.2c0-0.1,0.1-0.1,0.2-0.1c0.5-0.1,1.1-0.1,1.5,0.3c0.2,0.2,0.2,0.4,0.3,0.7
				c0.1,0.4,0.1,0.7,0.2,1.1c0,0.4,0,0.8-0.2,1.1C415.6,201.5,415.1,201.4,414.7,201.5z"/>
		</g>
	</g>
	<g>
		<g>
			<polygon class="st24" points="385.4,371 425.3,374.5 425.9,366.5 386,363 			"/>
		</g>
	</g>
	<g>
		<g>
			<path class="st6" d="M401.2,363.4l9.8,0.9c1.4,0.1,2.5,1.5,2.4,3l-0.3,4.4c-0.1,1.5-1.4,2.7-2.8,2.5l-9.8-0.9
				c-1.4-0.1-2.5-1.5-2.4-3l0.3-4.4C398.6,364.4,399.8,363.2,401.2,363.4z"/>
		</g>
	</g>
	<g>
		<g>
			<path class="st12" d="M418.7,249.7c0,0,0.3,55.7-2.2,74.4l1.8,85.3c0,0,25.9,0.6,37-8.1l-8.5-48.9v-33.5c0,0-17.7-22.6-9.5-63.4
				L418.7,249.7z"/>
		</g>
	</g>
	<g>
		<g>
			<path class="st30" d="M418.3,249.7l-2,74.9l9-38.8l-3-9.9l7-23.4C429.4,252.5,422.6,250.6,418.3,249.7z"/>
		</g>
	</g>
	<g>
		<g>
			<g>
				<path class="st19" d="M457,377.2l-15.1,15.9c0,0-7.2,13.7-6,15.2s14.7,6.6,14.7,6.6s2.2-9.3,5.1-19.7c0-0.2,5.5-4.6,5.5-4.6
					L457,377.2z"/>
			</g>
		</g>
		<g>
			<g>
				<path class="st19" d="M446.6,388.7c0,0-5.4,2.5-12.1,8.2c-2.5,2.2-10.1,4.9-8.7,6.7c1.4,1.7,10.2-3.3,10.8-2.8
					c0.5,0.5-0.8,6.2-0.8,6.2l6.4-6.6L446.6,388.7z"/>
			</g>
		</g>
		<g>
			<g>
				<path class="st19" d="M437.3,403.9c0,0-11.5,18.4-10.2,19.7c1.3,1.3,11-13.5,11-13.5s-7.7,17.9-6.3,18.9
					c1.4,1,10.6-17.3,10.6-17.3s-4.3,18.6-2.8,19.1s7.2-17.6,7.2-17.6s-0.9,15.3,0.4,15.7c1.3,0.4,3.3-14,3.3-14l1.4-9.6
					L437.3,403.9z"/>
			</g>
		</g>
	</g>
	<g>
		<g>
			<path class="st18" d="M357.6,265.7c-8,3.6-34.5,38.5-34.5,38.5l-21.5-31l-13,11.1c0,0,26.1,72.3,50.2,59.4
				c8-4.3,33.1-28.9,33.1-28.9L357.6,265.7z"/>
		</g>
	</g>
	<g>
		<g>
			<path class="st18" d="M444.6,258.8c20.4,2.7,45.5,66.3,46,76s-30.4,60.9-30.4,60.9l-12.5-11l15.3-51.2l-20-25.3L444.6,258.8z"/>
		</g>
	</g>
	<g>
		<g>
			<path class="st4" d="M400.5,262.3c0,0,1.7,54.6,7.2,58.7c5.6,4.2,9.7-3.9,23.1,27.7l-3.6,14l-16.1-3.6c0,0-5.3-22.6-12.2-26.5
				c-7-3.9-3-70.3-3-70.3H400.5z"/>
		</g>
	</g>
	<g>
		<g>
			<path class="st12" d="M383.8,252.6l5.8,88.4l-6.5,66.5c0,0-8.9,5.2-17.1,1.1l3.1-48.3l-1.2-40.6c0,0,6.2-3-6.5-56.4L383.8,252.6z
				"/>
		</g>
	</g>
	<g>
		<g>
			<polygon class="st30" points="388.8,329.2 383.9,252.4 375.1,256.3 383.1,281.2 378.6,288.8 			"/>
		</g>
	</g>
	<g>
		<g>
			<g>
				<g>
					<path class="st18" d="M56.1,281.6c2.2-1.1,3.8-3.1,4.9-5.4c3.6-7.3,1.8-16.5-1.9-23.8c-3.7-7.3-9-13.5-12.9-20.7
						c-0.9-1.7-1.8-3.4-3.1-4.7s-3.4-2-5-1.2c-2.5,1.2-2.7,4.9-2.5,7.8c0.6,9.2,1.5,18.3,2.6,27.4c0.7,5.4,1.5,11.1,4.5,15.5
						C45.7,281,51.4,283.9,56.1,281.6z"/>
				</g>
			</g>
			<g>
				<g>
					<path class="st18" d="M92.6,271.5c0.4-3.6,0.2-7.9-2.5-10.1c-3.5-2.8-8.8-0.1-10.9,3.9c-2.2,4-2.4,8.9-3.4,13.4
						c-2.1,9.3-7.7,17.2-10.7,26.2c-2.6,7.8-3.1,16.2-3.5,24.5c-0.2,2.8-0.2,5.9,1.5,7.9c0.7,0.9,1.8,1.5,2.8,1.8
						c4.4,1.5,9.5-0.7,12.5-4.5s4.3-8.8,4.9-13.8c0.6-4.9,0.4-9.9,1-14.9C85.8,294.2,91.2,283.3,92.6,271.5z"/>
				</g>
			</g>
			<g>
				<g>
					<path class="st18" d="M23.7,260.8c-1.3-0.8-2.8-1.3-4.3-1c-1.2,0.3-2.2,1-3,2c-2.3,2.8-2.6,7-1.7,10.6s2.7,6.9,4.4,10.1
						c1.9,3.8,3.5,7.7,5.2,11.6c1.8,4.1,3.8,8.5,7.6,10.5c2.8,1.5,6.3,1.4,9-0.2c2.7-1.6,4.6-4.8,4.8-8.1c0.3-4.2-1.9-8.2-4.5-11.4
						c-2.6-3.2-5.7-5.9-8-9.5C30,270.4,28.5,263.8,23.7,260.8z"/>
				</g>
			</g>
			<g>
				<g>
					<path class="st18" d="M44.9,368c-0.7,2.4-2.9,3.8-5.1,4.7c-4.3,1.7-9,1.8-13.5,0.9c-8.7-1.8-16.7-7.3-21.8-15.1
						c-1.2-1.8-2.2-3.9-1.9-6s1.8-3.8,3.5-4.7c1.7-1,3.7-1.3,5.6-1.6c4.8-0.8,9.7-1.7,14.5-0.9c8.7,1.5,16.3,8.8,18.6,17.8
						C45.1,364.7,45.4,366.4,44.9,368z"/>
				</g>
			</g>
			<g>
				<g>
					<path class="st18" d="M89.6,342.5c-5.7,5.2-13.1,7.7-19.4,12c-2.9,2-5.8,4.5-7,8c-2,5.5,1,12.4,6.2,14.3
						c1.3,0.5,2.8,0.7,4.2,0.4c2.1-0.5,3.9-2.1,5.4-3.9c6.4-7.3,10.4-16.7,17-23.7c1.3-1.4,2.8-2.7,3.6-4.5c0.8-1.8,0.9-4.2-0.4-5.6
						s-3.5-1.4-5.2-0.5C92.3,339.8,91,341.2,89.6,342.5z"/>
				</g>
			</g>
			<g>
				<g>
					<path class="st31" d="M53.5,406.1L53.5,406.1c-0.3,0-0.4-0.2-0.4-0.5c7.3-54.9,5.1-110.1-6.6-164c0-0.2,0.1-0.4,0.3-0.5
						c0.2,0,0.4,0.1,0.4,0.3c11.7,54.1,14,109.4,6.6,164.3C53.9,405.9,53.7,406.1,53.5,406.1z"/>
				</g>
			</g>
			<g>
				<g>
					<path class="st31" d="M57.6,328.6c-0.2,0-0.3-0.1-0.3-0.3c-3.3-9.7-8.1-18.7-14.1-26.8c-1.6-2.1-3.2-4.2-4.9-6.2
						c-5.1-6.3-10.3-12.8-12.8-20.8c-0.1-0.2,0-0.4,0.2-0.5s0.4,0,0.5,0.3c2.4,7.8,7.6,14.3,12.7,20.6c1.6,2,3.3,4.1,4.9,6.2
						c6.1,8.2,10.8,17.2,14.2,27c0.1,0.2,0,0.4-0.2,0.5C57.7,328.6,57.7,328.6,57.6,328.6z"/>
				</g>
			</g>
			<g>
				<g>
					<path class="st31" d="M55.7,385.2C55.6,385.2,55.6,385.2,55.7,385.2c-0.2,0-0.4-0.2-0.4-0.4c-0.3-6.5-3.9-13.1-9.9-18
						c-5.4-4.4-11.9-7-18.2-9.5c-5.3-2.1-9.6-3-12.5-2.5c-0.2,0-0.4-0.1-0.4-0.3c0-0.2,0.1-0.4,0.3-0.4c3.1-0.5,7.4,0.4,12.9,2.5
						c6.3,2.5,12.9,5.2,18.4,9.6c5.7,4.6,9.2,10.6,10.1,16.7c3.6-8.8,19-24.9,34.7-35.8c0.2-0.1,0.4-0.1,0.5,0.1s0.1,0.4-0.1,0.5
						c-16.7,11.6-33,29-34.9,37.1C56,385.1,55.8,385.2,55.7,385.2z"/>
				</g>
			</g>
			<g>
				<g>
					<path class="st31" d="M56.7,374.6L56.7,374.6c-0.3-0.1-0.4-0.3-0.4-0.5c3.3-16.9,7.8-33.9,12.7-48c2.1-6.1,4.4-12.3,6.6-18.2
						c3.4-9.1,6.9-18.5,9.9-27.9c0.1-0.2,0.3-0.3,0.5-0.2c0.2,0.1,0.3,0.3,0.2,0.5c-3,9.4-6.5,18.8-9.9,28c-2.2,6-4.5,12.1-6.6,18.2
						c-4.9,14-9.4,31-12.7,47.9C57,374.5,56.9,374.6,56.7,374.6z"/>
				</g>
			</g>
			<g>
				<g>
					<path class="st31" d="M52.8,274.4c-0.1,0-0.1,0-0.2-0.1c-3.3-2-6.6-4.2-9.8-6.5c-0.2-0.1-0.2-0.4-0.1-0.6
						c0.1-0.2,0.3-0.2,0.5-0.1c3.1,2.2,6.2,4.3,9.4,6.2l5-14.5c0.1-0.2,0.3-0.3,0.5-0.2c0.2,0.1,0.3,0.3,0.2,0.5l-5.1,15
						c0,0.1-0.1,0.2-0.2,0.2C52.9,274.4,52.9,274.4,52.8,274.4z"/>
				</g>
			</g>
			<g>
				<g>
					<path class="st31" d="M49.8,255.7c-0.1,0-0.1,0-0.2-0.1c-3.7-2.5-7-5.6-9.7-9.3c-0.1-0.2-0.1-0.4,0.1-0.6
						c0.2-0.1,0.4-0.1,0.5,0.1c2.5,3.5,5.6,6.5,9.1,8.8c0.8-2.7,1.6-5.4,2.5-8c0.1-0.2,0.3-0.3,0.5-0.2s0.3,0.3,0.2,0.5
						c-1,2.8-1.9,5.7-2.6,8.5c0,0.1-0.1,0.2-0.2,0.3C49.9,255.7,49.8,255.7,49.8,255.7z"/>
				</g>
			</g>
			<g>
				<g>
					<path class="st31" d="M46.9,241.7c-0.1,0-0.2,0-0.2-0.1c-2.7-2.3-5.3-5-7.5-7.8c-0.1-0.2-0.1-0.4,0-0.6c0.2-0.1,0.4-0.1,0.5,0
						c2.2,2.7,4.5,5.2,7.1,7.4c0.3-0.7,0.5-1.5,0.8-2.2c0.1-0.4,0.3-0.8,0.4-1.3c0.1-0.2,0.3-0.3,0.4-0.2c0.2,0.1,0.3,0.3,0.3,0.5
						l-0.1,0.3c0,0.1-0.1,0.2-0.1,0.2c-0.1,0.3-0.2,0.5-0.2,0.8c-0.3,1-0.6,1.9-1,2.8C47.2,241.6,47.1,241.7,46.9,241.7L46.9,241.7z
						"/>
				</g>
			</g>
			<g>
				<g>
					<path class="st31" d="M39.5,296.7L39.5,296.7c-3.5,0-7-0.3-10.4-0.9c-0.2,0-0.3-0.2-0.3-0.5c0-0.2,0.2-0.4,0.4-0.3
						c3.3,0.5,6.6,0.8,9.9,0.9v-7.5c0-0.2,0.2-0.4,0.4-0.4l0,0c0.2,0,0.4,0.2,0.4,0.4v7.9c0,0.1,0,0.2-0.1,0.3
						C39.7,296.6,39.6,296.7,39.5,296.7z"/>
				</g>
			</g>
			<g>
				<g>
					<path class="st31" d="M33,288.5c-0.1,0-0.1,0-0.2,0c-4.1-2.4-7.9-5.2-11.4-8.4c-0.2-0.1-0.2-0.4,0-0.6c0.1-0.2,0.4-0.2,0.5,0
						c3.3,3,7,5.7,10.8,8c0.1-2.2,0.2-4.4,0.3-6.6c0-0.2,0.2-0.4,0.4-0.4l0,0c0.2,0,0.4,0.2,0.4,0.4c0,2.4-0.1,4.8-0.3,7.2
						c0,0.1-0.1,0.3-0.2,0.3C33.2,288.5,33.1,288.5,33,288.5z"/>
				</g>
			</g>
			<g>
				<g>
					<path class="st31" d="M67.9,331.3c-0.1,0-0.1,0-0.2,0c-0.1-0.1-0.2-0.2-0.2-0.4l0.5-22.6c0-0.2,0.2-0.4,0.4-0.4l0,0
						c0.2,0,0.4,0.2,0.4,0.4L68.4,330l11.4-11.3c0.1-0.1,0.4-0.1,0.5,0c0.1,0.2,0.1,0.4,0,0.6l-12.1,11.9
						C68,331.3,68,331.3,67.9,331.3z"/>
				</g>
			</g>
			<g>
				<g>
					<path class="st31" d="M74.4,312.7c-0.1,0-0.1,0-0.2-0.1s-0.2-0.2-0.2-0.3l-0.6-20.5c0-0.2,0.2-0.4,0.4-0.4
						c0.2,0,0.4,0.2,0.4,0.4l0.6,20l4.5-1.7c0.2-0.1,0.4,0,0.5,0.2s0,0.4-0.2,0.5l-5,1.9C74.5,312.7,74.4,312.7,74.4,312.7z"/>
				</g>
			</g>
			<g>
				<g>
					<path class="st31" d="M80.1,296.9L80.1,296.9c-0.2,0-0.4-0.2-0.4-0.4l0.1-23.7c0-0.2,0.2-0.4,0.4-0.4l0,0
						c0.2,0,0.4,0.2,0.4,0.4l-0.1,23.7C80.4,296.8,80.3,296.9,80.1,296.9z"/>
				</g>
			</g>
			<g>
				<g>
					<path class="st31" d="M77.3,369L77.3,369l-10.1-0.6c-0.1,0-0.2-0.1-0.3-0.1c-0.1-0.1-0.1-0.2-0.1-0.3l0.7-8.3
						c0-0.2,0.2-0.4,0.4-0.4c0.2,0,0.4,0.2,0.3,0.4l-0.7,7.9l9.7,0.6c0.2,0,0.4,0.2,0.3,0.4C77.6,368.8,77.5,369,77.3,369z"/>
				</g>
			</g>
			<g>
				<g>
					<path class="st31" d="M73.3,361.9c-0.1,0-0.2,0-0.3-0.1c-0.1-0.1-0.1-0.3-0.1-0.4l3-6.8c0.1-0.2,0.3-0.3,0.5-0.2
						c0.2,0.1,0.3,0.3,0.2,0.5l-2.7,6l13-4.1c0.2-0.1,0.4,0.1,0.5,0.3c0.1,0.2-0.1,0.4-0.3,0.5L73.3,361.9
						C73.4,361.9,73.4,361.9,73.3,361.9z"/>
				</g>
			</g>
			<g>
				<g>
					<path class="st31" d="M11.6,362.2c-0.1,0-0.2,0-0.3-0.1c-0.1-0.2-0.1-0.4,0-0.6c3-3,10.8-4.9,13.2-5.4l-6.7-6.7
						c-0.1-0.1-0.2-0.4,0-0.6c0.1-0.2,0.4-0.2,0.5,0l7.2,7.2c0.1,0.1,0.1,0.3,0.1,0.4s-0.2,0.3-0.3,0.3c-0.1,0-10.2,2-13.5,5.4
						C11.8,362.1,11.7,362.2,11.6,362.2z"/>
				</g>
			</g>
			<g>
				<g>
					<path class="st31" d="M21.2,367.3c-0.1,0-0.2,0-0.3-0.1c-0.1-0.2-0.1-0.4,0-0.6c0.2-0.2,5.5-5.9,11.7-7.5l-3.6-8.7
						c-0.1-0.2,0-0.4,0.2-0.5s0.4,0,0.5,0.2l3.8,9.2c0,0.1,0,0.2,0,0.3c-0.1,0.1-0.1,0.2-0.3,0.2c-6.2,1.3-11.7,7.3-11.8,7.3
						C21.4,367.2,21.3,367.3,21.2,367.3z"/>
				</g>
			</g>
		</g>
		<g>
			<g>
				<polygon class="st32" points="74,401.6 35.3,401.6 36.1,434.4 73.2,434.4 				"/>
			</g>
		</g>
		<g>
			<g>
				<path class="st33" d="M39.8,405.9h-0.4c-0.3,0-0.6,0.3-0.6,0.7V430c0,0.4,0.3,0.7,0.6,0.7h0.4c0.3,0,0.6-0.3,0.6-0.7v-23.4
					C40.4,406.2,40.2,405.9,39.8,405.9z"/>
			</g>
		</g>
		<g>
			<g>
				<path class="st33" d="M45.8,405.9h-0.4c-0.3,0-0.6,0.3-0.6,0.7V430c0,0.4,0.3,0.7,0.6,0.7h0.4c0.3,0,0.6-0.3,0.6-0.7v-23.4
					C46.4,406.2,46.1,405.9,45.8,405.9z"/>
			</g>
		</g>
		<g>
			<g>
				<path class="st33" d="M51.5,405.9h-0.4c-0.3,0-0.6,0.3-0.6,0.7V430c0,0.4,0.3,0.7,0.6,0.7h0.4c0.3,0,0.6-0.3,0.6-0.7v-23.4
					C52.1,406.2,51.8,405.9,51.5,405.9z"/>
			</g>
		</g>
		<g>
			<g>
				<path class="st33" d="M57.4,405.9H57c-0.3,0-0.6,0.3-0.6,0.7V430c0,0.4,0.3,0.7,0.6,0.7h0.4c0.3,0,0.6-0.3,0.6-0.7v-23.4
					C58,406.2,57.7,405.9,57.4,405.9z"/>
			</g>
		</g>
		<g>
			<g>
				<path class="st33" d="M63.4,405.9H63c-0.3,0-0.6,0.3-0.6,0.7V430c0,0.4,0.3,0.7,0.6,0.7h0.4c0.3,0,0.6-0.3,0.6-0.7v-23.4
					C64,406.2,63.8,405.9,63.4,405.9z"/>
			</g>
		</g>
		<g>
			<g>
				<path class="st33" d="M69.3,405.9h-0.4c-0.3,0-0.6,0.3-0.6,0.7V430c0,0.4,0.3,0.7,0.6,0.7h0.4c0.3,0,0.6-0.3,0.6-0.7v-23.4
					C70,406.2,69.7,405.9,69.3,405.9z"/>
			</g>
		</g>
	</g>
	<g>
		<g>
			<g>
				<path class="st12" d="M348.2,99.8L348.2,99.8l-2.8-0.7c-0.2,0-0.3-0.2-0.3-0.4v-3.4c-0.8-0.5-1.5-1.1-2.1-1.9l-2.6,0.9
					c-0.2,0.1-0.3,0-0.4-0.2l-1.4-2.7c-0.1-0.2-0.1-0.3,0.1-0.5l2.1-2.2c-0.3-1-0.4-2.1-0.3-3.2l-2.3-1.2c-0.1-0.1-0.2-0.3-0.2-0.4
					l0.6-3c0-0.2,0.2-0.3,0.3-0.3h2.7c0.5-0.9,1.1-1.7,1.8-2.4l0,0l-0.7-2.7c0-0.2,0-0.3,0.2-0.4l2.5-1.5c0.1-0.1,0.3-0.1,0.4,0.1
					l1.7,2.2c0.9-0.2,1.8-0.4,2.8-0.3l1.4-2.7c0.1-0.2,0.3-0.2,0.4-0.2l2.7,0.9c0.2,0.1,0.3,0.2,0.2,0.4l-0.3,3
					c0.8,0.5,1.6,1.2,2.2,2l2.6-0.9c0.2-0.1,0.3,0,0.4,0.2l1.4,2.7c0.1,0.2,0,0.3-0.1,0.5l-2.2,2.1c0.2,1,0.3,1.9,0.3,2.9l2.4,1.5
					c0.1,0.1,0.2,0.3,0.2,0.4l-0.8,3c0,0.2-0.2,0.3-0.4,0.3l-2.7-0.2c-0.5,0.9-1,1.7-1.7,2.4l0.9,2.8c0.1,0.2,0,0.3-0.1,0.4
					l-2.4,1.6c-0.1,0.1-0.3,0.1-0.4-0.1l-1.9-2.3c-0.9,0.3-1.9,0.4-2.8,0.3l-1.1,2.7C348.5,99.7,348.4,99.8,348.2,99.8z M345.9,98.4
					l2.2,0.6l1.1-2.7c0.1-0.1,0.2-0.2,0.3-0.2c1,0.1,2,0,3-0.3c0.1,0,0.3,0,0.4,0.1l1.9,2.2l1.9-1.3l-0.8-2.7c0-0.1,0-0.3,0.1-0.4
					c0.8-0.8,1.4-1.6,1.9-2.6c0.1-0.1,0.2-0.2,0.3-0.2l2.6,0.2l0.6-2.4l-2.4-1.5c-0.1-0.1-0.2-0.2-0.2-0.3c0-1-0.1-2.1-0.3-3.1
					c0-0.1,0-0.3,0.1-0.4l2.1-2.1l-1.1-2.2L357,80c-0.1,0-0.3,0-0.4-0.1l-0.1-0.2c-0.6-0.8-1.4-1.4-2.2-2c-0.1-0.1-0.2-0.2-0.2-0.4
					l0.3-3l-2.1-0.7l-1.3,2.6c-0.1,0.1-0.2,0.2-0.3,0.2c-1-0.1-2,0-3,0.3c-0.1,0-0.3,0-0.4-0.1l-1.6-2.1l-2,1.2l0.7,2.7
					c0,0.1,0,0.3-0.1,0.4l-0.2,0.1c-0.7,0.7-1.3,1.5-1.8,2.5c-0.1,0.1-0.2,0.2-0.3,0.2l0,0h-2.7l-0.5,2.4l2.2,1.2
					c0.1,0.1,0.2,0.2,0.2,0.4c-0.1,1.1,0,2.3,0.3,3.4c0,0.1,0,0.3-0.1,0.4l-2,2.1l1.1,2.1l2.5-0.9c0.1,0,0.3,0,0.4,0.1l-0.2,0.3
					l0.3-0.2c0.6,0.8,1.4,1.4,2.2,1.9c0.1,0.1,0.2,0.2,0.2,0.3V98.4z M350.2,93.7c-1.9,0-3.8-0.9-5.1-2.5c-2.5-3.1-2.3-7.8,0.4-10.5
					c1.2-1.2,2.8-1.9,4.4-1.9c1.9,0,3.8,0.9,5.1,2.5c2.5,3.1,2.3,7.8-0.4,10.5C353.4,93.1,351.9,93.7,350.2,93.7z M350,79.6
					c-1.5,0-2.9,0.6-3.9,1.7c-2.4,2.4-2.6,6.7-0.3,9.4c1.2,1.4,2.8,2.2,4.5,2.2c1.5,0,2.9-0.6,3.9-1.7c2.4-2.4,2.6-6.7,0.3-9.4
					C353.3,80.4,351.7,79.6,350,79.6z"/>
			</g>
		</g>
	</g>
	<g>
		<g>
			<g>
				<path class="st12" d="M220.3,423.3L220.3,423.3l-2.6-0.6c-0.1,0-0.2-0.2-0.2-0.3v-3.1c-0.7-0.5-1.3-1-1.9-1.7l-2.3,0.9
					c-0.1,0-0.3,0-0.4-0.2l-1.3-2.4c-0.1-0.1,0-0.3,0.1-0.4l1.9-2c-0.2-1-0.3-1.9-0.3-2.9l-2.1-1.1c-0.1-0.1-0.2-0.2-0.2-0.4
					l0.6-2.8c0-0.2,0.1-0.3,0.3-0.3h2.5c0.4-0.8,1-1.6,1.6-2.2l0,0l-0.6-2.5c0-0.2,0-0.3,0.2-0.4l2.2-1.4c0.1-0.1,0.3,0,0.4,0.1
					l1.5,2c0.8-0.2,1.7-0.3,2.5-0.3l1.3-2.4c0.1-0.1,0.2-0.2,0.4-0.2l2.4,0.8c0.1,0,0.2,0.2,0.2,0.4l-0.2,2.8c0.8,0.5,1.4,1.1,2,1.8
					l2.4-0.8c0.1,0,0.3,0,0.4,0.2l1.3,2.5c0.1,0.1,0,0.3-0.1,0.4l-2,1.9c0.2,0.9,0.3,1.7,0.3,2.6l2.2,1.4c0.1,0.1,0.2,0.2,0.2,0.4
					l-0.7,2.7c0,0.2-0.2,0.3-0.3,0.2l-2.5-0.2c-0.4,0.8-1,1.6-1.6,2.2l0.8,2.5c0,0.2,0,0.3-0.1,0.4l-2.2,1.5
					c-0.1,0.1-0.3,0.1-0.4-0.1l-1.8-2.1c-0.8,0.2-1.7,0.3-2.6,0.3l-1,2.5C220.6,423.2,220.5,423.3,220.3,423.3z M218.2,422l2,0.5
					l1-2.4c0.1-0.1,0.2-0.2,0.3-0.2c0.9,0.1,1.9,0,2.8-0.3c0.1,0,0.2,0,0.3,0.1l1.7,2l1.8-1.2l-0.8-2.5c0-0.1,0-0.3,0.1-0.4
					c0.7-0.7,1.3-1.5,1.7-2.4c0.1-0.1,0.2-0.2,0.3-0.2l2.4,0.2l0.6-2.2l-2.2-1.3c-0.1-0.1-0.2-0.2-0.2-0.3c0-0.9-0.1-1.9-0.3-2.8
					c0-0.1,0-0.3,0.1-0.3l1.9-1.9l-1-2l-2.4,0.8c-0.1,0-0.3,0-0.3-0.1l-0.1-0.2c-0.6-0.7-1.3-1.3-2-1.8c-0.1-0.1-0.2-0.2-0.2-0.3
					l0.2-2.7l-1.9-0.7l-1.2,2.4c-0.1,0.1-0.2,0.2-0.3,0.2c-0.9-0.1-1.8,0-2.7,0.3c-0.1,0-0.3,0-0.3-0.1l-1.5-1.9l-1.8,1.1l0.6,2.4
					c0,0.1,0,0.3-0.1,0.3l-0.1,0.1c-0.6,0.6-1.2,1.4-1.6,2.2c-0.1,0.1-0.2,0.2-0.3,0.2l0,0h-2.4l-0.5,2.2l2,1.1
					c0.1,0.1,0.2,0.2,0.2,0.3c-0.1,1,0,2.1,0.3,3.1c0,0.1,0,0.3-0.1,0.3l-1.9,1.9l1,2l2.3-0.8c0.1,0,0.3,0,0.4,0.1l-0.2,0.3l0.2-0.2
					c0.6,0.7,1.2,1.3,2,1.8c0.1,0.1,0.2,0.2,0.2,0.3V422z M222.1,417.7c-1.8,0-3.4-0.8-4.6-2.3c-2.3-2.8-2.1-7.1,0.4-9.6
					c1.1-1.1,2.5-1.7,4-1.7c1.8,0,3.4,0.8,4.6,2.3c2.3,2.8,2.1,7.1-0.4,9.6C225.1,417.1,223.6,417.7,222.1,417.7z M221.9,404.8
					c-1.3,0-2.6,0.5-3.6,1.5c-2.2,2.2-2.4,6.1-0.3,8.6c1.1,1.3,2.6,2,4.1,2c1.3,0,2.6-0.5,3.6-1.5c2.2-2.2,2.4-6.1,0.3-8.6
					C225,405.6,223.5,404.8,221.9,404.8z"/>
			</g>
		</g>
	</g>
	<g>
		<g>
			<g>
				<path class="st12" d="M94.3,222.4H78.8c-0.3,0-0.5-0.3-0.5-0.6v-16.6c0-0.3,0.2-0.6,0.5-0.6h15.6c0.3,0,0.5,0.3,0.5,0.6v16.6
					C94.9,222.2,94.6,222.4,94.3,222.4z M79.3,221.3h14.5v-15.5H79.3V221.3z"/>
			</g>
		</g>
		<g>
			<g>
				<path class="st12" d="M85.4,218.7c-0.1,0-0.3-0.1-0.4-0.2l-4.3-4.8c-0.2-0.2-0.2-0.6,0-0.8s0.6-0.2,0.8,0l3.8,4.3l6.9-9.8
					c0.2-0.3,0.5-0.3,0.8-0.1c0.2,0.2,0.3,0.6,0.1,0.8l-7.3,10.4C85.8,218.6,85.6,218.7,85.4,218.7L85.4,218.7z"/>
			</g>
		</g>
	</g>
	<g>
		<g>
			<path class="st8" d="M629.4,440.8H15.8c-2,0-3.7-1.8-3.7-4s1.7-4,3.7-4h613.6c2,0,3.7,1.8,3.7,4
				C633.1,439.1,631.4,440.8,629.4,440.8z"/>
		</g>
	</g>
	<g>
		<g>
			<g>
				<path class="st18" d="M426.5,148l11.3,33.3c0,0,13.1-9.4,26.3-9.1c13.3,0.3,24.8,5.2,48.4-7.9l-12.3-36.1
					c0,0-22.3,10.1-35.3,7.6C451.9,133.1,433.4,140.6,426.5,148z"/>
			</g>
		</g>
		<g>
			<g>
				<path class="st34" d="M428.6,149.2c-0.1-0.4,0-0.8,0.3-1.1c7.3-6.8,24.9-13,36.8-10.8c11.5,2.1,32.2-6.3,32.4-6.4
					c0.2-0.1,0.5-0.1,0.7,0s0.4,0.3,0.5,0.6l10.6,31l0,0c0.2,0.5,0,1-0.5,1.3c-17.9,9-28.8,8-38.4,7c-2.6-0.3-5.1-0.5-7.6-0.6
					c-11.8-0.3-23.5,7.8-23.7,7.9c-0.2,0.2-0.5,0.2-0.8,0.1c-0.3-0.1-0.5-0.3-0.6-0.6L428.6,149.2L428.6,149.2z M497.9,133.1
					c-4.2,1.7-21.8,8.1-32.5,6.1c-10.9-2-27.6,3.7-34.7,9.9l9.2,26.5c3.2-2,13.3-7.8,23.7-7.6c2.6,0.1,5.1,0.3,7.7,0.6
					c9.7,1,19.7,1.9,36.6-6.4L497.9,133.1z"/>
			</g>
		</g>
		<g>
			<g>
				<path class="st34" d="M494.7,133.3c0,0,1.3,4.5,5.4,3.3l-1.6-4.4L494.7,133.3z"/>
			</g>
		</g>
		<g>
			<g>
				<path class="st34" d="M505.2,164.2c0,0-1.6-4.3,2.2-6.3l1.4,4.5L505.2,164.2z"/>
			</g>
		</g>
		<g>
			<g>
				<path class="st34" d="M443.3,175c0,0-1.3-4.5-5.4-3.3l1.6,4.4L443.3,175z"/>
			</g>
		</g>
		<g>
			<g>
				<path class="st34" d="M433.4,145.7c0,0,1.6,4.3-2.2,6.3l-1.4-4.5L433.4,145.7z"/>
			</g>
		</g>
		<g>
			<g>
				<path class="st34" d="M456.7,154c-1.2-5.2,2-12.8,9.9-11.9c7.9,1,12.5-1.4,15.8,7.4c3.4,8.9-6.6,15.8-11.9,16.4
					C465.1,166.5,458.4,161.3,456.7,154z"/>
			</g>
		</g>
		<g>
			<g>
				<path class="st18" d="M469.3,153.5c-0.4-0.1-0.8-0.3-1.2-0.5c-0.4-0.2-0.7-0.5-1.1-0.8c-0.3-0.3-0.6-0.7-0.7-1.1
					c-0.2-0.4-0.3-0.9-0.3-1.5c0-0.5,0.1-1,0.3-1.4c0.2-0.4,0.5-0.8,0.8-1.1s0.7-0.5,1.1-0.7s0.8-0.3,1.3-0.3v-1.3h0.8v1.3
					c0.4,0,0.8,0.1,1.1,0.2c0.3,0.1,0.6,0.2,0.9,0.4s0.5,0.3,0.7,0.5s0.4,0.4,0.5,0.6l-1,0.9c-0.2-0.4-0.5-0.8-1-1
					c-0.4-0.2-0.8-0.3-1.2-0.3l-0.2,5c0.4,0.2,0.8,0.4,1.3,0.6c0.4,0.2,0.8,0.5,1.1,0.8c0.3,0.3,0.6,0.7,0.8,1.1
					c0.2,0.4,0.3,1,0.3,1.6c0,0.5-0.1,1-0.3,1.4c-0.2,0.4-0.5,0.8-0.8,1.1s-0.7,0.5-1.2,0.7c-0.4,0.2-0.9,0.3-1.4,0.3v1.3h-0.8v-1.2
					c-0.8-0.1-1.5-0.3-2.2-0.8c-0.6-0.4-1.1-0.9-1.4-1.5l1.1-0.8c0.2,0.3,0.4,0.5,0.6,0.7s0.5,0.4,0.7,0.5c0.2,0.2,0.5,0.3,0.7,0.3
					c0.2,0.1,0.4,0.1,0.6,0.1L469.3,153.5z M469.5,147.4c-0.3,0-0.6,0.1-0.9,0.2c-0.3,0.1-0.5,0.3-0.7,0.5s-0.4,0.4-0.5,0.7
					s-0.2,0.6-0.2,0.9c0,0.3,0,0.6,0.1,0.8s0.2,0.5,0.4,0.6c0.2,0.2,0.4,0.4,0.7,0.5c0.3,0.1,0.5,0.3,0.8,0.4L469.5,147.4z
					 M469.9,158.7c0.2,0,0.5,0,0.7-0.1c0.3-0.1,0.5-0.2,0.8-0.4c0.2-0.2,0.4-0.4,0.6-0.7s0.3-0.7,0.3-1.1c0-0.6-0.2-1.2-0.6-1.6
					c-0.4-0.4-1-0.8-1.6-1L469.9,158.7z"/>
			</g>
		</g>
		<g>
			<g>
				<ellipse class="st34" cx="493.4" cy="150.5" rx="4.1" ry="4.3"/>
			</g>
		</g>
		<g>
			<g>
				<ellipse class="st34" cx="443.1" cy="157.4" rx="4.1" ry="4.3"/>
			</g>
		</g>
	</g>
	<g>
		<g>
			<g>
				<path class="st18" d="M426.1,75.4l-1.5,25c0,0,10.9-2.1,19.5,2.1c8.5,4.2,14.7,10.9,33.5,9.5l1.6-27.1c0,0-17.1-0.2-24.9-5.8
					C446.5,73.4,432.6,72.7,426.1,75.4z"/>
			</g>
		</g>
		<g>
			<g>
				<path class="st34" d="M427.2,76.8c0-0.3,0.2-0.6,0.5-0.6c6.5-2.2,19.6-0.9,26.7,4.1c6.9,4.9,22.5,5.7,22.7,5.7s0.4,0.1,0.5,0.2
					s0.2,0.3,0.2,0.5l-1.3,23.3l0,0c0,0.4-0.3,0.7-0.7,0.7c-14,0.4-20.8-3.6-26.8-7.1c-1.6-1-3.1-1.9-4.8-2.7
					c-7.6-3.7-17.3-2.1-17.4-2c-0.2,0-0.4,0-0.6-0.2c-0.2-0.1-0.2-0.4-0.2-0.6L427.2,76.8L427.2,76.8z M476.3,87.3
					c-3.2-0.2-16.3-1.3-22.7-5.9c-6.6-4.6-18.9-6-25.1-4.1l-1.1,20c2.6-0.3,10.6-1,17.4,2.3c1.7,0.8,3.2,1.7,4.9,2.7
					c6,3.5,12.2,7.2,25.4,6.9L476.3,87.3z"/>
			</g>
		</g>
		<g>
			<g>
				<path class="st34" d="M474.2,86.5c0,0-0.3,3.3,2.6,3.8l0.1-3.4L474.2,86.5z"/>
			</g>
		</g>
		<g>
			<g>
				<path class="st34" d="M472.8,109.7c0,0,0.1-3.3,3.1-3.4l-0.3,3.4H472.8z"/>
			</g>
		</g>
		<g>
			<g>
				<path class="st34" d="M429.8,98c0,0,0.3-3.3-2.6-3.8l-0.1,3.4L429.8,98z"/>
			</g>
		</g>
		<g>
			<g>
				<path class="st34" d="M431.2,76c0,0-0.1,3.3-3.1,3.4l0.3-3.4H431.2z"/>
			</g>
		</g>
		<g>
			<g>
				<path class="st34" d="M444.1,88.4c0.6-3.7,4.7-7.7,9.6-4.7s8.4,2.8,8.3,9.6c-0.1,6.8-8.4,8.3-12.1,7
					C446.2,99.1,443.3,93.7,444.1,88.4z"/>
			</g>
		</g>
		<g>
			<g>
				<path class="st18" d="M452.3,91.9c-0.2-0.2-0.4-0.4-0.6-0.7c-0.2-0.3-0.4-0.5-0.5-0.8s-0.2-0.6-0.2-0.9s0.1-0.7,0.2-1
					c0.2-0.3,0.4-0.6,0.6-0.8c0.3-0.2,0.5-0.4,0.8-0.5s0.6-0.1,0.9-0.1s0.6,0.1,0.9,0.2l0.4-0.8l0.5,0.3l-0.4,0.8
					c0.3,0.1,0.5,0.3,0.7,0.5s0.3,0.3,0.5,0.5c0.1,0.2,0.2,0.4,0.3,0.6c0.1,0.2,0.1,0.4,0.2,0.6l-0.9,0.2c0-0.4-0.2-0.7-0.4-0.9
					c-0.2-0.3-0.4-0.5-0.7-0.6l-1.4,3.2c0.2,0.2,0.4,0.5,0.7,0.8c0.2,0.3,0.4,0.6,0.5,0.9s0.2,0.6,0.2,1c0,0.3-0.1,0.7-0.3,1.1
					c-0.2,0.3-0.3,0.6-0.6,0.8c-0.2,0.2-0.5,0.4-0.8,0.5s-0.6,0.1-0.9,0.1s-0.7-0.1-1-0.2l-0.4,0.8l-0.5-0.3l0.4-0.8
					c-0.5-0.3-0.9-0.7-1.2-1.1c-0.3-0.5-0.5-0.9-0.5-1.4l0.9-0.2c0,0.2,0.1,0.4,0.2,0.6s0.2,0.4,0.3,0.6c0.1,0.2,0.2,0.3,0.3,0.4
					c0.1,0.1,0.2,0.2,0.4,0.3L452.3,91.9z M451.4,95.5c0.1,0.1,0.3,0.1,0.5,0.2c0.2,0,0.4,0,0.6,0s0.4-0.1,0.6-0.3
					c0.2-0.1,0.3-0.4,0.5-0.7c0.2-0.4,0.2-0.8,0.1-1.2c-0.2-0.4-0.4-0.8-0.8-1.2L451.4,95.5z M454.1,88c-0.2-0.1-0.4-0.1-0.6-0.1
					s-0.4,0-0.6,0.1s-0.3,0.2-0.5,0.3c-0.2,0.1-0.3,0.3-0.4,0.5s-0.1,0.4-0.1,0.6s0,0.4,0.1,0.5c0.1,0.2,0.2,0.4,0.3,0.5
					c0.1,0.2,0.3,0.3,0.4,0.5L454.1,88z"/>
			</g>
		</g>
		<g>
			<g>
				<path class="st34" d="M468.6,100.3c1.6,0.1,2.9-1.2,3-2.9s-1.1-3.1-2.7-3.3c-1.6-0.1-2.9,1.2-3,2.9S467,100.2,468.6,100.3z"/>
			</g>
		</g>
		<g>
			<g>
				<path class="st34" d="M434.2,89.5c1.6,0.1,2.9-1.2,3-2.9c0.1-1.7-1.1-3.1-2.7-3.3c-1.6-0.1-2.9,1.2-3,2.9
					C431.4,88,432.6,89.4,434.2,89.5z"/>
			</g>
		</g>
	</g>
	<g>
		<g>
			<g>
				<path class="st12" d="M528.8,284.9c-10.8,0-19.8-9.4-19.9-21c-0.1-5.7,2-11.1,5.7-15.1c3.7-4.1,8.7-6.3,14-6.4h0.2
					c10.9,0,19.8,9.4,19.9,21c0.1,5.7-2,11.1-5.7,15.1c-3.7,4.1-8.7,6.3-14,6.4H528.8z M528.8,243.6h-0.2c-5,0.1-9.7,2.2-13.2,6
					s-5.4,8.9-5.4,14.3c0.1,11,8.5,19.9,18.8,19.9h0.2c5-0.1,9.7-2.2,13.2-6s5.4-8.9,5.4-14.3C547.5,252.5,539.1,243.6,528.8,243.6z
					"/>
			</g>
		</g>
		<g>
			<g>
				<path class="st12" d="M529,281.5c-9.1,0-16.6-7.9-16.7-17.6c-0.1-9.8,7.3-17.9,16.5-18h0.2c9.1,0,16.6,7.9,16.7,17.6
					c0.1,9.8-7.3,17.9-16.5,18H529z M529,247h-0.2c-8.6,0.1-15.5,7.6-15.4,16.8c0.1,9.1,7.1,16.5,15.6,16.5h0.2
					c8.6-0.1,15.5-7.6,15.4-16.8C544.5,254.4,537.5,247,529,247z"/>
			</g>
		</g>
		<g>
			<g>
				<path class="st12" d="M527.7,277.2c-0.1,0-0.3-0.1-0.4-0.2c-0.1-0.1-0.2-0.3-0.2-0.4V274H527c-0.4,0-0.9-0.1-1.2-0.2
					c-1-0.3-2-0.8-2.7-1.4s-1.3-1.4-1.7-2.3s-0.6-2-0.7-3.1c0-0.2,0-0.3,0.1-0.4s0.2-0.2,0.4-0.2h3l0,0c0.3,0,0.5,0.2,0.5,0.5
					c0.1,0.6,0.2,1.1,0.4,1.5s0.6,0.8,1,1.1c0.3,0.2,0.6,0.4,0.9,0.5l-0.1-5.2c-0.8-0.2-1.5-0.4-2.2-0.7c-0.8-0.3-1.4-0.8-2-1.2
					c-0.5-0.5-1-1.1-1.2-1.8c-0.3-0.7-0.4-1.4-0.4-2.3s0.2-1.8,0.5-2.6c0.4-0.8,0.9-1.5,1.6-2c0.7-0.5,1.4-1,2.4-1.3
					c0.4-0.1,0.8-0.2,1.2-0.2v-2.4c0-0.2,0.1-0.3,0.2-0.4c0.1-0.1,0.2-0.2,0.4-0.2h2.7l0,0c0.3,0,0.5,0.3,0.5,0.6v2.4l0,0
					c0.4,0,0.8,0.1,1.2,0.2c0.9,0.3,1.8,0.7,2.5,1.3s1.3,1.3,1.7,2.1c0.4,0.8,0.6,1.8,0.7,2.8c0,0.2,0,0.3-0.1,0.4s-0.2,0.2-0.4,0.2
					h-3l0,0c-0.3,0-0.5-0.2-0.5-0.5c-0.1-1.2-0.7-2-1.8-2.4v4.5l0.3,0.1c0.7,0.2,1.3,0.4,1.9,0.6c0.6,0.2,1.1,0.5,1.6,0.8
					s1,0.7,1.3,1.1c0.4,0.5,0.7,1,0.9,1.6s0.3,1.3,0.3,2.1c0,1-0.2,1.9-0.6,2.8c-0.4,0.8-0.9,1.5-1.7,2.1c-0.7,0.6-1.5,1-2.5,1.4
					c-0.5,0.2-1,0.2-1.6,0.3v2.5c0,0.2-0.1,0.3-0.2,0.4c-0.1,0.1-0.2,0.2-0.4,0.2L527.7,277.2L527.7,277.2z M521.8,267.5
					c0.1,0.8,0.3,1.4,0.5,2c0.3,0.8,0.8,1.4,1.4,1.9c0.6,0.5,1.4,0.9,2.3,1.2c0.3,0.1,0.6,0.1,1,0.1c0.2,0,0.4,0,0.6,0.1
					c0.3,0,0.5,0.3,0.5,0.6v2.5h1.6v-2.5c0-0.3,0.2-0.6,0.5-0.6h0.4c0.5-0.1,1.1-0.1,1.5-0.3c0.8-0.3,1.5-0.7,2.1-1.2s1-1.1,1.4-1.7
					c0.3-0.7,0.5-1.4,0.5-2.2c0-0.7-0.1-1.2-0.3-1.7s-0.4-0.9-0.7-1.2c-0.3-0.4-0.7-0.7-1.1-0.9c-0.4-0.3-0.9-0.5-1.5-0.7
					c-0.5-0.2-1.1-0.4-1.8-0.5l-0.7-0.2c-0.2-0.1-0.4-0.3-0.4-0.6l-0.1-5.8c0-0.2,0.1-0.3,0.2-0.5c0.1-0.1,0.3-0.2,0.4-0.1
					c1.8,0.3,2.9,1.4,3.3,3.1h2c-0.1-0.6-0.2-1.2-0.5-1.7c-0.3-0.7-0.8-1.2-1.3-1.7c-0.6-0.5-1.3-0.8-2.1-1.1
					c-0.3-0.1-0.6-0.1-1-0.1c-0.2,0-0.4,0-0.5,0c-0.3,0-0.5-0.3-0.5-0.6v-2.4h-1.6v2.3c0,0.3-0.2,0.5-0.5,0.6c-0.2,0-0.3,0-0.5,0.1
					c-0.4,0-0.7,0.1-1,0.2c-0.8,0.3-1.5,0.6-2,1.1c-0.5,0.4-1,1-1.2,1.6c-0.3,0.6-0.4,1.3-0.4,2s0.1,1.3,0.3,1.8s0.5,0.9,0.9,1.3
					s1,0.8,1.7,1c0.7,0.3,1.5,0.5,2.4,0.8c0.2,0.1,0.4,0.3,0.4,0.6l0.1,6.4c0,0.2-0.1,0.4-0.2,0.5c-0.1,0.1-0.3,0.1-0.5,0.1
					c-0.1,0-0.2,0-0.3,0c-0.6-0.2-1.2-0.5-1.7-0.8c-0.5-0.4-0.9-0.9-1.3-1.4c-0.2-0.4-0.4-0.9-0.5-1.5L521.8,267.5z M530.3,271.4
					c-0.1,0-0.3,0-0.4-0.1c-0.1-0.1-0.2-0.3-0.2-0.4l-0.1-5.9c0-0.2,0.1-0.3,0.2-0.5s0.3-0.2,0.5-0.1l-0.1,0.6l0.1-0.6h0.1
					c0.7,0.2,1.4,0.4,1.9,0.7c0.6,0.3,1,0.7,1.3,1.1s0.4,1,0.4,1.6s-0.1,1.1-0.4,1.6c-0.2,0.5-0.6,0.8-1,1.2
					c-0.4,0.3-0.9,0.6-1.5,0.7c-0.2,0-0.3,0.1-0.5,0.1C530.6,271.3,530.5,271.4,530.3,271.4C530.4,271.4,530.4,271.4,530.3,271.4z
					 M530.8,265.7v4.4l0,0c0.5-0.1,0.9-0.3,1.2-0.6c0.3-0.2,0.6-0.5,0.7-0.8c0.2-0.3,0.2-0.6,0.2-1s-0.1-0.7-0.2-1
					c-0.2-0.3-0.4-0.5-0.8-0.7C531.7,266,531.3,265.8,530.8,265.7z M527.6,261.6c-0.1,0-0.1,0-0.2,0l-0.2-0.1
					c-0.1,0-0.2-0.1-0.3-0.1c-0.6-0.2-1-0.4-1.4-0.7c-0.4-0.3-0.7-0.6-0.9-0.9s-0.3-0.7-0.3-1.2s0.1-1,0.3-1.4s0.5-0.8,1-1.1
					c0.4-0.3,0.9-0.5,1.4-0.7c0.1,0,0.2,0,0.3,0c0.2,0,0.4,0,0.5,0.1s0.3,0.3,0.3,0.4l0.1,5c0,0.2-0.1,0.4-0.2,0.5
					C527.8,261.6,527.7,261.6,527.6,261.6z M527,256.7c-0.3,0.1-0.6,0.2-0.8,0.4c-0.3,0.2-0.5,0.4-0.6,0.7c-0.1,0.2-0.2,0.5-0.2,0.8
					c0,0.2,0.1,0.4,0.1,0.6c0.1,0.2,0.3,0.4,0.5,0.5c0.2,0.2,0.6,0.3,0.9,0.5L527,256.7z"/>
			</g>
		</g>
	</g>
	<g>
		<g>
			<g>
				<g>
					<ellipse class="st1" cx="124.2" cy="117.5" rx="7.8" ry="8.4"/>
				</g>
			</g>
			<g>
				<g>
					<path class="st3" d="M125.8,117.1h-3.4c-1.5,0-2.7,1.3-2.7,2.9l0,0c0,1.5,1.1,2.7,2.5,2.7h3.9c1.4,0,2.5-1.2,2.5-2.7l0,0
						C128.6,118.4,127.3,117.1,125.8,117.1z"/>
				</g>
			</g>
			<g>
				<g>
					<ellipse class="st3" cx="124.1" cy="113.6" rx="2.9" ry="3.1"/>
				</g>
			</g>
		</g>
		<g>
			<g>
				<g>
					<ellipse class="st35" cx="124.2" cy="137.3" rx="7.8" ry="8.4"/>
				</g>
			</g>
			<g>
				<g>
					<path class="st3" d="M125.8,136.9h-3.4c-1.5,0-2.7,1.3-2.7,2.9l0,0c0,1.5,1.1,2.7,2.5,2.7h3.9c1.4,0,2.5-1.2,2.5-2.7l0,0
						C128.6,138.2,127.3,136.9,125.8,136.9z"/>
				</g>
			</g>
			<g>
				<g>
					<ellipse class="st3" cx="124.1" cy="133.4" rx="2.9" ry="3.1"/>
				</g>
			</g>
		</g>
		<g>
			<g>
				<g>
					<ellipse class="st6" cx="124.2" cy="156.3" rx="7.8" ry="8.4"/>
				</g>
			</g>
			<g>
				<g>
					<path class="st3" d="M125.8,155.9h-3.4c-1.5,0-2.7,1.3-2.7,2.9l0,0c0,1.5,1.1,2.7,2.5,2.7h3.9c1.4,0,2.5-1.2,2.5-2.7l0,0
						C128.6,157.2,127.3,155.9,125.8,155.9z"/>
				</g>
			</g>
			<g>
				<g>
					<ellipse class="st3" cx="124.1" cy="152.5" rx="2.9" ry="3.1"/>
				</g>
			</g>
		</g>
		<g>
			<g>
				<path class="st9" d="M195.5,120.2h-56.4c-1.3,0-2.3-1.1-2.3-2.5v-1.4c0-1.4,1.1-2.5,2.3-2.5h56.4c1.3,0,2.3,1.1,2.3,2.5v1.4
					C197.9,119.1,196.8,120.2,195.5,120.2z"/>
			</g>
		</g>
		<g>
			<g>
				<path class="st9" d="M183.8,138.9h-44.7c-1.3,0-2.3-1.1-2.3-2.5v-1.3c0-1.4,1.1-2.5,2.3-2.5h44.7c1.3,0,2.3,1.1,2.3,2.5v1.4
					C186.1,137.8,185.1,138.9,183.8,138.9z"/>
			</g>
		</g>
		<g>
			<g>
				<path class="st9" d="M161.7,158.2h-22.6c-1.3,0-2.3-1.1-2.3-2.5v-1.4c0-1.4,1.1-2.5,2.3-2.5h22.6c1.3,0,2.3,1.1,2.3,2.5v1.4
					C164,157.1,162.9,158.2,161.7,158.2z"/>
			</g>
		</g>
	</g>
	<g>
		<g>
			<path class="st36" d="M293.1,248.7c0,0,18.8-0.9,37.6,4.8c0,0,1.1,39.8,1.8,76.3l5.8,41.3l-73.9,10.1l4.6-39.4l-25.5-73.9
				c0,0,21.7-12.8,28.8-14.6C279.5,251.7,293.1,248.7,293.1,248.7z"/>
		</g>
	</g>
	<g>
		<g>
			<path class="st6" d="M302.4,437.2c11.3,1.2,22.5,0.7,33.7,0.9l1.6-71.9l-78.7-1.5l-7.4,73.7C268.2,434.1,285.3,435.5,302.4,437.2
				z"/>
		</g>
	</g>
	<g>
		<g>
			<rect x="264.5" y="364.3" class="st27" width="53.7" height="8.9"/>
		</g>
	</g>
	<g>
		<g>
			<path class="st37" d="M216.5,184.7l3.6-19.5c0,0,2.1-10.3,2.8-15c0.3-2-14.5-5.2-14.5-5.2s-4.4,15-1,20.9c0.1,0.1,0,18.8,0,18.8
				H216.5z"/>
		</g>
	</g>
	<g>
		<g>
			<g>
				<path class="st37" d="M324.8,144.5l-9.7-19c0,0-4-14.7-5.8-14.9c-1.8-0.1-14.3,6.4-14.3,6.4s6.3,13.5,10.1,15.3
					c3.1,1.5,7.3,17.5,7.3,17.5L324.8,144.5z"/>
			</g>
		</g>
		<g>
			<g>
				<path class="st37" d="M314.7,132.1c0,0,2.1-5.7,2.9-14.6c0.3-3.4,3.7-10.9,1.6-11s-4.9,9.8-5.6,9.9s-3.4-4.9-3.4-4.9l-0.1,9.2
					L314.7,132.1z"/>
			</g>
		</g>
		<g>
			<g>
				<path class="st37" d="M311.1,114.7c0,0-4.1-21.1-5.8-21.1c-1.7,0.1,1.2,17.4,1.2,17.4s-6.3-18-7.9-17.6s3.9,19.7,3.9,19.7
					s-9.2-15.9-10.5-15.2c-1.3,0.8,6.5,17.4,6.5,17.4s-9.4-11.2-10.5-10.5c-1.2,0.7,6.9,12.1,6.9,12.1l5.2,7.6L311.1,114.7z"/>
			</g>
		</g>
	</g>
	<g>
		<g>
			<polygon class="st19" points="285.8,220.8 295,249.4 275.3,253.5 270.8,227.5 			"/>
		</g>
	</g>
	<g>
		<g>
			<polygon class="st36" points="272.4,253.4 274.4,249.2 286.8,250.3 294.3,245 299.6,249.1 286.8,254.8 273.3,255.5 			"/>
		</g>
	</g>
	<g>
		<g>
			<polygon class="st12" points="288.7,251.7 293.3,254.4 292.5,261 288.5,262.1 283.7,256.5 			"/>
		</g>
	</g>
	<g>
		<g>
			<path class="st4" d="M299.6,249.1c0,0,7.2-15.4,10.5-21.4s10.5-33.5,10.5-33.5s-9.6-39.8-12.5-56l10.9-7c0,0,32.3,46.8,32.9,65.5
				c0.7,18.7-13.8,44.4-14.5,58.8c-0.7,14.4,6.6,109.5,5.9,122.6c-0.7,13-4.9,16.2-4.9,16.2l-26.3,4.6c0,0,3.6-33.1,3-52.8
				C314.4,326.2,299.6,249.1,299.6,249.1z"/>
		</g>
	</g>
	<g>
		<g>
			<path class="st21" d="M274.4,226.8c0,0,1.8,20.3,18.2,15.1l-2-6.9L274.4,226.8z"/>
		</g>
	</g>
	<g>
		<g>
			<path class="st22" d="M294.2,208.3c0,0,2-3,3.8-1.8c1.9,1.2,2.9,6.9-2,8.9C296.1,215.4,294.4,212.8,294.2,208.3z"/>
		</g>
	</g>
	<path class="st23" d="M287.4,237.2l-5.6-1.9l-9.4-5.7l-2.5-3.5l-4.1-14l2-11.3l13.3-8.9l10.3,1.7l5.5,13.4l1,7.2l0.9,8.2l-1.1,6.4
		c-0.3,1.7-1.2,3.3-2.6,4.4l-2.5,2L287.4,237.2z"/>
	<g>
		<g>
			<path class="st12" d="M290.6,195.8c0,0,4.4,7.2,6.3,11.2c0,0-2.6-12-5.2-14.5C289,190,290.6,195.8,290.6,195.8z"/>
		</g>
	</g>
	<g>
		<g>
			<path class="st24" d="M276.8,217c-0.6-1.6-0.6-3.1,0-3.4c0.6-0.3,1.6,0.8,2.2,2.4c0.6,1.6,0.6,3.1,0,3.4
				C278.4,219.7,277.4,218.6,276.8,217z"/>
		</g>
	</g>
	<g>
		<g>
			
				<ellipse transform="matrix(0.9436 -0.3312 0.3312 0.9436 -53.6175 108.3747)" class="st24" cx="291.2" cy="211.5" rx="1.2" ry="3.1"/>
		</g>
	</g>
	<g>
		<g class="st25">
			<g>
				<path class="st3" d="M286.3,191.6L286.3,191.6C286.4,191.6,286.4,191.6,286.3,191.6z"/>
			</g>
		</g>
	</g>
	<g>
		<g>
			<path class="st26" d="M287.8,222.4h-0.1c-0.3-0.2-0.4-0.5-0.4-1c0-0.3,0.3-0.4,0.4-0.5c0.1,0,0.1-0.1,0.1-0.1l0.2-0.1
				c0.3-0.2,0.5-0.4,0.7-0.6c0.2-0.3,0.3-0.7,0.2-1c-0.1-0.2-0.2-0.3-0.4-0.4l0,0c-1.4-1.3-2.4-3.1-2.9-5c0-0.1,0-0.2,0.1-0.2
				s0.2,0,0.2,0.1c0.4,1.9,1.4,3.6,2.8,4.8l0,0c0.2,0.1,0.3,0.3,0.4,0.5c0.2,0.5,0,1-0.2,1.3s-0.5,0.5-0.8,0.7l-0.2,0.1
				c-0.1,0-0.1,0.1-0.2,0.1c-0.1,0.1-0.3,0.1-0.3,0.2c0,0.4,0,0.5,0.3,0.7C287.9,222.1,287.9,222.2,287.8,222.4
				C287.8,222.3,287.8,222.4,287.8,222.4z"/>
		</g>
	</g>
	<g>
		<g>
			<path class="st12" d="M286.8,205.6c0.6,0.3,1.6-0.3,2.2-0.4c1.5-0.2,2.6,0.9,4,0.9c0.4,0,0.5-0.3,0.4-0.7
				c-0.8-2.4-6.4-3.4-6.9-0.3C286.5,205.4,286.7,205.5,286.8,205.6L286.8,205.6z"/>
		</g>
	</g>
	<g>
		<g>
			<path class="st12" d="M278.6,208.5c-0.4,0.6-1.5,0.6-2.1,0.9c-1.4,0.7-1.7,2.2-2.9,3.1c-0.3,0.2-0.6,0-0.7-0.3
				c-0.5-2.5,3.7-6.5,5.7-4.2C278.8,208.1,278.7,208.4,278.6,208.5L278.6,208.5z"/>
		</g>
	</g>
	<g>
		<g>
			<path class="st3" d="M293.8,223.3l-10.3,3.4C283.6,226.6,291.7,234.9,293.8,223.3z"/>
		</g>
	</g>
	<g>
		<g>
			<path class="st4" d="M272.4,253.4c0,0-11-5.4-18.9-7.2s-30.6-18-30.6-18s1-9.2,0-17.6c-1-8.5-2-41.6-2-41.6l-14.2-1
				c0,0-4.9,29.2-6.5,35.5s-9.6,36.3-4.3,44.4s42.8,35.2,44.5,42.6c1.6,7.4,8.6,47.9,4.3,57.4s-11.5,31-10.9,39.1
				c0.7,8.1,5.9,13.4,5.9,13.4l31.3,6.3c0,0-5.9-14.8-0.3-35.9C276.2,349.8,275.1,258.1,272.4,253.4z"/>
		</g>
	</g>
	<g>
		<g>
			<path class="st12" d="M292.5,259.9c0,0,9,39.3,8.2,48.7c-0.8,9.4-17,28.1-19.5,36.1s-1.1,7.7-1.1,7.7l-15.2,7.2l-6.6-10.4
				c0,0,0.2-5.1,6.5-18.2c6.2-13.1,21.2-19.8,23.2-27.8s0.5-42,0.5-42L292.5,259.9z"/>
		</g>
	</g>
	<g>
		<g>
			<g>
				<g>
					<path class="st6" d="M216.2,107.3l28.7,32c11.4,12.6,28.5,16,42.9,9.7c5.6-2.5,12.1-0.7,16,4.3l4.5,5.7
						c4.1,5.2,3.5,13-1.3,17.4l0,0c-3,2.7-3.3,7.5-0.8,10.7l1.2,1.5l34.5-31.3l-1.2-1.5c-2.5-3.2-7-3.6-10-0.9l0,0
						c-4.9,4.4-12.2,3.8-16.3-1.4l-4.5-5.7c-3.9-5-4.5-12.1-1.3-17.6c8.2-14.2,7.9-32.8-1.9-46.8l-24.8-35.5L216.2,107.3z"/>
				</g>
			</g>
			<g>
				<g>
					<path class="st38" d="M280.5,45.5l-65.8,59.7c-1,0.9-1.1,2.5-0.3,3.5l0,0c0.8,1,2.3,1.2,3.3,0.3l65.8-59.7
						c1-0.9,1.1-2.5,0.3-3.5l0,0C283,44.7,281.5,44.6,280.5,45.5z"/>
				</g>
			</g>
			<g>
				<g>
					<path class="st6" d="M313.1,99.6l-4.2,1.6c-0.3-0.9-2.7-9.1,6.3-24.8c4.5-7.9,5-18.3,1.2-25.4c-1.8-3.3-5.1-7.1-11.2-7
						c-4.2,0.1-7.2,1.5-9.3,4.2c-4.5,5.9-2.9,16-2.8,16.1l-4.4,0.8c-0.1-0.5-2-12.4,3.8-20c2.9-3.8,7.2-5.8,12.7-5.9
						c6.5-0.2,11.9,3.2,15.2,9.3c4.7,8.6,4.1,20.8-1.3,30.2C311.2,92.7,313.1,99.6,313.1,99.6z"/>
				</g>
			</g>
			<g>
				<g>
					<path class="st6" d="M259.2,148.6l2.2-4.2c-0.8-0.5-7.9-4.3-23.9,2.6c-8,3.5-17.7,2.3-23.6-2.9c-2.7-2.4-5.7-6.6-4.6-13
						c0.8-4.4,2.5-7.4,5.4-9.1c6.1-3.8,15.2-0.4,15.3-0.4l1.5-4.5c-0.4-0.2-11.1-4.1-19,0.7c-4,2.5-6.5,6.6-7.5,12.4
						c-1.2,6.8,1,13,6.1,17.6c7.2,6.3,18.5,7.8,28.1,3.6C253.1,145.4,259.1,148.5,259.2,148.6z"/>
				</g>
			</g>
			<g>
				<g>
					<g>
						<path class="st12" d="M261.4,97.7l-1.8,13.5l-8.6-1.4l3.4-21.5l7.2-6.5l30.9,38.9l-7.4,6.7L261.4,97.7z"/>
					</g>
				</g>
			</g>
		</g>
		<g>
			<g>
				<ellipse class="st12" cx="281.9" cy="71.4" rx="7.8" ry="8.3"/>
			</g>
		</g>
		<g>
			<g>
				<ellipse class="st12" cx="291.2" cy="84" rx="4.2" ry="4.5"/>
			</g>
		</g>
	</g>
	<g>
		<g>
			<g>
				<path class="st22" d="M212.7,140L212.7,140c0.9,0.3,1.4,1.5,1.1,2.5l-2.3,7.1c-0.3,1-1.4,1.5-2.3,1.2l0,0
					c-0.9-0.3-1.4-1.5-1.1-2.5l2.3-7.1C210.7,140.2,211.7,139.6,212.7,140z"/>
			</g>
		</g>
		<g>
			<g>
				<path class="st22" d="M219.8,141.7L219.8,141.7c1,0.4,1.6,1.6,1.2,2.7l-2.3,7.2c-0.4,1.1-1.5,1.7-2.5,1.3l0,0
					c-1-0.4-1.6-1.6-1.2-2.7l2.3-7.2C217.6,141.9,218.7,141.3,219.8,141.7z"/>
			</g>
		</g>
		<g>
			<g>
				<path class="st22" d="M223.3,143L223.3,143c1,0.4,1.6,1.6,1.2,2.7l-2.3,7.2c-0.4,1.1-1.5,1.7-2.5,1.3l0,0
					c-1-0.4-1.6-1.6-1.2-2.7l2.3-7.2C221.1,143.2,222.3,142.6,223.3,143z"/>
			</g>
		</g>
		<g>
			<g>
				<path class="st22" d="M216.2,140.7L216.2,140.7c1,0.4,1.6,1.6,1.2,2.7l-2.3,7.2c-0.4,1.1-1.5,1.7-2.5,1.3l0,0
					c-1-0.4-1.6-1.6-1.2-2.7l2.3-7.2C214,140.9,215.2,140.3,216.2,140.7z"/>
			</g>
		</g>
	</g>
	<g>
		<g>
			<path class="st37" d="M218.8,168.7c0,0,0.9-0.1,6.1-7.4c2-2.8,3.1-10.8,1.4-12.1c-1.8-1.3-3.6,8.9-4.3,9.1c-4.3,0.9-6.2,6-6.2,6
				l-4.2,0.1L218.8,168.7z"/>
		</g>
	</g>
	<g>
		<g>
			<path class="st6" d="M305,374.6h-12.5c-0.5,0-0.9-0.4-0.9-1v-10.1c0-0.5,0.4-1,0.9-1H305c0.5,0,0.9,0.4,0.9,1v10.1
				C306,374.1,305.5,374.6,305,374.6z M293.5,372.6h10.6v-8.2h-10.6V372.6z"/>
		</g>
	</g>
	<g>
		<g>
			<ellipse class="st11" cx="297.1" cy="330" rx="1.7" ry="1.8"/>
		</g>
	</g>
	<g>
		<g>
			<ellipse class="st11" cx="298.2" cy="343.5" rx="1.7" ry="1.8"/>
		</g>
	</g>
	<g>
		<g>
			<ellipse class="st11" cx="299.1" cy="354.7" rx="1.7" ry="1.8"/>
		</g>
	</g>
	<g>
		<g>
			<g>
				<path class="st7" d="M287.8,329c-0.7,0.3-1.3,0.6-1.9,0.5c-0.4-0.1-0.8-0.6-1.2-1.1c-3.7-4.2-7.9-6.9-12.1-8.1
					c-0.5,0.5-1,1-1.5,1.6c5.4,1.2,9.6,5,12.3,8c0.5,0.6,1.2,1.3,2.1,1.6c1.2,0.4,2.4-0.2,3.1-0.6l0.9-0.5c0.7-1.1,1.4-2.2,2.2-3.3
					L287.8,329z"/>
			</g>
		</g>
		<g>
			<g>
				<path class="st7" d="M296,294c0.8,0.1,1.7,0.2,2.6,0c0.3-0.1,0.4-0.3,0.7-0.4c-0.1-0.7-0.2-1.3-0.3-2c-0.2,0.2-0.5,0.4-0.8,0.5
					c-0.5,0.2-1.2,0.1-1.9,0c-0.3,0-0.6-0.1-1-0.1c-2.3-0.2-4.4,0.7-6.4,2c0,0.8-0.1,1.6-0.1,2.4c2.1-1.4,4.2-2.5,6.4-2.4
					C295.5,293.9,295.7,294,296,294z"/>
			</g>
		</g>
		<g>
			<g>
				<path class="st7" d="M280,349.8c-0.8-0.1-1.6-0.1-2.3-0.2c-2.4-0.2-4.8-0.5-7.2-0.4c-2.6,0-6.8,0.5-10.4,2.7l1,1.6
					c3.2-1.9,7-2.3,9.4-2.4c2.3,0,4.7,0.2,7,0.4c0.8,0.1,1.6,0.1,2.4,0.2C279.8,351.4,279.8,350.8,280,349.8z"/>
			</g>
		</g>
		<g>
			<g>
				<path class="st7" d="M275.6,336.2l-8.9,4.3c-1.7,0.8-3.5,1.7-5.3,1.5c-0.4,0-0.7-0.1-1.1-0.2c-0.2,0.7-0.4,1.3-0.6,1.8
					c0.5,0.2,1,0.3,1.6,0.4c2.3,0.2,4.5-0.8,6.3-1.7l8.9-4.3c2.2-1,4.3-1.9,6.2-1.4c0.8,0.2,1.5,0.8,2.1,1.4c0.3-0.5,0.7-1.1,1-1.7
					c-0.8-0.7-1.7-1.3-2.6-1.6C280.5,334,278.1,335,275.6,336.2z"/>
			</g>
		</g>
		<g>
			<g>
				<path class="st7" d="M291.1,267.8l-0.6,0.6c-0.6,0.6-1.1,1.3-1.7,2c0,1.1,0.1,2.2,0.1,3.4c0.7-1.4,1.8-2.7,2.9-4l0.6-0.7
					c0.6-0.7,1.1-1.4,1.6-2.2c-0.2-1.1-0.5-2.1-0.6-3C293,265.3,292.1,266.7,291.1,267.8z"/>
			</g>
		</g>
		<g>
			<g>
				<path class="st7" d="M282.5,315.1c2,2.9,4.7,5.3,7.8,6.7c0.2,0.1,0.5,0.1,0.7,0s0.4-0.3,0.5-0.6c0.8-2.4,2-5.5,4.2-7.6
					c1.3-1.2,2.9-1.9,4.4-2c0.2-0.7,0.4-1.4,0.5-2.1c-2.3,0-4.6,1.1-6.1,2.5c-2.2,2-3.5,4.9-4.4,7.4c-2.4-1.3-4.6-3.2-6.1-5.6
					c-0.6-0.8-1.1-1.8-1.5-2.9c-0.5,0.5-0.9,0.9-1.4,1.4C281.5,313.4,282,314.3,282.5,315.1z"/>
			</g>
		</g>
		<g>
			<g>
				<path class="st7" d="M285.8,257.2c-0.4,0.1-0.7,0.3-1.1,0.4l1.3,1.6c0.1,0,0.1-0.1,0.2-0.1c2.2-0.6,4.9-1,6.5,0.4l0.3-2.2
					C291.2,256.5,288.8,256.4,285.8,257.2z"/>
			</g>
		</g>
		<g>
			<g>
				<path class="st7" d="M294.7,280.6c-1.2,0.1-2.5,0.2-3.5,0c-0.8-0.2-1.6-0.8-2.1-1.5c0,0.9,0,1.8,0,2.7c0.5,0.3,1.1,0.6,1.7,0.8
					c1.3,0.3,2.7,0.2,4.1,0.1c1-0.1,1.8-0.1,2.4-0.1c-0.1-0.7-0.3-1.3-0.4-2C296.2,280.5,295.4,280.6,294.7,280.6z"/>
			</g>
		</g>
	</g>
	<g>
		<g>
			<path class="st12" d="M218.7,181.1c-0.3,0-0.5-0.2-0.5-0.5v-9.7c0-0.3,0.2-0.5,0.5-0.5s0.5,0.2,0.5,0.5v9.7
				C219.2,180.9,219,181.1,218.7,181.1z"/>
		</g>
	</g>
	<g>
		<g>
			<path class="st12" d="M213.1,180.4L213.1,180.4c-0.3,0-0.5-0.3-0.5-0.5l0.5-8.5c0-0.3,0.3-0.5,0.5-0.5c0.3,0,0.5,0.3,0.4,0.5
				l-0.5,8.5C213.6,180.2,213.4,180.4,213.1,180.4z"/>
		</g>
	</g>
	<g>
		<g>
			<path class="st12" d="M207.5,179.6C207.4,179.6,207.4,179.6,207.5,179.6c-0.3-0.1-0.5-0.3-0.5-0.6l1.3-8.4c0-0.3,0.3-0.5,0.5-0.4
				c0.3,0,0.4,0.3,0.4,0.6l-1.3,8.4C207.9,179.4,207.7,179.6,207.5,179.6z"/>
		</g>
	</g>
	<g>
		<g>
			<path class="st12" d="M321.6,142.5c-0.2,0-0.3-0.1-0.4-0.3l-4-7.6c-0.1-0.2-0.1-0.5,0.2-0.7c0.2-0.1,0.5,0,0.6,0.2l4,7.6
				c0.1,0.2,0.1,0.5-0.2,0.7C321.8,142.5,321.7,142.5,321.6,142.5z"/>
		</g>
	</g>
	<g>
		<g>
			<path class="st12" d="M315.6,145.3c-0.2,0-0.4-0.1-0.4-0.3l-2.3-7.9c-0.1-0.3,0.1-0.5,0.3-0.6c0.2-0.1,0.5,0.1,0.6,0.3l2.3,7.9
				c0.1,0.3-0.1,0.5-0.3,0.6C315.7,145.3,315.7,145.3,315.6,145.3z"/>
		</g>
	</g>
	<g>
		<g>
			<ellipse class="st12" cx="261.1" cy="368.7" rx="2.3" ry="2.5"/>
		</g>
	</g>
	<g>
		<g>
			<ellipse class="st12" cx="259.4" cy="386.1" rx="2.3" ry="2.5"/>
		</g>
	</g>
	<g>
		<g>
			<path class="st12" d="M268.4,221.1l0.2-19.3l-11.4,5.4c0,0,5.2,13.5,7.7,14.7C267.3,223,268.4,221.1,268.4,221.1z"/>
		</g>
	</g>
	<g>
		<g>
			<path class="st12" d="M255.9,211.9c-0.3-1.2-0.5-2.5,0.1-3.4c0.5-0.7,1.3-1.2,1.5-2c0.1-0.9-0.5-1.6-1-2.3c-2-2.8-0.9-7.3,2-8.8
				c-1.2-2.3,0.4-5.7,2.9-5.9c1.2-0.1,2.6,0.4,3.5-0.3c1.3-1,0.9-3.2,1.8-4.6c0.7-0.9,1.9-1.2,3-1.1c1.1,0,2.2,0.2,3.3-0.1
				c1.1-0.3,2.1-1.3,1.9-2.5c0.3,0.9,0.5,1.9,0.2,2.8s-1.4,1.6-2.2,1.1c1.2,1.5,3.6,1.4,4.7-0.1c0.4-0.5,0.6-1.2,1.1-1.6
				c1.1-1.2,3-0.8,4.5-0.1s3.1,1.5,4.6,0.9c0.8-0.4,1.4-1.1,2.1-1.8c0.7-0.6,1.6-1.1,2.5-0.8c1.1,0.5,1.4,2.2,2.4,2.9
				c1.2,0.9,2.9,0.2,4-0.8c0.1,2.7-2.5,5.2-5,4.7c0.1,2,2.5,3.5,4.1,2.5c-0.2,1.4-0.5,2.9-1.1,4.1s-1.8,2.3-3.2,2.3
				c-0.6,0-1.2-0.2-1.8-0.1c-2.1,0.1-3.5,2.6-5.6,2.8c-2.3,0.2-4.4-2.4-6.5-1.5c1.3,2,3.6,3.1,5.8,2.9c-1.3,1-2.7,2-4.2,1.6
				c-1.4-0.4-2.4-1.9-3.8-2.1c-0.9-0.1-1.8,0.4-2.6,0.9c-0.8,0.5-1.6,1-2.6,1.1c-0.9,0-1.9-0.7-1.9-1.7c-0.6,1.3,0.4,2.7,0.5,4.1
				c0.1,1.5-1.1,2.9-2.3,3.7c-1.2,0.8-2.7,1.3-3.8,2.2c-1.2,0.9-2.1,2.5-1.7,4c-1.8-0.4-3.7-0.7-5.5-1.1c-0.5-0.1-1-0.2-1.3-0.6
				C256.1,212.8,256,212.3,255.9,211.9z"/>
		</g>
	</g>
	<g>
		<g>
			<g>
				<path class="st19" d="M269.1,220.7c0,0-2.4-5.6-6.4-0.7c-1.6,1.9,1.3,8.2,7.2,6C269.9,225.9,271.6,224.3,269.1,220.7z"/>
			</g>
		</g>
		<g>
			<g>
				<path class="st28" d="M268.5,224.1c-0.7,0.5-2.4,1.1-3.5,0.5c-0.1,0-0.1-0.2-0.1-0.3s0.1-0.1,0.2-0.1c1.1,0.6,3-0.2,3.3-0.6
					l-0.1-0.1c-0.4-0.3-1-0.7-0.9-1.6c0-0.4,0.2-0.6,0.4-0.8c0.2-0.1,0.3-0.2,0.5-0.2c-0.4-0.7-1.4-2.2-2.5-2
					c-1,0.2-1.8,0.7-2.2,1.3c-0.5,0.8-0.4,1.7-0.4,1.7c0,0.1,0,0.2-0.1,0.2s-0.2,0-0.2-0.1c0,0-0.2-1,0.4-2c0.5-0.8,1.3-1.2,2.4-1.5
					c1.6-0.3,3,2.3,3,2.5c0,0.1,0,0.1,0,0.2c0,0.1-0.1,0.1-0.2,0.1c0,0-0.3-0.1-0.6,0.1c-0.1,0.1-0.2,0.3-0.3,0.5
					c-0.1,0.6,0.4,1,0.7,1.2c0.2,0.1,0.3,0.2,0.3,0.3s0,0.2-0.1,0.3C268.7,224,268.6,224.1,268.5,224.1z"/>
			</g>
		</g>
	</g>
	<g class="st29">
		<g>
			<path class="st3" d="M271.6,189.3c-0.2,0.6-0.9,0.9-1.5,1.2s-1.2,0.7-1.3,1.3c-0.1,0.3,0.1,0.7-0.1,1.1c-0.2,0.5-0.7,0.7-1.2,0.5
				c-0.4-0.2-0.7-0.7-0.8-1.2c-0.2-1.1,0.5-2.3,1.5-2.5c0.2,0,0.3-0.1,0.5-0.1c0.5-0.2,0.6-0.9,0.7-1.5c0-0.6,0-1.2,0.3-1.7
				c0.5-0.6,1.5-0.4,1.8,0.3c0.1,0.4,0.1,0.8,0.1,1.3C271.7,188.4,271.8,188.9,271.6,189.3z"/>
		</g>
	</g>
	<g class="st29">
		<g>
			<path class="st3" d="M276,189.8c0.2-0.3,0.4-0.6,0.6-0.9c0.6-0.8,1.3-1.6,2.1-2.2c0.8-0.6,1.9-0.8,2.8-0.5c0.4,0.1,0.7,0.4,1,0.5
				c1.5,0.8,3.3,0.7,4.7-0.3c0.6-0.4,1.2-1,1.8-0.8c0.6,0.2,0.9,1.1,0.7,1.7c-0.2,0.7-0.8,1.1-1.4,1.5c-1.7,1-3.8,1.1-5.6,0.3
				c-0.6-0.3-1.1-0.6-1.7-0.8s-1.3-0.3-1.8,0s-0.8,0.8-1.2,1.1C277.5,190,276.7,190.1,276,189.8z"/>
		</g>
	</g>
	<g>
		<g>
			<g>
				<path class="st12" d="M357.6,147.1c-0.1-0.2-0.2-0.3-0.3-0.5c-1.6-2.8,3.2-4.3,3.1-0.8c0,0.2,0,0.4,0,0.6
					C360.3,147.8,358.3,148.3,357.6,147.1L357.6,147.1z"/>
			</g>
		</g>
		<g>
			<g>
				<path class="st12" d="M365.1,154c-0.1-0.2-0.2-0.3-0.3-0.5c-1.6-2.8,3.2-4.3,3.1-0.8c0,0.2,0,0.4,0,0.6
					C367.9,154.7,365.8,155.2,365.1,154L365.1,154z"/>
			</g>
		</g>
		<g>
			<g>
				<path class="st12" d="M361.3,138.9c3.2-5.3,6.6-11.8,10.8-16.1c0.7-0.8,1.8-0.1,1.5,1c-1.7,6.2-6.4,12.1-10.5,16.7
					C362.1,141.6,360.5,140.2,361.3,138.9L361.3,138.9z"/>
			</g>
		</g>
		<g>
			<g>
				<path class="st12" d="M367.6,163.9c0-0.2,0-0.4,0.1-0.6c0.4-3.2,5-1.1,2.9,1.5c-0.1,0.1-0.2,0.3-0.3,0.4
					C369.3,166.3,367.4,165.2,367.6,163.9L367.6,163.9z"/>
			</g>
		</g>
		<g>
			<g>
				<path class="st12" d="M375.4,160.1c5.7-1.8,12.1-4.5,18-5c1-0.1,1.5,1.2,0.6,1.8c-5,3.6-12.2,4.9-18.1,5.6
					C374.4,162.7,373.9,160.6,375.4,160.1L375.4,160.1z"/>
			</g>
		</g>
		<g>
			<g>
				<path class="st12" d="M367.6,152.3"/>
			</g>
		</g>
		<g>
			<g>
				<path class="st12" d="M370.3,147.3c2.7-3.9,6.5-8.5,10.8-10.3c0.7-0.3,1.4,0.5,1.1,1.2c-2,4.5-6.4,8.2-10.3,10.9
					C370.8,149.8,369.5,148.4,370.3,147.3L370.3,147.3z"/>
			</g>
		</g>
	</g>
</g>
</svg>
