<?xml version="1.0" encoding="utf-8"?>
<!-- Generator: Adobe Illustrator 26.0.1, SVG Export Plug-In . SVG Version: 6.00 Build 0)  -->
<svg version="1.1" xmlns="http://www.w3.org/2000/svg" xmlns:xlink="http://www.w3.org/1999/xlink" x="0px" y="0px"
	 viewBox="0 0 621.2 337.7" style="enable-background:new 0 0 621.2 337.7;" xml:space="preserve">
<style type="text/css">
	.st0{fill:#FFFFFF;}
	.st1{fill:#F5C5B3;}
	.st2{fill:#42B2FC;}
	.st3{fill:#FEC4AD;}
	.st4{fill:#E8D4E5;}
	.st5{fill:#7B2B1A;}
	.st6{fill:#133A50;}
	.st7{fill:none;stroke:#AFB3BD;stroke-width:1.5;stroke-miterlimit:10;}
	.st8{fill:#4FAE86;}
	.st9{fill:#319188;}
	.st10{fill:none;stroke:#194459;stroke-miterlimit:10;}
	.st11{fill:none;stroke:#FFFFFF;stroke-miterlimit:10;}
	.st12{fill:#21295B;}
	.st13{fill:#FF3A46;}
	.st14{fill:#CFCFCF;}
	.st15{fill:#B3B3B3;}
	.st16{fill:#D6313B;}
	.st17{clip-path:url(#SVGID_00000137123309900253920140000015338395282815687310_);fill:#FFD71D;}
	
		.st18{opacity:0.7;clip-path:url(#SVGID_00000137123309900253920140000015338395282815687310_);fill:url(#SVGID_00000157307501534883235740000013994933290435213952_);}
	
		.st19{clip-path:url(#SVGID_00000137123309900253920140000015338395282815687310_);fill:url(#SVGID_00000044886194793998685780000007595678405576343983_);}
	.st20{opacity:0.7;clip-path:url(#SVGID_00000137123309900253920140000015338395282815687310_);fill:#FFDD00;}
	.st21{fill:url(#SVGID_00000049194057884145586390000001950226139711733894_);}
	.st22{fill:url(#SVGID_00000021102239589853224270000013504414762470120361_);}
	.st23{fill:#471A16;}
</style>
<g id="BACKGROUND">
</g>
<g id="OBJECTS">
	<g>
		<path class="st0" d="M74,206.9c-30.8,19.3-46.9,63-22,121.1H542c8.3-21.1,13.3-48.7,14.9-65.2c3.4-35.9-8.8-73.2-30.3-92.9
			c-54.5-49.8-99.7,19.4-128.4-9.9c-16.5-16.9-15-64.3-27.9-86.3C341.8,25.1,288,1.1,235.1,9.7c-35.3,5.7-67.1,24.4-86.5,55.9
			c-26.6,43.2-7.2,74.2-19,104.1C116.6,203.1,94.5,194,74,206.9z"/>
		<g>
			<g>
				<path class="st1" d="M117.5,130.7c-0.1,0.3,4.5-2.5,4.5-2.5l1.9-3c0,0,1.9-1.2,3.2-1.9c1.3-0.7,3.8-4.7,3.8-4.7l-1-1.2
					c0,0-1.4,1.7-1.9,2c-0.5,0.3-1.4,0-1.4,0s0.3-1.3,1.1-3c0.8-1.8,3-4.7,3-4.7l-0.9-0.9c0,0-1.4,1.3-1.9,2c-0.5,0.7-1.5,2-1.5,2
					s1-2.4,1.6-3.3c0.6-0.9,1.3-2.1,1.3-2.1l-1-0.7c0,0-1.2,1.4-1.8,2.5c-0.6,1.1-1.7,2.9-1.7,2.9s0.8-2.7,1.3-3.5
					c0.4-0.8,0.6-1.2,0.6-1.2l-1.2-0.4c0,0-0.9,1.1-1.4,2.5c-0.5,1.4-0.9,2.1-0.9,2.1s0.3-2.3,0.7-3c0.4-0.7,0.4-1,0.4-1l-1-0.2
					c0,0-1.8,3.4-2.8,5.5c-1,2.1-1.7,4.9-2.3,6.5c-0.5,1.5-1.3,6.8-1.3,6.8L117.5,130.7z"/>
				<path class="st2" d="M145.9,150.8l-23.3-4c0,0-0.6-5.5-0.3-11.9c0.4-7,1.3-8.9,1.3-8.9l-6.3-0.9c0,0-1.2,5.5-2.1,9.4
					c-2,8.7-3.8,16.9-2.3,18.8c2.2,2.7,21.6,8,28.2,13C145.2,169.3,144.9,159.7,145.9,150.8z"/>
			</g>
			<polygon class="st3" points="178.9,217.1 177.7,225.1 180.2,230.6 182,228.2 182.4,223.7 185,224.1 186.3,222.5 186.2,219.1 
				185.7,209.9 			"/>
			<path class="st2" d="M177.3,155.6c-1.8-0.7-7.7-0.2-7.7-0.2s-0.6,6.3,1.8,11.1c2.4,4.8,8.3,22.4,9,24.1
				c0.7,1.7-1.6,26.5-1.6,26.5l8.6-1.8c0,0,4.1-19.2,4.1-24c0-4.9-4.6-23.1-7.8-28.9C180.5,156.6,181.6,157.2,177.3,155.6z"/>
			<path class="st3" d="M163.2,137.7c0,0-1.9,8.3-0.4,10.2c0.9,1.1,4.5,5.1,4.5,5.1s-12.1,6.4-15.7,6.4c-3.6,0-2.3-7.1-2.3-7.1
				s3.9-3.1,4.5-4.6c0.6-1.6,0.9-6,0.9-6L163.2,137.7z"/>
			<g>
				<g>
					<path class="st1" d="M164.6,138c0,0-0.1-3,2.4-2.9c1.6,0,1.7,1.5,0.5,3.4c-0.5,0.8-0.6,2.6-1.2,3.2c-0.8,0.7-1.5-0.4-1.7-0.9
						C164.1,140,164.6,138,164.6,138z"/>
				</g>
				<g>
					<path class="st1" d="M151,138c0,0,0.1-3-2.4-2.9c-1.6,0-1.7,1.5-0.5,3.4c0.5,0.8,0.6,2.6,1.2,3.2c0.8,0.7,1.5-0.4,1.7-0.9
						C151.5,140,151,138,151,138z"/>
				</g>
				<path class="st1" d="M167.2,130.7c-0.1,1-0.3,1.6-0.5,3.1c-0.1,0.3-0.1,0.7-0.2,1.2c-0.5,3.6-1.2,8.5-1.5,9.2
					c-0.5,1.2-3,3.2-4.3,3.9c-1.2,0.7-4.3,0.6-5.5-0.1c-1.2-0.7-4-2.5-4.5-3.8c-0.3-0.7-1-5.8-1.5-9.5c-0.1-0.4-0.1-0.8-0.2-1.1
					c-0.2-1.4-0.4-2-0.5-3c-0.2-3,3.2-7.5,9.3-7.5C165,123.2,167.4,127.6,167.2,130.7z"/>
				<path class="st4" d="M151.6,126.8c0,0,5.1-2.3,11.1,0.4l2.1-1.4c0,0-3.1-1.6-7.6-1.6C152.8,124.3,151.6,126.8,151.6,126.8z"/>
				<g>
					<path class="st5" d="M166.7,133.7c-0.1,0.3-0.1,0.7-0.2,1.2c-0.5,3.6-1.2,8.5-1.5,9.2c-0.5,1.2-3,3.2-4.3,3.9
						c-1.2,0.7-4.3,0.6-5.5-0.1c-1.2-0.7-4-2.5-4.5-3.8c-0.3-0.7-1-5.8-1.5-9.5c-0.1-0.4-0.1-0.8-0.2-1.1l0.5-0.7
						c0,0,0.9,5.2,2.3,6.9c1.4,1.6,1.6,1.7,1.6,1.7s1.5-0.4,2.8-0.7c0.1,0,0.1,0,0.2-0.1c1.1-0.3,2.2-0.3,3.3,0c0.1,0,0.1,0,0.2,0
						l0.2,0.1l2.1,0.6c0,0,0.5-0.1,1.9-1.7c1.4-1.6,2-6.9,2-6.9L166.7,133.7z"/>
				</g>
				<path class="st5" d="M167.6,128.7c0,0.1-0.5,3.7-0.7,4.2c-0.3,0.9-0.5,1.5-0.5,1.5l-0.4-0.8c-0.7-1.5-1-3.1-1.1-4.7l-0.1-3.1
					l1-0.9C167.8,125.3,168.1,126.4,167.6,128.7z"/>
				<path class="st5" d="M151.7,126L151.7,126l-0.5,3.2c-0.2,1.5-0.7,2.9-1.5,4.1l0,0.1l-0.6,1c0,0-0.2-0.6-0.4-1.3
					c-0.2-0.6-0.6-3.6-0.7-4c0-0.1-0.1-0.3-0.1-0.4c-0.4-2.2,0-3.2,2-3.5L151.7,126z"/>
				<path class="st5" d="M165.8,125l-1,0.9l-1.9,0.7c-0.2-0.2-3.8-1.5-6.8-1.2c-3.9,0.3-4.4,1.4-4.5,1.5c0,0,0,0,0,0l-0.4-0.1
					l-1.9-0.4l-0.4-0.1c0,0,0.4-1.7,0.8-2.2c1.5-2.3,5.7-3.8,9.5-3.4c0.1,0,0.3,0,0.4,0c3.5,0.5,5.1,2.1,5.1,2.1L165.8,125z"/>
			</g>
			<path class="st6" d="M175.3,320.9v7.6h-14.5c0,0,0.5-2.7,7.4-4l1-3.6H175.3z"/>
			<path class="st6" d="M153.2,320.9v7.6h-14.5c0,0,0.5-2.7,7.4-4l1-3.6H153.2z"/>
			<path class="st6" d="M172.9,208.3c0,0,2,24.4,2.1,44.2c0.1,19.9,1.3,70.1,1.3,70.1h-8c0,0-8.3-48.2-11.3-61
				c-3-12.8-10.8-53.1-10.8-53.1L172.9,208.3z"/>
			<path class="st6" d="M155.4,234.5c0,0-1.5,30.3-1.8,36.2c-0.3,6,0,51.9,0,51.9s-7.5,0.2-7.5,0c0-0.2-7.1-48.9-8-63.6
				c-0.9-14.7-0.4-32.1-1.6-34.1c-1.2-2,3.3-16.5,3.3-16.5l10.6,2.8L155.4,234.5z"/>
			<path class="st0" d="M152.1,149.5c0,0-3.3,7.6,1.7,8.4c8,1.3,10.4-8.9,10.4-8.9l8.8,4.5c0,0-0.2,54.7,3.3,71.4
				c2,9.7-31.4,5.1-36.3-3.5c-4.2-7.5,8-69.4,8-69.4L152.1,149.5z"/>
			<path class="st2" d="M166.3,150c-0.2,0.3-12,34.8-8,67.3c0.9,7.6,14.7,1.3,18,1.3c0,0,1.6-24.2,2-33.3c0.4-9-3.9-12-3.5-16.4
				c0.4-4.4,5.2-12.3,5.2-12.3L166.3,150z"/>
			<g>
				<path class="st2" d="M146.6,220.8c1.3-22.6,1.9-69.8,1.9-69.8l-8-0.6c0,0-4,39.6-4,44.1c0,1.8,0.5,23.6-0.7,27.6
					C138.5,222.5,146.4,223.5,146.6,220.8z"/>
			</g>
		</g>
		<path class="st7" d="M233.3,137.7c-6.3,2.1-12.7,4.4-17.6,8.8c-5,4.4-8.2,11.4-6.1,17.7c2.1,6.3,10.8,9.9,15.8,5.6
			c1.8-1.5,2.9-4.2,2-6.3c-1.9-4.3-8.6-2.3-11.8,1.2c-3.7,4.1-6.1,9.8-5.2,15.3c0.9,5.5,5.7,10.4,11.3,10.4c5.6,0,13.5-8.4,8.7-11.3
			c-6.1-3.7-13.8,5.1-16.8,11.5c-3,6.4-1.1,15.1,5,18.7c6.1,3.6,20.4-1,16.6-7c-4-6.3-15.6,2.8-17.2,10.1
			c-1.6,7.3,4.2,15.3,11.6,16.2c7.4,0.9,20.3-7.6,15.1-13c-7.4-7.8-19.8,12.1-16.2,22.3c3.6,10.2,18.3,14.3,26.6,7.3
			c1.6-1.3,3-3.2,2.7-5.2c-0.5-3.3-5-4.3-8.2-3.2c-8.3,2.8-12.1,14.5-7,21.6c5.1,7.1,17.4,7.3,22.7,0.2c1-1.4,1.8-3.1,1.5-4.8
			c-0.5-2.3-3.3-3.7-5.6-3.2c-2.4,0.4-4.3,2.2-5.6,4.2c-4.8,7-3.2,17.6,3.5,23c6.6,5.3,17.3,4.6,23.2-1.6c1.5-1.6,2.8-3.8,2.4-5.9
			c-0.5-2.5-3.2-4.2-5.7-4.1c-2.6,0.1-4.9,1.5-6.7,3.4c-7.5,7.8-4.3,22.8,5.7,26.8c10,4,29.8-7.1,22.8-15.3
			c-4.7-5.5-13.9,6.4-12.7,13.4c1.2,7.1,9.3,11.9,16.3,10.1c7-1.8,16.1-11.8,10.7-16.6c-3.8-3.4-10,3.8-11.1,8.7
			c-1.2,5,1.5,10.5,6,12.8c4.9,2.4,10.9,1,15.7-1.8c4.7-2.8,8.7-6.7,13.2-9.8c9.1-6.1,20.8-8.3,31.5-5.9"/>
		<g>
			<path class="st8" d="M548.9,170.3c-10.1-6.5-100.4,69.7-97.1,129.8c0,0,17.6-23.7,32.9-35.3c15.3-11.6,16.8-23.7,16.8-35.7
				c0-12,22.9-7,25.5-20.3C531.5,185.2,558,176.1,548.9,170.3z"/>
			<g>
				<g>
					<path class="st9" d="M554.8,226.3c-14.6,8.8-10.3,20.6-18.9,27.5c-6.3,5-16.7,2.4-21.9,9.2c-5.9,7.7,0.8,18.2,1.3,27.5
						c0.7,12.8-10.7,22.4-22.3,26.2c-13.5,4.5-30.9,3.1-38.2-10.3c-8.7-15.8-2.2-39.6,13.1-47c3.7-1.8,8.4-2.3,11.4-5.9
						c5.1-6.2,1.8-15,4.2-22.8c2.3-7.6,9.8-13,16.8-15.4c7-2.4,14-2.9,20.8-5.6c9.2-3.8,17.3-12,25-17.6c6.9-5,31-14.3,34.9,2
						C584.7,209,567.1,218.9,554.8,226.3z"/>
				</g>
				<path class="st10" d="M556.3,202.6c0,0-59.6,30-107.2,126.6"/>
			</g>
			<path class="st11" d="M592.3,247.8c0,0-76.7-0.9-140.4,72.2"/>
			<g>
				<g>
					<path class="st8" d="M554.3,281.9c-7.3,2.9-9.3,15.2-17.2,16.8c-5.7,1.1-11.8-3.9-17.4-1.3c-6.3,3-5.2,11.8-7.8,17.9
						c-3.6,8.3-14.1,10.7-23,9.4c-10.3-1.5-21.5-8.1-22.2-19c-0.8-12.9,11-25.9,23.4-25.6c3,0.1,6.3,1.3,9.5,0
						c5.3-2.2,5.9-8.9,10-13.1c3.9-4.1,10.6-5,16-4.3c5.4,0.8,10.2,2.8,15.6,3.2c7.3,0.6,15.3-2,22.1-3c6.1-0.9,31.1-0.4,22.5,12.7
						C579.9,284.6,564.1,278,554.3,281.9z"/>
				</g>
				<path class="st10" d="M570.1,269.9c0,0-53.3,4.5-115.2,50.4"/>
			</g>
			<path class="st9" d="M396.6,327.1c0,0,12.1-21.2,14.1-23.4c12.5-13.8,29-14,45.8-10.5c4.9,1,17.8,7.8,22.4,6.8
				c3.6-0.7,8-14.6,19.7-13.9c11.7,0.7,12.4,14.6,12.4,14.6s7.3-16.1,19-14.6c11.7,1.5,11.7,12.4,2.9,20.4c0,0,18.6-5.6,36.6,3.1
				c18,8.6,9.4,20,9.4,20L396.6,327.1z"/>
		</g>
		<g>
			<path class="st8" d="M72.3,170.3c10.1-6.5,100.4,69.7,97.1,129.8c0,0-17.6-23.7-32.9-35.3s-16.8-23.7-16.8-35.7
				c0-12-22.9-7-25.5-20.3C89.7,185.2,63.2,176.1,72.3,170.3z"/>
			<g>
				<g>
					<path class="st9" d="M66.4,226.3c14.6,8.8,10.3,20.6,18.9,27.5c6.3,5,16.7,2.4,21.9,9.2c5.9,7.7-0.8,18.2-1.3,27.5
						c-0.7,12.8,10.7,22.4,22.3,26.2c13.5,4.5,30.9,3.1,38.2-10.3c8.7-15.8,2.2-39.6-13.1-47c-3.7-1.8-8.4-2.3-11.4-5.9
						c-5.1-6.2-1.8-15-4.2-22.8c-2.3-7.6-9.8-13-16.8-15.4c-7-2.4-14-2.9-20.8-5.6c-9.2-3.8-17.3-12-25-17.6c-6.9-5-31-14.3-34.9,2
						C36.5,209,54.1,218.9,66.4,226.3z"/>
				</g>
				<path class="st10" d="M64.9,202.6c0,0,59.6,30,107.2,126.6"/>
			</g>
			<path class="st11" d="M28.9,247.8c0,0,76.7-0.9,140.4,72.2"/>
			<g>
				<g>
					<path class="st8" d="M66.9,281.9c7.3,2.9,9.3,15.2,17.2,16.8c5.7,1.1,11.8-3.9,17.4-1.3c6.3,3,5.2,11.8,7.8,17.9
						c3.6,8.3,14.1,10.7,23,9.4c10.3-1.5,21.5-8.1,22.2-19c0.8-12.9-11-25.9-23.4-25.6c-3,0.1-6.3,1.3-9.5,0
						c-5.3-2.2-5.9-8.9-10-13.1c-3.9-4.1-10.6-5-16-4.3c-5.4,0.8-10.2,2.8-15.6,3.2c-7.3,0.6-15.3-2-22.1-3
						c-6.1-0.9-31.1-0.4-22.5,12.7C41.3,284.6,57.1,278,66.9,281.9z"/>
				</g>
				<path class="st10" d="M51.1,269.9c0,0,53.3,4.5,115.2,50.4"/>
			</g>
			<path class="st9" d="M224.6,327.1c0,0-12.1-21.2-14.1-23.4c-12.5-13.8-29-14-45.8-10.5c-4.9,1-17.8,7.8-22.4,6.8
				c-3.6-0.7-8-14.6-19.7-13.9c-11.7,0.7-12.4,14.6-12.4,14.6s-7.3-16.1-19-14.6c-11.7,1.5-11.7,12.4-2.9,20.4
				c0,0-18.6-5.6-36.6,3.1c-18,8.6-9.4,20-9.4,20L224.6,327.1z"/>
		</g>
		<g>
			<g>
				<path class="st12" d="M355.2,329h-18.9c-2.1,0-3.8-1.6-4-3.7l-1.2-14.9h29.3l-1.2,14.9C359,327.4,357.3,329,355.2,329z"/>
				<path class="st12" d="M466.6,329h-18.9c-2.1,0-3.8-1.6-4-3.7l-1.2-14.9h29.3l-1.2,14.9C470.4,327.4,468.7,329,466.6,329z"/>
			</g>
			<path class="st13" d="M469.8,290.9H333.1l9.7-70.5c0.8-5.5,5.5-9.6,11-9.6h95.4c5.6,0,10.2,4.1,11,9.6L469.8,290.9z"/>
			<path class="st13" d="M451.4,277.2h-99.8l7.1-70.8c0.5-5.3,5-9.3,10.2-9.3H434c5.3,0,9.7,4,10.2,9.3L451.4,277.2z"/>
			<polygon class="st14" points="335.3,274.9 333.1,290.9 469.8,290.9 467.6,274.9 			"/>
			<polygon class="st13" points="484.6,318.2 318.3,318.2 321.4,282.1 481.6,282.1 			"/>
			<g>
				
					<ellipse transform="matrix(0.838 -0.5456 0.5456 0.838 -66.5676 258.0999)" class="st14" cx="401.5" cy="241.2" rx="30.4" ry="30.4"/>
				
					<ellipse transform="matrix(0.9997 -2.338118e-02 2.338118e-02 0.9997 -5.5293 9.4528)" class="st0" cx="401.5" cy="241.2" rx="26.3" ry="26.3"/>
				<g>
					<g>
						<path class="st15" d="M408.8,262.8c-0.9,0-1.8-0.4-2.4-1c-0.2-0.2-0.3-0.3-0.4-0.5c-0.1-0.2-0.2-0.4-0.3-0.6
							c-0.1-0.2-0.1-0.4-0.2-0.6c0-0.2-0.1-0.4-0.1-0.7c0-0.9,0.4-1.8,1-2.4c0.8-0.8,2-1.2,3.1-0.9c0.2,0,0.4,0.1,0.6,0.2
							c0.2,0.1,0.4,0.2,0.6,0.3c0.2,0.1,0.4,0.3,0.5,0.4c0.6,0.6,1,1.5,1,2.4c0,0.2,0,0.4-0.1,0.7c0,0.2-0.1,0.4-0.2,0.6
							c-0.1,0.2-0.2,0.4-0.3,0.6c-0.1,0.2-0.3,0.4-0.4,0.5c-0.2,0.2-0.3,0.3-0.5,0.4c-0.2,0.1-0.4,0.2-0.6,0.3
							c-0.2,0.1-0.4,0.2-0.6,0.2C409.3,262.8,409,262.8,408.8,262.8z"/>
					</g>
					<g>
						<path class="st15" d="M398.2,264L398.2,264L398.2,264c-1.9-0.3-3.2-2-2.9-3.9l0,0c0.3-1.9,2-3.2,3.9-2.9l0,0
							c1.9,0.3,3.2,2,2.9,3.9l0,0c-0.2,1.7-1.7,2.9-3.4,2.9l0,0C398.6,264.1,398.4,264.1,398.2,264z M387.3,259.4L387.3,259.4
							L387.3,259.4c-1.5-1.2-1.7-3.3-0.6-4.8l0,0c1.2-1.5,3.3-1.7,4.8-0.6l0,0c1.5,1.2,1.7,3.3,0.6,4.8l0,0
							c-0.7,0.9-1.7,1.3-2.7,1.3l0,0C388.6,260.1,387.9,259.8,387.3,259.4z M380.1,249.8c-0.7-1.7,0.1-3.7,1.9-4.4l0,0
							c1.7-0.7,3.7,0.1,4.5,1.9l0,0c0.7,1.7-0.1,3.7-1.9,4.5l0,0c-0.4,0.2-0.8,0.2-1.3,0.2l0,0C381.9,251.9,380.6,251.1,380.1,249.8
							z M381.5,241.8c-1.9-0.3-3.2-2-2.9-3.9l0,0c0.3-1.9,2-3.2,3.9-2.9l0,0c1.9,0.3,3.2,2,2.9,3.9l0,0c-0.2,1.7-1.7,2.9-3.4,2.9
							l0,0C381.8,241.9,381.7,241.8,381.5,241.8z M383.9,231.8c-1.5-1.2-1.8-3.3-0.6-4.8l0,0l0,0l0,0c1.2-1.5,3.3-1.8,4.8-0.6l0,0
							c1.5,1.2,1.8,3.3,0.6,4.8l0,0c-0.7,0.9-1.7,1.3-2.7,1.3l0,0C385.2,232.5,384.5,232.3,383.9,231.8z M411.5,228.4
							c-1.5-1.2-1.8-3.3-0.6-4.8l0,0c1.2-1.5,3.3-1.8,4.8-0.6l0,0c1.5,1.2,1.8,3.3,0.6,4.8l0,0c-0.7,0.9-1.7,1.3-2.7,1.3l0,0
							C412.8,229.1,412.1,228.9,411.5,228.4z M390.9,224.2c-0.7-1.7,0.1-3.7,1.9-4.4l0,0l0,0l0,0c1.7-0.7,3.7,0.1,4.5,1.9l0,0
							c0.7,1.7-0.1,3.7-1.9,4.5l0,0c-0.4,0.2-0.8,0.2-1.3,0.2l0,0C392.7,226.4,391.5,225.6,390.9,224.2z M403.7,225.1
							c-1.9-0.3-3.2-2-2.9-3.9l0,0c0.3-1.9,2-3.2,3.9-2.9l0,0c1.9,0.3,3.2,2,2.9,3.9l0,0c-0.2,1.7-1.7,2.9-3.4,2.9l0,0
							C404,225.1,403.9,225.1,403.7,225.1z"/>
					</g>
					<g>
						<path class="st15" d="M419.7,237.2c-0.2,0-0.4,0-0.7-0.1c-0.2,0-0.4-0.1-0.6-0.2c-0.2-0.1-0.4-0.2-0.6-0.3
							c-0.2-0.1-0.4-0.3-0.5-0.4c-0.6-0.6-1-1.5-1-2.4c0-0.2,0-0.4,0.1-0.7c0-0.2,0.1-0.4,0.2-0.6c0.1-0.2,0.2-0.4,0.3-0.6
							c0.1-0.2,0.3-0.4,0.4-0.5c0.2-0.2,0.3-0.3,0.5-0.4c0.2-0.1,0.4-0.2,0.6-0.3c0.2-0.1,0.4-0.1,0.6-0.2c1.1-0.2,2.3,0.1,3.1,0.9
							c0.2,0.2,0.3,0.3,0.4,0.5c0.1,0.2,0.2,0.4,0.3,0.6c0.1,0.2,0.2,0.4,0.2,0.6c0,0.2,0.1,0.4,0.1,0.7c0,0.9-0.4,1.8-1,2.4
							C421.5,236.9,420.6,237.2,419.7,237.2z"/>
					</g>
				</g>
			</g>
		</g>
		<g>
			<path class="st16" d="M362.2,130.3c0,0-3.6-7.8,2.9-15.3c0,0,24.7,16,52.4,11.5c0,0,3,8.3-5.5,16.1
				C412.1,142.6,382.5,148.3,362.2,130.3z"/>
			<path class="st13" d="M404.6,94.8c-17.8-15-51.5-17.1-94.2-10.3c-36.7,5.9-74.1,19.8-86.6,39.4c-5.7,8.9-1.8,33.7-1.8,33.7
				c33.8,2.1,46.2-27,46.2-27s-2.3-8.3,5.3-11.9c26.5-12.8,67.6-17.1,82.9-13.4c8.2,2,8.8,9.6,8.8,9.6s20.9,23.7,52.3,11.1
				C417.5,126.2,412.7,101.6,404.6,94.8z"/>
			<path class="st16" d="M275.1,144c0,0,1-8.6-7.6-13.6c0,0-18.5,23-46.1,27.4c0,0-0.3,8.9,10.2,13.5
				C231.6,171.3,261.4,167.4,275.1,144z"/>
		</g>
		<g>
			<defs>
				<path id="SVGID_1_" d="M268.3,328.8H134.4c-7.9,0-14.2-6.4-14.2-14.2v-78.7c0-7.9,6.4-14.2,14.2-14.2h133.9
					c7.9,0,14.2,6.4,14.2,14.2v78.7C282.5,322.4,276.1,328.8,268.3,328.8z"/>
			</defs>
			<clipPath id="SVGID_00000029031057418176598370000008367178353284515516_">
				<use xlink:href="#SVGID_1_"  style="overflow:visible;"/>
			</clipPath>
			<path style="clip-path:url(#SVGID_00000029031057418176598370000008367178353284515516_);fill:#FFD71D;" d="M268.3,328.8H134.4
				c-7.9,0-14.2-6.4-14.2-14.2v-78.7c0-7.9,6.4-14.2,14.2-14.2h133.9c7.9,0,14.2,6.4,14.2,14.2v78.7
				C282.5,322.4,276.1,328.8,268.3,328.8z"/>
			<path style="clip-path:url(#SVGID_00000029031057418176598370000008367178353284515516_);fill:#FFD71D;" d="M282.5,235.9
				c0-7.9-6.4-14.2-14.2-14.2H134.4c-7.9,0-14.2,6.4-14.2,14.2l73.6,59.7c4.3,3.5,10.6,3.5,14.9,0L282.5,235.9z"/>
			
				<radialGradient id="SVGID_00000168104406201952499870000003012232328851984564_" cx="137.3396" cy="260.0777" r="67.1821" gradientUnits="userSpaceOnUse">
				<stop  offset="0" style="stop-color:#FFFFFF"/>
				<stop  offset="1" style="stop-color:#FFFFFF;stop-opacity:0"/>
			</radialGradient>
			
				<path style="opacity:0.7;clip-path:url(#SVGID_00000029031057418176598370000008367178353284515516_);fill:url(#SVGID_00000168104406201952499870000003012232328851984564_);" d="
				M129.7,317.7V239c0-7.9,6.4-14.2,14.2-14.2h133.2c-2.4-1.9-5.5-3.2-8.8-3.2H134.4c-7.9,0-14.2,6.4-14.2,14.2v78.7
				c0,7.9,6.4,14.2,14.2,14.2h0.6C131.8,326.2,129.7,322.2,129.7,317.7z"/>
			
				<linearGradient id="SVGID_00000147196164330135857960000017697384810247263673_" gradientUnits="userSpaceOnUse" x1="201.3541" y1="221.6438" x2="201.3541" y2="288.541">
				<stop  offset="0" style="stop-color:#FFD71D"/>
				<stop  offset="1" style="stop-color:#FEB200"/>
			</linearGradient>
			
				<path style="clip-path:url(#SVGID_00000029031057418176598370000008367178353284515516_);fill:url(#SVGID_00000147196164330135857960000017697384810247263673_);" d="
				M192.4,285.2l-72.2-63.5h162.3l-72.2,63.5C205.2,289.7,197.5,289.7,192.4,285.2z"/>
			<path style="opacity:0.7;clip-path:url(#SVGID_00000029031057418176598370000008367178353284515516_);fill:#FFDD00;" d="
				M192.4,285.2l-72.2-63.5h162.3l-72.2,63.5C205.2,289.7,197.5,289.7,192.4,285.2z"/>
		</g>
		<g>
			<g>
				<path class="st3" d="M331.1,156.8c0,0,4.6-13.3,4.9-14.8c1.9-8.7,2.4-27.4,2.3-31.4c-0.1-4-0.5-7.5-0.6-8
					c-0.1-0.5-2.6-3.2-2.6-3.2c0,0-0.8,0.1-0.8,0.1l0,0.5l-1.1-0.9l-0.9,0l-0.1,0.4l-1.3-0.6l-1.2,0c0,0,0.8,2.5,1.2,4.1
					c0.5,1.5,0,1.7,0,1.7s-1,0.4-1.4,0.3c-0.4-0.1-1.7-0.1-1.7-0.1s3.7,4.9,3.9,5.3c0.2,0.4,2.3,2.7,1.5,7
					c-1.4,7.8-5.3,19.4-5.3,19.4c0.1-0.3-5,14.4-5,14.4L331.1,156.8z"/>
				<path class="st2" d="M328.6,174.5c1.4-11.2,7.2-24.3,7.2-24.3s-8.8-1.7-11-4.9c0,0-3,7.4-4.8,11.1c-1.9,4.1-4.6,8.5-1.2,10.9
					C322,169.6,328.1,178.4,328.6,174.5z"/>
			</g>
			<path class="st6" d="M295,321.7v7.2h13.9c0,0-0.5-2.6-7.1-3.8l-1-3.4H295z"/>
			<path class="st6" d="M316,321.7v7.2h13.9c0,0-0.5-2.6-7.1-3.8l-1-3.4H316z"/>
			<path class="st6" d="M297.3,214.3c0,0-1.9,20.2-2,39.1c-0.1,18.9-1.2,69.9-1.2,69.9h7.7c0,0,7.9-49.1,10.8-61.3
				c2.9-12.2,10.3-47.5,10.3-47.5L297.3,214.3z"/>
			<path class="st3" d="M309.1,147.5c0,0-0.5,3.9-0.9,5.8c-0.4,2-0.7,3-1,3.6c-0.7,1.3-4.7,5.4-4.7,5.4s12.7,6.7,16.4,6.7
				c3.7,0,2.4-7.5,2.4-7.5s-4.1-3.2-4.7-4.8c-0.6-1.6-0.9-6.3-0.9-6.3L309.1,147.5z"/>
			<path class="st6" d="M313.9,236.2c0,0,1.4,31.9,1.7,37.6c0.3,5.7,0,49.5,0,49.5s7.2,0.2,7.2,0c0-0.2,6.8-49.7,7.6-63.7
				c0.9-14,0.4-30.6,1.5-32.5c1.2-1.9-3.1-12.6-3.1-12.6l-10.1-0.4L313.9,236.2z"/>
			<path class="st2" d="M305,158.5c0,0-10.7-4.3-12.5-0.8c-1.3,2.7-0.2,19.8,0.4,24.6c0.5,4.2,3.4,39.2,3.4,39.2s4,6.2,23.3,3.7
				c7.4-1,11.1-4.6,11.1-4.6s-2.1-41.8-2.7-46c-0.6-4.2-2.6-10.7-2.6-10.7l-5.7-3.8c0,0,1.8,4-3.3,5.2
				C305.9,167.7,305,158.5,305,158.5z"/>
			<path class="st3" d="M319.2,132.9c1.2,0.5,3.3,1.6,3.6,2.6c0.2,1,1.1,4,1.2,5.7c0.1,1.8,0.4,5.1,0.4,7.2c0,2.1-1.3,6.3-1.7,6.8
				c-0.5,0.4-4,1.2-5.2,0.8c-1.2-0.3-8.2-4-8.6-8.4c0,0-1.2,0.7-3.5-3c-0.6-1,1.5-8.1,1.7-9.4c0.7-3.1,8.3-0.7,10-1.1
				C318.7,133.7,319.2,132.9,319.2,132.9z"/>
			<path class="st6" d="M322.8,135.5c0,0-5.4,3.4-7.4,3.5c-2.1,0.2-5.2,3-5.1,3.9c0.1,0.9-0.9,1.5-0.9,1.5s-1.3-2.1-2.4-1.9
				c-2.1,0.4-0.9,3,0.3,3.6s2.3,0.9,2.3,0.9s0.2,1.2,0.1,2.2c-0.1,1-0.9,2.6-0.9,2.6s-2.5-5.2-4.7-7.1c-5.3-4.6-1.5-13.2,3.7-14.8
				c2.1-0.7,7.9-1.1,10.7,0.2C322.2,131.9,322.8,135.5,322.8,135.5z"/>
			<path class="st12" d="M311.5,142.9c0.1,0.2,0.6,0.2,0.7,0.3c0.2,0.1,0.1,0.1,1.1,1.6c0.7,1.1,1.9,1.4,4.1,0.7
				c1.7-0.6,1.5-2,1.6-2.7c0.1-0.7,0.3-0.8,0.5-0.9c0.3,0,0.4,0,0.8,0.6c0.4,0.6,0.5,2.2,2.3,1.9c1.2-0.2,1.5-0.5,1.7-1.5
				c0.1-0.9,0.2-1.7,0.1-2.3c0-0.6-0.1-1-0.4-1.1c-0.4,0-0.9,0.1-1.5,0.2c-1.1,0.2-1.8,0.2-2.4,0.6c-0.6,0.4-0.5,0.7-0.8,0.7
				c-0.3,0.1-0.4-0.2-1-0.4c-0.7-0.2-3.5,0.3-4.6,0.5c-1.1,0.2-2.5,0.6-2.5,1C311.4,142.3,311.5,142.6,311.5,142.9z M320.7,141.3
				c0.1-0.5,0.1-0.5,1.4-0.8c1.3-0.3,1.4-0.2,1.7,0c0.3,0.2,0.5,1,0.3,2.1c-0.1,0.6-0.2,1.3-1.3,1.5c-1.2,0.2-1.4-0.4-1.7-1.2
				C320.8,142.1,320.7,141.5,320.7,141.3z M313.1,142.1c0.2-0.3,2-0.5,3.3-0.7c1.3-0.2,1.8-0.2,2,0.3c0.1,0.2,0.2,0.9,0.2,1.7
				c0,0.9-0.2,1.6-2.3,2c-1.5,0.3-2.2-0.1-2.8-1.2C312.9,143.2,312.9,142.4,313.1,142.1z M308.6,143.5l2.9-0.6l1-1.4
				c0,0-1.1,0.2-3,0.6c-0.9,0.2-1.8,0.8-1.8,0.8S308.2,143,308.6,143.5z"/>
			<g>
				<path class="st3" d="M285.5,158c0,0-2.5-16.1-2.6-17.6c-0.1-8.9,4.4-20.8,5.3-24.7c0.9-3.9,1.5-3.3,1.7-3.8
					c0.2-0.5,6.6-1.5,6.6-1.5s1.7-0.7,2.1-0.8c0.4,0,2.1-0.5,2.1-0.5l-1,1.8c0,0-4,3.1-4.3,3.5c-0.3,0.4-2.8,2.1-2.9,6.6
					c-0.2,7.9-0.1,16.5-0.1,16.5c-0.1-0.3,3.8,16.4,3.8,16.4L285.5,158z"/>
				<path class="st2" d="M292.9,182.3c-2.7-7.7-9-28.5-9-28.5s9.3-2.3,11.9-5.2c0,0,3.1,9.3,4.4,13.1c1.4,4.3,3.6,9,0,11
					C296.7,174.7,294.2,186.1,292.9,182.3z"/>
			</g>
		</g>
		<g>
			<g>
				
					<linearGradient id="SVGID_00000132797692493618269570000001404911964800670397_" gradientUnits="userSpaceOnUse" x1="411.9803" y1="225.3956" x2="458.4728" y2="225.3956" gradientTransform="matrix(-1 0 0 1 902.6139 0)">
					<stop  offset="0" style="stop-color:#343A44"/>
					<stop  offset="0.3009" style="stop-color:#232D3E"/>
					<stop  offset="0.6391" style="stop-color:#182439"/>
					<stop  offset="1" style="stop-color:#142138"/>
				</linearGradient>
				<path style="fill:url(#SVGID_00000132797692493618269570000001404911964800670397_);" d="M472.2,195.3c2.4,2.2,4.1,1.5,7.7,13.9
					c2.3,7.9,10.7,47.8,10.7,47.8l-5,2.2c-6.8-19.1-6.8-19-14.7-34.5c-3.8-7.5-5.5-14.9-5.5-14.9l-14.7-0.9c-9.2-3.8-6-17.2-6-17.2
					S469.8,193.1,472.2,195.3z"/>
				
					<linearGradient id="SVGID_00000141440986879199770150000002549585961036457400_" gradientUnits="userSpaceOnUse" x1="423.3443" y1="219.0555" x2="489.1343" y2="219.0555" gradientTransform="matrix(-1 0 0 1 902.6139 0)">
					<stop  offset="0" style="stop-color:#343A44"/>
					<stop  offset="0.3009" style="stop-color:#232D3E"/>
					<stop  offset="0.6391" style="stop-color:#182439"/>
					<stop  offset="1" style="stop-color:#142138"/>
				</linearGradient>
				<path style="fill:url(#SVGID_00000141440986879199770150000002549585961036457400_);" d="M416.5,183.5l13.3-8.5l12.8,10l16,5.2
					c0,0,0,0-0.1,0c6.4,2.2,13.8,5.5,16,7.6c2.4,2.2,7.2,5.4,3.3,17.7c-2.4,7.9-13.1,47.7-13.1,47.7l-5.4-1c0,0,1.9-23.1,3.8-40.4
					c0.9-8.4,1.2-10.7,1.2-10.7s-35.7,3.9-47.2-2.2C409.2,204.7,416.5,189.9,416.5,183.5z"/>
				<path class="st6" d="M465.1,260.3c0,0-0.2,1.4-2.5,2.1c-2.3,0.7-3.9-1.3-3.9-1.3l-0.5,4.7l7.4,5.2h6.2l-3.3-3.7L465.1,260.3z"/>
				<path class="st6" d="M489.8,253.7c0,0,1.1,2-0.9,3.4c-2,1.3-4.1,0-4.1,0l1,4.7l17.5-5.5L489.8,253.7z"/>
			</g>
			<g>
				<path class="st3" d="M469.7,135.7c0,0.3-2.9-3.5-2.9-3.5l-0.7-3.1c0,0-1.2-1.6-2.1-2.5c-0.9-1-1.7-5-1.7-5l1.2-0.7
					c0,0,0.6,1.9,0.9,2.2c0.3,0.4,1.2,0.5,1.2,0.5s0.1-1.1,0-2.8c-0.1-1.7-1.1-4.8-1.1-4.8l1-0.5c0,0,0.7,1.5,0.9,2.2
					c0.2,0.7,0.6,2.1,0.6,2.1s-0.1-2.3-0.3-3.2c-0.2-0.9-0.4-2.2-0.4-2.2l1-0.3c0,0,0.5,1.5,0.7,2.6c0.2,1.1,0.5,2.9,0.5,2.9
					s0.1-2.5,0-3.3c-0.1-0.8-0.1-1.2-0.1-1.2l1.1,0c0,0,0.4,1.1,0.4,2.5c0,1.3,0.1,2,0.1,2s0.4-2,0.3-2.7c-0.1-0.7,0-0.9,0-0.9
					l0.8,0.1c0,0,0.5,3.4,0.6,5.4c0.2,2-0.1,4.6-0.1,6c0,1.4-0.1,2.6-0.1,2.6L469.7,135.7z"/>
				<path class="st3" d="M447.2,139.6c6.8,5.6,13.7,9.8,13.7,9.8s2.5-6.4,3.8-10.9c1.4-5.4,1.9-7.9,1.9-7.9l5.2-0.4
					c0,0-1.6,13.8-3.7,23.2c-2,9.1-4.5,7.5-6.6,7c-2.2-0.4-22.7-11.5-22.7-11.5l2.2-11.7C440.9,137.2,442.3,135.6,447.2,139.6z"/>
				<path class="st23" d="M425.5,106.5c1.1-0.6,6.4-1.1,9.7,1c6.3,3.9,3.3,14.6,2.9,17.1c-0.4,2.5,1.9,6.9,1.8,9.9
					c0,2.9-0.7,4-2.9,6.9c-0.7,0.8-0.8,2.3-0.8,2.3s-2.4-3.6-3-8.7c-0.5-5.1-1.6-3.9-4.1-9.5c-2.5-5.6-2.6-14-2.6-14L425.5,106.5z"
					/>
				<path class="st23" d="M430.8,110.1l-5.3-3.6c0,0-4.5-0.6-7.1,3.4c-2.6,4-3.5,9.8-4.1,14.2c-0.6,4.4-2.1,12.6-2,15.8
					c0.1,3.3,4.1,3.7,4.1,3.7l13.3-5.7c0,0-1.6-7-0.1-14.4C430.9,116,430.8,110.1,430.8,110.1z"/>
				<path class="st3" d="M435.2,111.2c0.3,1.7,1.6,6.5,1.7,9.6c0.1,3.1-0.2,8.2-2.3,9.7c-2.1,1.4-5.9,0.3-8.8-0.9
					c-2.8-1.2-3.5-3.2-4.1-5c-0.6-1.8-0.4-6.7,0.3-10.1c0.6-3.5,2.9-4.9,5.4-5.4C430,108.6,435.2,111.2,435.2,111.2z"/>
				<path class="st3" d="M423.6,122.8c0,0,0.7,7.7-0.9,11.4c-1.1,2.5-5.7,3.6-5.7,3.6s-0.2,7,4.4,13.7c4.6,6.7,18.8,9.2,18.8,9.2
					s2.8-5.6,4.3-11.9c1.5-6.3-2.5-11.1-2.5-11.1s-3.9-1.3-5.7-2c-4.5-1.7-4-8.8-4-8.8L423.6,122.8z"/>
				<path class="st2" d="M432.3,140.7c0,0-9.2-2.3-12-4.1l-9.1,5.4c0,0-5.4,5.1,3.8,18.6c0,0,3.5,12.3-2.2,33.9
					c0,0,1.5,5.6,10.1,2.6c7.4-2.6,7.5-4.5,14-6.2c9.5-2.4,12-3.9,12-3.9c-5-7.5-4.1-19.3-4.1-19.3s5.7-5.4,3.2-11
					c-3.5-8-4.7-19.4-4.7-19.4l-4.9-1.2c0,0-2.6,3.2-3.9,4.2C433.3,141.3,432.3,140.7,432.3,140.7z"/>
				<path class="st0" d="M436.3,135.6c0,0-1.1,4.2-4,5.1c0,0,1.1,5.7,3.8,4.7c3.8-1.4,2.3-9.3,2.3-9.3L436.3,135.6z"/>
				<path class="st0" d="M419.2,135.9c0,0,1.8,8.7,6.6,9.5c4.8,0.7,6.5-4.6,6.5-4.6s-10.2-3-11.2-6.1L419.2,135.9z"/>
				<path class="st23" d="M427.7,109c-0.9,0.1-1.5,4.3-1.6,6.6c-0.1,2.4-3.6,4.2-2.1,9.4c1.6,5.2,1.3,10.2,3.4,15.8
					c2.1,5.7-0.5,7.7-1.6,9.7c0,0-4.5-4.9-6-7.3c-2.4-3.9-6.4-2.9-6.4-2.9s6.8-13.2,6.6-16.8c-0.2-3.6-0.9-9,2-12.3
					C424.9,108.1,427.7,109,427.7,109z"/>
				<path class="st3" d="M424.1,119.6c0,0-1.9-2.1-3.1-1.8c-1.2,0.3-1.3,2.2-0.4,3.7c1,1.5,4.5,2.4,4.5,2.4L424.1,119.6z"/>
				<path class="st23" d="M428.4,115.5c1.7,0.2,2.7-0.1,5.4-0.4c3.4-0.4,4.9,0.5,4.9,0.5l-1.3-5.7c0,0-4-2.2-6.8-2.2
					c-3.6,0-6.8,1.4-5,2.6C427.5,111.5,428.4,115.5,428.4,115.5z"/>
				<g>
					<path class="st3" d="M418.9,148.4c-0.6,7.2-2.7,27.6-2.7,27.6c6.5,5.7,15.7,15.2,15.7,15.2s-2.6,5.2-3.7,4.3
						c-9-7-19.2-11.2-20-16c-1.2-8-1.6-28.2,1.3-34.8C411.8,139.5,419.6,140.8,418.9,148.4z"/>
					<path class="st3" d="M435.9,191.7c2.7,1,4.4,2,4.3,3c-0.1,0.7-2.4-0.6-3.8-0.5c0.5,1,1.7,2.5,3.3,3.3c1.8,0.9,2.8,2.1,1.8,3.2
						c-1,1-2.7,2.5-3.9,2c-1.2-0.5-5.3-3.4-6.8-4.2c-1.6-0.8-2.2-2.7-3-3.3c-0.8-0.5,1.5-4.6,1.5-4.6c0.4,0.1,2.7,0.6,2.7,0.6
						s1.8,0.3,2.2,0.2C434.6,191.2,435.9,191.7,435.9,191.7z"/>
				</g>
			</g>
		</g>
		<line class="st10" x1="5.8" y1="328.4" x2="615.4" y2="328.4"/>
	</g>
</g>
<g id="DESIGNED_BY_FREEPIK">
</g>
</svg>
