<?xml version="1.0" encoding="utf-8"?>
<!-- Generator: Adobe Illustrator 26.0.1, SVG Export Plug-In . SVG Version: 6.00 Build 0)  -->
<svg version="1.1" id="Layer_1" xmlns="http://www.w3.org/2000/svg" xmlns:xlink="http://www.w3.org/1999/xlink" x="0px" y="0px"
	 viewBox="0 0 219.1 155.4" style="enable-background:new 0 0 219.1 155.4;" xml:space="preserve">
<style type="text/css">
	.st0{opacity:0.85;}
	.st1{fill:#FFFFFF;}
	.st2{clip-path:url(#SVGID_00000164506362656374440470000010582148900008043696_);}
	.st3{fill:#8E24AA;}
	.st4{fill:#7C4DFF;}
	.st5{fill:none;stroke:#FFFFFF;stroke-width:0.8038;stroke-miterlimit:10;}
	.st6{fill:none;stroke:#1A237E;stroke-width:0.8038;stroke-miterlimit:10;}
	.st7{clip-path:url(#SVGID_00000031921216460971110810000009233803810842050230_);}
	.st8{fill:#8C9EFF;}
	.st9{fill:#3D5AFE;}
	.st10{clip-path:url(#SVGID_00000026852321628900776610000011289778931072417672_);}
	.st11{fill:#FFD740;}
	.st12{fill:#FFAB40;}
	.st13{clip-path:url(#SVGID_00000053535624167872798790000000514603844926475170_);}
	.st14{clip-path:url(#SVGID_00000098195896447068546650000010390584342625976220_);}
	.st15{fill:#E8EAF6;}
	.st16{fill:#C5CAE9;}
	.st17{fill:#9FA8DA;}
	.st18{fill:url(#SVGID_00000045585020992165094060000014336557846038785204_);}
	.st19{clip-path:url(#SVGID_00000098210409143749384200000004952918255202328477_);}
	.st20{fill:#1A237E;}
	.st21{fill:url(#SVGID_00000029017785783173069250000009647059385714419085_);}
	.st22{fill:url(#SVGID_00000062187296663959815630000005333861062840898195_);}
	.st23{fill:url(#SVGID_00000139281718154881632290000010371693893477365418_);}
	.st24{clip-path:url(#SVGID_00000000940744892575868540000012221125975226926769_);}
	.st25{clip-path:url(#SVGID_00000162331197824902286840000007934604543277039039_);}
	.st26{fill:#AA00FF;}
	.st27{clip-path:url(#SVGID_00000180364013091554588900000018277962887028026797_);}
	.st28{clip-path:url(#SVGID_00000127749516385572596450000017005632655657985465_);}
	.st29{fill:url(#SVGID_00000098939550240808615690000012741477869332202168_);}
	.st30{fill:none;stroke:#3949AB;stroke-width:0.8038;stroke-miterlimit:10;}
</style>
<g id="BACKGROUND">
</g>
<g id="OBJECTS">
	<g>
		<g class="st0">
			<g>
				<path class="st1" d="M158.5,54C158.5,54,158.5,54,158.5,54c0.1-1.2,0.1-1.9,0.1-1.9s0-0.8-0.1-1.9c0,0,0,0,0,0
					c0.4-0.2,1-0.5,1.5-0.8c1.2-0.7,2.4-1.4,2.4-1.4s-0.1-0.4-0.1-1c-0.1-0.6-0.3-1.3-0.5-2s-0.5-1.5-0.7-2
					c-0.1-0.3-0.2-0.5-0.2-0.7c-0.1-0.2-0.1-0.2-0.1-0.2s-1.4,0-2.8,0.1c-0.6,0-1.2,0.1-1.7,0.2c0,0,0,0,0,0
					c-0.2-0.5-0.5-0.9-0.7-1.2c-0.2-0.3-0.3-0.4-0.3-0.4s-0.1-0.2-0.3-0.4c-0.2-0.3-0.5-0.6-0.8-1.1c0,0,0,0,0,0
					c0.2-0.4,0.6-0.9,0.9-1.5c0.6-1.2,1.2-2.5,1.2-2.5s-0.3-0.3-0.6-0.7c-0.4-0.4-1-0.9-1.5-1.4c-0.6-0.5-1.2-1-1.6-1.3
					c-0.5-0.3-0.8-0.6-0.8-0.6s-1.2,0.8-2.3,1.6c-0.5,0.4-0.9,0.7-1.3,1c0,0,0,0,0,0c-0.5-0.3-0.9-0.5-1.2-0.6
					c-0.3-0.1-0.5-0.2-0.5-0.2s-0.2-0.1-0.5-0.2c-0.3-0.1-0.8-0.3-1.3-0.5c0,0,0,0,0,0c0-0.5,0-1.1-0.1-1.7
					c-0.1-1.4-0.3-2.7-0.3-2.7s-0.4-0.1-0.9-0.2c-0.6-0.2-1.3-0.3-2.1-0.4c-0.4,0-0.8-0.1-1.1-0.2c-0.4,0-0.7,0-1,0
					c-0.6,0-0.9,0-0.9,0s-0.6,1.2-1.1,2.5c-0.2,0.6-0.4,1.1-0.6,1.6c0,0,0,0-0.1,0c-0.6,0-1,0-1.4,0.1c-0.3,0-0.5,0.1-0.5,0.1
					s-0.2,0-0.5,0.1c-0.3,0-0.8,0.1-1.3,0.3c0,0,0,0,0,0c-0.3-0.4-0.6-0.9-1-1.4c-0.4-0.5-0.9-1.1-1.2-1.5s-0.6-0.7-0.6-0.7
					s-0.4,0.1-0.9,0.3c-0.5,0.2-1.3,0.4-1.9,0.8c-0.7,0.3-1.4,0.6-1.9,1c-0.5,0.3-0.8,0.5-0.8,0.5s0.2,1.4,0.4,2.7
					c0.1,0.6,0.3,1.2,0.4,1.7c0,0,0,0,0,0c-0.4,0.3-0.8,0.6-1.1,0.8c-0.2,0.2-0.4,0.3-0.4,0.3s-0.1,0.1-0.4,0.3
					c-0.2,0.2-0.6,0.5-1,1c0,0,0,0,0,0c-0.4-0.2-1-0.4-1.6-0.6c-1.3-0.5-2.6-0.9-2.6-0.9s-0.1,0.1-0.2,0.2c-0.1,0.1-0.2,0.3-0.4,0.5
					c-0.3,0.5-0.8,1-1.2,1.7c-0.4,0.7-0.8,1.3-1.1,1.8c-0.2,0.5-0.4,0.9-0.4,0.9s0.9,1.1,1.8,2c0.4,0.4,0.9,0.8,1.2,1.2c0,0,0,0,0,0
					c-0.2,0.5-0.4,1-0.5,1.3c-0.1,0.2-0.1,0.3-0.1,0.4c0,0.1,0,0.1,0,0.1s-0.2,0.7-0.5,1.8c0,0,0,0,0,0c-0.5,0.1-1.1,0.2-1.6,0.3
					c-1.3,0.3-2.7,0.7-2.7,0.7s-0.1,0.4-0.1,1c0,0.6-0.1,1.3-0.1,2.1c0,0.8,0.1,1.5,0.1,2.1c0,0.6,0.1,0.9,0.1,0.9s1.3,0.4,2.7,0.7
					c0.6,0.1,1.2,0.2,1.6,0.3c0,0,0,0,0,0c0.2,1.1,0.5,1.8,0.5,1.8s0,0.1,0,0.1c0,0.1,0.1,0.2,0.1,0.4c0.1,0.3,0.3,0.8,0.5,1.3
					c0,0,0,0,0,0c-0.4,0.3-0.8,0.7-1.2,1.2c-0.9,1-1.8,2-1.8,2s0.2,0.3,0.4,0.9c0.3,0.5,0.7,1.2,1.1,1.8c0.4,0.7,0.9,1.2,1.2,1.7
					c0.2,0.2,0.3,0.4,0.4,0.6c0.1,0.1,0.2,0.2,0.2,0.2s1.4-0.4,2.6-0.9c0.6-0.2,1.1-0.4,1.6-0.6c0,0,0,0,0,0c0.4,0.4,0.8,0.7,1,0.9
					c0.2,0.2,0.4,0.3,0.4,0.3s0.1,0.1,0.4,0.3c0.3,0.2,0.6,0.5,1.1,0.8c0,0,0,0,0,0c-0.1,0.5-0.3,1.1-0.4,1.7
					c-0.3,1.3-0.4,2.7-0.4,2.7s0.3,0.2,0.8,0.5c0.5,0.3,1.2,0.6,1.9,0.9c0.7,0.4,1.4,0.6,1.9,0.8c0.5,0.2,0.9,0.3,0.9,0.3
					s0.2-0.2,0.6-0.7c0.3-0.4,0.8-0.9,1.2-1.5c0.4-0.5,0.7-1,1-1.4c0,0,0,0,0,0c0.6,0.2,1,0.2,1.3,0.3c0.3,0.1,0.5,0.1,0.5,0.1
					s0.2,0,0.5,0.1c0.3,0.1,0.8,0.1,1.4,0.1c0,0,0,0,0.1,0c0.1,0.5,0.3,1,0.6,1.6c0.5,1.3,1.1,2.6,1.1,2.6s0.4,0,0.9-0.1
					c0.3,0,0.6,0,1-0.1c0.4,0,0.7-0.1,1.1-0.2c0.8-0.1,1.5-0.2,2.1-0.4c0.6-0.1,0.9-0.2,0.9-0.2s0.2-1.4,0.3-2.7
					c0.1-0.6,0.1-1.2,0.1-1.7c0,0,0,0,0,0c0.5-0.2,1-0.3,1.3-0.5c0.3-0.1,0.5-0.2,0.5-0.2s0.2-0.1,0.5-0.2c0.3-0.2,0.7-0.3,1.2-0.6
					c0,0,0,0,0,0c0.4,0.3,0.8,0.7,1.3,1c1.1,0.8,2.3,1.6,2.3,1.6s0.3-0.2,0.8-0.6c0.4-0.4,1.1-0.8,1.6-1.3c0.6-0.5,1.1-1,1.5-1.4
					c0.4-0.4,0.6-0.7,0.6-0.7s-0.6-1.3-1.2-2.5c-0.3-0.5-0.6-1.1-0.9-1.5c0,0,0,0,0,0c0.3-0.4,0.6-0.8,0.8-1.1
					c0.2-0.3,0.3-0.4,0.3-0.4s0.1-0.2,0.3-0.4c0.2-0.3,0.4-0.7,0.7-1.2c0,0,0,0,0,0c0.5,0.1,1.1,0.1,1.7,0.2
					c1.4,0.1,2.8,0.1,2.8,0.1s0.1-0.1,0.1-0.2c0.1-0.2,0.1-0.4,0.2-0.7c0.2-0.5,0.5-1.2,0.7-2c0.2-0.7,0.4-1.5,0.5-2
					c0.1-0.6,0.1-0.9,0.1-0.9s-1.2-0.8-2.4-1.4C159.4,54.5,158.9,54.3,158.5,54z M137.2,64.7c-7,0-12.6-5.7-12.6-12.6
					c0-7,5.7-12.6,12.6-12.6c7,0,12.6,5.7,12.6,12.6C149.8,59.1,144.2,64.7,137.2,64.7z"/>
			</g>
		</g>
		<g>
			<g>
				<path class="st1" d="M210.8,109.9C210.8,109.9,210.8,109.9,210.8,109.9c0-0.9,0.1-1.4,0.1-1.4s0-0.6-0.1-1.4c0,0,0,0,0,0
					c0.3-0.2,0.7-0.4,1.1-0.6c0.9-0.5,1.8-1.1,1.8-1.1s0-0.3-0.1-0.7c-0.1-0.4-0.2-1-0.4-1.5c-0.1-0.6-0.4-1.1-0.5-1.5
					c-0.1-0.2-0.1-0.4-0.2-0.5c0-0.1-0.1-0.2-0.1-0.2s-1.1,0-2.1,0.1c-0.4,0-0.9,0.1-1.2,0.1c0,0,0,0,0,0c-0.2-0.4-0.4-0.7-0.5-0.9
					c-0.1-0.2-0.2-0.3-0.2-0.3s-0.1-0.1-0.2-0.3c-0.1-0.2-0.4-0.5-0.6-0.8c0,0,0,0,0,0c0.2-0.3,0.4-0.7,0.6-1.1
					c0.5-0.9,0.9-1.8,0.9-1.8s-0.2-0.2-0.5-0.5s-0.7-0.7-1.1-1.1c-0.4-0.4-0.9-0.7-1.2-1c-0.3-0.2-0.6-0.4-0.6-0.4s-0.9,0.6-1.7,1.2
					c-0.4,0.3-0.7,0.5-1,0.8c0,0,0,0,0,0c-0.4-0.2-0.7-0.4-0.9-0.5s-0.4-0.2-0.4-0.2s-0.1-0.1-0.4-0.2c-0.2-0.1-0.6-0.2-1-0.4
					c0,0,0,0,0,0c0-0.4,0-0.8-0.1-1.3c-0.1-1-0.2-2-0.2-2s-0.3-0.1-0.7-0.2c-0.4-0.1-1-0.2-1.6-0.3c-0.3,0-0.6-0.1-0.8-0.1
					c-0.3,0-0.5,0-0.7,0c-0.4,0-0.7,0-0.7,0s-0.4,0.9-0.8,1.9c-0.2,0.4-0.3,0.8-0.4,1.2c0,0,0,0,0,0c-0.4,0-0.8,0-1,0.1
					c-0.2,0-0.4,0.1-0.4,0.1s-0.1,0-0.4,0.1s-0.6,0.1-1,0.2c0,0,0,0,0,0c-0.2-0.3-0.4-0.7-0.7-1c-0.3-0.4-0.6-0.8-0.9-1.1
					c-0.3-0.3-0.4-0.5-0.4-0.5s-0.3,0.1-0.7,0.2c-0.4,0.2-0.9,0.3-1.5,0.6c-0.5,0.2-1,0.5-1.4,0.7c-0.4,0.2-0.6,0.4-0.6,0.4
					s0.1,1,0.3,2c0.1,0.4,0.2,0.9,0.3,1.2c0,0,0,0,0,0c-0.3,0.2-0.6,0.5-0.8,0.6c-0.2,0.2-0.3,0.3-0.3,0.3s-0.1,0.1-0.3,0.3
					c-0.2,0.2-0.5,0.4-0.7,0.7c0,0,0,0,0,0c-0.3-0.1-0.7-0.3-1.2-0.5c-1-0.4-2-0.6-2-0.6s-0.1,0.1-0.1,0.2c-0.1,0.1-0.2,0.2-0.3,0.4
					c-0.2,0.3-0.6,0.8-0.9,1.3c-0.3,0.5-0.6,1-0.8,1.3c-0.2,0.4-0.3,0.6-0.3,0.6s0.7,0.8,1.4,1.5c0.3,0.3,0.6,0.6,0.9,0.9
					c0,0,0,0,0,0c-0.1,0.4-0.3,0.7-0.4,1c-0.1,0.1-0.1,0.2-0.1,0.3c0,0.1,0,0.1,0,0.1s-0.1,0.6-0.3,1.4c0,0,0,0,0,0
					c-0.4,0.1-0.8,0.1-1.2,0.2c-1,0.2-2,0.5-2,0.5s-0.1,0.3-0.1,0.7c0,0.4-0.1,1-0.1,1.6c0,0.6,0.1,1.1,0.1,1.6
					c0,0.4,0.1,0.7,0.1,0.7s1,0.3,2,0.5c0.4,0.1,0.9,0.2,1.2,0.2c0,0,0,0,0,0c0.2,0.8,0.3,1.4,0.3,1.4s0,0,0,0.1
					c0,0.1,0,0.2,0.1,0.3c0.1,0.2,0.2,0.6,0.4,1c0,0,0,0,0,0c-0.3,0.2-0.6,0.6-0.9,0.9c-0.7,0.7-1.4,1.5-1.4,1.5s0.1,0.3,0.3,0.6
					c0.2,0.4,0.5,0.9,0.8,1.4c0.3,0.5,0.7,0.9,0.9,1.3c0.1,0.2,0.2,0.3,0.3,0.4c0.1,0.1,0.1,0.1,0.1,0.1s1-0.3,2-0.6
					c0.4-0.1,0.8-0.3,1.2-0.5c0,0,0,0,0,0c0.3,0.3,0.6,0.5,0.7,0.7c0.2,0.2,0.3,0.3,0.3,0.3s0.1,0.1,0.3,0.3
					c0.2,0.1,0.5,0.4,0.8,0.6c0,0,0,0,0,0c-0.1,0.4-0.2,0.8-0.3,1.2c-0.2,1-0.3,2-0.3,2s0.2,0.1,0.6,0.4c0.4,0.2,0.9,0.4,1.4,0.7
					c0.5,0.3,1.1,0.4,1.5,0.6c0.4,0.1,0.7,0.2,0.7,0.2s0.2-0.2,0.4-0.5c0.2-0.3,0.6-0.7,0.9-1.1c0.3-0.4,0.5-0.7,0.7-1c0,0,0,0,0,0
					c0.4,0.1,0.8,0.2,1,0.2s0.4,0.1,0.4,0.1s0.1,0,0.4,0.1c0.2,0.1,0.6,0.1,1,0.1c0,0,0,0,0,0c0.1,0.3,0.2,0.8,0.4,1.2
					c0.4,1,0.8,1.9,0.8,1.9s0.3,0,0.7,0c0.2,0,0.5,0,0.7,0c0.3,0,0.6-0.1,0.8-0.1c0.6-0.1,1.1-0.2,1.6-0.3c0.4-0.1,0.7-0.2,0.7-0.2
					s0.2-1,0.2-2c0-0.5,0.1-0.9,0.1-1.3c0,0,0,0,0,0c0.4-0.1,0.7-0.3,1-0.4c0.2-0.1,0.4-0.2,0.4-0.2s0.1-0.1,0.4-0.2
					c0.2-0.1,0.6-0.2,0.9-0.5c0,0,0,0,0,0c0.3,0.2,0.6,0.5,1,0.8c0.8,0.6,1.7,1.2,1.7,1.2s0.2-0.2,0.6-0.4c0.3-0.3,0.8-0.6,1.2-1
					c0.4-0.4,0.9-0.8,1.1-1.1c0.3-0.3,0.5-0.5,0.5-0.5s-0.4-1-0.9-1.9c-0.2-0.4-0.4-0.8-0.6-1.1c0,0,0,0,0,0
					c0.2-0.3,0.5-0.6,0.6-0.8c0.1-0.2,0.2-0.3,0.2-0.3s0.1-0.1,0.2-0.3c0.1-0.2,0.3-0.5,0.5-0.9c0,0,0,0,0,0c0.4,0,0.8,0.1,1.2,0.1
					c1,0.1,2.1,0.1,2.1,0.1s0-0.1,0.1-0.2c0-0.1,0.1-0.3,0.2-0.5c0.1-0.4,0.4-0.9,0.5-1.5c0.1-0.6,0.3-1.1,0.4-1.5
					c0.1-0.4,0.1-0.7,0.1-0.7s-0.9-0.6-1.8-1.1C211.6,110.2,211.2,110,210.8,109.9z M194.9,117.9c-5.2,0-9.4-4.2-9.4-9.4
					s4.2-9.4,9.4-9.4s9.4,4.2,9.4,9.4C204.4,113.6,200.1,117.9,194.9,117.9z"/>
			</g>
		</g>
		<g>
			<g>
				<g>
					<defs>
						<path id="SVGID_1_" d="M184.4,55.4c-8.6,14.8-27.8,16.5-27.8,16.5s-8.1-17.5,0.5-32.3s30.5-21.2,30.5-21.2
							S193,40.6,184.4,55.4z"/>
					</defs>
					<clipPath id="SVGID_00000041272116041395854860000006671797697202023814_">
						<use xlink:href="#SVGID_1_"  style="overflow:visible;"/>
					</clipPath>
					<g style="clip-path:url(#SVGID_00000041272116041395854860000006671797697202023814_);">
						<g>
							<path class="st3" d="M187.6,18.4l-31,53.6l0,0c0,0,19.2-1.8,27.8-16.5S187.6,18.4,187.6,18.4z"/>
							<path class="st4" d="M187.6,18.4c0,0-21.9,6.4-30.5,21.2c-8.6,14.8-0.5,32.3-0.5,32.3L187.6,18.4L187.6,18.4z"/>
						</g>
						<line class="st5" x1="178.9" y1="33.5" x2="169.4" y2="-2"/>
						<line class="st5" x1="169.7" y1="49.3" x2="160.2" y2="13.9"/>
						<line class="st6" x1="160.7" y1="64.9" x2="151.2" y2="29.5"/>
						<line class="st5" x1="173.7" y1="42.5" x2="209.2" y2="33"/>
						<line class="st6" x1="164.5" y1="58.3" x2="200" y2="48.9"/>
						<line class="st5" x1="188.8" y1="16.4" x2="148" y2="86.9"/>
					</g>
				</g>
			</g>
			<g>
				<g>
					<defs>
						<path id="SVGID_00000103224386585669933620000006769870230790551468_" d="M191.2,76.7c-16.3,5.2-31.7-6.5-31.7-6.5
							s5.9-18.4,22.1-23.6s36.8,4.9,36.8,4.9S207.5,71.5,191.2,76.7z"/>
					</defs>
					<clipPath id="SVGID_00000178916749985678041240000014408147248878612908_">
						<use xlink:href="#SVGID_00000103224386585669933620000006769870230790551468_"  style="overflow:visible;"/>
					</clipPath>
					<g style="clip-path:url(#SVGID_00000178916749985678041240000014408147248878612908_);">
						<g>
							<path class="st8" d="M218.5,51.5l-59,18.7l0,0c0,0,15.4,11.7,31.7,6.5C207.5,71.5,218.5,51.5,218.5,51.5z"/>
							<path class="st9" d="M218.5,51.5c0,0-20.6-10-36.8-4.9c-16.3,5.2-22.1,23.5-22.1,23.5L218.5,51.5L218.5,51.5z"/>
						</g>
						<line class="st5" x1="201.9" y1="56.8" x2="218.8" y2="24.2"/>
						<line class="st5" x1="184.4" y1="62.3" x2="201.3" y2="29.7"/>
						<line class="st5" x1="167.3" y1="67.8" x2="184.2" y2="35.2"/>
						<line class="st5" x1="192" y1="59.9" x2="224.6" y2="76.8"/>
						<line class="st5" x1="174.5" y1="65.4" x2="207.1" y2="82.3"/>
						<line class="st5" x1="220.7" y1="50.8" x2="143.1" y2="75.4"/>
					</g>
				</g>
			</g>
			<g>
				<g>
					<defs>
						<path id="SVGID_00000109719690315976705630000014271397343160732060_" d="M160.7,50.3c5.7,12.4-2,25.8-2,25.8
							s-15.2-2.8-20.9-15.3s0.2-29.8,0.2-29.8S155,37.8,160.7,50.3z"/>
					</defs>
					<clipPath id="SVGID_00000032620164546139423330000011696223756452415409_">
						<use xlink:href="#SVGID_00000109719690315976705630000014271397343160732060_"  style="overflow:visible;"/>
					</clipPath>
					<g style="clip-path:url(#SVGID_00000032620164546139423330000011696223756452415409_);">
						<g>
							<path class="st11" d="M137.9,31.1l20.7,45l0,0c0,0,7.7-13.4,2-25.8C155,37.8,137.9,31.1,137.9,31.1z"/>
							<path class="st12" d="M137.9,31.1c0,0-5.9,17.3-0.2,29.8s20.9,15.3,20.9,15.3L137.9,31.1L137.9,31.1z"/>
						</g>
						<line class="st5" x1="143.8" y1="43.8" x2="116.2" y2="33.6"/>
						<line class="st5" x1="149.9" y1="57.1" x2="122.3" y2="46.9"/>
						<line class="st6" x1="156" y1="70.2" x2="128.4" y2="60"/>
						<line class="st5" x1="147.3" y1="51.3" x2="157.5" y2="23.7"/>
						<line class="st5" x1="153.4" y1="64.6" x2="163.6" y2="37.1"/>
						<line class="st5" x1="137.2" y1="29.4" x2="164.5" y2="88.7"/>
					</g>
				</g>
			</g>
		</g>
		<g>
			<g>
				<g>
					<defs>
						<path id="SVGID_00000102533367090825029550000007695544171531289221_" d="M47.6,94.8c7.3,15.4-2.2,32.2-2.2,32.2
							s-19-3.4-26.3-18.8S19,71.1,19,71.1S40.3,79.4,47.6,94.8z"/>
					</defs>
					<clipPath id="SVGID_00000178175095326271563360000000648679241630176159_">
						<use xlink:href="#SVGID_00000102533367090825029550000007695544171531289221_"  style="overflow:visible;"/>
					</clipPath>
					<g style="clip-path:url(#SVGID_00000178175095326271563360000000648679241630176159_);">
						<g>
							<path class="st3" d="M19,71.1l26.4,56l0,0c0,0,9.5-16.8,2.2-32.2C40.3,79.4,19,71.1,19,71.1z"/>
							<path class="st4" d="M19,71.1c0,0-7.2,21.7,0.1,37.2c7.3,15.5,26.3,18.8,26.3,18.8L19,71.1L19,71.1z"/>
						</g>
						<line class="st5" x1="26.5" y1="86.9" x2="-8.1" y2="74.5"/>
						<line class="st5" x1="34.3" y1="103.5" x2="-0.3" y2="91.1"/>
						<line class="st6" x1="42" y1="119.8" x2="7.4" y2="107.4"/>
						<line class="st5" x1="30.9" y1="96.3" x2="43.3" y2="61.7"/>
						<line class="st6" x1="38.7" y1="112.9" x2="51.1" y2="78.3"/>
						<line class="st5" x1="18.1" y1="69.1" x2="52.8" y2="142.8"/>
					</g>
				</g>
			</g>
			<g>
				<g>
					<defs>
						<path id="SVGID_00000114063643251281505480000014512769320266550920_" d="M37.6,105.6c14.9,8.3,17,27.5,17,27.5
							s-17.4,8.4-32.3,0C7.4,124.8,0.6,103,0.6,103S22.7,97.3,37.6,105.6z"/>
					</defs>
					<clipPath id="SVGID_00000033355440892350981570000011693606682275694231_">
						<use xlink:href="#SVGID_00000114063643251281505480000014512769320266550920_"  style="overflow:visible;"/>
					</clipPath>
					<g style="clip-path:url(#SVGID_00000033355440892350981570000011693606682275694231_);">
						<g>
							<path class="st11" d="M0.6,103l54,30.1l0,0c0,0-2.1-19.2-17-27.5C22.7,97.3,0.6,103,0.6,103z"/>
							<path class="st12" d="M0.6,103c0,0,6.8,21.8,21.7,30.1c14.9,8.3,32.3,0,32.3,0L0.6,103L0.6,103z"/>
						</g>
						<line class="st5" x1="15.8" y1="111.5" x2="-19.5" y2="121.6"/>
						<line class="st5" x1="31.8" y1="120.4" x2="-3.5" y2="130.5"/>
						<line class="st5" x1="47.6" y1="129.2" x2="12.3" y2="139.2"/>
						<line class="st5" x1="24.9" y1="116.6" x2="14.9" y2="81.2"/>
						<line class="st6" x1="40.9" y1="125.5" x2="30.9" y2="90.1"/>
						<line class="st5" x1="-1.4" y1="101.9" x2="69.8" y2="141.5"/>
					</g>
				</g>
			</g>
		</g>
		<g>
			<g>
				<path class="st15" d="M187,144.6H34.2V58.8c0-3,2.5-5.5,5.5-5.5h141.8c3,0,5.5,2.5,5.5,5.5L187,144.6L187,144.6z"/>
				<rect x="34.2" y="141.4" class="st16" width="152.8" height="3.2"/>
				<path class="st1" d="M185.3,155.4H35.9c-4.4,0-7.9-3.5-7.9-7.9v-2.9h165.2v2.9C193.2,151.8,189.7,155.4,185.3,155.4z"/>
				<path class="st17" d="M121.4,148.5H99.8c-1.9,0-3.4-1.5-3.4-3.4v-0.5h28.3v0.5C124.8,147,123.3,148.5,121.4,148.5z"/>
				
					<linearGradient id="SVGID_00000132786965594252487090000013292818088535667375_" gradientUnits="userSpaceOnUse" x1="56.9192" y1="97.76" x2="164.3292" y2="-9.65" gradientTransform="matrix(1 0 0 -1 0 142.92)">
					<stop  offset="0" style="stop-color:#1A237E"/>
					<stop  offset="0.3167" style="stop-color:#2636AB"/>
					<stop  offset="0.779" style="stop-color:#3750E7"/>
					<stop  offset="1" style="stop-color:#3D5AFE"/>
				</linearGradient>
				
					<rect x="41.6" y="60.5" style="fill:url(#SVGID_00000132786965594252487090000013292818088535667375_);" width="138.1" height="76.7"/>
				<g>
					<g>
						<defs>
							<rect id="SVGID_00000048470286329062471290000003238334737049521341_" x="41.6" y="60.5" width="138.1" height="75.1"/>
						</defs>
						<clipPath id="SVGID_00000139267149467925337010000000995767382793494688_">
							<use xlink:href="#SVGID_00000048470286329062471290000003238334737049521341_"  style="overflow:visible;"/>
						</clipPath>
						<g style="clip-path:url(#SVGID_00000139267149467925337010000000995767382793494688_);">
							<path class="st12" d="M140.5,76.2c0,0-5.6,11.6,4.3,21.8h8.2l-3-23.4L140.5,76.2z"/>
							<g>
								<path class="st20" d="M165.5,132.2h7.5c0,0-3.1-23.8-6.9-28.8s-10.8-5.1-11.2-8.8c-0.5-3.7,0.1-4.7,0.1-4.7l-7.9,0.6
									c0.3,2.4,0.9,5.6-3.6,7.1c-4.5,1.5-8.1,3.1-22.4,20.4l-9.8-9.9c-1.4,0.9-3.4,2.5-5.2,5.2c3.9,5.8,10.2,14.6,13.5,15.6
									c5,1.6,15.1-11.8,17.6-11.5s-0.9,3,2.2,7.1c3.1,4-0.9,19.4-0.9,19.4h26.1c0,0-5.6-14.7-4.3-25
									C160.1,118.7,164.1,128.1,165.5,132.2z"/>
								
									<linearGradient id="SVGID_00000150817072789030821900000014763369108422623104_" gradientUnits="userSpaceOnUse" x1="139.1242" y1="46.38" x2="159.4342" y2="46.38" gradientTransform="matrix(1 0 0 -1 0 142.92)">
									<stop  offset="0" style="stop-color:#FFFFFF"/>
									<stop  offset="0.2213" style="stop-color:#F7F7F7"/>
									<stop  offset="0.5565" style="stop-color:#E3E3E3"/>
									<stop  offset="0.9623" style="stop-color:#C1C1C1"/>
									<stop  offset="1" style="stop-color:#BDBDBD"/>
								</linearGradient>
								<path style="fill:url(#SVGID_00000150817072789030821900000014763369108422623104_);" d="M149,103.2c4.1,0,7.7-1.6,10.4-4.3
									c-2.4-1.3-4.4-2.2-4.6-4.3c-0.5-3.7,0.1-4.7,0.1-4.7l-7.9,0.6c0.3,2.4,0.9,5.6-3.6,7.1c-1.4,0.5-2.7,0.9-4.3,1.9
									C141.8,101.8,145.2,103.2,149,103.2z"/>
							</g>
							
								<linearGradient id="SVGID_00000030465632515333241750000018355847105908421801_" gradientUnits="userSpaceOnUse" x1="91.5442" y1="41.7691" x2="110.7142" y2="41.7691" gradientTransform="matrix(1 0 0 -1 0 142.92)">
								<stop  offset="0" style="stop-color:#FFFFFF"/>
								<stop  offset="0.2213" style="stop-color:#F7F7F7"/>
								<stop  offset="0.5565" style="stop-color:#E3E3E3"/>
								<stop  offset="0.9623" style="stop-color:#C1C1C1"/>
								<stop  offset="1" style="stop-color:#BDBDBD"/>
							</linearGradient>
							<path style="fill:url(#SVGID_00000030465632515333241750000018355847105908421801_);" d="M110.7,109c0,0-6.6-6.9-7.4-10.3
								c-0.9-3.4-2.4-5.8-2.8-6.6c-0.3-0.5-1,1.2,0.2,4.2c0.7,1.7-3.9,0.1-4.8-2.4c-1.6-4.5-2.9-5-2.8-3.4c0,0-1.6-2-0.9,0.2
								c0.3,1,0.3,1.3,0.3,1.3s-1-1.6-1-0.8s1.8,7.6,3.1,8.4c1.3,0.8,3.8,0.9,5.1,2.4c1.4,1.5,6.9,10.6,6.9,10.6L110.7,109z"/>
							
								<linearGradient id="SVGID_00000183221507652984421380000002160555029329995186_" gradientUnits="userSpaceOnUse" x1="150.4327" y1="49.9208" x2="150.4327" y2="74.0005" gradientTransform="matrix(1 0 0 -1 0 142.92)">
								<stop  offset="0" style="stop-color:#FFFFFF"/>
								<stop  offset="0.2213" style="stop-color:#F7F7F7"/>
								<stop  offset="0.5565" style="stop-color:#E3E3E3"/>
								<stop  offset="0.9623" style="stop-color:#C1C1C1"/>
								<stop  offset="1" style="stop-color:#BDBDBD"/>
							</linearGradient>
							<path style="fill:url(#SVGID_00000183221507652984421380000002160555029329995186_);" d="M159.7,80.5
								c-1.2,6.6-6.7,13.3-11.8,12.4c-5.1-0.9-7.9-9.2-6.7-15.8c1.2-6.6,5.9-9,11-8.1C157.3,70,160.9,73.9,159.7,80.5z"/>
							<path class="st12" d="M147.1,77.9c0,0-4.9,1.3-8.9,0c0,0-1.9-8.9,5.6-11.6c0,0,3.9-4.4,11.8-1.9c8.5,2.6,10.1,19.9,6.6,25.3
								c-2.8,4.3-2.2,7.1-1.6,9.5c1.5,6.5-11.1,6-13.1,13.4c0,0-2.9-9,2.7-14.7s7.1-14.5,4.7-19.7c0,0-4.7,0-5.9-0.3l-2.1-5.3
								L147.1,77.9z"/>
						</g>
					</g>
					<g>
						<defs>
							<rect id="SVGID_00000041289799781249280260000002415552069747016125_" x="41.6" y="60.5" width="138.1" height="75.1"/>
						</defs>
						<clipPath id="SVGID_00000024705207692846472680000013980204340274157195_">
							<use xlink:href="#SVGID_00000041289799781249280260000002415552069747016125_"  style="overflow:visible;"/>
						</clipPath>
						<g style="clip-path:url(#SVGID_00000024705207692846472680000013980204340274157195_);">
							<g>
								<g>
									<g>
										<defs>
											<path id="SVGID_00000111173979532099772420000003680492352183541665_" d="M69.6,81.3c-9.7,0-17.6,7.9-17.6,17.6
												s7.9,17.6,17.6,17.6s17.6-7.9,17.6-17.6C87.2,89.2,79.3,81.3,69.6,81.3z M69.6,112.2c-7.4,0-13.3-6-13.3-13.3
												s6-13.3,13.3-13.3S83,91.5,83,98.9C83,106.2,77,112.2,69.6,112.2z"/>
										</defs>
										<clipPath id="SVGID_00000143616070116234213460000015871381833559483318_">
											<use xlink:href="#SVGID_00000111173979532099772420000003680492352183541665_"  style="overflow:visible;"/>
										</clipPath>
										<g style="clip-path:url(#SVGID_00000143616070116234213460000015871381833559483318_);">
											<path class="st26" d="M69.6,80.6c-10.1,0-18.2,8.2-18.2,18.2h36.5C87.9,88.8,79.7,80.6,69.6,80.6z"/>
											<g>
												<path class="st1" d="M69.6,98.9l12.9,12.9c3.3-3.3,5.3-7.8,5.3-12.9H69.6z"/>
												<path class="st11" d="M69.6,98.9H51.4c0,10.1,8.2,18.2,18.2,18.2c5,0,9.6-2,12.9-5.3L69.6,98.9z"/>
											</g>
										</g>
									</g>
								</g>
								<g>
									<g>
										<defs>
											<path id="SVGID_00000008857899457711954620000017726536815450576055_" d="M57.9,98.9c0,6.5,5.2,11.7,11.7,11.7
												c6.5,0,11.7-5.2,11.7-11.7c0-6.5-5.2-11.7-11.7-11.7C63.2,87.2,57.9,92.4,57.9,98.9z M78.5,98.9c0,4.9-4,8.9-8.9,8.9
												c-4.9,0-8.9-4-8.9-8.9c0-4.9,4-8.9,8.9-8.9C74.5,90,78.5,94,78.5,98.9z"/>
										</defs>
										<clipPath id="SVGID_00000101813367725965436700000006574207997811582851_">
											<use xlink:href="#SVGID_00000008857899457711954620000017726536815450576055_"  style="overflow:visible;"/>
										</clipPath>
										<g style="clip-path:url(#SVGID_00000101813367725965436700000006574207997811582851_);">
											<path class="st1" d="M57.5,98.9c0,6.7,5.4,12.1,12.1,12.1V86.7C62.9,86.7,57.5,92.2,57.5,98.9z"/>
											<g>
												<path class="st11" d="M69.6,98.9V111c6.7,0,12.1-5.4,12.1-12.1c0-3.3-1.4-6.4-3.6-8.6L69.6,98.9z"/>
											</g>
										</g>
									</g>
								</g>
							</g>
							<line class="st5" x1="52.3" y1="121.3" x2="87.2" y2="121.3"/>
							<line class="st5" x1="52.3" y1="125.1" x2="103" y2="125.1"/>
						</g>
					</g>
					<g>
						<defs>
							<rect id="SVGID_00000106845516176530617120000011169327231857459878_" x="41.6" y="60.5" width="138.1" height="75.1"/>
						</defs>
						<clipPath id="SVGID_00000101820170658538703360000014238178773210250413_">
							<use xlink:href="#SVGID_00000106845516176530617120000011169327231857459878_"  style="overflow:visible;"/>
						</clipPath>
						<g style="clip-path:url(#SVGID_00000101820170658538703360000014238178773210250413_);">
							<path class="st9" d="M127,68.7H99.4c-1.4,0-2.6,1.2-2.6,2.6v12.8c0,1.4,1.2,2.6,2.6,2.6h19.5l9.5,5.9l-3.1-5.9h1.7
								c1.4,0,2.6-1.2,2.6-2.6V71.3C129.6,69.9,128.5,68.7,127,68.7z"/>
							<g>
								<line class="st5" x1="100.1" y1="74.2" x2="125.8" y2="74.2"/>
								<line class="st5" x1="100.1" y1="77.9" x2="125.8" y2="77.9"/>
								<line class="st5" x1="100.1" y1="81.6" x2="111" y2="81.6"/>
							</g>
						</g>
					</g>
				</g>
				<g>
					<rect x="41.6" y="130.8" class="st8" width="138.1" height="6.4"/>
					<g>
						<g>
							<g>
								<rect x="49.9" y="132.1" class="st1" width="1.2" height="3.8"/>
								<rect x="52.1" y="132.1" class="st1" width="1.2" height="3.8"/>
							</g>
						</g>
						<line class="st5" x1="59.1" y1="134" x2="72.2" y2="134"/>
						<line class="st6" x1="72.2" y1="134" x2="171.3" y2="134"/>
						<path class="st1" d="M74.6,134c0,1.1-0.9,1.9-1.9,1.9s-1.9-0.9-1.9-1.9s0.9-1.9,1.9-1.9C73.7,132.1,74.6,133,74.6,134z"/>
					</g>
				</g>
			</g>
		</g>
		<g>
			<g>
				<path class="st9" d="M57.4,77.8L57.4,77.8c-2.7,0-4.8-2.2-4.8-4.8v-8.9h9.6V73C62.2,75.7,60.1,77.8,57.4,77.8z"/>
				
					<linearGradient id="SVGID_00000113340083282254342120000001626547764155307693_" gradientUnits="userSpaceOnUse" x1="39.2626" y1="126.0648" x2="75.5545" y2="89.7728" gradientTransform="matrix(1 0 0 -1 0 142.92)">
					<stop  offset="0" style="stop-color:#FFF176"/>
					<stop  offset="0.1936" style="stop-color:#FFEA6E"/>
					<stop  offset="0.4869" style="stop-color:#FFD75A"/>
					<stop  offset="0.8416" style="stop-color:#FFB738"/>
					<stop  offset="1" style="stop-color:#FFA726"/>
				</linearGradient>
				<path style="fill:url(#SVGID_00000113340083282254342120000001626547764155307693_);" d="M80.6,31.5c0-13.4-11.3-24.1-24.9-23.1
					c-11.4,0.8-20.6,10-21.5,21.4c-0.7,8.8,3.6,16.6,10.3,21.1c3.2,2.1,5.1,5.7,5.1,9.6v2c0,1.6,1.3,2.9,2.9,2.9h9.8
					c1.6,0,2.9-1.3,2.9-2.9v-2c0-3.9,2-7.5,5.2-9.7C76.6,46.5,80.6,39.5,80.6,31.5z"/>
				<line class="st5" x1="51.4" y1="67.4" x2="63.4" y2="67.4"/>
				<line class="st5" x1="51.4" y1="69.7" x2="63.4" y2="69.7"/>
				<line class="st5" x1="51.4" y1="72.1" x2="63.4" y2="72.1"/>
			</g>
			<g>
				<ellipse class="st1" cx="50.6" cy="26.5" rx="11" ry="11"/>
				<path class="st1" d="M66.5,38.9c0,2-1.6,3.6-3.6,3.6c-2,0-3.6-1.6-3.6-3.6c0-2,1.6-3.6,3.6-3.6C64.9,35.3,66.5,36.9,66.5,38.9z"
					/>
			</g>
		</g>
		<g>
			<g>
				<path class="st1" d="M102.2,41.1L102.2,41.1c0-0.4,0-0.6,0-0.6s0-0.2,0-0.6v0c0.1-0.1,0.3-0.2,0.5-0.2c0.4-0.2,0.8-0.5,0.8-0.5
					s0-0.1-0.1-0.3c-0.1-0.2-0.1-0.4-0.2-0.7s-0.2-0.5-0.2-0.6c0-0.1-0.1-0.2-0.1-0.2c0,0,0-0.1,0-0.1s-0.5,0-0.9,0
					c-0.2,0-0.4,0-0.5,0c0,0,0,0,0,0c-0.1-0.2-0.2-0.3-0.2-0.4c-0.1-0.1-0.1-0.1-0.1-0.1s0,0-0.1-0.1s-0.2-0.2-0.3-0.3l0,0
					c0.1-0.1,0.2-0.3,0.3-0.5c0.2-0.4,0.4-0.8,0.4-0.8s-0.1-0.1-0.2-0.2c-0.1-0.1-0.3-0.3-0.5-0.5c-0.2-0.2-0.4-0.3-0.5-0.4
					c-0.2-0.1-0.2-0.2-0.2-0.2s-0.4,0.2-0.7,0.5c-0.2,0.1-0.3,0.2-0.4,0.3l0,0c-0.2-0.1-0.3-0.2-0.4-0.2c-0.1,0-0.2-0.1-0.2-0.1
					s-0.1,0-0.2-0.1s-0.2-0.1-0.4-0.2c0,0,0,0,0,0c0-0.2,0-0.3,0-0.5c0-0.4-0.1-0.9-0.1-0.9s-0.1,0-0.3-0.1c-0.2,0-0.4-0.1-0.7-0.1
					c-0.1,0-0.2,0-0.4,0s-0.2,0-0.3,0c-0.2,0-0.3,0-0.3,0s-0.2,0.4-0.3,0.8c-0.1,0.2-0.1,0.4-0.2,0.5h0c-0.2,0-0.3,0-0.4,0
					c-0.1,0-0.2,0-0.2,0s-0.1,0-0.2,0s-0.3,0-0.4,0.1h0c-0.1-0.1-0.2-0.3-0.3-0.4c-0.1-0.2-0.3-0.3-0.4-0.5
					c-0.1-0.1-0.2-0.2-0.2-0.2s-0.1,0-0.3,0.1c-0.2,0.1-0.4,0.1-0.6,0.3c-0.2,0.1-0.4,0.2-0.6,0.3c-0.2,0.1-0.3,0.2-0.3,0.2
					s0.1,0.5,0.2,0.9c0,0.2,0.1,0.4,0.1,0.5l0,0c-0.2,0.1-0.3,0.2-0.3,0.3c-0.1,0.1-0.1,0.1-0.1,0.1s-0.1,0-0.1,0.1
					c-0.1,0.1-0.2,0.2-0.3,0.3l0,0c-0.1-0.1-0.3-0.1-0.5-0.2c-0.4-0.2-0.9-0.3-0.9-0.3s0,0-0.1,0.1c0,0-0.1,0.1-0.1,0.2
					c-0.1,0.2-0.3,0.3-0.4,0.5c-0.1,0.2-0.3,0.4-0.3,0.6C88.1,36.8,88,37,88,37s0.3,0.3,0.6,0.7c0.1,0.1,0.3,0.3,0.4,0.4
					c0,0,0,0,0,0c-0.1,0.2-0.1,0.3-0.2,0.4c0,0,0,0.1,0,0.1s0,0,0,0s-0.1,0.2-0.2,0.6v0c-0.2,0-0.3,0.1-0.5,0.1
					c-0.4,0.1-0.9,0.2-0.9,0.2s0,0.1,0,0.3c0,0.2,0,0.4,0,0.7c0,0.2,0,0.5,0,0.7c0,0.2,0,0.3,0,0.3s0.4,0.1,0.9,0.2
					c0.2,0,0.4,0.1,0.5,0.1v0c0.1,0.4,0.2,0.6,0.2,0.6s0,0,0,0c0,0,0,0.1,0,0.1c0,0.1,0.1,0.2,0.2,0.4c0,0,0,0,0,0
					c-0.1,0.1-0.3,0.2-0.4,0.4c-0.3,0.3-0.6,0.7-0.6,0.7s0.1,0.1,0.1,0.3c0.1,0.2,0.2,0.4,0.3,0.6c0.1,0.2,0.3,0.4,0.4,0.5
					c0.1,0.1,0.1,0.1,0.1,0.2s0.1,0.1,0.1,0.1s0.4-0.1,0.9-0.3c0.2-0.1,0.4-0.1,0.5-0.2l0,0c0.1,0.1,0.2,0.2,0.3,0.3
					c0.1,0.1,0.1,0.1,0.1,0.1s0.1,0,0.1,0.1c0.1,0.1,0.2,0.2,0.3,0.3l0,0c0,0.2-0.1,0.3-0.1,0.5c-0.1,0.4-0.2,0.9-0.2,0.9
					s0.1,0.1,0.3,0.2c0.2,0.1,0.4,0.2,0.6,0.3s0.5,0.2,0.6,0.3c0.2,0.1,0.3,0.1,0.3,0.1s0.1-0.1,0.2-0.2c0.1-0.1,0.2-0.3,0.4-0.5
					c0.1-0.2,0.2-0.3,0.3-0.4h0c0.2,0,0.3,0.1,0.4,0.1c0.1,0,0.2,0,0.2,0s0.1,0,0.2,0c0.1,0,0.3,0,0.4,0h0c0.1,0.2,0.1,0.3,0.2,0.5
					c0.2,0.4,0.3,0.8,0.3,0.8s0.1,0,0.3,0c0.1,0,0.2,0,0.3,0c0.1,0,0.2,0,0.4,0c0.2,0,0.5-0.1,0.7-0.1s0.3-0.1,0.3-0.1
					s0.1-0.4,0.1-0.9c0-0.2,0-0.4,0-0.5c0,0,0,0,0,0c0.2-0.1,0.3-0.1,0.4-0.2c0.1,0,0.2-0.1,0.2-0.1s0.1,0,0.2-0.1
					c0.1,0,0.2-0.1,0.4-0.2l0,0c0.1,0.1,0.3,0.2,0.4,0.3c0.3,0.3,0.7,0.5,0.7,0.5s0.1-0.1,0.2-0.2s0.3-0.2,0.5-0.4s0.4-0.3,0.5-0.5
					c0.1-0.1,0.2-0.2,0.2-0.2s-0.2-0.4-0.4-0.8c-0.1-0.2-0.2-0.3-0.3-0.5l0,0c0.1-0.2,0.2-0.3,0.3-0.3c0.1-0.1,0.1-0.1,0.1-0.1
					s0,0,0.1-0.1c0.1-0.1,0.1-0.2,0.2-0.4c0,0,0,0,0,0c0.2,0,0.3,0,0.5,0c0.4,0,0.9,0,0.9,0s0,0,0-0.1c0,0,0.1-0.1,0.1-0.2
					c0.1-0.2,0.2-0.4,0.2-0.6c0.1-0.2,0.1-0.5,0.2-0.7c0-0.2,0.1-0.3,0.1-0.3s-0.4-0.2-0.8-0.5C102.5,41.2,102.3,41.2,102.2,41.1z
					 M95.3,44.5c-2.2,0-4.1-1.8-4.1-4.1c0-2.2,1.8-4.1,4.1-4.1s4.1,1.8,4.1,4.1C99.4,42.7,97.5,44.5,95.3,44.5z"/>
			</g>
		</g>
		<g>
			<path class="st5" d="M112.4,15.8l-12.2-6.7c-0.2,0.4-0.4,0.9-0.4,1.4v11.5c0,1.6,1.3,2.9,2.9,2.9h24.9c1.6,0,2.9-1.3,2.9-2.9
				V10.6c0-0.5-0.1-1-0.4-1.4l-12.2,6.7"/>
			<path class="st5" d="M115.2,13.8l-14.4,10.5c0.5,0.5,1.2,0.7,1.9,0.7h24.9c0.7,0,1.4-0.3,1.9-0.7L115.2,13.8z"/>
			<polygon class="st1" points="115.2,13.8 117.9,15.8 126,11.4 126,3.2 104.3,3.2 104.3,11.4 112.4,15.8 			"/>
			<g>
				<path class="st5" d="M121.2,3.2l-4.5-2.8c-0.9-0.6-2.1-0.6-3.1,0l-4.5,2.8H121.2z"/>
				<path class="st5" d="M129.1,8.1L126,6.1v5.3l-8.1,4.4l-2.8-2l-2.8,2l-8.1-4.4V6.1l-3.1,1.9c-0.9,0.5-1.4,1.5-1.4,2.5v11.5
					c0,1.6,1.3,2.9,2.9,2.9h24.9c1.6,0,2.9-1.3,2.9-2.9V10.6C130.5,9.5,130,8.6,129.1,8.1z"/>
			</g>
			<line class="st30" x1="107.7" y1="6.8" x2="122.6" y2="6.8"/>
			<line class="st30" x1="107.7" y1="8.9" x2="122.6" y2="8.9"/>
		</g>
	</g>
</g>
</svg>
