<?xml version="1.0" encoding="utf-8"?>
<!-- Generator: Adobe Illustrator 26.0.1, SVG Export Plug-In . SVG Version: 6.00 Build 0)  -->
<svg version="1.1" id="Layer_1" xmlns="http://www.w3.org/2000/svg" xmlns:xlink="http://www.w3.org/1999/xlink" x="0px" y="0px"
	 viewBox="0 0 640 480" style="enable-background:new 0 0 640 480;" xml:space="preserve">
<style type="text/css">
	.st0{fill:none;stroke:#47C8DD;stroke-width:0.8699;stroke-miterlimit:10;}
	.st1{fill:url(#SVGID_1_);}
	.st2{fill:url(#SVGID_00000116943889804735809280000002293551370385574314_);}
	.st3{fill:url(#SVGID_00000085251503186420275470000008733224005847921319_);}
	.st4{fill:url(#SVGID_00000085228638984239985380000006076885655065370291_);}
	.st5{opacity:0.75;}
	.st6{fill:url(#SVGID_00000004525770748544024110000008265255041605803160_);}
	.st7{fill:#FFAF99;}
	.st8{fill:#9B9B9B;}
	.st9{opacity:0.5;fill:#C1C1C1;enable-background:new    ;}
	.st10{fill:#EA9E18;}
	.st11{fill:#153556;}
	.st12{fill:#C1C1C1;}
	.st13{opacity:0.2;}
	.st14{fill:#EFEFEF;}
	.st15{opacity:0.2;fill:#EFEFEF;enable-background:new    ;}
	.st16{fill:none;stroke:#101E35;stroke-width:0.8699;stroke-miterlimit:10;}
	.st17{opacity:0.5;fill:#9B9B9B;enable-background:new    ;}
	.st18{fill:#101E35;}
	.st19{opacity:0.5;fill:#B5B5B5;enable-background:new    ;}
	.st20{fill:#B5B5B5;}
	.st21{opacity:0.5;fill:#99B5C6;enable-background:new    ;}
	.st22{fill:#EDEDED;}
	.st23{fill:none;stroke:#101E35;stroke-width:0.435;stroke-miterlimit:10;}
	.st24{fill:#99B5C6;}
	.st25{fill:none;stroke:#EFEFEF;stroke-width:0.6525;stroke-linecap:round;stroke-linejoin:round;stroke-miterlimit:10;}
	
		.st26{opacity:0.5;clip-path:url(#SVGID_00000178196903774828558060000006858338007888360602_);fill:#99B5C6;enable-background:new    ;}
	.st27{fill:#FFFFFF;}
	.st28{fill:none;stroke:#ED906B;stroke-width:0.8699;stroke-miterlimit:9.9995;}
	.st29{fill:#ED906B;}
	.st30{fill:#CECECE;}
	.st31{fill:none;stroke:#ED906B;stroke-width:0.8699;stroke-miterlimit:10;}
	.st32{opacity:0.5;fill:#EFEFEF;enable-background:new    ;}
	.st33{fill:none;stroke:#102B51;stroke-width:0.8699;stroke-miterlimit:10;}
	.st34{fill:#E2E2E2;}
	.st35{fill:none;stroke:#E2E2E2;stroke-width:0.8699;stroke-miterlimit:10;}
	.st36{opacity:0.5;fill:#E2E2E2;enable-background:new    ;}
	.st37{opacity:0.3;fill:#9B9B9B;enable-background:new    ;}
	.st38{fill:none;stroke:#153556;stroke-width:1.7399;stroke-miterlimit:10;}
	
		.st39{fill:url(#SVGID_00000137835283763981651700000006570157829103711925_);stroke:#101E35;stroke-width:0.8699;stroke-miterlimit:10;}
	.st40{fill:url(#SVGID_00000042695187073588386080000007991420666903885496_);}
	
		.st41{fill:url(#SVGID_00000131330012702232816250000006366281704592047276_);stroke:#EA9E18;stroke-width:0.8699;stroke-miterlimit:10;}
	.st42{fill:url(#SVGID_00000135668787117021909780000006269313963165282234_);}
	.st43{fill:none;stroke:#EA9E18;stroke-width:0.8699;stroke-miterlimit:10;}
	.st44{fill:url(#SVGID_00000120533487704782947390000007644589531999983767_);}
	.st45{fill:#102B51;}
	.st46{fill:#0A1D35;}
	.st47{fill:#101E35;stroke:#101E35;stroke-width:0.435;stroke-linecap:round;stroke-linejoin:round;stroke-miterlimit:10;}
	.st48{fill:none;stroke:#FFFFFF;stroke-width:0.435;stroke-linecap:round;stroke-linejoin:round;stroke-miterlimit:10;}
	.st49{fill:#F29A86;}
	.st50{fill:#0E263F;}
	.st51{fill:none;stroke:#0A1D35;stroke-width:0.435;stroke-linecap:round;stroke-miterlimit:10;}
	.st52{fill:url(#SVGID_00000176011941135345173420000009994338085507139751_);}
	.st53{fill:none;}
	.st54{opacity:0.4;fill:#8E8E8E;enable-background:new    ;}
</style>
<g id="BACKGROUND">
</g>
<g id="OBJECTS">
	<g>
		<g>
			<g>
				<path class="st0" d="M33.6,369.2c-0.8-13.4,4.2-26.7,12-37.8c15.7-22.3,54.9-36.5,59.3-65.4"/>
				<path class="st0" d="M96.1,265.3c-6,16.4-20.7,28-35.5,37.3"/>
				<path class="st0" d="M543.4,358.6c-0.2,13.4,5.1,26.8,14.5,36.5"/>
				<path class="st0" d="M55.3,305.9c-1.8,1.1-3.5,2.3-5.3,3.4"/>
				<path class="st0" d="M557.5,378c3.2,5.7,7.4,10.8,12.3,15.1"/>
				<path class="st0" d="M553,368.6c1,1,1.5,2.6,1.3,4"/>
				<g>
					<path class="st0" d="M563.9,87.9c20.5,17.7,31.9,44.3,34.6,71.3c2.7,26.9-2.6,54.1-11.5,79.7"/>
					<path class="st0" d="M574,81.1c7.5,7.4,13.7,16.3,18,25.9"/>
					<path class="st0" d="M595.7,112.7c0.9,1.3,1.5,2.9,1.8,4.4"/>
					<g>
						<path class="st0" d="M217.2,82.7c-4.2-4.9-9.5-8.8-15.4-11.2"/>
						<path class="st0" d="M172.5,71.7c18.6,4.4,38.1,9.3,51.9,22.5"/>
					</g>
				</g>
			</g>
			<g>
				
					<linearGradient id="SVGID_1_" gradientUnits="userSpaceOnUse" x1="352.7056" y1="402.6483" x2="381.1361" y2="454.7706" gradientTransform="matrix(1 0 0 -1 0 479.89)">
					<stop  offset="0" style="stop-color:#FFFFFF"/>
					<stop  offset="0.1344" style="stop-color:#FCFEFE"/>
					<stop  offset="0.2389" style="stop-color:#F2FAFC"/>
					<stop  offset="0.3333" style="stop-color:#E2F3F8"/>
					<stop  offset="0.4218" style="stop-color:#CAE9F3"/>
					<stop  offset="0.5062" style="stop-color:#ACDDEC"/>
					<stop  offset="0.5874" style="stop-color:#87CEE4"/>
					<stop  offset="0.6662" style="stop-color:#5BBCDA"/>
					<stop  offset="0.7411" style="stop-color:#29A8CF"/>
					<stop  offset="0.7961" style="stop-color:#0097C6"/>
				</linearGradient>
				<path class="st1" d="M386.7,50.3c0.1-0.5,0.1-1,0.1-1.5c0-5.2-4.2-9.4-9.4-9.4c-4.8,0-8.7,3.6-9.3,8.2c-0.6-0.4-1.2-0.7-2-0.7
					s-1.5,0.3-2.1,0.7c-0.6-3.4-3.5-5.9-7-5.9c-3.9,0-7.1,3.2-7.1,7.1c0,0.5,0.1,1,0.2,1.5H386.7z"/>
				
					<linearGradient id="SVGID_00000056420753042008409090000002918664238316149938_" gradientUnits="userSpaceOnUse" x1="45.2686" y1="280.7188" x2="58.2993" y2="307.9646" gradientTransform="matrix(1 0 0 -1 0 479.89)">
					<stop  offset="0" style="stop-color:#FFFFFF"/>
					<stop  offset="0.1344" style="stop-color:#FCFEFE"/>
					<stop  offset="0.2389" style="stop-color:#F2FAFC"/>
					<stop  offset="0.3333" style="stop-color:#E2F3F8"/>
					<stop  offset="0.4218" style="stop-color:#CAE9F3"/>
					<stop  offset="0.5062" style="stop-color:#ACDDEC"/>
					<stop  offset="0.5874" style="stop-color:#87CEE4"/>
					<stop  offset="0.6662" style="stop-color:#5BBCDA"/>
					<stop  offset="0.7411" style="stop-color:#29A8CF"/>
					<stop  offset="0.7961" style="stop-color:#0097C6"/>
				</linearGradient>
				<path style="fill:url(#SVGID_00000056420753042008409090000002918664238316149938_);" d="M70.9,185.6c0.1-0.5,0.1-1,0.1-1.5
					c0-5.2-4.2-9.4-9.4-9.4c-4.8,0-8.7,3.6-9.3,8.2c-0.6-0.4-1.2-0.7-2-0.7s-1.5,0.3-2.1,0.7c-0.6-3.4-3.5-5.9-7-5.9
					c-3.9,0-7.1,3.2-7.1,7.1c0,0.5,0.1,1,0.2,1.5L70.9,185.6L70.9,185.6z"/>
				
					<linearGradient id="SVGID_00000005964876577789252010000012250450318021780872_" gradientUnits="userSpaceOnUse" x1="579.6984" y1="172.2062" x2="594.8021" y2="213.9634" gradientTransform="matrix(1 0 0 -1 0 479.89)">
					<stop  offset="0" style="stop-color:#FFFFFF"/>
					<stop  offset="0.1344" style="stop-color:#FCFEFE"/>
					<stop  offset="0.2389" style="stop-color:#F2FAFC"/>
					<stop  offset="0.3333" style="stop-color:#E2F3F8"/>
					<stop  offset="0.4218" style="stop-color:#CAE9F3"/>
					<stop  offset="0.5062" style="stop-color:#ACDDEC"/>
					<stop  offset="0.5874" style="stop-color:#87CEE4"/>
					<stop  offset="0.6662" style="stop-color:#5BBCDA"/>
					<stop  offset="0.7411" style="stop-color:#29A8CF"/>
					<stop  offset="0.7961" style="stop-color:#0097C6"/>
				</linearGradient>
				<path style="fill:url(#SVGID_00000005964876577789252010000012250450318021780872_);" d="M606.4,286.1c0.1-0.5,0.1-1,0.1-1.5
					c0-5.2-4.2-9.4-9.4-9.4c-4.8,0-8.7,3.6-9.3,8.2c-0.6-0.4-1.2-0.7-2-0.7s-1.5,0.3-2.1,0.7c-0.6-3.4-3.5-5.9-7-5.9
					c-3.9,0-7.1,3.2-7.1,7.1c0,0.5,0.1,1,0.2,1.5L606.4,286.1L606.4,286.1z"/>
				
					<linearGradient id="SVGID_00000094611141581591570320000011169841064754545320_" gradientUnits="userSpaceOnUse" x1="305.415" y1="373.1958" x2="319.9264" y2="428.8721" gradientTransform="matrix(1 0 0 -1 0 479.89)">
					<stop  offset="0" style="stop-color:#FFFFFF"/>
					<stop  offset="0.1344" style="stop-color:#FCFEFE"/>
					<stop  offset="0.2389" style="stop-color:#F2FAFC"/>
					<stop  offset="0.3333" style="stop-color:#E2F3F8"/>
					<stop  offset="0.4218" style="stop-color:#CAE9F3"/>
					<stop  offset="0.5062" style="stop-color:#ACDDEC"/>
					<stop  offset="0.5874" style="stop-color:#87CEE4"/>
					<stop  offset="0.6662" style="stop-color:#5BBCDA"/>
					<stop  offset="0.7411" style="stop-color:#29A8CF"/>
					<stop  offset="0.7961" style="stop-color:#0097C6"/>
				</linearGradient>
				<path style="fill:url(#SVGID_00000094611141581591570320000011169841064754545320_);" d="M333.4,59.5c-8,0-14.7,5.7-16.3,13.2
					c-0.8-0.6-1.7-0.9-2.8-0.9c-1.5,0-2.9,0.8-3.7,1.9c-1-2.4-3.4-4.1-6.1-4.1c-2.6,0-4.8,1.5-5.9,3.6c-1.3-4.6-5.5-8-10.6-8
					c-6.1,0-11,4.9-11,11h73.1C350.1,67,342.6,59.5,333.4,59.5z"/>
			</g>
			<g class="st5">
				
					<linearGradient id="SVGID_00000163779967809172931050000009527862826500518542_" gradientUnits="userSpaceOnUse" x1="75.2783" y1="253.0865" x2="577.2563" y2="253.0865">
					<stop  offset="0" style="stop-color:#B37CFF"/>
					<stop  offset="1" style="stop-color:#F895E7"/>
				</linearGradient>
				<path style="fill:url(#SVGID_00000163779967809172931050000009527862826500518542_);" d="M132.8,440.5
					c-47.4,0-75.4-65.6-44.6-105.5c10.5-13.6,26.5-20.2,38.2-32.4c10.4-10.8,8.2-18.4,9.6-33.3c3.1-32.2-14-67.1-22-96.3
					c-11.9-43.8,12.1-83.5,56.9-87.3c41.8-3.5,63.5,29.3,86.4,59.4c16.5,21.7,39.4,67.9,73.7,50.7c37.4-18.7,45.6-71.7,71-101.4
					c26.7-31.3,82.3-36.7,116.9-18.2c58.2,31,73.4,83.8,43.2,181.9c-9.6,31.3-31.1,62.6-33.1,95.5c-2.1,34.6,20,61.5,39.8,87
					c0,0-425.6,0-435.8,0C132.9,440.6,132.9,440.6,132.8,440.5z"/>
			</g>
		</g>
		<g>
			<g>
				<g>
					<path class="st7" d="M255.7,221.4c-5.7-2.7-12.7-8.1-18.8-12.5c-12.6-9.1-24.4-19.8-34.8-31.4c-7.4-8.3-14.5-19.4-16.7-30.6
						c-1-5.4-1.1-13.8,3.4-17.7c10.9-9.7,31.1,12.9,36.5,20.5C240,170.1,251,196.5,255.7,221.4L255.7,221.4z"/>
					<path class="st8" d="M205.4,130.4L205,130c-0.1,0.1-6,7-7.2,14.5c-5.5-9.3-8.6-15.3-8.7-15.5l-0.5,0.3
						c0.1,0.2,3.2,6.2,8.7,15.4c-7.1-4-12.1-4-12.4-4v0.5c0.1,0,5.5-0.1,12.9,4.4c3.8,6.5,8.7,14.4,14.5,23
						c-12.3-8.4-22.8-10.6-23-10.6l-0.1,0.5c0.1,0,11.1,2.4,23.9,11.3l0,0c4.4,6.5,9.2,13.3,14.4,20.1c-13.6-8-21.9-9.2-22-9.2
						l-0.1,0.5c0.1,0,8.7,1.2,23,9.8l0,0c4,5.3,8.3,10.5,12.7,15.5c-10.8-6.2-16.4-7.6-16.5-7.6l-0.1,0.5c0.1,0,6.1,1.5,17.8,8.4
						c4.3,4.8,8.7,9.4,13.3,13.7l0.4-0.4c-4.5-4.2-9-8.9-13.2-13.7c-2.9-8.8,2.7-21.2,2.8-21.3L245,186c-0.1,0.1-5.3,11.7-3.1,20.6
						c-4.5-5.1-8.9-10.5-13-15.9c-2-13,7.1-24.3,7.1-24.4l-0.4-0.3c-0.1,0.1-8.8,11.1-7.4,23.9c-5.3-6.9-10.2-13.8-14.6-20.4
						c-1.9-9.2,8.8-23.5,8.9-23.7l-0.4-0.3c-0.4,0.6-10.1,13.6-9.2,22.9c-5.7-8.6-10.7-16.6-14.5-23
						C199.1,137.7,205.3,130.5,205.4,130.4z"/>
				</g>
				<g>
					<path class="st9" d="M218.4,141.3c0,0-5.4-5.8-9.6-8.7c0,0,10.2,53.1,41.4,82.2l0.8-3l-11.6-44L218.4,141.3z"/>
					<path class="st7" d="M256.2,222.5c-0.2-4.3-7.7-13.9-10.1-18.4c-7.8-14.6-14.9-29.2-21.1-44.6c-10.1-24.7-19-57.5-13.1-84.2
						c2.2-9.9,9.1-26,21.7-24.5c9.4,1.1,15,12.6,18,20.5c8.1,20.7,9.6,43.5,10.5,65.5c1,25.3-0.3,50.8-1.4,76.2L256.2,222.5z"/>
					<path class="st8" d="M250.3,187c3.7-21.9,12.6-35.1,12.7-35.2l-0.7-0.5c-0.1,0.1-8.6,12.7-12.5,33.7
						c-2.3-9.6-4.3-18.7-6.1-27.5c7.8-29.1,17.6-38.2,17.7-38.3l-0.5-0.6c-0.4,0.4-9.7,9-17.5,37.2c-2.3-11.5-4.2-22.3-5.8-32.2
						c6-26.8,18.5-38.7,18.6-38.8l-0.6-0.6c-0.1,0.1-12.1,11.6-18.4,37.3c-1.9-12.3-3.3-23.3-4.3-32.6c2.3-21.1,12.2-29.8,12.3-29.9
						l-0.5-0.6c-0.1,0.1-9.2,8.1-12.2,27.1c-2.2-21.7-2.2-34.1-2.2-34.4h-0.8c0,0.3,0.1,13.5,2.5,36.6c-2.6-3.6-10.9-14.1-18.7-17
						l-0.3,0.8c9,3.3,18.9,17.4,19.2,17.8c1,9.3,2.4,20.2,4.3,32.4c-2.6-4.1-10.2-14.1-26-19.6l-0.3,0.8c19.8,6.9,26.5,20.9,26.5,21
						v0.1c1.6,9.8,3.4,20.4,5.7,31.8c-2.5-3.5-9.6-11.2-24.4-16.2l-0.3,0.8c19.1,6.3,25.1,17.4,25.1,17.5l0,0
						c1.7,8.1,3.5,16.7,5.6,25.5c-2.2-2.8-7-6.9-18-11.6l-0.3,0.7c14.8,6.3,18.2,11.5,19,13.6c2.4,10.1,5.1,20.5,8.2,31.4l0.8-0.2
						C255.2,206.8,252.6,196.7,250.3,187z"/>
				</g>
			</g>
			<g>
				<g>
					<path class="st7" d="M434.3,149.4c2.8-2.7,5.9-7.2,8.6-11c5.6-7.8,10.5-16.4,14.3-25.2c2.7-6.3,4.8-14.2,3.8-21.2
						c-0.4-3.3-2-8.3-5.4-9.8c-8.3-3.6-15.7,13.6-17.5,19.1C433.5,116.2,432.2,133.8,434.3,149.4L434.3,149.4z"/>
					<path class="st8" d="M446.1,86.2l0.2-0.3c0.1,0,4.9,3,7,7.1c1.4-6.5,2.1-10.7,2.1-10.8l0.3,0.1c0,0.1-0.7,4.3-2.1,10.7
						c3.4-3.7,6.4-4.7,6.5-4.7l0.1,0.3c0,0-3.2,1-6.7,5.1c-1,4.5-2.3,10.2-4,16.3c5.6-7.3,11.3-10.7,11.4-10.7l0.2,0.3
						c-0.1,0-6.1,3.5-11.8,11.3l0,0c-1.3,4.7-2.8,9.6-4.5,14.6c6.4-7.3,11.1-9.6,11.1-9.7l0.1,0.3c0,0-4.9,2.4-11.6,10.2l0,0
						c-1.4,3.9-2.8,7.8-4.5,11.6c5.1-5.8,8.2-7.7,8.2-7.7l0.2,0.3c0,0-3.3,2.1-8.8,8.4c-1.6,3.7-3.3,7.2-5.1,10.6l-0.3-0.2
						c1.8-3.4,3.5-6.9,5.1-10.6c0-5.7-5.7-11.9-5.8-11.9l0.2-0.2c0.1,0.1,5.4,5.8,5.8,11.5c1.7-3.9,3.2-7.9,4.6-11.8
						c-1.4-8-8.9-12.9-8.9-12.9l0.2-0.3c0.1,0,7.3,4.8,9,12.6c1.8-5.1,3.3-10.1,4.6-14.8c-0.7-5.7-9.7-12.1-9.8-12.2l0.2-0.3
						c0.4,0.3,8.6,6,9.9,11.7c1.7-6.2,3-11.8,4-16.3C451.2,89.3,446.2,86.3,446.1,86.2z"/>
				</g>
				<g>
					<path class="st9" d="M440.6,95.1c0,0,2-4.5,3.9-6.9c0,0,4.3,33.1-8.3,56.2l-1-1.6l-1.7-28L440.6,95.1z"/>
					<path class="st7" d="M434.2,150.1c-0.7-2.5,1.8-9.7,2.3-12.7c1.7-10.1,3.1-20,3.7-30.2c1.1-16.5,0-37.4-8.7-51.9
						c-3.2-5.4-10.4-13.5-17.5-10.1c-5.3,2.5-6.3,10.3-6.6,15.5c-0.7,13.7,2.8,27.3,6.6,40.4c4.3,15,10,29.7,15.6,44.4L434.2,150.1z
						"/>
					<path class="st8" d="M430.8,128.1c-6.4-12.1-14.2-18.1-14.3-18.2l0.3-0.4c0.1,0.1,7.5,5.8,13.9,17.3c-0.5-6-1.1-11.8-1.8-17.3
						c-10.3-15.6-17.8-19-17.8-19l0.2-0.5c0.3,0.1,7.4,3.4,17.5,18.4c-0.9-7.2-1.9-13.9-2.9-20c-8.7-14.6-18.3-19.1-18.4-19.2
						l0.2-0.5c0.1,0,9.4,4.4,18,18.3c-1.3-7.6-2.6-14.3-3.8-20c-5.4-11.9-13-15.1-13-15.2l0.2-0.5c0.1,0,7,3,12.4,13.5
						c-2.9-13.2-5.3-20.4-5.4-20.6l0.5-0.2c0.1,0.2,2.6,7.9,5.7,21.9c0.8-2.6,3.6-10.4,7.7-13.6l0.3,0.4c-4.6,3.7-7.7,13.9-7.8,14.2
						c1.2,5.7,2.5,12.3,3.8,19.8c0.7-2.9,3.2-10.2,11.4-16.5l0.3,0.4c-10.3,7.9-11.5,17.4-11.5,17.5l0,0c1,6,1.9,12.6,2.8,19.8
						c0.8-2.5,3.4-8.4,11.2-14.2l0.3,0.4c-10,7.4-11.3,15.1-11.3,15.1l0,0c0.6,5.1,1.2,10.5,1.7,16.1c0.7-2.1,2.8-5.4,8.3-10.3
						l0.3,0.4c-7.4,6.6-8.4,10.3-8.5,11.7c0.5,6.4,1,13,1.3,20h-0.5C431.7,140.7,431.3,134.3,430.8,128.1z"/>
				</g>
			</g>
		</g>
		<g>
			<path class="st10" d="M99.4,120.8l4.7-7.9c6-10.1,2.7-23.2-7.4-29.2S73.5,81,67.5,91.1L62.9,99l-5.2-3.1l-23.9,40.3l46.9,28
				l23.9-40.3L99.4,120.8z M71.8,93.7C76.5,86,86.5,83.4,94.2,88s10.3,14.6,5.7,22.4l-4.7,7.9l-28-16.7L71.8,93.7z M58.2,138.3
				l9.7-13.3c-0.3-1.3-0.1-2.7,0.6-3.9c1.5-2.5,4.7-3.3,7.2-1.8s3.3,4.7,1.8,7.2c-0.7,1.2-1.9,2-3.2,2.4l-7,14.9L58.2,138.3z"/>
			<g>
				<path class="st11" d="M153.8,126.7L153.8,126.7c-1.6,0.5-3.2-0.3-3.7-1.9l-15-45.8l5.6-1.8l14.9,45.8
					C156.2,124.5,155.3,126.2,153.8,126.7z"/>
				<polygon class="st11" points="152.2,122 140,126 139.1,123.2 141.4,120.9 141.1,119.7 137.9,119.6 136.9,116.4 149.1,112.4 				
					"/>
				<path class="st12" d="M136.7,84c1.3,0.8,4.9-0.4,5.6-1.8l-1.1-3.4l-5.6,1.8L136.7,84z"/>
				<path class="st11" d="M130.7,56c-7.5,2.5-11.9,9.8-9.7,16.4c2.2,6.6,10,10,17.6,7.5c7.5-2.5,11.9-9.8,9.7-16.4
					S138.3,53.5,130.7,56z M137.2,76c-5,1.6-10.3-0.6-11.7-5c-1.4-4.4,1.5-9.3,6.5-11s10.3,0.6,11.7,5
					C145.2,69.4,142.3,74.3,137.2,76z"/>
				<g class="st13">
					<path class="st14" d="M131.2,57.5c7.2-2.4,14.8,0.7,17.3,6.8c-0.1-0.3-0.1-0.5-0.2-0.8c-2.2-6.6-10-10-17.6-7.5
						c-7.5,2.5-11.9,9.8-9.7,16.4c0.1,0.3,0.2,0.5,0.3,0.8C119.7,66.8,124,59.9,131.2,57.5z"/>
					<path class="st14" d="M137.8,77.6c5-1.6,8-6.6,6.5-11c-0.1-0.3-0.2-0.5-0.3-0.8c0.9,4.2-2,8.6-6.7,10.2
						c-4.7,1.5-9.7-0.4-11.4-4.3c0.1,0.3,0.1,0.5,0.2,0.8C127.5,76.9,132.7,79.2,137.8,77.6z"/>
				</g>
				
					<rect x="136.8" y="114.9" transform="matrix(0.9508 -0.3098 0.3098 0.9508 -28.8489 49.5912)" class="st15" width="9.8" height="1.4"/>
			</g>
			<path class="st16" d="M99.7,92.9c-0.4,1,0.8,2.1,1.9,2.1s2-0.8,2.8-1.6c4.3-4.9,5.6-12,9.2-17.4c2.1-3.1,5.1-6.8,9-7.1
				c0.7,0,1.5,0,2.1,0.5c0.6,0.4,0.9,1.3,0.6,1.9"/>
			<path class="st16" d="M121.9,74.5c-0.6,0-1.2-0.5-1.5-1.1s-0.2-1.3-0.1-1.9c0.4-2,1.8-3.8,3.7-4.5c1.9-0.8,4.1-0.5,5.8,0.7"/>
			<path class="st16" d="M103.4,90c2.6,5.3-9.5,9.1-13.8,7.2"/>
		</g>
		<g>
			<g>
				<path class="st17" d="M549.2,333.6c0,2.8-68.8,5.1-153.6,5.1S242,336.4,242,333.6s68.8-5.1,153.6-5.1S549.2,330.8,549.2,333.6z"
					/>
				<rect x="251.4" y="97.2" class="st14" width="184.4" height="234.7"/>
				<rect x="251.4" y="97.2" class="st18" width="184.4" height="9.4"/>
				<rect x="251.4" y="106.6" class="st19" width="184.4" height="3.1"/>
				<rect x="251.4" y="97.2" class="st20" width="184.4" height="2.5"/>
			</g>
			<g>
				<path class="st21" d="M303.7,289.1c0,2.9,17.5,5.2,39.1,5.1c21.6,0,39.1-2.3,39.1-5.2c0-2.9-17.5-5.2-39.1-5.2
					C321.2,283.9,303.7,286.3,303.7,289.1z"/>
				<g>
					<path class="st10" d="M410.4,157.4c0-0.7-0.3-1.3-0.8-1.8c-0.5-0.4-1.2-0.7-1.8-0.6c0,0-3.9,0.5-10.1,0.4
						c-11.6-0.2-33.8-2.6-52.5-16c-0.8-0.6-1.8-0.6-2.6-0.1c-20.8,12.8-41.5,14.4-52,14.2c-5.5-0.1-8.9-0.7-8.9-0.7
						c-0.7-0.1-1.3,0.1-1.9,0.5c-0.5,0.4-0.8,1-0.9,1.7c0,0.4-2,44.4,22.7,89.4c7.7,14.1,19.9,27.7,39.3,44.1
						c0.4,0.4,0.9,0.5,1.5,0.6c0.5,0,1-0.1,1.5-0.5c18.5-14.1,31.6-27.7,39.8-41.5C410,203,410.4,157.9,410.4,157.4z"/>
					<path class="st14" d="M398.5,167.7c0-0.5-0.2-1.1-0.6-1.4c-0.4-0.4-1-0.5-1.5-0.5c0,0-3.2,0.4-8.3,0.3
						c-9.5-0.2-27.7-2.1-43-13.1c-0.6-0.5-1.5-0.5-2.1-0.1c-17,10.5-34,11.8-42.6,11.6c-4.5-0.1-7.3-0.6-7.3-0.6
						c-0.5-0.1-1.1,0-1.5,0.4c-0.4,0.3-0.7,0.9-0.7,1.4c0,0.4-1.6,36.3,18.6,73.2c6.3,11.6,16.3,22.7,32.2,36.1
						c0.3,0.3,0.8,0.4,1.2,0.5c0.4,0,0.8-0.1,1.2-0.4c15.2-11.5,25.9-22.6,32.6-34C398.1,205,398.5,168,398.5,167.7z"/>
					<path class="st11" d="M393.9,171.6c0-0.5-0.2-1-0.6-1.3s-0.9-0.5-1.4-0.4c0,0-3,0.4-7.5,0.3c-8.7-0.2-25.3-1.9-39.3-12
						c-0.6-0.4-1.3-0.4-1.9-0.1c-15.6,9.6-31.1,10.8-38.9,10.6c-4.1-0.1-6.6-0.5-6.7-0.5c-0.5-0.1-1,0-1.4,0.4
						c-0.4,0.3-0.6,0.8-0.7,1.3c0,0.3-1.5,33.2,17,66.9c5.8,10.6,14.9,20.8,29.4,33c0.3,0.3,0.7,0.4,1.1,0.4s0.8-0.1,1.1-0.4
						c13.9-10.5,23.6-20.7,29.8-31.1C393.5,205.8,393.9,172,393.9,171.6z"/>
					<g>
						<path class="st22" d="M361.2,207.1c0-10.1-8.6-18.2-18.8-17.5c-8.8,0.6-15.9,7.8-16.3,16.7c-0.3,6.5,2.9,12.4,8,15.6
							c1.8,1.2,2.9,3.3,2.9,5.5v2.5h13.3v-2.2c0-2.4,1.2-4.6,3.2-6C358.1,218.5,361.2,213.1,361.2,207.1z"/>
						<line class="st16" x1="340.4" y1="230.5" x2="337.4" y2="212"/>
						<line class="st16" x1="346.8" y1="230.5" x2="349.9" y2="212"/>
						<path class="st10" d="M347.2,242.8h-7c-1.1,0-2.1-0.8-2.3-2l-1.7-11.1H351l-1.4,11C349.4,241.9,348.4,242.8,347.2,242.8z"/>
						<path class="st23" d="M336,214.1c1.2,0.3,2.5-0.2,3.4-1.1c0.8-0.9,1.5-2.3,1.5-3.5c0-0.2-0.1-0.4-0.2-0.5
							c-0.5-0.4-1,0.8-1.2,1.1c-0.2,0.7-0.2,1.4-0.2,2.1c0.1,0.9,0.3,1.9,1.2,2.2c1.5,0.5,3.2-1.4,3.7-2.7c0.1-0.3,0.2-0.6,0.1-0.9
							c-0.1-0.3-0.5-0.5-0.7-0.3c-0.1,0.1-0.2,0.2-0.2,0.3c-0.2,0.6-0.3,1.2-0.1,1.8c0.2,0.5,0.7,1,1.2,1c1.4,0,3.1-2,3-3.3
							c0-0.5-0.5-0.7-0.8-0.4s-0.5,0.8-0.5,1.2c-0.1,0.6,0.1,1.2,0.4,1.6c0.6,0.8,1.7,1.2,2.8,1.1c0.8-0.1,1.6-0.5,2.3-1"/>
						<polygon class="st24" points="337.2,236.3 350.6,232.6 350.7,231.5 336.8,233.9 						"/>
						<path class="st24" d="M350.1,236l-12.4,3.8c0,0,0,1.7,0.9,2.4L350,237L350.1,236z"/>
						<line class="st25" x1="343.7" y1="181.5" x2="343.7" y2="186.2"/>
						<line class="st25" x1="317.5" y1="205.2" x2="322.2" y2="205.2"/>
						<line class="st25" x1="365" y1="205.2" x2="369.7" y2="205.2"/>
						<line class="st25" x1="358.7" y1="190.1" x2="362.1" y2="186.8"/>
						<line class="st25" x1="325.1" y1="186.8" x2="328.5" y2="190.1"/>
						<line class="st25" x1="343.7" y1="181.5" x2="343.7" y2="186.2"/>
						<line class="st25" x1="317.5" y1="205.2" x2="322.2" y2="205.2"/>
						<line class="st25" x1="365" y1="205.2" x2="369.7" y2="205.2"/>
						<line class="st25" x1="358.7" y1="190.1" x2="362.1" y2="186.8"/>
						<line class="st25" x1="325.1" y1="186.8" x2="328.5" y2="190.1"/>
					</g>
					<g>
						<g>
							<defs>
								<path id="SVGID_00000104668191564370437410000010996469347133382814_" d="M410.4,157.4c0-0.7-0.3-1.3-0.8-1.8
									c-0.5-0.4-1.2-0.7-1.8-0.6c0,0-3.9,0.5-10.1,0.4c-11.6-0.2-33.8-2.6-52.5-16c-0.8-0.6-1.8-0.6-2.6-0.1
									c-20.8,12.8-41.5,14.4-52,14.2c-5.5-0.1-8.9-0.7-8.9-0.7c-0.7-0.1-1.3,0.1-1.9,0.5c-0.5,0.4-0.8,1-0.9,1.7
									c0,0.4-2,44.4,22.7,89.4c7.7,14.1,19.9,27.7,39.3,44.1c0.4,0.4,0.9,0.5,1.5,0.6c0.5,0,1-0.1,1.5-0.5
									c18.5-14.1,31.6-27.7,39.8-41.5C410,203,410.4,157.9,410.4,157.4z"/>
							</defs>
							<clipPath id="SVGID_00000145035317327970930960000003288298536038455985_">
								<use xlink:href="#SVGID_00000104668191564370437410000010996469347133382814_"  style="overflow:visible;"/>
							</clipPath>
							
								<rect x="343.8" y="94.1" style="opacity:0.5;clip-path:url(#SVGID_00000145035317327970930960000003288298536038455985_);fill:#99B5C6;enable-background:new    ;" width="73.9" height="204.5"/>
						</g>
					</g>
				</g>
			</g>
		</g>
		<g>
			<g>
				<g>
					<path class="st27" d="M514.2,204.1L457.8,193c-1.9-0.4-3.2-2.3-2.8-4.2l15.7-80c0.4-1.9,2.3-3.2,4.2-2.8l56.9,11.2
						c1.7,0.3,2.8,2,2.5,3.7l-15.8,80.3C518.1,203.2,516.2,204.5,514.2,204.1z"/>
					
						<rect x="486.3" y="115.8" transform="matrix(0.1924 -0.9813 0.9813 0.1924 267.4012 582.4995)" class="st20" width="2.6" height="26"/>
					
						<rect x="496.9" y="111.2" transform="matrix(0.1924 -0.9813 0.9813 0.1924 269.005 598.0354)" class="st19" width="1.8" height="48.7"/>
					
						<rect x="496.5" y="113.7" transform="matrix(0.1924 -0.9813 0.9813 0.1924 266.1556 599.5762)" class="st19" width="1.8" height="48.7"/>
					
						<rect x="495.9" y="116.3" transform="matrix(0.1924 -0.9813 0.9813 0.1924 263.1948 601.1775)" class="st19" width="1.8" height="48.7"/>
					
						<rect x="495.4" y="118.9" transform="matrix(0.1924 -0.9813 0.9813 0.1924 260.2347 602.7784)" class="st19" width="1.8" height="48.7"/>
					
						<rect x="494.9" y="121.4" transform="matrix(0.1924 -0.9813 0.9813 0.1924 257.3845 604.3194)" class="st19" width="1.8" height="48.7"/>
					
						<rect x="494.4" y="124" transform="matrix(0.1924 -0.9813 0.9813 0.1924 254.4232 605.9207)" class="st19" width="1.8" height="48.7"/>
					
						<rect x="475" y="142.1" transform="matrix(0.1924 -0.9813 0.9813 0.1924 239.9282 585.9311)" class="st19" width="1.8" height="10.1"/>
					
						<rect x="505.9" y="185.4" transform="matrix(0.1924 -0.9813 0.9813 0.1924 222.386 651.2178)" class="st19" width="1.8" height="10.1"/>
				</g>
				<g>
					<ellipse class="st28" cx="500.6" cy="183.2" rx="8" ry="8"/>
					
						<rect x="489.7" y="180.1" transform="matrix(0.9966 -8.284589e-02 8.284589e-02 0.9966 -13.4507 42.1496)" class="st29" width="22.9" height="6.1"/>
				</g>
			</g>
			<path class="st19" d="M457.8,193.1l30.7-79.7c0.7-1.9,2.9-2.8,4.8-2l39.9,16.9l-41.3-5.6l-32.3,70.7L457.8,193.1z"/>
			<g>
				<g>
					<path class="st27" d="M515.2,216.5l-53.5-20.9c-1.8-0.7-2.8-2.8-2-4.6l29.7-75.9c0.7-1.8,2.8-2.8,4.6-2l44.5,17.4l7.8,16.6
						l-26.4,67.5C519.1,216.3,517.1,217.3,515.2,216.5z"/>
					<polygon class="st30" points="538.5,130.4 533.9,142.2 546.3,147 546.3,147 					"/>
					<polygon class="st20" points="538.5,130.4 532,143.2 546.3,147 537.1,141.3 					"/>
					
						<rect x="501.2" y="124.7" transform="matrix(0.3641 -0.9314 0.9314 0.3641 191.2655 555.5425)" class="st20" width="2.6" height="26"/>
					
						<rect x="510.4" y="121.8" transform="matrix(0.3641 -0.9314 0.9314 0.3641 188.9968 569.1688)" class="st19" width="1.8" height="48.7"/>
					
						<rect x="509.4" y="124.2" transform="matrix(0.3641 -0.9314 0.9314 0.3641 186.15 569.7664)" class="st19" width="1.8" height="48.7"/>
					
						<rect x="508.5" y="126.6" transform="matrix(0.3641 -0.9314 0.9314 0.3641 183.3285 570.4741)" class="st19" width="1.8" height="48.7"/>
					
						<rect x="507.5" y="129.1" transform="matrix(0.3641 -0.9314 0.9314 0.3641 180.3718 571.097)" class="st19" width="1.8" height="48.7"/>
					
						<rect x="506.6" y="131.5" transform="matrix(0.3641 -0.9314 0.9314 0.3641 177.5498 571.8046)" class="st19" width="1.8" height="48.7"/>
					
						<rect x="505.6" y="133.9" transform="matrix(0.3641 -0.9314 0.9314 0.3641 174.7035 572.4023)" class="st19" width="1.8" height="48.7"/>
					
						<rect x="486.8" y="148.6" transform="matrix(0.3641 -0.9314 0.9314 0.3641 166.9817 551.9479)" class="st19" width="1.8" height="10.1"/>
					
						<rect x="509.5" y="196.7" transform="matrix(0.3641 -0.9314 0.9314 0.3641 136.6108 603.6757)" class="st19" width="1.8" height="10.1"/>
				</g>
				<g>
					<path class="st31" d="M497.8,174.7c-0.4,4.4-4.3,7.6-8.7,7.2c-4.4-0.4-7.6-4.3-7.2-8.7s4.3-7.6,8.7-7.2
						C495,166.4,498.3,170.3,497.8,174.7z"/>
					
						<rect x="487.3" y="162.6" transform="matrix(9.598346e-02 -0.9954 0.9954 9.598346e-02 270.0426 645.4367)" class="st29" width="6.1" height="22.9"/>
				</g>
			</g>
		</g>
		<g>
			<g>
				<rect x="442.1" y="190.5" class="st7" width="49.4" height="142.6"/>
				<rect x="441.7" y="190.5" class="st27" width="50.3" height="1.3"/>
				<rect x="444.6" y="246.6" class="st32" width="44.2" height="22.5"/>
				<g>
					<line class="st33" x1="457.8" y1="250.4" x2="475.6" y2="250.4"/>
					<path class="st33" d="M477.5,250.4c0,0.5-0.4,0.9-0.9,0.9s-0.9-0.4-0.9-0.9s0.4-0.9,0.9-0.9
						C477.2,249.5,477.5,249.9,477.5,250.4z"/>
					<path class="st33" d="M457.8,250.4c0,0.5-0.4,0.9-0.9,0.9s-0.9-0.4-0.9-0.9s0.4-0.9,0.9-0.9S457.8,249.9,457.8,250.4z"/>
				</g>
				<rect x="444.6" y="221.1" class="st32" width="44.2" height="22.5"/>
				<g>
					<line class="st33" x1="457.8" y1="224.8" x2="475.6" y2="224.8"/>
					<path class="st33" d="M477.5,224.8c0,0.5-0.4,0.9-0.9,0.9s-0.9-0.4-0.9-0.9s0.4-0.9,0.9-0.9
						C477.2,223.9,477.5,224.3,477.5,224.8z"/>
					<path class="st33" d="M457.8,224.8c0,0.5-0.4,0.9-0.9,0.9s-0.9-0.4-0.9-0.9s0.4-0.9,0.9-0.9
						C457.4,223.9,457.8,224.3,457.8,224.8z"/>
				</g>
				<rect x="444.6" y="195.5" class="st32" width="44.2" height="22.5"/>
				<g>
					<line class="st33" x1="457.8" y1="199.2" x2="475.6" y2="199.2"/>
					<path class="st33" d="M477.5,199.2c0,0.5-0.4,0.9-0.9,0.9s-0.9-0.4-0.9-0.9s0.4-0.9,0.9-0.9
						C477.2,198.4,477.5,198.8,477.5,199.2z"/>
					<path class="st33" d="M457.8,199.2c0,0.5-0.4,0.9-0.9,0.9s-0.9-0.4-0.9-0.9s0.4-0.9,0.9-0.9
						C457.4,198.4,457.8,198.8,457.8,199.2z"/>
				</g>
				<rect x="444.6" y="272.1" class="st32" width="44.2" height="22.5"/>
				<g>
					<line class="st33" x1="457.8" y1="275.8" x2="475.6" y2="275.8"/>
					<ellipse class="st33" cx="476.7" cy="275.8" rx="0.9" ry="0.9"/>
					<ellipse class="st33" cx="457" cy="275.8" rx="0.9" ry="0.9"/>
				</g>
				<rect x="444.6" y="297.6" class="st32" width="44.2" height="22.5"/>
				<g>
					<line class="st33" x1="457.8" y1="301.3" x2="475.6" y2="301.3"/>
					<path class="st33" d="M477.5,301.3c0,0.5-0.4,0.9-0.9,0.9s-0.9-0.4-0.9-0.9s0.4-0.9,0.9-0.9
						C477.2,300.4,477.5,300.8,477.5,301.3z"/>
					<path class="st33" d="M457.8,301.3c0,0.5-0.4,0.9-0.9,0.9s-0.9-0.4-0.9-0.9s0.4-0.9,0.9-0.9S457.8,300.8,457.8,301.3z"/>
				</g>
				<rect x="442.1" y="191.9" class="st34" width="49.4" height="1.3"/>
				<rect x="444.9" y="218" class="st34" width="43.9" height="0.5"/>
				<polyline class="st35" points="457,200.1 457,202.3 476.7,202.3 476.7,200.1 				"/>
				<g>
					<line class="st33" x1="457.8" y1="224.8" x2="475.6" y2="224.8"/>
					<path class="st33" d="M477.5,224.8c0,0.5-0.4,0.9-0.9,0.9s-0.9-0.4-0.9-0.9s0.4-0.9,0.9-0.9
						C477.2,223.9,477.5,224.3,477.5,224.8z"/>
					<path class="st33" d="M457.8,224.8c0,0.5-0.4,0.9-0.9,0.9s-0.9-0.4-0.9-0.9s0.4-0.9,0.9-0.9
						C457.4,223.9,457.8,224.3,457.8,224.8z"/>
				</g>
				<rect x="444.9" y="243.6" class="st34" width="43.9" height="0.5"/>
				<polyline class="st35" points="457,225.7 457,227.9 476.7,227.9 476.7,225.7 				"/>
				<g>
					<line class="st33" x1="457.8" y1="250.4" x2="475.6" y2="250.4"/>
					<path class="st33" d="M477.5,250.4c0,0.5-0.4,0.9-0.9,0.9s-0.9-0.4-0.9-0.9s0.4-0.9,0.9-0.9
						C477.2,249.5,477.5,249.9,477.5,250.4z"/>
					<path class="st33" d="M457.8,250.4c0,0.5-0.4,0.9-0.9,0.9s-0.9-0.4-0.9-0.9s0.4-0.9,0.9-0.9S457.8,249.9,457.8,250.4z"/>
				</g>
				<rect x="444.9" y="269.2" class="st34" width="43.9" height="0.5"/>
				<polyline class="st35" points="457,251.2 457,253.4 476.7,253.4 476.7,251.2 				"/>
				<g>
					<line class="st33" x1="457.8" y1="275.9" x2="475.6" y2="275.9"/>
					<ellipse class="st33" cx="476.7" cy="275.9" rx="0.9" ry="0.9"/>
					<ellipse class="st33" cx="457" cy="275.9" rx="0.9" ry="0.9"/>
				</g>
				<rect x="444.9" y="294.7" class="st34" width="43.9" height="0.5"/>
				<polyline class="st35" points="457,276.8 457,279 476.7,279 476.7,276.8 				"/>
				<g>
					<line class="st33" x1="457.8" y1="301.5" x2="475.6" y2="301.5"/>
					<ellipse class="st33" cx="476.7" cy="301.5" rx="0.9" ry="0.9"/>
					<ellipse class="st33" cx="457" cy="301.5" rx="0.9" ry="0.9"/>
				</g>
				<rect x="444.9" y="320.3" class="st34" width="43.9" height="0.5"/>
				<polyline class="st35" points="457,302.3 457,304.6 476.7,304.6 476.7,302.3 				"/>
				<polygon class="st36" points="488.8,206.7 444.6,215.5 444.6,217.9 488.8,217.9 				"/>
				<polygon class="st36" points="488.8,232.3 444.6,241.1 444.6,243.6 488.8,243.6 				"/>
				<polygon class="st36" points="488.8,258 444.6,266.8 444.6,269.2 488.8,269.2 				"/>
				<polygon class="st36" points="488.8,283.6 444.6,292.4 444.6,294.8 488.8,294.8 				"/>
				<polygon class="st36" points="488.8,309.2 444.6,318 444.6,320.4 488.8,320.4 				"/>
				<polygon class="st36" points="491.5,327.6 442.1,330.8 442.1,333.2 491.5,333.2 				"/>
			</g>
			<g>
				<rect x="491.8" y="190.5" class="st7" width="49.4" height="142.6"/>
				<rect x="491.4" y="190.5" class="st27" width="50.3" height="1.3"/>
				<rect x="494.3" y="246.6" class="st32" width="44.2" height="22.5"/>
				<g>
					<line class="st33" x1="507.5" y1="250.4" x2="525.3" y2="250.4"/>
					<path class="st33" d="M527.2,250.4c0,0.5-0.4,0.9-0.9,0.9s-0.9-0.4-0.9-0.9s0.4-0.9,0.9-0.9S527.2,249.9,527.2,250.4z"/>
					<path class="st33" d="M507.5,250.4c0,0.5-0.4,0.9-0.9,0.9s-0.9-0.4-0.9-0.9s0.4-0.9,0.9-0.9S507.5,249.9,507.5,250.4z"/>
				</g>
				<rect x="494.3" y="221.1" class="st32" width="44.2" height="22.5"/>
				<g>
					<line class="st33" x1="507.5" y1="224.8" x2="525.3" y2="224.8"/>
					<path class="st33" d="M527.2,224.8c0,0.5-0.4,0.9-0.9,0.9s-0.9-0.4-0.9-0.9s0.4-0.9,0.9-0.9
						C526.8,223.9,527.2,224.3,527.2,224.8z"/>
					<path class="st33" d="M507.5,224.8c0,0.5-0.4,0.9-0.9,0.9s-0.9-0.4-0.9-0.9s0.4-0.9,0.9-0.9S507.5,224.3,507.5,224.8z"/>
				</g>
				<rect x="494.3" y="195.5" class="st32" width="44.2" height="22.5"/>
				<g>
					<line class="st33" x1="507.5" y1="199.2" x2="525.3" y2="199.2"/>
					<path class="st33" d="M527.2,199.2c0,0.5-0.4,0.9-0.9,0.9s-0.9-0.4-0.9-0.9s0.4-0.9,0.9-0.9
						C526.8,198.4,527.2,198.8,527.2,199.2z"/>
					<path class="st33" d="M507.5,199.2c0,0.5-0.4,0.9-0.9,0.9s-0.9-0.4-0.9-0.9s0.4-0.9,0.9-0.9S507.5,198.8,507.5,199.2z"/>
				</g>
				<rect x="494.3" y="272.1" class="st32" width="44.2" height="22.5"/>
				<g>
					<line class="st33" x1="507.5" y1="275.8" x2="525.3" y2="275.8"/>
					<path class="st33" d="M527.2,275.8c0,0.5-0.4,0.9-0.9,0.9s-0.9-0.4-0.9-0.9s0.4-0.9,0.9-0.9C526.8,275,527.2,275.3,527.2,275.8
						z"/>
					<ellipse class="st33" cx="506.6" cy="275.8" rx="0.9" ry="0.9"/>
				</g>
				<rect x="494.3" y="297.6" class="st32" width="44.2" height="22.5"/>
				<g>
					<line class="st33" x1="507.5" y1="301.3" x2="525.3" y2="301.3"/>
					<path class="st33" d="M527.2,301.3c0,0.5-0.4,0.9-0.9,0.9s-0.9-0.4-0.9-0.9s0.4-0.9,0.9-0.9S527.2,300.8,527.2,301.3z"/>
					<path class="st33" d="M507.5,301.3c0,0.5-0.4,0.9-0.9,0.9s-0.9-0.4-0.9-0.9s0.4-0.9,0.9-0.9S507.5,300.8,507.5,301.3z"/>
				</g>
				<rect x="491.8" y="191.9" class="st34" width="49.4" height="1.3"/>
				<rect x="494.5" y="218" class="st34" width="43.9" height="0.5"/>
				<polyline class="st35" points="506.6,200.1 506.6,202.3 526.4,202.3 526.4,200.1 				"/>
				<g>
					<line class="st33" x1="507.5" y1="224.8" x2="525.3" y2="224.8"/>
					<path class="st33" d="M527.2,224.8c0,0.5-0.4,0.9-0.9,0.9s-0.9-0.4-0.9-0.9s0.4-0.9,0.9-0.9
						C526.8,223.9,527.2,224.3,527.2,224.8z"/>
					<path class="st33" d="M507.5,224.8c0,0.5-0.4,0.9-0.9,0.9s-0.9-0.4-0.9-0.9s0.4-0.9,0.9-0.9S507.5,224.3,507.5,224.8z"/>
				</g>
				<rect x="494.5" y="243.6" class="st34" width="43.9" height="0.5"/>
				<polyline class="st35" points="506.6,225.7 506.6,227.9 526.4,227.9 526.4,225.7 				"/>
				<g>
					<line class="st33" x1="507.5" y1="250.4" x2="525.3" y2="250.4"/>
					<path class="st33" d="M527.2,250.4c0,0.5-0.4,0.9-0.9,0.9s-0.9-0.4-0.9-0.9s0.4-0.9,0.9-0.9S527.2,249.9,527.2,250.4z"/>
					<path class="st33" d="M507.5,250.4c0,0.5-0.4,0.9-0.9,0.9s-0.9-0.4-0.9-0.9s0.4-0.9,0.9-0.9S507.5,249.9,507.5,250.4z"/>
				</g>
				<rect x="494.5" y="269.2" class="st34" width="43.9" height="0.5"/>
				<polyline class="st35" points="506.6,251.2 506.6,253.4 526.4,253.4 526.4,251.2 				"/>
				<g>
					<line class="st33" x1="507.5" y1="275.9" x2="525.3" y2="275.9"/>
					<path class="st33" d="M527.2,275.9c0,0.5-0.4,0.9-0.9,0.9s-0.9-0.4-0.9-0.9s0.4-0.9,0.9-0.9
						C526.8,275.1,527.2,275.5,527.2,275.9z"/>
					<ellipse class="st33" cx="506.6" cy="275.9" rx="0.9" ry="0.9"/>
				</g>
				<rect x="494.5" y="294.7" class="st34" width="43.9" height="0.5"/>
				<polyline class="st35" points="506.6,276.8 506.6,279 526.4,279 526.4,276.8 				"/>
				<g>
					<line class="st33" x1="507.5" y1="301.5" x2="525.3" y2="301.5"/>
					<path class="st33" d="M527.2,301.5c0,0.5-0.4,0.9-0.9,0.9s-0.9-0.4-0.9-0.9s0.4-0.9,0.9-0.9S527.2,301,527.2,301.5z"/>
					<ellipse class="st33" cx="506.6" cy="301.5" rx="0.9" ry="0.9"/>
				</g>
				<rect x="494.5" y="320.3" class="st34" width="43.9" height="0.5"/>
				<polyline class="st35" points="506.6,302.3 506.6,304.6 526.4,304.6 526.4,302.3 				"/>
				<polygon class="st36" points="538.5,206.7 494.3,215.5 494.3,217.9 538.5,217.9 				"/>
				<polygon class="st36" points="538.5,232.3 494.3,241.1 494.3,243.6 538.5,243.6 				"/>
				<polygon class="st36" points="538.5,258 494.3,266.8 494.3,269.2 538.5,269.2 				"/>
				<polygon class="st36" points="538.5,283.6 494.3,292.4 494.3,294.8 538.5,294.8 				"/>
				<polygon class="st36" points="538.5,309.2 494.3,318 494.3,320.4 538.5,320.4 				"/>
				<polygon class="st36" points="541.2,327.6 491.8,330.8 491.8,333.2 541.2,333.2 				"/>
			</g>
		</g>
		<g>
			<path class="st37" d="M86.7,345.8c0,1.5-6.4,2.7-14.4,2.7s-14.4-1.2-14.4-2.7s6.4-2.7,14.4-2.7C80.3,343.2,86.7,344.4,86.7,345.8
				z"/>
			<path class="st37" d="M181.1,345.8c0,1.5-6.4,2.7-14.4,2.7s-14.4-1.2-14.4-2.7s6.4-2.7,14.4-2.7
				C174.6,343.2,181.1,344.4,181.1,345.8z"/>
			<path class="st37" d="M274.8,345.8c0,1.5-6.4,2.7-14.4,2.7s-14.4-1.2-14.4-2.7s6.4-2.7,14.4-2.7
				C268.4,343.2,274.8,344.4,274.8,345.8z"/>
			<g>
				<path class="st11" d="M82.3,345.8H63.5v-0.7c0-1,0.7-2,1.7-2.2l7.7-2.1l7.7,2.1c1,0.3,1.7,1.2,1.7,2.2L82.3,345.8L82.3,345.8z"
					/>
				<rect x="71.5" y="214.2" class="st11" width="2.8" height="128.7"/>
				<path class="st34" d="M71.5,217c0.6,0.8,2.6,0.4,2.8,0v-2.9h-2.8V217z"/>
				<path class="st10" d="M76.7,211.3c0,2.1-1.7,3.8-3.8,3.8c-2.1,0-3.8-1.7-3.8-3.8s1.7-3.8,3.8-3.8S76.7,209.2,76.7,211.3z"/>
				<path class="st34" d="M72.9,212.9c-1.7,0-3.2-1.1-3.6-2.7c-0.1,0.4-0.2,0.8-0.2,1.2c0,2.1,1.7,3.8,3.8,3.8
					c2.1,0,3.8-1.7,3.8-3.8c0-0.4-0.1-0.8-0.2-1.2C76,211.7,74.6,212.9,72.9,212.9z"/>
			</g>
			<g>
				<path class="st11" d="M176,345.8h-18.7v-0.7c0-1,0.7-2,1.7-2.2l7.7-2.1l7.7,2.1c1,0.3,1.7,1.2,1.7,2.2L176,345.8L176,345.8z"/>
				<rect x="165.3" y="214.2" class="st11" width="2.8" height="128.7"/>
				<path class="st34" d="M165.3,217c0.6,0.8,2.6,0.4,2.8,0v-2.9h-2.8V217z"/>
				<path class="st10" d="M170.5,211.3c0,2.1-1.7,3.8-3.8,3.8s-3.8-1.7-3.8-3.8s1.7-3.8,3.8-3.8S170.5,209.2,170.5,211.3z"/>
				<path class="st34" d="M166.7,212.9c-1.7,0-3.2-1.1-3.6-2.7c-0.1,0.4-0.2,0.8-0.2,1.2c0,2.1,1.7,3.8,3.8,3.8s3.8-1.7,3.8-3.8
					c0-0.4-0.1-0.8-0.2-1.2C169.8,211.7,168.4,212.9,166.7,212.9z"/>
			</g>
			<g>
				<path class="st11" d="M269.8,345.8h-18.7v-0.7c0-1,0.7-2,1.7-2.2l7.7-2.1l7.7,2.1c1,0.3,1.7,1.2,1.7,2.2v0.7H269.8z"/>
				<rect x="259" y="214.2" class="st11" width="2.8" height="128.7"/>
				<path class="st34" d="M259,217c0.6,0.8,2.6,0.4,2.8,0v-2.9H259V217z"/>
				<path class="st10" d="M264.3,211.3c0,2.1-1.7,3.8-3.8,3.8c-2.1,0-3.8-1.7-3.8-3.8s1.7-3.8,3.8-3.8
					C262.6,207.5,264.3,209.2,264.3,211.3z"/>
				<path class="st34" d="M260.4,212.9c-1.7,0-3.2-1.1-3.6-2.7c-0.1,0.4-0.2,0.8-0.2,1.2c0,2.1,1.7,3.8,3.8,3.8
					c2.1,0,3.8-1.7,3.8-3.8c0-0.4-0.1-0.8-0.2-1.2C263.6,211.7,262.2,212.9,260.4,212.9z"/>
			</g>
			<path class="st38" d="M72.9,225.7c21.1,20.6,71.5,19.3,93.8,0"/>
			<path class="st38" d="M166.7,225.7c21.1,20.6,71.5,19.3,93.8,0"/>
			<path class="st11" d="M72,224.8c0,0.7-0.6,1.3-1.3,1.3c-0.7,0-1.3-0.6-1.3-1.3s0.6-1.3,1.3-1.3C71.4,223.4,72,224,72,224.8z"/>
			<circle class="st11" cx="262.8" cy="224.8" r="1.3"/>
		</g>
		<g>
			<g>
				<g>
					
						<radialGradient id="SVGID_00000047769198321254198710000008315257485541256631_" cx="282.8028" cy="-214.9038" r="2.7851" gradientTransform="matrix(0.9977 0 0 -0.738 0.1121 122.7799)" gradientUnits="userSpaceOnUse">
						<stop  offset="0.3447" style="stop-color:#FFF9E9"/>
						<stop  offset="1" style="stop-color:#EDE6D6"/>
					</radialGradient>
					
						<path style="fill:url(#SVGID_00000047769198321254198710000008315257485541256631_);stroke:#101E35;stroke-width:0.8699;stroke-miterlimit:10;" d="
						M284.2,281.4c0,1.4-0.9,2.5-2,2.5s-2-1.1-2-2.5s0.9-2.5,2-2.5C283.3,278.9,284.2,280,284.2,281.4z"/>
					
						<radialGradient id="SVGID_00000161614044635050490680000016425316637246932871_" cx="273.2163" cy="-236.821" r="7.1964" gradientTransform="matrix(0.9977 0 0 -0.6717 0.1121 122.0798)" gradientUnits="userSpaceOnUse">
						<stop  offset="0.3447" style="stop-color:#FFF9E9"/>
						<stop  offset="1" style="stop-color:#EDE6D6"/>
					</radialGradient>
					
						<rect x="263.1" y="278.9" style="fill:url(#SVGID_00000161614044635050490680000016425316637246932871_);" width="19.2" height="4.6"/>
					<line class="st16" x1="263.1" y1="278.9" x2="282.3" y2="278.9"/>
					<line class="st16" x1="263.1" y1="283.9" x2="282.3" y2="283.9"/>
				</g>
				<g>
					
						<radialGradient id="SVGID_00000109720737750603564210000016304593279168574900_" cx="287.1069" cy="192.1633" r="2.7864" gradientTransform="matrix(0.9977 0 0 -1 0.1121 479.89)" gradientUnits="userSpaceOnUse">
						<stop  offset="0.3447" style="stop-color:#FFF9E9"/>
						<stop  offset="1" style="stop-color:#EDE6D6"/>
					</radialGradient>
					
						<path style="fill:url(#SVGID_00000109720737750603564210000016304593279168574900_);stroke:#EA9E18;stroke-width:0.8699;stroke-miterlimit:10;" d="
						M288.5,287.7c0,1.9-0.9,3.4-2,3.4s-2-1.5-2-3.4s0.9-3.4,2-3.4C287.6,284.3,288.5,285.8,288.5,287.7z"/>
					
						<radialGradient id="SVGID_00000055681660583410854760000011761133058718603138_" cx="271.4247" cy="180.9749" r="11.3497" gradientTransform="matrix(0.9977 0 0 -0.9329 0.1121 456.3315)" gradientUnits="userSpaceOnUse">
						<stop  offset="0.3447" style="stop-color:#FFF9E9"/>
						<stop  offset="1" style="stop-color:#EDE6D6"/>
					</radialGradient>
					
						<rect x="255.3" y="284.3" style="fill:url(#SVGID_00000055681660583410854760000011761133058718603138_);" width="31.3" height="6.4"/>
					<line class="st43" x1="255.3" y1="284.3" x2="286.6" y2="284.3"/>
					<line class="st43" x1="255.3" y1="291.1" x2="286.6" y2="291.1"/>
				</g>
				<g>
					<path class="st37" d="M308.5,395.4c0,4.1-42.9,7.5-95.8,7.5s-95.8-3.3-95.8-7.5c0-4.1,42.9-7.5,95.8-7.5
						S308.5,391.2,308.5,395.4z"/>
					
						<radialGradient id="SVGID_00000047741008175154172960000007522172267500087478_" cx="210.7942" cy="178.2074" r="29.1828" gradientTransform="matrix(0.9977 0 0 -1 0.1121 479.89)" gradientUnits="userSpaceOnUse">
						<stop  offset="0.3447" style="stop-color:#FFF9E9"/>
						<stop  offset="1" style="stop-color:#EDE6D6"/>
					</radialGradient>
					<path style="fill:url(#SVGID_00000047741008175154172960000007522172267500087478_);" d="M187.4,331.2
						c-1.9-9.9-9.9-46.6,3.1-55c13.1-8.4,29.6-6.7,41.5,2.6c11.9,9.4,1.2,53.8,1.2,53.8L187.4,331.2z"/>
					<polygon class="st27" points="179.7,383.5 176.9,383.5 185.7,316.7 191.4,316.7 					"/>
					<polygon class="st27" points="244.9,383.5 247.8,383.5 239,316.7 233.2,316.7 					"/>
					<g>
						<path class="st45" d="M231.2,310.8l3.8,17.7c1.2,11.2-26.7,6.4-26.7,6.4s-15.6,1.7-22.2-4c-2.5-2.1,4.7-18.1,7.6-21.9
							C199,304.3,229.6,304.2,231.2,310.8z"/>
						<path class="st46" d="M236.2,363.3c0,0-1.4,7.3-1.1,10.2c0.3,2.4-0.1,4.5-0.2,6.9c-0.1,2.4-8,1-8.5-0.3s-0.8-3.8-0.6-5.4
							s-0.1-8.5-0.1-8.5L236.2,363.3z"/>
						<path class="st18" d="M225.5,379.1c-0.1,4-1.1,5.1-1.1,7.6c0,0.6-0.1,2.9,0.2,3.3c1,1.4,3.5,1.6,5.5,1.6
							c2.9,0,5.8-0.2,8.1-1.1c3.7-1.5-2.3-8.5-2.5-11.8C235.6,375.9,225.7,375.1,225.5,379.1z"/>
						<path class="st47" d="M239,386.7c0,0-0.1,0.6-1.2,0.8c-1.3-2.4-2.9-3.9-5.8-3.9c-3.4,0-5.3,2.5-5.8,4.5
							c-1.6-0.6-1.7-1.5-1.7-1.5v3.8c0,1.4,1.6,3.4,7.1,3.4c3.2,0,5.2-1.2,6.5-2C239.4,391.1,239.6,388.2,239,386.7z"/>
						<path class="st48" d="M233.9,381.8c0,0-3.1-1.1-6.1,0.4"/>
						<path class="st48" d="M233.1,380.3c0,0-2.1-0.8-4.6,0.1"/>
						<path class="st46" d="M187.4,363.3c0,0,1.4,7.3,1.1,10.2c-0.3,2.4,0.1,4.5,0.2,6.9c0.1,2.4,8,1,8.5-0.3s0.8-3.8,0.6-5.4
							s0.1-8.5,0.1-8.5L187.4,363.3z"/>
						<path class="st18" d="M198.1,379.1c0.1,4,1.1,5.1,1.1,7.6c0,0.6,0.1,2.9-0.2,3.3c-1,1.4-3.5,1.6-5.5,1.6
							c-2.9,0-5.8-0.2-8.1-1.1c-3.7-1.5,2.3-8.5,2.5-11.8C188.1,375.9,198,375.1,198.1,379.1z"/>
						<path class="st47" d="M184.7,386.7c0,0,0.1,0.6,1.2,0.8c1.3-2.4,2.9-3.9,5.8-3.9c3.4,0,5.3,2.5,5.8,4.5
							c1.6-0.6,1.7-1.5,1.7-1.5v3.8c0,1.4-1.6,3.4-7.1,3.4c-3.2,0-5.2-1.2-6.5-2C184.2,391.1,184.1,388.2,184.7,386.7z"/>
						<path class="st48" d="M189.7,381.8c0,0,3.1-1.1,6.1,0.4"/>
						<path class="st48" d="M190.6,380.3c0,0,2.1-0.8,4.6,0.1"/>
						<path class="st46" d="M234.2,252c2.3,0.8,13.4,27.3,12.1,37.8c-0.9,7.2-22.7,1.9-22.9,2.3c-0.5,1.4-1.6-4.3-4.2-5.9
							c-0.2-0.2,7.5-3.3,15.5-4.6c-1.8-4.7-4.2-7.5-4.2-7.5V257L234.2,252"/>
						<path class="st46" d="M206,246.1l1.7-0.7l7.9-4.1l4.1,4.6l14.5,6.1c0,0-4.4,9.3-3.2,34.1c0.7,13.7,0.6,32.7,0.6,32.7
							l-13.8-2.6l-0.5-7.9l-9,0.6l-0.6,7l-18.2,0.3c0,0,0,0,0-0.8c0-1.1,0-2.7,0.1-4.8c0.1-4.1,3.2-6.3,3.3-12.3
							c0-4.4-0.6-13.8-0.7-18c-0.4-15.2,3-29.5,3-29.5L206,246.1z"/>
						<path class="st12" d="M192.9,297.1l4.3-34l-4.4,8.6c0,0-0.9,5.2-0.5,12.9C192.6,289.5,192.9,297.1,192.9,297.1z"/>
						<path class="st46" d="M207.3,232.1c-4.4-2-7-16.2-2.7-21.6c7.6-9.3,17.2-3.2,17.6,1.2c0,0,1.8-0.2,2.5,0.8
							c1,1.4,1.3,9.4-0.9,15.8c-0.8,2.3-0.5,1.6-3.5,4L207.3,232.1z"/>
						<path class="st7" d="M208.3,236.5c0,1.9-0.4,7.7-0.5,8.9l-1.7,0.7l7.4,12.4l7.6-12l-1.3-0.5c-0.2-0.4-0.7-6.1-0.6-9
							L208.3,236.5z"/>
						<path class="st49" d="M208.3,236.5c0,0,0.1,0.7,0,1.9c0,0,3.2,3.8,5.5,3.8s5.3-3.5,5.3-3.5s-0.1-2.4,0.1-3.4L208.3,236.5z"/>
						<path class="st49" d="M226.9,225.6c-0.3,2-1.8,4.5-3.3,3.8c-1.2-0.6-2.2-1.6-1.9-3.6s1.3-3,2.9-3.3
							C226.3,222.1,227.2,223.6,226.9,225.6z"/>
						<path class="st49" d="M201.4,225.6c0.3,2,1.8,4.5,3.3,3.8c1.2-0.6,2.2-1.6,1.9-3.6s-1.3-3-2.9-3.3
							C202,222.1,201.2,223.6,201.4,225.6z"/>
						<path class="st7" d="M201.9,223.1c0.3-0.4,2-0.6,2.5,0.9l-0.2-1.4c0,0-0.5-0.3-1.2-0.2C202.2,222.6,201.9,223.1,201.9,223.1z"
							/>
						<path class="st7" d="M224.1,221.5c0,5.5-4.5,10-10,10s-10-4.5-10-10c0-7.4,4.5-11,10-11C219.7,210.5,224.1,214.2,224.1,221.5z
							"/>
						<path class="st7" d="M224.1,221.5c0,5.3,0,9.8-2,12.7c-1.2,1.7-4.4,4.8-6.7,5.5c-0.6,0.2-2.2,0.1-2.8-0.1
							c-2.3-0.8-5.2-3.7-6.4-5.4c-2-2.9-2-7.4-2-12.7"/>
						<path class="st50" d="M219.8,226.2c0,0.9-0.5,1.6-1.2,1.6s-1.2-0.7-1.2-1.6c0-0.9,0.5-1.6,1.2-1.6
							C219.2,224.6,219.8,225.3,219.8,226.2z"/>
						<path class="st50" d="M210.8,226.2c0,0.9-0.5,1.6-1.2,1.6s-1.2-0.7-1.2-1.6c0-0.9,0.5-1.6,1.2-1.6
							C210.2,224.6,210.8,225.3,210.8,226.2z"/>
						<g>
							<path class="st46" d="M217.2,221.3c1.5-0.4,3.1-0.3,4.3,0.6c0.5,0.3,0.2,1.1-0.4,1.1c-1.3,0-2.6-0.2-3.9-0.5
								C216.6,222.3,216.6,221.4,217.2,221.3L217.2,221.3z"/>
						</g>
						<g>
							<path class="st46" d="M211,222.2c-1.3,0.3-2.6,0.5-3.9,0.5c-0.3,0-0.6-0.3-0.6-0.6c0-1.3,5.4-2,5-0.3
								C211.5,222,211.3,222.2,211,222.2L211,222.2z"/>
						</g>
						<path class="st49" d="M212.4,231.2c0.6-0.3,2.9-0.3,3.5,0c0.5,0.3-1.1,0.8-1.7,0.8S211.9,231.5,212.4,231.2z"/>
						<path class="st49" d="M210.5,234c2.5-0.3,4.8-0.2,7,0.1c0.2,0-1.9,1.6-3.3,1.6C212.8,235.8,210.3,234.1,210.5,234z"/>
						<polygon class="st22" points="206,246.1 207.9,243.5 213.7,251.9 219.5,244.2 221,246.4 214.3,257 217.3,308.3 208.3,308.9 
							212.6,257 						"/>
						<path class="st46" d="M204.3,225.6l1,0.4c0,0-0.2-7,1.4-9.5c1.6-2.5,11,1.9,14.1-1.5c0,0,0.1,2.7,1.5,3.9s0.7,7.4,0.7,7.4
							l1.2-1l0.9-5.9l-3.6-7.1l-8.7-3.1c0,0-5.5,2.4-6.1,2.8c-0.6,0.4-3.1,5.4-3.1,5.7C203.5,218,204.3,225.6,204.3,225.6z"/>
						<path class="st46" d="M195.2,250.8l6.1,15.2l-10.7,13.5c0,0,6.4,5.6,14.8,10.9l-5.2,5.2c-3.3-1.8-28.8-7.3-28.5-9.3
							C173.2,277.4,184.3,263.6,195.2,250.8z"/>
						<path class="st51" d="M224.2,210.9c-1.3,0.3-2.2,0.7-2.9,1.8"/>
						<path class="st51" d="M222.2,207.5c1.2,2.4,0,5.1-1.4,7.2"/>
						<path class="st45" d="M186.8,374.4c0,0-12.4-52.1-6.1-61c2.5-3.5,24.5-3,28.7-0.3s-11.7,7.6-10.4,20.2
							c0.1,5.7-1,33.2-0.5,38.6C199,377.3,186.8,374.4,186.8,374.4z"/>
						<polygon class="st9" points="212.6,257 210.3,308.9 208.3,308.9 						"/>
						<polygon class="st9" points="214.3,257 215.2,308.4 217.3,308.3 						"/>
						<path class="st45" d="M236.4,374.4c0,0,10.5-52.1,4.2-61c-2.5-3.5-22-3-26.2-0.3s12,5.5,10.6,18.1
							c-2.2,12.2,0.1,35.3-0.3,40.7C224.2,377.3,236.4,374.4,236.4,374.4z"/>
						<polygon class="st12" points="230.4,266.1 236.5,286.4 233.8,280.3 230.8,274.7 						"/>
						<path class="st12" d="M198.9,320.8c0,0,3.9,7.6,13.7,7.6s13.2-7.6,13.2-7.6s-1.1,5.1-1.5,15.7l-25.5-0.3
							C200,326,198.9,320.8,198.9,320.8z"/>
						
							<radialGradient id="SVGID_00000023262390470070720990000012327308412134226861_" cx="212.4766" cy="146.0319" r="9.3339" gradientTransform="matrix(0.9977 0 0 -1 0.1121 479.89)" gradientUnits="userSpaceOnUse">
							<stop  offset="0.3447" style="stop-color:#FFF9E9"/>
							<stop  offset="1" style="stop-color:#EDE6D6"/>
						</radialGradient>
						<polygon style="fill:url(#SVGID_00000023262390470070720990000012327308412134226861_);" points="224.3,336.5 199.2,336.5 
							199.2,331.2 225,331.2 						"/>
					</g>
					<g>
						<path class="st27" d="M235.9,291.2c0,0.5-0.4,0.9-0.9,0.9h-43.8c-0.5,0-0.9-0.4-0.9-0.9v-25.7c0-0.5,0.4-0.9,0.9-0.9H235
							c0.5,0,0.9,0.4,0.9,0.9V291.2z"/>
					</g>
					<path class="st22" d="M217.5,280.1c0,2.5-2,4.5-4.5,4.5s-4.5-2-4.5-4.5s2-4.5,4.5-4.5S217.5,277.6,217.5,280.1z"/>
				</g>
				<polyline class="st7" points="271.5,295.2 278.7,393.3 282,393.3 282,295.2 				"/>
				<line class="st53" x1="271.5" y1="300.5" x2="152" y2="300.5"/>
				<polyline class="st7" points="271.9,300.5 282,300.5 286.7,300.5 293.9,396.3 297.2,396.3 297.2,300.5 297.2,292.7 125.6,292.7 
					125.6,300.5 125.6,396.3 128.9,396.3 136.1,300.5 141.5,300.5 				"/>
				<rect x="122.5" y="291.4" class="st27" width="177.7" height="1.3"/>
				<rect x="125.6" y="292.7" class="st54" width="171.6" height="3.8"/>
				<polyline class="st7" points="141.5,297.5 141.5,396.3 144.8,396.3 152,300.5 				"/>
				<polygon class="st54" points="271.9,300.5 282,300.5 282,303.8 272.6,309.5 				"/>
				<polygon class="st54" points="141.5,300.5 152,300.5 151.4,308.9 141.5,304.7 				"/>
			</g>
		</g>
		<g>
			<path class="st37" d="M458,395.1c0,2.6-16.9,4.6-37.7,4.6c-20.8,0-37.7-2.1-37.7-4.7s16.9-4.6,37.7-4.6S458,392.5,458,395.1z"/>
			<g>
				<path class="st18" d="M409.6,171c0,2.1,1.7,3.8,3.8,3.8c2.1,0,3.8-1.7,3.8-3.8s-1.7-3.8-3.8-3.8
					C411.3,167.2,409.6,168.9,409.6,171z"/>
				<path class="st18" d="M428.1,171.8c0,2.5,2,4.5,4.5,4.5s4.5-2,4.5-4.5s-2-4.5-4.5-4.5S428.1,169.3,428.1,171.8z"/>
				<path class="st18" d="M415.5,158.2c0,2.1,1.7,3.8,3.8,3.8c2.1,0,3.8-1.7,3.8-3.8s-1.7-3.8-3.8-3.8
					C417.2,154.5,415.5,156.2,415.5,158.2z"/>
				<path class="st18" d="M415.9,385.1c0,0,0.1,1.5,0.1,2.3c0,0.5,0.7,4,1.1,6.1c0.2,0.9-0.1,1.6-0.9,1.7
					c-3.5,0.2-13.4,0.7-15.5,0.7c-2.6,0-5.1-0.2-5.6-1.2c-0.8-1.5,0.2-4.4,5.4-6c2.6-0.8,3.3-4.1,3.3-3.5L415.9,385.1z"/>
				<path class="st18" d="M434.8,385.6c0.3,2.9-3.2,4.5-3.1,7.2c0,0.5,0,1.6,0.3,2c0.9,1.3,3.1,1.4,4.9,1.4c2.6,0,5.3-0.2,7.3-1
					c3.4-1.3,1.2-6.7,1.1-9.7C445.3,384.4,434.8,385.6,434.8,385.6z"/>
				<path class="st18" d="M424.2,285.7c0.2,2.7,2.6,28.3,7.2,51.9c4.7,24.1,3.5,48.5,3.5,48.5s1.6,0.7,4.9,0.9
					c3.1,0.2,5.6-0.7,5.6-0.7s2.3-37.7,0.2-51.5c-3.1-21.5,1.4-54.6-2-64.9c0,0-5.5-12.8-11.8-12.9c-6.5-0.1-14.5-0.2-20.5-0.1
					c-3.7,0-5.9,12.8-7.2,13c-0.3,7.1-2.4,36.6-0.5,63.3c1.6,23.8,0.2,45,0.2,51.9c0,0,1.6,1.2,6.1,1.6c4.4,0.4,6.1-0.8,6.1-0.8
					s4-38.4,3.1-52.7c-0.7-11.7,3.3-47.6,3.3-47.6L424.2,285.7z"/>
				<path class="st11" d="M431.4,194.7l-5.6-3.8l-4-1l-3.9,3.3l-11.8,5.1c0,0,0.5,13-0.8,36.4c-0.8,13.5-1.7,22.2-1.9,27.1
					c-0.2,3.6,0,19.4,0,19.4c0,3.1,17.2,6.1,18.2-1c1.1-7.8,1.7-23.7,1.7-23.7s1.1,16.4,2.3,24.1c1.1,7.3,20.3,4.5,20.2,1.2
					c0,0,0.1-13.3,0-19.4s-1.2-18.1-2.1-33.3s0.8-28.7,0.8-28.7L431.4,194.7z"/>
				<path class="st11" d="M442.7,231.2c-5.3-0.2-13.3-0.3-22.1-0.3c-2.3,0.1-1.4,8.4-0.5,7.1c1,0,2.9,0.3,5.3,0.8
					c0.4,0.1,1.6,2,2,2.1c9.5,1.8,24.1,4,27.8-0.3c5.5-6.3-7.3-37.5-9.7-39.3c-2.8-2.1-4.1-1.9-6,0.8c-2.4,2.9-0.8,9.7-0.2,11.6
					C440.3,216.5,442.7,231.2,442.7,231.2z"/>
				<path class="st7" d="M405.2,231.3c5.3-0.2,16.1-3,24.9-3c0.6,0,8.1,2,8.1,2.9c-1.1-0.1-3.5,0.2-5.6,1.5
					c-2.8,1.7-4.2,3.8-5.7,3.8c-4.8,0.1-29.8,9.5-31.8,6c-2.2-3.6,0.1-11.3,0.7-15c1.2-6.9,2.5-13.9,4.3-20.7c1.3-4.6,5-12,9.8-5.8
					c2.3,3,0.1,11-1.1,12.5C407.5,215.1,405.2,231.3,405.2,231.3z"/>
				<path class="st12" d="M421.8,238.2l5.5-2.5c0,0,6.1-4.7,10.6-4.8l0.4,0.3c0,0-5.5,0.1-8.2,3.6c-1.3,1.6-2.7,2.4-3.5,4.3
					c0,0-17.5,7.2-22.1,8.2c0,0,0.3-2.6,0.2-3.3C404.6,243.4,422.1,238.3,421.8,238.2z"/>
				<path class="st11" d="M424.4,228.6c0,0,3.7,3,1.2,7.9c0,0-0.5,0.4-1.7,0.8c-0.2,0.1-1.3,1.9-1.5,2c-7,2-21.4,7.4-27.2,4.3
					c-8.3-4.3,4.1-43.2,10.2-44.9l3.5-1.2l2.2,1.8c0,0,2.3,7.7,2.3,7.9c0.1,0.2-0.4,12.3-0.4,12.3l-6.5,10.4l13.9-2.1l1.7,1
					L424.4,228.6z"/>
				<path class="st7" d="M406,226.1c-2.2,0.4-3.4,6.2-0.3,6.6c1.9,0.3,3.1-0.4,4.6-1.7c1.3-1.1,4.7-1.7,6.6-1.9
					C416.9,229.1,409.8,225.5,406,226.1z"/>
				<path class="st12" d="M444.4,243l-19.4-4.2c0,0,19.6,4.5,19.7,7.5"/>
				<path class="st12" d="M440.6,231.1l2.1,0.1l-2.6-14.2C440.1,217,441.5,229.1,440.6,231.1z"/>
				<path class="st12" d="M407,216.3c-0.1,0.5-1,9.9-1,9.9s1-0.2,2.1,0C408.1,226.1,406.4,225.2,407,216.3z"/>
				<path class="st12" d="M417.5,193.4l-0.6,22.2l3.1-0.1l-3.7,2.9l7.1,9l7.3-9.4l-3.2-2.5h3.3c0,0-0.7-21.7-1.1-22.1L417.5,193.4
					L417.5,193.4z"/>
				<path class="st18" d="M424.5,162.4c0,3.4,2.7,6.1,6.1,6.1s6.1-2.7,6.1-6.1c0-3.4-2.7-6.1-6.1-6.1
					C427.3,156.3,424.5,159,424.5,162.4z"/>
				<path class="st18" d="M410.2,162.4c0,3,2.4,5.4,5.4,5.4s5.4-2.4,5.4-5.4s-2.4-5.4-5.4-5.4C412.6,156.9,410.2,159.4,410.2,162.4z
					"/>
				<path class="st18" d="M419.8,159.1c0,3,2.4,5.4,5.4,5.4s5.4-2.4,5.4-5.4s-2.4-5.4-5.4-5.4C422.2,153.6,419.8,156.1,419.8,159.1z
					"/>
				<path class="st18" d="M430.1,163.8c0,1.4,1.1,2.5,2.5,2.5s2.5-1.1,2.5-2.5s-1.1-2.5-2.5-2.5S430.1,162.4,430.1,163.8z"/>
				<path class="st7" d="M429.1,185.1c0,1.9,0.4,7.1,0.5,8.3l-6,29.8c0,0-6-28.7-6-28.6c0.2-0.4,0.8-6.2,0.6-9L429.1,185.1z"/>
				<path class="st29" d="M429.1,185.1c0,0-0.1,0.7,0,1.9c0,0-3.2,3.8-5.6,3.8c-2.3,0-5.3-3.6-5.3-3.6s0-2.4-0.1-3.4L429.1,185.1z"
					/>
				<path class="st29" d="M410.4,174.2c0.3,2,1.8,4.5,3.3,3.8c1.2-0.6,2.2-1.6,1.9-3.6c-0.3-2-1.3-3-2.9-3.3
					C411,170.7,410.1,172.2,410.4,174.2z"/>
				<path class="st7" d="M410.9,171.7c0.3-0.4,2-0.6,2.5,0.9l-0.2-1.4c0,0-0.5-0.3-1.2-0.2C411.2,171.1,410.9,171.7,410.9,171.7z"/>
				<path class="st29" d="M436,174.2c-0.3,2-1.8,4.5-3.3,3.8c-1.2-0.6-2.2-1.7-1.9-3.6c0.3-2,1.3-3,2.9-3.3
					C435.4,170.7,436.3,172.2,436,174.2z"/>
				<path class="st7" d="M435.5,171.7c-0.3-0.4-2-0.6-2.5,0.9l0.2-1.4c0,0,0.5-0.3,1.2-0.2C435.3,171.2,435.5,171.7,435.5,171.7z"/>
				<path class="st7" d="M413.2,170.1c0,5.5,4.5,10,10,10s10-4.5,10-10c0-7.4-4.5-11-10-11S413.2,162.8,413.2,170.1z"/>
				<path class="st7" d="M413.2,170.1c0,5.4,0,9.8,2,12.7c1.2,1.8,4.4,4.8,6.7,5.5c0.6,0.2,2.2,0.1,2.8-0.1c2.3-0.8,5.2-3.7,6.4-5.4
					c2-2.9,2-7.4,2-12.7"/>
				<path class="st50" d="M417.6,174.8c0,0.9,0.5,1.6,1.2,1.6s1.2-0.7,1.2-1.6c0-0.9-0.5-1.6-1.2-1.6S417.6,173.9,417.6,174.8z"/>
				<path class="st50" d="M426.6,174.8c0,0.9,0.5,1.6,1.2,1.6s1.2-0.7,1.2-1.6c0-0.9-0.5-1.6-1.2-1.6S426.6,173.9,426.6,174.8z"/>
				<g>
					<path class="st18" d="M420.4,169.8c-1.3,0.1-2.7,0.2-4,0.5c-0.1,0-0.3-0.1-0.3-0.2c0-0.1,0-0.2,0.1-0.3
						c1.3-0.6,2.8-0.8,4.2-0.6C420.7,169.4,420.7,169.9,420.4,169.8L420.4,169.8z"/>
				</g>
				<g>
					<path class="st18" d="M426.6,169.3c1.4-0.2,2.9-0.1,4.2,0.6c0.1,0.1,0.2,0.2,0.1,0.3s-0.2,0.2-0.3,0.1c-1.3-0.3-2.6-0.5-4-0.5
						C426.3,169.9,426.3,169.4,426.6,169.3L426.6,169.3z"/>
				</g>
				<path class="st29" d="M424.9,179c-0.6-0.3-2.9-0.3-3.5,0c-0.5,0.3,1.2,0.8,1.7,0.8C423.8,179.7,425.5,179.3,424.9,179z"/>
				<path class="st29" d="M427.3,182.3c-2.2,0.6-5.7,0.5-7.8,0.2c-0.3,0-0.4,0,0,0.2c0.6,0.2,2.3,2,3.9,2s3.5-1.9,4-2.2
					C427.6,182.3,427.5,182.2,427.3,182.3z"/>
				<path class="st27" d="M419.3,182.5c-0.1,0,1,0.7,1.4,1c0.7,0.2,4.7,0.2,5.5-0.2c1.7-1.1,1.2-1.1,1.2-1.1
					S422.4,182.7,419.3,182.5z"/>
				<path class="st18" d="M427,163.3c0,2.1,1.7,3.8,3.8,3.8c2.1,0,3.8-1.7,3.8-3.8s-1.7-3.8-3.8-3.8S427,161.2,427,163.3z"/>
				<path class="st18" d="M423.4,161.3c0,1.4,1.2,2.6,2.6,2.6s2.6-1.2,2.6-2.6c0-1.4-1.2-2.6-2.6-2.6S423.4,159.8,423.4,161.3z"/>
				<path class="st18" d="M431.3,166.5c0,1.8,1.5,3.2,3.2,3.2c1.8,0,3.2-1.4,3.2-3.2s-1.5-3.2-3.2-3.2
					C432.7,163.3,431.3,164.7,431.3,166.5z"/>
				<path class="st18" d="M420,159.1c0,1.4,1.2,2.6,2.6,2.6s2.6-1.2,2.6-2.6c0-1.4-1.2-2.6-2.6-2.6S420,157.6,420,159.1z"/>
				<path class="st18" d="M414.9,162.4c0,2,1.6,3.6,3.6,3.6s3.6-1.6,3.6-3.6s-1.6-3.6-3.6-3.6C416.5,158.8,414.9,160.4,414.9,162.4z
					"/>
				<path class="st18" d="M409.2,166.3c0,2.1,1.7,3.8,3.8,3.8c2.1,0,3.8-1.7,3.8-3.8s-1.7-3.8-3.8-3.8
					C410.9,162.6,409.2,164.2,409.2,166.3z"/>
				<path class="st18" d="M431.1,167.1c0,0,2.2,2.6,2,8h0.2c0,0,1-6.5-0.3-10C431.6,161.6,431.1,167.1,431.1,167.1z"/>
				<path class="st18" d="M414.4,169.8c0,0-1.2,3.1-0.9,6.6l-0.3,0.1l-0.2-7.2L414.4,169.8z"/>
				<polyline class="st27" points="429.7,193.5 429.1,194.4 425,199.9 423.8,205.8 422.5,199.7 417.6,194.6 423.6,223.2 				"/>
			</g>
		</g>
	</g>
</g>
</svg>
