<?xml version="1.0" encoding="utf-8"?>
<!-- Generator: Adobe Illustrator 26.0.1, SVG Export Plug-In . SVG Version: 6.00 Build 0)  -->
<svg version="1.1" id="Layer_1" xmlns="http://www.w3.org/2000/svg" xmlns:xlink="http://www.w3.org/1999/xlink" x="0px" y="0px"
	 viewBox="0 0 640 480" style="enable-background:new 0 0 640 480;" xml:space="preserve">
<style type="text/css">
	.st0{opacity:0.3;fill:url(#SVGID_00000027593426947978881730000013123072749248102025_);}
	.st1{fill:url(#SVGID_00000015321395794133373430000013180919758403288217_);}
	.st2{clip-path:url(#SVGID_00000159438656234110566630000006182498507348514965_);}
	.st3{opacity:0.7;fill:#FFFFFF;enable-background:new    ;}
	.st4{fill:url(#SVGID_00000081629232180526169420000011741541233388225455_);}
	.st5{opacity:0.7;clip-path:url(#SVGID_00000058560908982774663000000016797171960180499849_);}
	.st6{fill:#FCFDFE;}
	.st7{fill:#97A6B7;}
	.st8{fill:#D8DEE8;}
	.st9{fill:#FFFFFF;}
	.st10{opacity:0.2;fill:#D8DEE8;enable-background:new    ;}
	.st11{fill:url(#SVGID_00000050661536379367711860000010242330638395543742_);}
	.st12{fill:url(#SVGID_00000160160673159981738200000008339363071906272676_);}
	.st13{fill:url(#SVGID_00000145048697947595486620000007575003272821594019_);}
	.st14{fill:url(#SVGID_00000092427251254142961150000012791879383025984664_);}
	.st15{fill:url(#SVGID_00000065063754609796160430000001647762493514177445_);}
	.st16{opacity:0.3;fill:url(#SVGID_00000022537041214077203520000010022973213878575282_);enable-background:new    ;}
	.st17{fill:url(#SVGID_00000152235820519686271970000008672365104730475677_);}
	.st18{opacity:0.4;fill:url(#SVGID_00000083071010980315336410000006617360619550396567_);enable-background:new    ;}
	.st19{fill:url(#SVGID_00000078736032667352863320000009306164735846601890_);}
	.st20{fill:url(#SVGID_00000107588526481863118430000016298750332269301151_);}
	.st21{fill:url(#SVGID_00000181768141386000157410000012925456553579968923_);}
	.st22{fill:url(#SVGID_00000178187856557489422510000016482787871729072266_);}
	.st23{fill:url(#SVGID_00000064344360005381234840000014614314404212096154_);}
	.st24{fill:url(#SVGID_00000174598309247887764770000001839637736540845977_);}
	.st25{fill:url(#SVGID_00000170253461705373460190000012529954038404361639_);}
	.st26{opacity:0.3;fill:url(#SVGID_00000125566070387336853900000005578145600423078275_);enable-background:new    ;}
	.st27{fill:url(#SVGID_00000114046212468964228030000000223363065012015271_);}
	.st28{opacity:0.3;fill:url(#SVGID_00000033362066995193234140000010514014930434313642_);enable-background:new    ;}
	.st29{fill:url(#SVGID_00000054981055769717257700000018117239056689675185_);}
	.st30{fill:url(#SVGID_00000125568415071409270140000004666490253948014216_);}
	.st31{fill:url(#SVGID_00000141430118281754154060000015840051249762785153_);}
	.st32{fill:url(#SVGID_00000034800845176643596100000015038664790754364341_);}
	.st33{fill:url(#SVGID_00000078015128894859326420000005135649921523618456_);}
	.st34{fill:url(#SVGID_00000007404086811183911980000011759985494872080040_);}
	.st35{opacity:0.3;fill:url(#SVGID_00000107583295648899132440000007353185421898620855_);enable-background:new    ;}
	.st36{fill:url(#SVGID_00000006697283285503276960000016240724099965264281_);}
	.st37{fill:url(#SVGID_00000094578123518573650740000013803215865054134974_);}
	.st38{fill:url(#SVGID_00000170991232233313120330000003695400564707345543_);}
	.st39{fill:url(#SVGID_00000102535969958627976600000010751831093244363676_);}
	.st40{fill:url(#SVGID_00000045577331603050087670000013463511097575490209_);}
	.st41{fill:url(#SVGID_00000160189110595417374970000018160230405120469675_);}
	.st42{fill:url(#SVGID_00000121280442376235724650000001191481896590592957_);}
	.st43{opacity:0.3;fill:url(#SVGID_00000062890471047104313100000016989083999701593004_);enable-background:new    ;}
	.st44{fill:url(#SVGID_00000163754478162316734190000015547201116941681314_);}
	.st45{fill:url(#SVGID_00000062870937187884041460000016414271427563458483_);}
	.st46{opacity:0.2;fill:url(#SVGID_00000085209079998968484160000009988298396571193262_);enable-background:new    ;}
	.st47{fill:url(#SVGID_00000124131504144463459920000003423861485414300056_);}
	.st48{fill:url(#SVGID_00000120517927285013436600000003482473807971463833_);}
	.st49{fill:url(#SVGID_00000074402590868368471080000003196401150913937031_);}
	.st50{fill:url(#SVGID_00000175290664347056307960000005994410015423990424_);}
	.st51{fill:#F4F7FA;}
	.st52{fill:url(#SVGID_00000110467924503609103900000007091460822923188141_);}
	.st53{fill:url(#SVGID_00000094575745898782127520000003478106877810722216_);}
	.st54{fill:url(#SVGID_00000101087756554978434980000001316743106589616555_);}
</style>
<g id="Background">
</g>
<g id="Illustration">
	<g>
		
			<linearGradient id="SVGID_00000057868660876443138990000017133346093797117595_" gradientUnits="userSpaceOnUse" x1="86.2256" y1="240.0257" x2="553.7872" y2="240.0257">
			<stop  offset="0" style="stop-color:#B37CFF"/>
			<stop  offset="1" style="stop-color:#F895E7"/>
		</linearGradient>
		<path style="opacity:0.3;fill:url(#SVGID_00000057868660876443138990000017133346093797117595_);" d="M546.9,206.1
			c-12.7-83-64.6-184.9-167.3-195.5c0,0-77.9-9.5-154.8,4.9C179.3,24,139.3,49.4,114,85.9s-33.8,81-23.5,123.4
			c6.7,27.5,11.2,56.1,9.9,84.4c-1.6,35.7-4.5,73.2,11.3,106.5c23.1,48.8,79.5,63.1,128.8,67.7c18.1,1.7,36.3,2.4,54.5,3.8
			c34.8,2.8,73.9-1.7,107.5-10.8C573.5,414.7,559.6,289.1,546.9,206.1z"/>
		<g>
			<g>
				<g>
					
						<linearGradient id="SVGID_00000105416540424944058850000016810855802363480477_" gradientUnits="userSpaceOnUse" x1="153.9061" y1="423.6491" x2="216.3732" y2="203.9381" gradientTransform="matrix(1 0 0 -1 0 479.89)">
						<stop  offset="0" style="stop-color:#FF9085"/>
						<stop  offset="1" style="stop-color:#FB6FBB"/>
					</linearGradient>
					<path id="SVGID_1_" style="fill:url(#SVGID_00000105416540424944058850000016810855802363480477_);" d="M320,391.7
						c12.6-19.6,2.5-53.5-10.6-73.6C294,294.6,280.5,299.3,270,280c-19.6-35.8,19-66.6,2.1-104.3c-13.8-30.8-44.9-21.8-58.7-56.6
						c-9.9-25.1,1.5-41.8-14.4-60.8c-1.4-1.6-16.2-18.9-35.2-16.7c-19.2,2.3-31.4,23.1-35.7,37.7c-8,26.9,9.8,36.4,12.1,71.8
						c3.1,48.2-28,59.1-18.4,94.1c7.9,28.9,31,28.1,39.2,60.3c7.6,29.9-9.5,41.5-2.5,61.1C174.6,411.8,294.3,431.6,320,391.7z"/>
				</g>
				<g>
					<defs>
						<path id="SVGID_00000117668642538169869300000009487439126691921851_" d="M320,391.7c12.6-19.6,2.5-53.5-10.6-73.6
							C294,294.6,280.5,299.3,270,280c-19.6-35.8,19-66.6,2.1-104.3c-13.8-30.8-44.9-21.8-58.7-56.6c-9.9-25.1,1.5-41.8-14.4-60.8
							c-1.4-1.6-16.2-18.9-35.2-16.7c-19.2,2.3-31.4,23.1-35.7,37.7c-8,26.9,9.8,36.4,12.1,71.8c3.1,48.2-28,59.1-18.4,94.1
							c7.9,28.9,31,28.1,39.2,60.3c7.6,29.9-9.5,41.5-2.5,61.1C174.6,411.8,294.3,431.6,320,391.7z"/>
					</defs>
					<clipPath id="SVGID_00000106825503513942599370000006551664290588307634_">
						<use xlink:href="#SVGID_00000117668642538169869300000009487439126691921851_"  style="overflow:visible;"/>
					</clipPath>
					<g style="clip-path:url(#SVGID_00000106825503513942599370000006551664290588307634_);">
						<path class="st3" d="M302.8,422.6c0.2,0,0.3-0.1,0.3-0.3c0-0.2-0.1-0.3-0.3-0.4c-20.3-3-39.2-10.1-55.9-21.2
							c-15.9-10.5-32.3-21.3-39-40.3c-5.1-14.3-1.5-24.6,2.9-37.6c4.4-12.7,9.8-28.4,8.1-52.9c-0.9-14-2.1-31.4-13.5-48.2
							c-6.6-9.8-13.3-14.2-19.1-18c-6.1-4-11-7.2-13.6-15.3c-4.2-13.2-0.6-24.3,3.5-37.1c2.6-7.9,5.2-16.1,6.5-25.9
							c3.6-27.6-8.3-57.9-35.2-90c-0.1-0.1-0.3-0.2-0.4,0c-0.1,0.1-0.2,0.3,0,0.4c26.8,32,38.6,62.1,35.1,89.5
							c-1.3,9.7-3.9,17.9-6.4,25.8c-4.2,12.9-7.8,24.1-3.5,37.5c2.6,8.3,7.8,11.7,13.8,15.7c5.8,3.8,12.4,8.1,19,17.9
							c11.3,16.7,12.4,34,13.4,47.9c1.6,24.3-3.8,40-8.1,52.6c-4.5,13.1-8.1,23.5-2.9,38c6.8,19.2,23.3,30.1,39.3,40.6
							C263.4,412.4,282.3,419.5,302.8,422.6C302.7,422.6,302.7,422.6,302.8,422.6z"/>
						<path class="st3" d="M210,230.6c0.1,0,0.2-0.1,0.3-0.2c18-36.6,21.8-65.4,21.8-83.1c0-19.2-4.3-29.9-4.4-30
							c-0.1-0.2-0.3-0.2-0.4-0.2c-0.2,0.1-0.2,0.3-0.2,0.4s4.3,10.7,4.3,29.8c0,17.6-3.8,46.3-21.7,82.8c-0.1,0.2,0,0.3,0.1,0.4
							C209.9,230.6,209.9,230.6,210,230.6z"/>
						<path class="st3" d="M218.4,290.2c0.1,0,0.3-0.1,0.3-0.2c0.1-0.2,0-0.3-0.2-0.4c-20.7-6.4-38.4-16-52.5-28.6
							c-11.3-10-20.4-22-27-35.5c-11.2-23-11.4-42.8-11.4-43s-0.1-0.3-0.3-0.3l0,0c-0.2,0-0.3,0.1-0.3,0.3s0.2,20.1,11.5,43.3
							c6.6,13.6,15.8,25.6,27.1,35.7C179.8,274.1,197.5,283.8,218.4,290.2C218.3,290.2,218.4,290.2,218.4,290.2z"/>
						<path class="st3" d="M229,390.1c0.1,0,0.1,0,0.2-0.1c16.2-12.8,29.1-27.1,38.4-42.4c7.4-12.3,12.6-25.2,15.2-38.5
							c4.6-22.7,0.4-38.6,0.4-38.8c0-0.2-0.2-0.3-0.4-0.2c-0.2,0-0.3,0.2-0.2,0.4c0,0.2,4.2,16-0.4,38.6
							c-4.2,20.8-16.9,51.6-53.4,80.5c-0.1,0.1-0.2,0.3-0.1,0.4S228.9,390.1,229,390.1z"/>
						<path class="st3" d="M182,120.9c0.1,0,0.2-0.1,0.3-0.2c0.1-0.2,0-0.3-0.2-0.4c-14.9-7-27.1-16.5-36.4-28
							c-7.4-9.3-12.9-19.9-16.4-31.6c-5.9-20-3.8-36.4-3.8-36.6c0-0.2-0.1-0.3-0.3-0.4c-0.2,0-0.3,0.1-0.4,0.3
							c0,0.2-2.1,16.7,3.8,36.8c3.5,11.8,9,22.5,16.5,31.9c9.3,11.7,21.6,21.2,36.6,28.2C181.9,120.9,182,120.9,182,120.9z"/>
					</g>
				</g>
			</g>
		</g>
		<g>
			<g>
				<g>
					<g>
						
							<linearGradient id="SVGID_00000059993164098135821350000017360599207606087866_" gradientUnits="userSpaceOnUse" x1="292.6971" y1="273.7974" x2="524.332" y2="273.7974" gradientTransform="matrix(1 0 0 -1 0 479.89)">
							<stop  offset="3.597120e-03" style="stop-color:#E38DDD"/>
							<stop  offset="1" style="stop-color:#9571F6"/>
						</linearGradient>
						
							<path id="SVGID_00000049918891480751099030000015592820645826607012_" style="fill:url(#SVGID_00000059993164098135821350000017360599207606087866_);" d="
							M339.7,379c-3.9-0.3-12-4.5-13.7-6.4c-11.1-13-33.6-35.9-33.3-53.9c0-3.1,13.7-6.5,15.5-9.4c8.2-4.3,11.2-5.3,17-13.2
							c16.9-23.3-25.8-63.9,21.1-80.9c34.3-12.4,64.3-1.7,58.2-55.6C398.4,105.7,437,5.3,495.7,40.5c33.7,20.2,2.5,67.6,20.8,100.8
							c17.4,31.5,4.9,58.6-28.5,79.5c-33.4,20.8-14.5,34.9-3.2,65.1c13.6,36.3-42.7,45.2-69.1,47.2
							C394.6,334.6,341.6,352.9,339.7,379z"/>
					</g>
					<g>
						<defs>
							<path id="SVGID_00000010998308661221139140000001371615153739517359_" d="M339.7,379c-3.9-0.3-12-4.5-13.7-6.4
								c-11.1-13-33.6-35.9-33.3-53.9c0-3.1,13.7-6.5,15.5-9.4c8.2-4.3,11.2-5.3,17-13.2c16.9-23.3-25.8-63.9,21.1-80.9
								c34.3-12.4,64.3-1.7,58.2-55.6C398.4,105.7,437,5.3,495.7,40.5c33.7,20.2,2.5,67.6,20.8,100.8c17.4,31.5,4.9,58.6-28.5,79.5
								c-33.4,20.8-14.5,34.9-3.2,65.1c13.6,36.3-42.7,45.2-69.1,47.2C394.6,334.6,341.6,352.9,339.7,379z"/>
						</defs>
						<clipPath id="SVGID_00000118356098334480147790000008354522898914228143_">
							<use xlink:href="#SVGID_00000010998308661221139140000001371615153739517359_"  style="overflow:visible;"/>
						</clipPath>
						<g style="opacity:0.7;clip-path:url(#SVGID_00000118356098334480147790000008354522898914228143_);">
							<g>
								<path class="st6" d="M310,347.2l-0.4-0.7c111.7-60.6,175.3-180.8,170.2-321.7h0.8c2.4,66.8-11.2,131.3-39.4,186.8
									C411.6,269.8,366.2,316.7,310,347.2z"/>
								<path class="st6" d="M492.2,300.3c-33.5-9.4-88.6-7.3-123,4.7l-0.3-0.8c34.5-12,89.9-14.1,123.5-4.7L492.2,300.3z"/>
								<path class="st6" d="M331.7,335.1l-0.6-0.6c13.5-13.3,19.7-32.9,18.6-58.2c-0.8-18.6-5.6-39.8-14.1-63l0.8-0.3
									c8.5,23.3,13.3,44.6,14.1,63.2C351.7,301.8,345.4,321.6,331.7,335.1z"/>
								<path class="st6" d="M444.9,203.5l-0.6-0.6c24.1-26.3,60.7-34.7,87.2-37.1l0.1,0.8C505.3,169,468.9,177.3,444.9,203.5z"/>
								<path class="st6" d="M471.7,126.2h-0.8c1.2-40.2-23.4-74.5-38.2-91.4l0.6-0.5C448.1,51.2,472.9,85.7,471.7,126.2z"/>
							</g>
						</g>
					</g>
				</g>
			</g>
		</g>
		<g>
			<path class="st7" d="M452.6,433.9c-94.9,2.9-189.8,5.8-284.7,8.8c-61.6-122.9,49-249.4-10.2-372.3c94.9-2.9,189.8-5.8,284.7-8.8
				C504,184.5,393.4,311,452.6,433.9z"/>
			<path class="st8" d="M454.5,433.9c-94.9,2.9-189.8,5.8-284.7,8.8c-61.6-122.9,49-249.4-10.2-372.3c94.9-2.9,189.8-5.8,284.7-8.8
				C505.8,184.5,395.3,311,454.5,433.9z"/>
			<g>
				<path class="st9" d="M455.6,370.5c1.6,16.6,4.8,31.7,10.2,50h-286c-40-124.4,40-248.8,0-372.7h286
					C500.5,154.5,445.1,262.9,455.6,370.5z"/>
				<g>
					<g>
						<g>
							<path class="st8" d="M454.9,128.3h-241c-1.1,0-2,1.1-2,2.2c-0.6,46.9-10.7,93.6-17.3,140.5c-0.2,1.1,0.6,1.8,1.7,1.8h241.1
								c1.1,0,2.1-0.6,2.3-1.7c1.4-9.8,2.9-19.4,4.5-29.1c0.1-0.7,0.2-1.4,0.4-2.1c1.6-9.8,3.2-19.6,4.7-29.5
								c0.1-0.7,0.2-1.4,0.3-2.2c1.5-9.8,2.9-19.7,4.1-29.5c0.1-0.7,0.2-1.5,0.3-2.2c1.1-9.8,2-19.7,2.6-29.5c0-0.7,0.1-1.5,0.1-2.2
								c0.2-4.7,0.4-9.6,0.5-14.3C456.9,129.3,456,128.3,454.9,128.3z M445.6,207.2c-0.2,1.3-0.4,2.6-0.6,4
								c-1.4,9.2-2.9,18.5-4.4,27.7c-0.2,1.3-0.4,2.6-0.6,3.9c-1.4,8.8-2.8,18.4-4,26.4H198.8c1.3-8,2.6-17.6,4-26.4
								c0.2-1.3,0.4-2.6,0.6-3.9c1.5-9.2,3-18.5,4.4-27.7c0.2-1.3,0.4-2.6,0.6-4c1.4-9.2,2.7-18.5,3.8-27.7c0.2-1.3,0.3-2.6,0.5-4
								c1.1-9.2,1.9-18.5,2.4-27.7c0.1-1.3,0.2-2.5,0.2-3.8c0.2-3.7,0.3-7.7,0.4-11.1h237.1c-0.1,3.4-0.2,7.4-0.4,11.1
								c-0.1,1.3-0.1,2.6-0.2,3.9c-0.5,9.2-1.4,18.5-2.4,27.7c-0.1,1.3-0.3,2.6-0.5,3.9C448.3,188.7,447,198,445.6,207.2z"/>
						</g>
						<g>
							<path class="st8" d="M265.6,273.2c-1.1,0-1.9-0.9-1.7-2c6.6-46.9,16.7-93.8,17.3-140.7c0-1.1,0.9-2,2-2s2,0.9,2,2
								c-0.6,46.9-10.7,93.8-17.3,140.7C267.7,272.4,266.7,273.2,265.6,273.2z"/>
						</g>
						<g>
							<path class="st8" d="M454.6,147.8c-80.4,0-160.7,0-241.1,0c-1.1,0-1.9-0.9-1.9-2c0.1-1.1,1-2,2.1-2c80.4,0,160.7,0,241.1,0
								c1.1,0,1.9,0.9,1.9,2C456.7,146.9,455.7,147.8,454.6,147.8z"/>
						</g>
						<g>
							<path class="st8" d="M451.7,179.5c-80.4,0-160.7,0-241.1,0c-1.1,0-1.9-0.9-1.7-2c0.1-1.1,1.1-2,2.2-2c80.4,0,160.7,0,241.1,0
								c1.1,0,1.9,0.9,1.8,2C453.8,178.6,452.8,179.5,451.7,179.5z"/>
						</g>
						<g>
							<path class="st8" d="M447.3,211.2c-80.4,0-160.7,0-241.1,0c-1.1,0-1.8-0.9-1.7-2c0.2-1.1,1.2-2,2.3-2c80.4,0,160.7,0,241.1,0
								c1.1,0,1.8,0.9,1.7,2C449.4,210.3,448.4,211.2,447.3,211.2z"/>
						</g>
						<g>
							<path class="st8" d="M442.2,242.9c-80.4,0-160.7,0-241.1,0c-1.1,0-1.8-0.9-1.7-2c0.2-1.1,1.2-2,2.3-2c80.4,0,160.7,0,241.1,0
								c1.1,0,1.8,0.9,1.7,2C444.4,242,443.3,242.9,442.2,242.9z"/>
						</g>
					</g>
					<g>
						<path class="st8" d="M230.6,97.1L230.6,97.1c-1.1-2.8-1.2-5.4-1.6-8.2h8.7c-0.3-1.1-0.5-4-0.8-5.7h-24.3
							c0.3,1.7,0.6,4.6,0.8,5.7h8.7c1.2,8.6,1.9,18.3,2.2,25.7h6.8c-0.1-3.4,0-7.3-0.3-11.1C230.7,101.3,230.6,99.3,230.6,97.1z"/>
						<path class="st8" d="M259.8,83.2h-8.3c-2.1,10.8-4.9,21.1-8.4,31.4h7.3c0.7-2.3,1.3-4.6,2-6.3h11.7c0.9,1.7,1.8,4,2.7,6.3h7.4
							C270,104.3,265.3,94,259.8,83.2z M253.7,100.9c1.7-6.3,2.4-11.6,2.7-13.5c0.2,0.5,0.5,1,0.9,1.9s2.1,5.8,4.9,11.5L253.7,100.9
							L253.7,100.9z"/>
						<path class="st8" d="M294.6,98.7c2.9-5.3,5.6-9.9,8.1-15.6h-7.4c-1.7,4.6-3.4,7.7-5.3,11.6c-2.7-3.9-5.5-7-8.5-11.6H274
							c4.1,5.7,8.1,10,11.9,15.2c-3,5.5-6.3,11.6-9.6,16.2h7.3c2.4-4,4.6-8.1,6.8-12.2c2.8,4.1,5.5,8.2,8.2,12.2h7.8
							C302.7,110,298.7,104.1,294.6,98.7z"/>
					</g>
					<path class="st8" d="M453.9,88.4c-0.1-0.4-0.4-0.8-0.9-0.8c-40.7,0-81.3,0-122,0c-0.4,0-0.7,0.3-0.6,0.8
						c0.2,1.7,0.4,3.4,0.6,5.1c0,0.4,0.4,0.8,0.8,0.8c40.7,0,81.3,0,122,0c0.4,0,0.7-0.3,0.7-0.8C454.3,91.8,454.1,90.1,453.9,88.4z
						"/>
					<path class="st8" d="M455.5,103.6c0-0.4-0.4-0.8-0.8-0.8c-40.7,0-81.3,0-122,0c-0.4,0-0.7,0.3-0.7,0.8c0.1,1.7,0.2,3.4,0.3,5.1
						c0,0.4,0.4,0.8,0.8,0.8c40.7,0,81.3,0,122,0c0.4,0,0.7-0.3,0.7-0.8C455.7,107,455.6,105.3,455.5,103.6z"/>
					<path class="st8" d="M436.1,293.2c0-0.4-0.3-0.8-0.7-0.8c-80.7,0-161.5,0-242.2,0c-0.4,0-0.8,0.3-0.8,0.8
						c-0.2,1.7-0.4,3.4-0.5,5.1c0,0.4,0.3,0.8,0.7,0.8c80.7,0,161.5,0,242.2,0c0.4,0,0.8-0.3,0.8-0.8
						C435.7,296.6,435.9,294.9,436.1,293.2z"/>
					<path class="st8" d="M434.6,308.3c0-0.4-0.3-0.8-0.7-0.8c-80.7,0-161.5,0-242.2,0c-0.4,0-0.8,0.3-0.8,0.8
						c-0.1,1.7-0.3,3.4-0.4,5.1c0,0.4,0.3,0.8,0.7,0.8c80.7,0,161.5,0,242.2,0c0.4,0,0.8-0.3,0.8-0.8
						C434.3,311.7,434.5,310,434.6,308.3z"/>
					<path class="st8" d="M433.3,331.5c0-0.4-0.3-0.8-0.7-0.8c-80.7,0-161.5,0-242.2,0c-0.4,0-0.8,0.3-0.8,0.8
						c0,1.7-0.1,3.4-0.1,5.1c0,0.4,0.3,0.8,0.7,0.8c80.7,0,161.5,0,242.2,0c0.4,0,0.8-0.3,0.8-0.8
						C433.2,334.9,433.2,333.2,433.3,331.5z"/>
					<path class="st8" d="M433.2,346.6c0-0.4-0.3-0.8-0.8-0.8c-80.7,0-161.5,0-242.2,0c-0.4,0-0.7,0.3-0.7,0.8
						c0,1.7,0.1,3.4,0.1,5.1c0,0.4,0.4,0.8,0.8,0.8c80.7,0,161.5,0,242.2,0c0.4,0,0.7-0.3,0.7-0.8
						C433.3,350.1,433.2,348.3,433.2,346.6z"/>
				</g>
			</g>
			<path class="st10" d="M465.8,420.5h-286c-40-124.4,40-248.8,0-372.7h29.9c8.5,6.8,15.6,18.8,18.7,35.4c0.3,1.8,0.9,3.6,1.2,5.6
				c0.3,2.7,1,5.4,1,8.4l0,0c0,2.3,0,4.5,0.3,6.7c1.2,9.2,4,17.4,8.2,24.8c0.7,1.3,1.5,2.7,2.3,4c2.5,3.9,5.2,7.6,8.3,11.2
				c1.1,1.3,2.3,2.7,3.4,4c7.7,8.5,16.6,16.5,25.4,24.7c1.1,1,2.2,2,3.3,3.1c0.1,0.1,0.2,0.2,0.3,0.3c1.3,1.2,2.6,2.4,3.8,3.7
				c8.7,8.4,16.9,17.4,23.4,27.7c0.8,1.3,1.6,2.6,2.4,4c4.7,8.2,8.2,17.3,10.1,27.7c0.2,1.3,0.4,2.6,0.6,4
				c0.9,6.7,1.1,13.9,0.5,21.8c-0.1,1.6-0.2,3.1-0.3,4.6c-0.1,1.3-0.1,2.7-0.1,4c0,6.9,0.7,13.3,2,19.2c0.5,2.3,1.1,4.5,1.8,6.6
				c1,3,2.1,5.9,3.4,8.6c1.1,2.3,2.3,4.5,3.6,6.6c3.9,6.3,8.8,11.7,14.4,16.5c2.8,2.4,5.7,4.6,8.8,6.6c4.8,3.2,9.9,6,15.4,8.6
				c5.2,2.4,10.6,4.6,16.1,6.6c21.7,7.8,45.9,12.8,67.6,17.8C457.3,386.9,460.5,402.2,465.8,420.5z"/>
		</g>
		<g>
			
				<linearGradient id="SVGID_00000039096188054350790410000001296770919154487998_" gradientUnits="userSpaceOnUse" x1="281.9443" y1="258.8779" x2="160.643" y2="219.9486" gradientTransform="matrix(1 0 0 -1 0 479.89)">
				<stop  offset="0" style="stop-color:#FCB148"/>
				<stop  offset="5.207239e-02" style="stop-color:#FDBA46"/>
				<stop  offset="0.1424" style="stop-color:#FFC244"/>
				<stop  offset="0.3183" style="stop-color:#FFC444"/>
				<stop  offset="0.4849" style="stop-color:#FDB946"/>
				<stop  offset="0.7754" style="stop-color:#F99C4D"/>
				<stop  offset="0.8658" style="stop-color:#F8924F"/>
				<stop  offset="1" style="stop-color:#F8924F"/>
			</linearGradient>
			<path style="fill:url(#SVGID_00000039096188054350790410000001296770919154487998_);" d="M421.6,216.6
				c0,56.3-44,100.5-100.2,98.8c-58.5-1.8-107.8-52.3-107.8-112.8s49.2-104.4,107.8-98.3C377.6,110.1,421.6,160.3,421.6,216.6z"/>
			
				<linearGradient id="SVGID_00000121997930404659159710000011780218894249488774_" gradientUnits="userSpaceOnUse" x1="380.0659" y1="379.6323" x2="271.7756" y2="140.7236" gradientTransform="matrix(1 0 0 -1 0 479.89)">
				<stop  offset="0" style="stop-color:#FFDB44"/>
				<stop  offset="1" style="stop-color:#FEEF06"/>
			</linearGradient>
			<path style="fill:url(#SVGID_00000121997930404659159710000011780218894249488774_);" d="M436.8,211.7
				c0,56.3-44,100.5-100.2,98.8c-58.5-1.8-107.8-52.3-107.8-112.8S278,93.3,336.6,99.4C392.8,105.3,436.8,155.5,436.8,211.7z"/>
			
				<linearGradient id="SVGID_00000084520561796407382810000006888498432745674416_" gradientUnits="userSpaceOnUse" x1="360.1694" y1="127.3749" x2="339.2745" y2="241.5227" gradientTransform="matrix(1 0 0 -1 0 479.89)">
				<stop  offset="0" style="stop-color:#FCB148"/>
				<stop  offset="5.207239e-02" style="stop-color:#FDBA46"/>
				<stop  offset="0.1424" style="stop-color:#FFC244"/>
				<stop  offset="0.3183" style="stop-color:#FFC444"/>
				<stop  offset="0.4849" style="stop-color:#FDB946"/>
				<stop  offset="0.7754" style="stop-color:#F99C4D"/>
				<stop  offset="0.8658" style="stop-color:#F8924F"/>
				<stop  offset="1" style="stop-color:#F8924F"/>
			</linearGradient>
			<path style="fill:url(#SVGID_00000084520561796407382810000006888498432745674416_);" d="M432.4,211.5c0,53.8-42.1,96-95.8,94.3
				c-55.8-1.8-102.7-50-102.7-107.7c0-57.6,46.9-99.6,102.7-93.8C390.3,109.7,432.4,157.7,432.4,211.5z"/>
			
				<linearGradient id="SVGID_00000176747471190637869830000015069335123433250462_" gradientUnits="userSpaceOnUse" x1="315.8509" y1="312.1341" x2="401.9613" y2="129.3381" gradientTransform="matrix(1 0 0 -1 0 479.89)">
				<stop  offset="0" style="stop-color:#FCB148"/>
				<stop  offset="5.207239e-02" style="stop-color:#FDBA46"/>
				<stop  offset="0.1424" style="stop-color:#FFC244"/>
				<stop  offset="0.3183" style="stop-color:#FFC444"/>
				<stop  offset="0.4849" style="stop-color:#FDB946"/>
				<stop  offset="0.7754" style="stop-color:#F99C4D"/>
				<stop  offset="0.8658" style="stop-color:#F8924F"/>
				<stop  offset="1" style="stop-color:#F8924F"/>
			</linearGradient>
			<path style="fill:url(#SVGID_00000176747471190637869830000015069335123433250462_);" d="M429.2,211.2c0,52-40.7,92.8-92.7,91.1
				c-53.9-1.8-99-48.4-99-104s45.2-96.1,99-90.6C388.5,112.9,429.2,159.2,429.2,211.2z"/>
			<g>
				
					<linearGradient id="SVGID_00000064330535942218948870000003140267666243315855_" gradientUnits="userSpaceOnUse" x1="312.3974" y1="351.4622" x2="355.6967" y2="189.1841" gradientTransform="matrix(1 0 0 -1 0 479.89)">
					<stop  offset="0" style="stop-color:#FFDB44"/>
					<stop  offset="1" style="stop-color:#FEEF06"/>
				</linearGradient>
				<path style="fill:url(#SVGID_00000064330535942218948870000003140267666243315855_);" d="M336,125.4L336,125.4
					c2.8,0.3,5,2.8,5,5.6v9.6c5.5,0.6,11.1,1.6,16.6,2.9c4.1,1,8.1,2.1,12.2,3.4c2.4,0.8,4.1,3.2,3.8,5.7l-1.2,12
					c-0.3,3.2-3.5,5.1-6.4,3.7c-2.7-1.2-5.4-2.2-8.2-3c-4.9-1.5-10-2.4-15.4-2.9l-1.4-0.1v27.4c14.4,4,25,9.5,31.8,16.3
					s10.2,15.3,10.2,25.4c0,11-3.8,19.8-11.3,26.4c-7.6,6.7-18.2,10.4-31.9,11.2v10.6c0,2.8-2.2,5-5,4.9h-0.1c-2.8-0.1-5-2.5-5-5.3
					v-10.4l-2.2-0.1c-6.4-0.3-12.6-0.9-18.5-2c-4.4-0.8-8.6-1.7-12.8-2.9c-2.5-0.7-4.2-3.1-4-5.7l1.4-15.4c0.3-3.3,3.7-5.3,6.8-4
					c3.7,1.5,7.4,2.7,11.2,3.7c5.9,1.6,11.9,2.6,18,3l0.1-30.5c-13.8-3.4-24.2-8.5-31-15.2s-10.3-15.4-10.3-25.9
					c0-10.9,3.7-19.3,11.1-25.1c7.4-5.9,17.9-8.8,31.4-8.8V130C331,127.2,333.2,125.1,336,125.4z M331,162c-4.3,0.3-7.6,1.5-10,3.5
					s-3.6,4.8-3.6,8.2c0,3.3,1.1,6,3.3,8.2c2.2,2.2,5.6,3.9,10.3,5.2L331,162L331,162z M339.9,217.2v28c4.6,0,8.2-1.1,10.7-3.3
					s3.7-5.4,3.7-9.4c0-3.7-1.2-6.8-3.5-9.2C348.5,220.8,344.9,218.8,339.9,217.2z"/>
			</g>
			
				<linearGradient id="SVGID_00000045616086540196599340000013022090445274373253_" gradientUnits="userSpaceOnUse" x1="290.5115" y1="300.3016" x2="376.4482" y2="117.8743" gradientTransform="matrix(1 0 0 -1 0 479.89)">
				<stop  offset="0" style="stop-color:#FCB148"/>
				<stop  offset="5.207239e-02" style="stop-color:#FDBA46"/>
				<stop  offset="0.1424" style="stop-color:#FFC244"/>
				<stop  offset="0.3183" style="stop-color:#FFC444"/>
				<stop  offset="0.4849" style="stop-color:#FDB946"/>
				<stop  offset="0.7754" style="stop-color:#F99C4D"/>
				<stop  offset="0.8658" style="stop-color:#F8924F"/>
				<stop  offset="1" style="stop-color:#F8924F"/>
			</linearGradient>
			<path style="opacity:0.3;fill:url(#SVGID_00000045616086540196599340000013022090445274373253_);enable-background:new    ;" d="
				M319.8,224c3.1-30.9,31.5-44,27.8-72.5c-2.3-17.5-15.6-32.3-30.4-43.8c-45,4.7-79.7,41.9-79.7,90.6c0,55.6,45.2,102.2,99,104
				c5.2,0.2,10.3-0.1,15.3-0.7C330.5,280.3,317.1,250.5,319.8,224z"/>
		</g>
		<g>
			
				<linearGradient id="SVGID_00000175285264266269970620000002933004157639192752_" gradientUnits="userSpaceOnUse" x1="206.5919" y1="241.5759" x2="349.8665" y2="437.9342" gradientTransform="matrix(1 0 0 -1 0 479.89)">
				<stop  offset="3.597120e-03" style="stop-color:#6165D7"/>
				<stop  offset="1" style="stop-color:#AA80F9"/>
			</linearGradient>
			<path style="fill:url(#SVGID_00000175285264266269970620000002933004157639192752_);" d="M416.8,147v0.4
				c-3.8-5.2-10.7-12.5-14.9-16.8c-0.1-0.2-0.2-0.4-0.3-0.6c-2.3-5.5-5.4-11.5-9.5-17.5c-4-6-9.1-11.9-15.1-17.3
				c-0.7-0.7-1.5-1.3-2.3-2c-0.4-0.3-0.8-0.7-1.2-1l-0.6-0.5c-0.2-0.2-0.4-0.3-0.6-0.5c-0.8-0.6-1.6-1.2-2.5-1.9l-0.6-0.5l-0.6-0.4
				c-0.4-0.3-0.9-0.6-1.3-0.9c-1.7-1.2-3.5-2.3-5.3-3.4c-0.9-0.5-1.9-1-2.8-1.6c-0.5-0.3-0.9-0.5-1.4-0.8c-0.5-0.2-1-0.5-1.4-0.7
				c-7.6-3.8-15.9-6.6-24.5-8.2c-1.1-0.2-2.1-0.4-3.2-0.5s-2.2-0.2-3.2-0.4l-1.6-0.2l-1.6-0.1l-1.6-0.1c-0.5,0-1.1-0.1-1.6-0.1
				c-1.1,0-2.2,0-3.2,0c-0.3,0-0.5,0-0.8,0h-0.7l-1.4,0.1l-1.4,0.1c-0.1,0-0.2,0-0.4,0l-1.5,0.1l-2,0.1l-1.5,0.1H306h-0.1
				c0,0-0.5,0,0.3,0l-3.2,0.5c-0.5,0.1-1,0.1-1.6,0.2l-1.6,0.3l-1.6,0.3l-0.8,0.2c-0.3,0-0.5,0.1-0.8,0.2c-1,0.3-2,0.5-3,0.8
				c-0.5,0.1-1,0.3-1.5,0.4l-1.5,0.5l-1.5,0.4l-1.4,0.5c-1,0.4-1.9,0.7-2.9,1.1c-0.9,0.4-1.9,0.8-2.8,1.2c-7.4,3.3-14,7.5-19.7,12.4
				l-1.1,0.9l-1,0.9c-0.7,0.6-1.4,1.2-2,1.9c0,0,0,0.1-0.1,0.1c-1.2,1.3-2.5,2.5-3.6,3.8c-0.3,0.3-0.6,0.7-0.9,1l-0.4,0.5l-0.4,0.5
				c-0.5,0.7-1.1,1.3-1.6,2c-0.1,0.2-0.3,0.3-0.4,0.5l-0.4,0.5c-0.3,0.3-0.5,0.7-0.7,1c-0.5,0.7-1,1.3-1.4,2
				c-3.7,5.5-6.5,11-8.4,16.2s-3.1,10.1-3.7,14.5c-0.1,0.5-0.1,1.1-0.2,1.6c-0.1,0.5-0.2,1-0.2,1.5c-0.1,1-0.2,2-0.2,2.9
				c-0.1,0.9-0.1,1.9-0.1,2.7c0,0.4,0,0.8,0,1.2s0,0.8,0,1.2c0,0.8,0,1.5,0,2.2c0,0.2,0,0.3,0,0.4c0,0.1,0,0.3,0,0.4
				c0,0.2,0.1,0.2,0.1,0.4s0,0.3,0.1,0.3h36.1l-22,24.4l-51.1,55.8l-73-80.2h38.4c0.1,0,0.1-0.7,0.2-1.2c0.1-1.1,0.3-2.2,0.5-3.5
				c0.1-0.7,0.2-1.3,0.3-2c0.1-0.3,0.1-0.7,0.2-1c0-0.4,0.1-0.7,0.2-1.1c0.3-1.3,0.5-2.7,0.8-4.2c0.2-0.7,0.3-1.5,0.5-2.3
				s0.4-1.6,0.6-2.4c0.4-1.6,0.8-3.3,1.3-5.1c0.5-1.7,1.1-3.5,1.7-5.4c0.3-0.9,0.6-1.9,1-2.8c0.3-0.9,0.7-1.9,1.1-2.9
				c3-7.8,7.1-16.3,12.5-24.9s12.3-17.1,20.5-25c1-1,2.1-1.9,3.2-2.9c0.5-0.5,1.1-1,1.6-1.4l0.8-0.7l0.8-0.7
				c1.1-0.9,2.3-1.8,3.4-2.8l0.9-0.7l0.9-0.7c0.6-0.4,1.2-0.9,1.8-1.3c2.3-1.8,4.9-3.4,7.4-5.1c1.3-0.8,2.6-1.6,3.9-2.4
				c0.6-0.4,1.3-0.8,1.9-1.2c0.7-0.4,1.3-0.7,2-1.1c10.7-5.9,22.5-10.3,34.7-13c1.5-0.3,3.1-0.6,4.6-0.9c1.5-0.3,3.1-0.5,4.7-0.7
				l2.3-0.3l2.3-0.2l2.3-0.2c0.8-0.1,1.6-0.2,2.3-0.2c1.6-0.1,3.1-0.3,4.7-0.3c0.4,0,0.8-0.2,1.2-0.2h1.2l2.3,0.1l2.3,0.1
				c0.8,0,1.6,0.1,2.3,0.1l4.6,0.3c1.1,0,0.4,0,0.6,0h0.1h0.2l0.5,0.1l1,0.1l1.9,0.2l1,0.1l0.5,0.1l0.6,0.1l2.5,0.4l2.5,0.4l1.2,0.2
				c0.4,0.1,0.8,0.2,1.1,0.2c1.5,0.3,3,0.6,4.5,1c0.7,0.1,1.5,0.4,2.2,0.6l2.2,0.6l2.2,0.6l2.2,0.7c1.4,0.5,2.9,0.9,4.3,1.4
				s2.8,1.1,4.2,1.6c11.1,4.4,21.2,10.3,30,17.2c0.5,0.4,1.1,0.9,1.6,1.3c0.5,0.4,1.1,0.9,1.6,1.3c1,0.9,2.1,1.7,3.1,2.7
				c2,1.9,4,3.6,5.8,5.6c0.5,0.5,0.9,0.9,1.4,1.4l0.7,0.7l0.6,0.7c0.9,1,1.7,1.9,2.6,2.9l0.6,0.7l0.6,0.7c0.4,0.5,0.8,1,1.2,1.5
				c0.8,1,1.6,1.9,2.3,3c4,5.4,7.4,10.8,10.1,16.2c1.4,2.6,2.6,5.2,3.6,7.8c3.3,7.8,5.4,15.3,6.8,21.9c0.1,0.8,0.3,1.7,0.5,2.5
				c0.1,0.8,0.3,1.6,0.4,2.4c0.2,1.6,0.4,3.1,0.6,4.5s0.3,2.8,0.4,4.2c0,0.7,0.1,1.3,0.2,1.9c0,0.6,0.2,1.2,0.2,1.8
				C416.6,144.8,416.8,146,416.8,147z"/>
			
				<linearGradient id="SVGID_00000142141751889628807000000015064562428736289926_" gradientUnits="userSpaceOnUse" x1="322.3257" y1="338.1121" x2="374.1548" y2="409.1442" gradientTransform="matrix(1 0 0 -1 0 479.89)">
				<stop  offset="3.597120e-03" style="stop-color:#6165D7"/>
				<stop  offset="1" style="stop-color:#AA80F9"/>
			</linearGradient>
			<path style="opacity:0.4;fill:url(#SVGID_00000142141751889628807000000015064562428736289926_);enable-background:new    ;" d="
				M416.8,147v0.4c-3.8-5.2-10.7-12.5-14.9-16.8c-0.1-0.2-0.2-0.4-0.3-0.6c-2.3-5.5-5.4-11.5-9.5-17.5c-4-6-9.1-11.9-15.1-17.3
				c-0.7-0.7-1.5-1.3-2.3-2c-0.4-0.3-0.8-0.7-1.2-1l-0.6-0.5c-0.2-0.2-0.4-0.3-0.6-0.5c-0.8-0.6-1.6-1.2-2.5-1.9l-0.6-0.5l-0.6-0.4
				c-0.4-0.3-0.9-0.6-1.3-0.9c-1.7-1.2-3.5-2.3-5.3-3.4c-0.9-0.5-1.9-1-2.8-1.6c-0.5-0.3-0.9-0.5-1.4-0.8c-0.5-0.2-1-0.5-1.4-0.7
				c-7.6-3.8-15.9-6.6-24.5-8.2c-1.1-0.2-2.1-0.4-3.2-0.5s-2.2-0.2-3.2-0.4l-1.6-0.2l-1.6-0.1l-1.6-0.1c-0.5,0-1.1-0.1-1.6-0.1
				c-1.1,0-2.2,0-3.2,0c-0.3,0-0.5,0-0.8,0h-0.7l-1.4,0.1l-1.4,0.1c-0.1,0-0.2,0-0.4,0l-1.5,0.1l-2,0.1l-1.5,0.1H306h-0.1
				c0,0-0.5,0,0.3,0l-3.2,0.5c-0.5,0.1-1,0.1-1.6,0.2l-1.6,0.3l-1.6,0.3l-0.8,0.2c-0.3,0-0.5,0.1-0.8,0.2c-1,0.3-2,0.5-3,0.8
				c-0.5,0.1-1,0.3-1.5,0.4l-1.5,0.5l-1.5,0.4l-1.4,0.5c-1,0.4-1.9,0.7-2.9,1.1c-0.9,0.4-1.9,0.8-2.8,1.2c-7.4,3.3-14,7.5-19.7,12.4
				l-1.1,0.9l-1,0.9c-0.7,0.6-1.4,1.2-2,1.9c0,0,0,0.1-0.1,0.1C274.6,75.1,300.9,62,330.6,62c30.4,0,57.2,13.7,73.3,34.6
				c1.4,2.6,2.6,5.2,3.6,7.8c3.3,7.8,5.4,15.3,6.8,21.9c0.1,0.8,0.3,1.7,0.5,2.5c0.1,0.8,0.3,1.6,0.4,2.4c0.2,1.6,0.4,3.1,0.6,4.5
				s0.3,2.8,0.4,4.2c0,0.7,0.1,1.3,0.2,1.9c0,0.6,0.2,1.2,0.2,1.8C416.6,144.8,416.8,146,416.8,147z"/>
		</g>
		<g>
			
				<linearGradient id="SVGID_00000165945436094921560410000013291583732334644896_" gradientUnits="userSpaceOnUse" x1="2919.9175" y1="280.8406" x2="2927.876" y2="256.55" gradientTransform="matrix(-1 0 0 -1 3335.8953 479.89)">
				<stop  offset="0" style="stop-color:#FFC444"/>
				<stop  offset="0.9964" style="stop-color:#F36F56"/>
			</linearGradient>
			<path style="fill:url(#SVGID_00000165945436094921560410000013291583732334644896_);" d="M411,215.4l1.8-3.4c0,0,1.7-0.3,2.4-1.5
				c0.7-1.2,0.7-1.2,0.7-1.2s0.4-1.2-1-2.6c-0.3-0.3-0.5-0.7-0.4-1.2c0.2-1.3,0.6-3.9,0.6-4.6c0-0.4-0.1-1-0.3-1.4
				c-0.1-0.3-0.6-0.3-0.6,0l-1.4,5.3c0,0-1.2-0.3-1.6,0.7c0,0-1,0.6-1.1,1.6s0,3.5,0,3.5l-1.6,3.6L411,215.4z"/>
			
				<linearGradient id="SVGID_00000070077344342741587130000016257646197989655180_" gradientUnits="userSpaceOnUse" x1="2908.4229" y1="257.2274" x2="2919.8367" y2="93.628" gradientTransform="matrix(-1 0 0 -1 3335.8953 479.89)">
				<stop  offset="0" style="stop-color:#FF9085"/>
				<stop  offset="1" style="stop-color:#FB6FBB"/>
			</linearGradient>
			<path style="fill:url(#SVGID_00000070077344342741587130000016257646197989655180_);" d="M413.4,214.8c-1,2.3-6.5,15.6-0.1,28
				c7.1,13.8,26.1,21,45.1,14.8c0.1,2.5,1.7,33.6-13.6,41.1c-16.4,8-47.4-13.8-52.4-41.1c-4.3-23.4,12.3-42.3,15-45.3
				C409.4,213.1,411.4,214,413.4,214.8z"/>
			
				<linearGradient id="SVGID_00000127747469945752420290000017012546999990584204_" gradientUnits="userSpaceOnUse" x1="-3218.1343" y1="-308.6397" x2="-3205.4736" y2="-308.6397" gradientTransform="matrix(0.996 8.970000e-02 8.970000e-02 -0.996 3695.1489 446.0488)">
				<stop  offset="0" style="stop-color:#444B8C"/>
				<stop  offset="0.9964" style="stop-color:#26264F"/>
			</linearGradient>
			<path style="fill:url(#SVGID_00000127747469945752420290000017012546999990584204_);" d="M474,462.9c0.7,0.6,0.7,2,0.7,2.9
				c0,0.4,0,0.6,0,0.8c-0.4,1-2.4,1-5.7,1.2c-5.1,0.2-6.6,0.5-7-0.3c-0.3-0.7,0.6-1.8,0.8-2c0.6-0.7,1.3-0.9,2.6-1.2
				c2.4-0.6,4.1-1,4.6-1.1C473.1,462.6,473.6,462.5,474,462.9z"/>
			
				<linearGradient id="SVGID_00000091000484264054384270000005735575147921337241_" gradientUnits="userSpaceOnUse" x1="-3685.0315" y1="-202.7458" x2="-3679.4814" y2="-191.2585" gradientTransform="matrix(0.9976 6.940000e-02 6.940000e-02 -0.9976 4159.6963 518.761)">
				<stop  offset="0" style="stop-color:#FFC444"/>
				<stop  offset="0.9964" style="stop-color:#F36F56"/>
			</linearGradient>
			<path style="fill:url(#SVGID_00000091000484264054384270000005735575147921337241_);" d="M470.5,457.8l-0.2,5.8
				c0.2,0.3,1.9,1,3.2,0.2l1-5.7L470.5,457.8z"/>
			
				<linearGradient id="SVGID_00000113355517921137068050000012554470470162092709_" gradientUnits="userSpaceOnUse" x1="-3391.8706" y1="-661.6759" x2="-3378.4309" y2="-661.6759" gradientTransform="matrix(0.977 0.2133 0.2133 -0.977 3873.5962 539.6117)">
				<stop  offset="0" style="stop-color:#444B8C"/>
				<stop  offset="0.9964" style="stop-color:#26264F"/>
			</linearGradient>
			<path style="fill:url(#SVGID_00000113355517921137068050000012554470470162092709_);" d="M431.1,462.1c0.9,0.9,1.2,2.5,0.5,3.4
				s-1.8,0.3-4.8,0.5c-3.2,0.3-4,1.1-6.3,0.6c-0.9-0.2-2.5-0.7-2.5-1.3c0-0.4,0.8-0.7,3.4-1.8c3.7-1.5,3.7-1.5,4.5-1.7
				C427.9,461.4,429.9,460.9,431.1,462.1z"/>
			
				<linearGradient id="SVGID_00000098217140087455231310000016384118221034740632_" gradientUnits="userSpaceOnUse" x1="-3587.5" y1="-443.259" x2="-3581.8325" y2="-431.5285" gradientTransform="matrix(0.9894 0.1453 0.1453 -0.9894 4040.5901 546.9361)">
				<stop  offset="0" style="stop-color:#FFC444"/>
				<stop  offset="0.9964" style="stop-color:#F36F56"/>
			</linearGradient>
			<path style="fill:url(#SVGID_00000098217140087455231310000016384118221034740632_);" d="M428.7,456.9l-1.3,5.5
				c0.1,0.3,1.8,1.2,3.2,0.5l2.1-5.4L428.7,456.9z"/>
			
				<linearGradient id="SVGID_00000127045893182169912580000012712975141506268050_" gradientUnits="userSpaceOnUse" x1="3265.1746" y1="271.9546" x2="3229.3281" y2="352.7609" gradientTransform="matrix(-0.9986 5.330000e-02 -5.330000e-02 -0.9986 3696.8982 538.0461)">
				<stop  offset="0" style="stop-color:#444B8C"/>
				<stop  offset="0.9964" style="stop-color:#26264F"/>
			</linearGradient>
			<path style="fill:url(#SVGID_00000127045893182169912580000012712975141506268050_);" d="M436.8,338c0.7,18.1,0.6,38.6-1.2,60.9
				c-1.8,22-4.8,42-8.4,59.7c2.1,0.4,4.2,0.9,6.3,1.3c5-5.2,11.2-13.2,13.8-24.3c1.6-6.9,0.8-10.3,1.6-18.7
				c1.3-13.3,5-20.5,8.6-31.4c3.3-9.8,7-24.1,8.3-43C456.2,341,446.5,339.5,436.8,338z"/>
			
				<linearGradient id="SVGID_00000013877382635492366910000016260394917336084875_" gradientUnits="userSpaceOnUse" x1="3259.5698" y1="269.4683" x2="3223.7234" y2="350.2746" gradientTransform="matrix(-0.9986 5.330000e-02 -5.330000e-02 -0.9986 3696.8982 538.0461)">
				<stop  offset="0" style="stop-color:#444B8C"/>
				<stop  offset="0.9964" style="stop-color:#26264F"/>
			</linearGradient>
			<path style="opacity:0.3;fill:url(#SVGID_00000013877382635492366910000016260394917336084875_);enable-background:new    ;" d="
				M439.7,422.8c2.3-9.2,6.8-11.6,6.9-20.2c0.1-6.1-2.1-6.6-1.9-12.5c0.2-8.9,5.4-13.5,8-19.1c2.8-5.9,3.8-15.4-3.6-31.1
				c5.6,0.9,11.2,1.7,16.8,2.6c-1.4,18.9-5.1,33.2-8.3,43c-3.6,10.9-7.3,18-8.6,31.4c-0.8,8.4,0,11.8-1.6,18.7
				c-2.6,11.1-8.8,19.1-13.8,24.3c-0.5-0.1-1.1-0.2-1.6-0.3c5.4-6.4,7.3-12.2,7.8-16.8C440.5,435.1,437.4,432,439.7,422.8z"/>
			
				<linearGradient id="SVGID_00000092455160033074627300000002992137975723011729_" gradientUnits="userSpaceOnUse" x1="2894.604" y1="-183.9318" x2="2858.7566" y2="-103.1234" gradientTransform="matrix(-0.9976 -6.940000e-02 6.940000e-02 -0.9976 3342.4729 462.412)">
				<stop  offset="0" style="stop-color:#444B8C"/>
				<stop  offset="0.9964" style="stop-color:#26264F"/>
			</linearGradient>
			<path style="fill:url(#SVGID_00000092455160033074627300000002992137975723011729_);" d="M457.8,336.9c2.5,23,4.8,46.4,6.9,70.3
				c1.5,17.9,2.9,35.6,4.2,53c2.1,0.1,4.3,0.3,6.4,0.4c1.8-3.9,4.2-9.9,5.7-17.4c1.8-9.2,1-14.5,1.5-23.9c0.5-10.6,2-13,4.2-26.4
				c4.4-27.2,6.5-40.9-0.4-48.9C483.9,341.4,477,335,457.8,336.9z"/>
			
				<linearGradient id="SVGID_00000038412810413215465640000014303455833584880296_" gradientUnits="userSpaceOnUse" x1="2866.3877" y1="91.9942" x2="2929.6633" y2="238.1995" gradientTransform="matrix(-1 0 0 -1 3335.8953 479.89)">
				<stop  offset="0" style="stop-color:#FF9085"/>
				<stop  offset="1" style="stop-color:#FB6FBB"/>
			</linearGradient>
			<path style="opacity:0.3;fill:url(#SVGID_00000038412810413215465640000014303455833584880296_);enable-background:new    ;" d="
				M395.1,232.2c0.1,2.8,0.7,5.1,1.4,7c2.8,6.9,9.4,11.9,8,19.7c-0.7,3.9-2.8,5.2-1.9,8c1.2,4,6.3,3.8,11.6,8.3
				c4.8,4,5,7.7,7.5,11.1c3.3,4.6,10.8,8.7,29,7.4c-1.6,2-3.5,3.7-5.9,4.9c-16.4,8-47.4-13.8-52.4-41.1
				C390.6,248.1,392.3,239.4,395.1,232.2z"/>
			
				<linearGradient id="SVGID_00000108998918260488504640000000994250957404106939_" gradientUnits="userSpaceOnUse" x1="2862.3979" y1="254.0163" x2="2873.812" y2="90.4173" gradientTransform="matrix(-1 0 0 -1 3335.8953 479.89)">
				<stop  offset="0" style="stop-color:#FF9085"/>
				<stop  offset="1" style="stop-color:#FB6FBB"/>
			</linearGradient>
			<path style="fill:url(#SVGID_00000108998918260488504640000000994250957404106939_);" d="M512.9,265.4c-11.5-3.9-29-8.2-50.5-7.3
				c-12.4,0.5-23.1,2.6-31.6,5c-1.1,6.4-2.3,12.8-3.4,19.2c-0.3,6.4-0.3,15.1,0.4,25.4c0.7,10.3,1.4,10.4,3.1,24.9
				c2.7,23.6,1.6,29.8,6.3,32.6c3.1,1.8,4.2-0.4,20-1.9c10.6-1,16-1.5,21.3,0.3c7.3,2.5,9.7,6.6,12.7,5.3c2.9-1.3,3.3-6.3,3.6-14.9
				c0.5-13.4,0.5-22.5,0.6-25.7c0.2-14.9,4-26.4,8.9-41C507.3,278,510.4,270.6,512.9,265.4z"/>
			<g>
				
					<linearGradient id="SVGID_00000150798513581557325140000000191473437874751383_" gradientUnits="userSpaceOnUse" x1="2871.521" y1="224.0977" x2="2872.957" y2="262.3535" gradientTransform="matrix(-1 0 0 -1 3335.8953 479.89)">
					<stop  offset="0" style="stop-color:#FFC444"/>
					<stop  offset="0.9964" style="stop-color:#F36F56"/>
				</linearGradient>
				<path style="fill:url(#SVGID_00000150798513581557325140000000191473437874751383_);" d="M458.4,256c0.9-2-0.4-4.6-1.9-6.8
					c1.2-2.6,6.1-3.3,7.4-5.9c0.2,3.8,0.7,6.7,1.3,8.7c0.6,2.3,0.9,2.9,1.4,3.4c0.7,0.7,1.7,1.3,7.1,2.3c3,0.6,3.3,0.5,3.4,0.8
					c0.4,1.4-7.3,6.7-15.6,5.9c-5.1-0.4-9.8-3.1-9.6-4.6C451.9,258.3,457,258.9,458.4,256z"/>
				<g>
					
						<linearGradient id="SVGID_00000041291863387734245720000017938320725534320541_" gradientUnits="userSpaceOnUse" x1="-4189.104" y1="600.942" x2="-4198.6699" y2="625.2386" gradientTransform="matrix(0.9988 -4.960000e-02 -4.960000e-02 -0.9988 4683.3799 654.5909)">
						<stop  offset="0" style="stop-color:#311944"/>
						<stop  offset="1" style="stop-color:#6B3976"/>
					</linearGradient>
					<path style="fill:url(#SVGID_00000041291863387734245720000017938320725534320541_);" d="M454.5,245.3
						c-1.3-1.5-1.5-4.3-0.2-6.1c1.1-1.6,2.9-1.9,4.1-2.1c3.2-0.5,7.3,0.6,8.9,3.5c0.9,1.7-0.7,5.5-0.9,6.1c-0.3,0.8-0.9,1-1.4,1.6
						c-0.7,0.8-1.8,2.1-3.6,4.3c-0.2-0.6-0.4-1.3-0.8-2.1c-0.2-0.3-0.8-1.5-1.7-2.5C457.1,246.1,455.8,246.7,454.5,245.3z"/>
					
						<linearGradient id="SVGID_00000024718027035200523770000001165610556054922926_" gradientUnits="userSpaceOnUse" x1="2573.1357" y1="415.3247" x2="2572.6958" y2="379.8786" gradientTransform="matrix(-0.9999 -1.160000e-02 1.160000e-02 -0.9999 3028.2935 690.1726)">
						<stop  offset="0" style="stop-color:#FFC444"/>
						<stop  offset="0.9964" style="stop-color:#F36F56"/>
					</linearGradient>
					<path style="fill:url(#SVGID_00000024718027035200523770000001165610556054922926_);" d="M464,250.8c0,0-1.9,3.6-6.2,3.5
						c-3.8,0-4.8-8.5-2.5-10.4c0.8-0.6,2.4-1,3.7-0.7c0.8,0.2,1.1,0.5,2.4,0.7c1.2,0.2,1.5,0.1,1.9,0.4c0.5,0.3,0.8,1.2,0.2,3.8
						c0.7-0.8,1.5-1.1,2.2-0.8c0.1,0,0.4,0.2,0.5,0.5C466.8,248.7,466,249.9,464,250.8z"/>
					
						<linearGradient id="SVGID_00000113313187048364095770000015478903026165032359_" gradientUnits="userSpaceOnUse" x1="-4191.9541" y1="599.8066" x2="-4201.5303" y2="624.1284" gradientTransform="matrix(0.9988 -4.960000e-02 -4.960000e-02 -0.9988 4683.3799 654.5909)">
						<stop  offset="0" style="stop-color:#311944"/>
						<stop  offset="1" style="stop-color:#6B3976"/>
					</linearGradient>
					<path style="fill:url(#SVGID_00000113313187048364095770000015478903026165032359_);" d="M463.5,243.8
						c-0.2,0.1,0.4,0.8,0.5,1.8c0.2,1.9-1.6,4.2-3.5,4.5c-1.1,0.2-1.5-0.5-3.4-0.6c-1.2-0.1-2.1,0.1-2.7,0.3c-0.5,2.1,0.2,4.1,1.6,5
						c1.5,0.9,3.4,0.2,4.2-0.1c0.5-0.2,2.2-0.8,3-2.4c0.8-1.7-0.1-2.6,0.9-3.7c0.5-0.6,1.2-0.9,1.8-2c0.2-0.3,0.3-0.6,0.3-0.7
						C465.1,244.8,463.7,243.6,463.5,243.8z"/>
					
						<linearGradient id="SVGID_00000118371576946916041060000008044803795133922486_" gradientUnits="userSpaceOnUse" x1="-4201.3223" y1="614.4522" x2="-4200.8242" y2="610.0125" gradientTransform="matrix(0.9988 -4.960000e-02 -4.960000e-02 -0.9988 4683.3799 654.5909)">
						<stop  offset="0" style="stop-color:#FFC444"/>
						<stop  offset="1" style="stop-color:#F36F56"/>
					</linearGradient>
					<path style="fill:url(#SVGID_00000118371576946916041060000008044803795133922486_);" d="M455.8,250.5c0,0,0.8,0.4,2.2,0.2
						c0.1,0,0.1,0,0.2,0c0,0.1-0.8,0.8-1.7,0.6c-0.6-0.1-1.1-0.7-1-0.8C455.5,250.5,455.6,250.5,455.8,250.5z"/>
				</g>
			</g>
			
				<linearGradient id="SVGID_00000057857007688587432380000012659502944315079325_" gradientUnits="userSpaceOnUse" x1="2855.8525" y1="123.6446" x2="2910.6624" y2="250.2887" gradientTransform="matrix(-1 0 0 -1 3335.8953 479.89)">
				<stop  offset="0" style="stop-color:#FF9085"/>
				<stop  offset="1" style="stop-color:#FB6FBB"/>
			</linearGradient>
			<path style="opacity:0.3;fill:url(#SVGID_00000057857007688587432380000012659502944315079325_);enable-background:new    ;" d="
				M443.3,357.5c7.8-3.3,7.7-10.2,14.9-13c10.3-4.1,21.7,5.4,23.5,2.8c1.9-2.7-11.8-11.1-10-19.4c1.4-6.6,11-5.4,16.1-14.4
				c4.8-8.5,0.1-16.4,4.4-19.4c1.5-1.1,4.2-1.5,9.4,0.8c-3.6,11.2-6.1,21-6.3,33.3c0,3.3,0,12.4-0.6,25.7
				c-0.3,8.7-0.7,13.7-3.6,14.9c-3,1.3-5.4-2.8-12.7-5.3c-5.4-1.8-10.7-1.3-21.3-0.3c-15.8,1.6-16.9,3.8-20,1.9c-2-1.2-3-3-3.6-6.5
				C436.7,359.1,440.1,358.8,443.3,357.5z"/>
			
				<linearGradient id="SVGID_00000018937448083071870250000005663939201450298798_" gradientUnits="userSpaceOnUse" x1="2840.5569" y1="145.2948" x2="2839.4155" y2="90.5081" gradientTransform="matrix(-1 0 0 -1 3335.8953 479.89)">
				<stop  offset="0" style="stop-color:#FFC444"/>
				<stop  offset="0.9964" style="stop-color:#F36F56"/>
			</linearGradient>
			<path style="fill:url(#SVGID_00000018937448083071870250000005663939201450298798_);" d="M502.3,328.1l-3.8-0.2
				c0,0-4.2-3.5-6.1-3.3s-4.7,1.5-5.1,1.8c-0.3,0.3,1,1.8,2.4,1.7c1.4-0.2,4.5,0.6,5,1.8c0.6,1.2,2.9,2,3.4,1.2l5.1,1L502.3,328.1z"
				/>
			
				<linearGradient id="SVGID_00000096035280749112174460000005354529222307690660_" gradientUnits="userSpaceOnUse" x1="2812.0908" y1="250.5066" x2="2823.5049" y2="86.9073" gradientTransform="matrix(-1 0 0 -1 3335.8953 479.89)">
				<stop  offset="0" style="stop-color:#FF9085"/>
				<stop  offset="1" style="stop-color:#FB6FBB"/>
			</linearGradient>
			<path style="fill:url(#SVGID_00000096035280749112174460000005354529222307690660_);" d="M501.1,326.8c-0.3,3.1,0.4,5.2,1.5,6.7
				c5,6.4,22.1,3.8,32.3-4.8c7.5-6.4,11.5-16.3,11.3-25.2c-0.3-17.3-16.4-34.3-40.3-40.2c-3.5,10.6-10.8,20.3-14.3,30.8
				c14.7,0.2,27.4,12.2,26.1,20.2C516.8,320.2,509.9,325.5,501.1,326.8z"/>
		</g>
		<g>
			
				<linearGradient id="SVGID_00000109730133957951911610000008860095820440331444_" gradientUnits="userSpaceOnUse" x1="148.8761" y1="11.4868" x2="139.0642" y2="43.8398" gradientTransform="matrix(0.9999 1.380000e-02 1.380000e-02 -0.9999 31.8198 485.6818)">
				<stop  offset="0" style="stop-color:#444B8C"/>
				<stop  offset="0.9964" style="stop-color:#26264F"/>
			</linearGradient>
			<path style="fill:url(#SVGID_00000109730133957951911610000008860095820440331444_);" d="M171.5,460.4c-1,2-0.7,2.9-0.5,3.3
				c0.7,1.1,2.5,0.1,7.1,0.6c0.5,0.1,1.6,0.2,2.9-0.1c1.1-0.3,2.4-0.8,2.3-1.1c0-0.1-0.2-0.2-0.3-0.2c-1.3-0.3-9.3-2.7-9.3-2.7
				L171.5,460.4z"/>
			
				<linearGradient id="SVGID_00000081647836487226910120000013394280423907405482_" gradientUnits="userSpaceOnUse" x1="140.4559" y1="17.8009" x2="140.4559" y2="69.7783" gradientTransform="matrix(0.9999 1.380000e-02 1.380000e-02 -0.9999 31.8198 485.6818)">
				<stop  offset="0" style="stop-color:#FFC444"/>
				<stop  offset="0.9964" style="stop-color:#F36F56"/>
			</linearGradient>
			<path style="fill:url(#SVGID_00000081647836487226910120000013394280423907405482_);" d="M170.9,455.9l0.7,4.6c0,0,2,1.4,2.5-0.3
				c0.4-1.2,0.4-4.5,0.4-4.5L170.9,455.9z"/>
			
				<linearGradient id="SVGID_00000147211140270035415590000005558373583545858438_" gradientUnits="userSpaceOnUse" x1="159.6196" y1="17.8003" x2="159.6196" y2="69.7786" gradientTransform="matrix(0.9999 1.380000e-02 1.380000e-02 -0.9999 31.8198 485.6818)">
				<stop  offset="0" style="stop-color:#FFC444"/>
				<stop  offset="0.9964" style="stop-color:#F36F56"/>
			</linearGradient>
			<polygon style="fill:url(#SVGID_00000147211140270035415590000005558373583545858438_);" points="194.2,458.2 192.2,463.5 
				189.4,463 190.1,458.1 			"/>
			
				<linearGradient id="SVGID_00000023985442620421341100000002429195969608194994_" gradientUnits="userSpaceOnUse" x1="163.1581" y1="15.8176" x2="153.3459" y2="48.1714" gradientTransform="matrix(0.9999 1.380000e-02 1.380000e-02 -0.9999 31.8198 485.6818)">
				<stop  offset="0" style="stop-color:#444B8C"/>
				<stop  offset="0.9964" style="stop-color:#26264F"/>
			</linearGradient>
			<path style="fill:url(#SVGID_00000023985442620421341100000002429195969608194994_);" d="M191.3,466.4c-1.4-1.6-2.6-1.5-2.8-2.6
				c-0.2-0.9,0.3-1.9,1.1-2.3c1.1-0.6,2.5,0.3,2.8,0.5c2.1,1.4,1.5,3.5,3.5,4.4c0.4,0.2,1,0.4,1.7,1c0.3,0.3,1,0.9,0.8,1.4
				s-1.4,0.5-2.6,0.5c-1.4,0-2.1,0-2.8-0.5C192.1,468.2,192.4,467.6,191.3,466.4z"/>
			
				<linearGradient id="SVGID_00000181051691264348608860000013732310475970835639_" gradientUnits="userSpaceOnUse" x1="135.9533" y1="129.9592" x2="131.1799" y2="22.5564" gradientTransform="matrix(0.9999 1.380000e-02 1.380000e-02 -0.9999 31.8198 485.6818)">
				<stop  offset="0" style="stop-color:#311944"/>
				<stop  offset="1" style="stop-color:#893976"/>
			</linearGradient>
			<path style="fill:url(#SVGID_00000181051691264348608860000013732310475970835639_);" d="M155.9,346.4c0.5,10.7,2,19.7,3.8,27.2
				c1.9,8,2.9,9.3,3.5,14.9c1.4,12-2.4,13.8-2.9,27.5c-0.5,15.1,3.8,26.9,5.5,31.5c1.5,4,3,7.1,4.1,9.4c1.4,1.2,3.5,0.7,5.7,0.2
				c0.5-13.7,1.3-26.5,1.8-40.2c2.2-20.6,4.4-41.2,6.6-61.7C174.7,352.1,165.3,349.2,155.9,346.4z"/>
			
				<linearGradient id="SVGID_00000163036742930558603710000012275192083069013680_" gradientUnits="userSpaceOnUse" x1="135.9505" y1="129.9595" x2="131.177" y2="22.5566" gradientTransform="matrix(0.9999 1.380000e-02 1.380000e-02 -0.9999 31.8198 485.6818)">
				<stop  offset="0" style="stop-color:#311944"/>
				<stop  offset="1" style="stop-color:#893976"/>
			</linearGradient>
			<path style="opacity:0.3;fill:url(#SVGID_00000163036742930558603710000012275192083069013680_);enable-background:new    ;" d="
				M175.6,456.9c0.5-13.7,1.3-26.5,1.8-40.2c2.2-20.6,4.4-41.2,6.6-61.7c-9.4-2.8-18.8-5.7-28.1-8.5c0,0.7,0.1,1.4,0.1,2.1
				c13.3,11.1,16.1,20,16.1,26.1c0,7.4-4,11.2-3,22c0.7,7.7,3.1,9,3.2,16c0.2,9-3.5,14.1-5.3,19.3c-1.7,5-2.2,12.1,1.5,22.1
				c0.5,1,0.9,2,1.3,2.7C171.3,457.9,173.4,457.4,175.6,456.9z"/>
			
				<linearGradient id="SVGID_00000077326362186544555980000014329413784366698144_" gradientUnits="userSpaceOnUse" x1="208.744" y1="84.3633" x2="121.2329" y2="88.3411" gradientTransform="matrix(0.9999 1.380000e-02 1.380000e-02 -0.9999 31.8198 485.6818)">
				<stop  offset="0" style="stop-color:#311944"/>
				<stop  offset="1" style="stop-color:#893976"/>
			</linearGradient>
			<path style="fill:url(#SVGID_00000077326362186544555980000014329413784366698144_);" d="M172.6,356.3
				c7.1,11.4,11.1,20.4,13.3,26c1.3,3.4,2.6,6.9,2.9,11.6c0.4,5.7-0.6,10.5-1.5,13.5c-1.4,3.9-2.6,8.4-3.3,13.5
				c-2.3,16.6,1.9,30.3,5.1,38.2c1.7,0.6,3.3,1.2,5,1.7c3.5-10.6,7.8-25.5,10.7-43.9c1.6-10.1,2.8-17.9,2.6-27.9
				c-0.2-10.5-2.1-27.1-11.1-46.9C188.4,346.9,180.5,351.6,172.6,356.3z"/>
			
				<linearGradient id="SVGID_00000015349209898660937670000014333087544651066544_" gradientUnits="userSpaceOnUse" x1="79.227" y1="61.3353" x2="141.2817" y2="193.9309" gradientTransform="matrix(0.9999 1.380000e-02 1.380000e-02 -0.9999 31.8198 485.6818)">
				<stop  offset="3.597120e-03" style="stop-color:#E38DDD"/>
				<stop  offset="1" style="stop-color:#9571F6"/>
			</linearGradient>
			<path style="fill:url(#SVGID_00000015349209898660937670000014333087544651066544_);" d="M174.5,265.1
				c10.6,1.6,18.6,3.3,22.3,8.7c3.9,5.7-2,10.3-3.4,23.1c-2.1,19.6,9.3,26.7,6.5,46.4c-0.9,6.7-3.1,11.8-4.6,14.9
				c-3.3,2.8-8.7,6.7-15.9,9.5c-10.6,4-15.9,1.9-30.2,3c-23.5,1.8-26.8,8.7-37.5,4.8c-10.8-4-18.8-15.3-16.6-20.2
				c1.3-3,5.6-1.2,11.7-4.9c7.8-4.8,6.4-11.1,12.7-16.7c9.1-8,18.2-0.3,25.9-7.3c7.9-7,8.5-23.7,4.8-33.5
				c-2.4-6.4-2.6-13.5-4.3-20.1c-0.1-0.5-0.3-1.4,0-2.4c1.2-3.8,8.2-4.7,13.5-5.3C167.4,264.1,173.6,265,174.5,265.1z"/>
			
				<linearGradient id="SVGID_00000119837288079781957630000012038709666211880837_" gradientUnits="userSpaceOnUse" x1="-479.5588" y1="267.9955" x2="-431.0858" y2="168.3185" gradientTransform="matrix(-0.9823 -0.1875 0.1875 -0.9823 -314.0809 451.6126)">
				<stop  offset="3.597120e-03" style="stop-color:#E38DDD"/>
				<stop  offset="1" style="stop-color:#9571F6"/>
			</linearGradient>
			<path style="opacity:0.2;fill:url(#SVGID_00000119837288079781957630000012038709666211880837_);enable-background:new    ;" d="
				M112.7,368.1c3.2-2.2,1.3-8.3,6.1-11.7c4.4-3.1,8,0.8,14.5-1.4c8.4-2.8,7.8-10.9,15.8-13.7c5.8-2,7.6,1.7,16,1.7
				s19.3-3.7,26.1-12.7c2.9-3.8,4.4-7.9,5.3-11.6c2.4,7.2,5,14.1,3.5,24.7c-0.9,6.7-3.1,11.8-4.6,14.9c-3.3,2.8-8.7,6.7-15.9,9.5
				c-10.6,4-15.9,1.9-30.2,3c-23.5,1.8-26.8,8.7-37.5,4.8c-6.9-2.6-12.7-8.1-15.4-13C105.7,369,110.4,369.7,112.7,368.1z"/>
			
				<linearGradient id="SVGID_00000068667386579409616210000000665568213360195254_" gradientUnits="userSpaceOnUse" x1="147.6062" y1="233.353" x2="136.4119" y2="215.2445" gradientTransform="matrix(0.9999 1.380000e-02 1.380000e-02 -0.9999 31.8198 485.6818)">
				<stop  offset="0" style="stop-color:#FFC444"/>
				<stop  offset="0.9964" style="stop-color:#F36F56"/>
			</linearGradient>
			<path style="fill:url(#SVGID_00000068667386579409616210000000665568213360195254_);" d="M180.2,246.8c0,0,3,5.4,3.3,9.2
				s-4.1,3.6-4.1,3.6l0.2,2.4c0.2,2.1,1.6,3.8,3.5,4.5l1.7,0.6c0,0-11.1,2.6-17.2-1.5l1.7-0.2c2.5-0.3,4.4-2.3,4.6-4.8l0.1-1
				C174,259.5,171.9,247.7,180.2,246.8z"/>
			<g>
				
					<linearGradient id="SVGID_00000008860541002664232800000006331349862503648138_" gradientUnits="userSpaceOnUse" x1="189.2514" y1="205.3436" x2="166.6876" y2="168.8434" gradientTransform="matrix(0.9999 1.380000e-02 1.380000e-02 -0.9999 31.8198 485.6818)">
					<stop  offset="0" style="stop-color:#444B8C"/>
					<stop  offset="0.9964" style="stop-color:#26264F"/>
				</linearGradient>
				<path style="fill:url(#SVGID_00000008860541002664232800000006331349862503648138_);" d="M197.8,307.1l13.7-30.6
					c0.2-0.4,0.6-0.6,1-0.5l24,3c0.6,0.1,1,0.8,0.7,1.3L221,313.4c-0.2,0.4-0.6,0.6-1.1,0.5l-21.4-5.3L197.8,307.1z"/>
				
					<linearGradient id="SVGID_00000164509591131326521240000002627801718024907915_" gradientUnits="userSpaceOnUse" x1="221.6998" y1="195.9663" x2="202.2083" y2="159.3702" gradientTransform="matrix(1 0 0 -1 0 479.89)">
					<stop  offset="0" style="stop-color:#FFC444"/>
					<stop  offset="0.9964" style="stop-color:#F36F56"/>
				</linearGradient>
				<path style="fill:url(#SVGID_00000164509591131326521240000002627801718024907915_);" d="M201.6,303.4l11.1-24.8
					c0.1-0.3,0.5-0.5,0.8-0.4l19.4,2.5c0.5,0.1,0.8,0.6,0.6,1.1l-13.1,26.8c-0.2,0.3-0.5,0.5-0.9,0.4l-17.3-4.3L201.6,303.4z"/>
				
					<linearGradient id="SVGID_00000013875856122160538670000012421994226228668552_" gradientUnits="userSpaceOnUse" x1="187.0163" y1="207.646" x2="192.3862" y2="218.7836" gradientTransform="matrix(0.9999 1.380000e-02 1.380000e-02 -0.9999 31.8198 485.6818)">
					<stop  offset="0" style="stop-color:#AA80F9"/>
					<stop  offset="0.9964" style="stop-color:#6165D7"/>
				</linearGradient>
				<path style="fill:url(#SVGID_00000013875856122160538670000012421994226228668552_);" d="M216.8,278.4l0.9-2
					c0.1-0.3,0.4-0.4,0.7-0.4l10,1.2c0.5,0.1,0.7,0.5,0.5,1l-1,2.2c-0.1,0.3-0.4,0.4-0.7,0.4l-9.9-1.4
					C216.8,279.3,216.6,278.9,216.8,278.4z"/>
				<path class="st51" d="M230.4,285.1C230.4,285.1,230.3,285.1,230.4,285.1l-17.7-2.3c-0.2,0-0.4-0.2-0.3-0.4
					c0-0.2,0.2-0.4,0.4-0.3l17.6,2.3c0.2,0,0.4,0.2,0.3,0.4C230.8,285,230.6,285.2,230.4,285.1z"/>
				<path class="st51" d="M229.5,286.9C229.5,286.9,229.4,286.9,229.5,286.9l-17.6-2.4c-0.2,0-0.4-0.2-0.3-0.4
					c0-0.2,0.2-0.4,0.4-0.3l17.5,2.4c0.2,0,0.4,0.2,0.3,0.4C229.8,286.8,229.7,286.9,229.5,286.9z"/>
				<path class="st51" d="M220.7,289.7C220.6,289.7,220.6,289.7,220.7,289.7l-9.6-1.6c-0.2,0-0.4-0.2-0.3-0.5c0-0.2,0.2-0.4,0.5-0.3
					l9.6,1.6c0.2,0,0.4,0.2,0.3,0.5C221,289.6,220.9,289.7,220.7,289.7z"/>
			</g>
			
				<linearGradient id="SVGID_00000005968507050366107780000017193354031847172748_" gradientUnits="userSpaceOnUse" x1="194.0281" y1="190.9165" x2="188.6139" y2="182.1582" gradientTransform="matrix(0.9999 1.380000e-02 1.380000e-02 -0.9999 31.8198 485.6818)">
				<stop  offset="0" style="stop-color:#FFC444"/>
				<stop  offset="0.9964" style="stop-color:#F36F56"/>
			</linearGradient>
			<path style="fill:url(#SVGID_00000005968507050366107780000017193354031847172748_);" d="M225,305.3c0,0,3.9-2.7,4.4-4.5
				c0.5-1.9,0.3-5.4,0.3-5.4l-2.3,5c0,0-1.1-0.3-1.6-2c-0.5-1.6-1.3-0.1-1,1.1C225.3,300.7,225,305.3,225,305.3z"/>
			
				<linearGradient id="SVGID_00000130645591766787541340000017463681153870760837_" gradientUnits="userSpaceOnUse" x1="107.0776" y1="48.2972" x2="169.1335" y2="180.8951" gradientTransform="matrix(0.9999 1.380000e-02 1.380000e-02 -0.9999 31.8198 485.6818)">
				<stop  offset="3.597120e-03" style="stop-color:#E38DDD"/>
				<stop  offset="1" style="stop-color:#9571F6"/>
			</linearGradient>
			<path style="fill:url(#SVGID_00000130645591766787541340000017463681153870760837_);" d="M194.9,272c2.1,1.3,5.2,3.5,7.9,7
				c7.8,10.1,4.8,20.9,11.3,24.8c1.9,1.1,5.1,2,11-0.1l2.3,1.2c0,0,2.7,14-14.2,14.5c-17,0.5-25.4-20.6-25.4-20.6L194.9,272z"/>
			
				<linearGradient id="SVGID_00000012463780124548392420000009753349115020324226_" gradientUnits="userSpaceOnUse" x1="85.2288" y1="157.6187" x2="130.4892" y2="254.3288" gradientTransform="matrix(0.9999 1.380000e-02 1.380000e-02 -0.9999 31.8198 485.6818)">
				<stop  offset="0" style="stop-color:#444B8C"/>
				<stop  offset="0.9964" style="stop-color:#26264F"/>
			</linearGradient>
			<path style="fill:url(#SVGID_00000012463780124548392420000009753349115020324226_);" d="M178.6,252.2c-0.6,0-1.1-0.8-1.5-0.5
				c-0.4,0.2-0.3,1.3,0,2c0.3,0.6,0.8,0.9,1.1,1.1c-0.4,0.6-1,1.6-1.2,2.8c-0.5,2.8,1.1,5,1.7,6.2c2.9,5.8-1.2,15.1-5.8,19.9
				c-3.7,3.9-5.5,2.4-7.8,5.5c-4.3,6.1,2,12.6-0.2,20.8c-3.2,12.4-22.7,16.5-23.5,16.7c-0.3,0.1-0.5,0.1-0.9,0.2
				c-8.7,1.6-22,4-31.5-3c-7.1-5.2-10.5-14.5-10.2-22.8c0.1-2.2,0.6-10.4,7.1-17.3c1-1.1,7.2-7.5,15.7-7.8c4.5-0.1,5.5,1.4,8.9,0.4
				c4.7-1.4,7.5-5.8,9.3-8.5c3.2-5,1.8-6,4.2-8.4c4.6-4.8,10.1-1.2,15.1-5.5c4.8-4.2,1.7-9.7,6.4-13.4c4.8-3.8,14.2-2.7,16.3,1.6
				C183.9,246.1,180.3,252.3,178.6,252.2z"/>
		</g>
	</g>
</g>
</svg>
