<?xml version="1.0" encoding="utf-8"?>
<!-- Generator: Adobe Illustrator 26.0.1, SVG Export Plug-In . SVG Version: 6.00 Build 0)  -->
<svg version="1.1" xmlns="http://www.w3.org/2000/svg" xmlns:xlink="http://www.w3.org/1999/xlink" x="0px" y="0px"
	 viewBox="0 0 640 480" style="enable-background:new 0 0 640 480;" xml:space="preserve">
<style type="text/css">
	.st0{opacity:0.3;fill:url(#SVGID_1_);}
	.st1{fill:url(#SVGID_00000074408637982541538890000014447057049161398451_);}
	.st2{fill:#FFFFFF;}
	.st3{fill:url(#SVGID_00000148633084871046140140000018204231698186681231_);}
	.st4{fill:url(#SVGID_00000036219364852380593920000005841667681807666095_);}
	.st5{fill:url(#SVGID_00000181775785348063128240000018220555277644314007_);}
	.st6{fill:url(#SVGID_00000067925359678404464360000016874653684489961913_);}
	.st7{opacity:0.3;}
	.st8{fill:url(#SVGID_00000111891009734950066590000002501636007510493351_);}
	.st9{fill:url(#SVGID_00000075161203126959115370000013839708958769017234_);}
	.st10{fill:url(#SVGID_00000036216784905258913370000000030074974642026141_);}
	.st11{fill:url(#SVGID_00000151541860094488235490000008698631590954099599_);}
	.st12{fill:url(#SVGID_00000010999352457093716340000001822058071144596126_);}
	.st13{fill:url(#SVGID_00000169551813166380229310000000644307640748092563_);}
	.st14{opacity:0.56;fill:#FFFFFF;}
	.st15{fill:url(#SVGID_00000102529539496462440630000008888626856895797379_);}
	.st16{fill:url(#SVGID_00000136376826032994711250000001847673911838306955_);}
	.st17{fill:url(#SVGID_00000063633276117750329200000014523755761205146253_);}
	.st18{fill:url(#SVGID_00000173145046267614098020000008507611223123143339_);}
	.st19{fill:url(#SVGID_00000048472720899874516460000008738182834553678007_);}
	.st20{fill:url(#SVGID_00000049914252193444355560000000626799454375107713_);}
	.st21{fill:url(#SVGID_00000103978443184454869190000013886753011757354638_);}
	.st22{opacity:0.78;fill:#FFFFFF;}
	.st23{fill:url(#SVGID_00000023975453232747750060000017503391173117102740_);}
	.st24{fill:url(#SVGID_00000168832082236463331880000011246816060797213629_);}
	.st25{fill:url(#SVGID_00000098194338345012739550000007591406909599643307_);}
	.st26{fill:url(#SVGID_00000132793410828929801390000013667897133152050596_);}
	.st27{fill:url(#SVGID_00000149347844751176983650000012071203626121026998_);}
	.st28{fill:url(#SVGID_00000018951105296864633190000011630246713344676799_);}
	.st29{fill:url(#SVGID_00000085217791970078044620000009438647984160571063_);}
	.st30{fill:url(#SVGID_00000063620548659638727190000002383870418519221688_);}
	.st31{fill:url(#SVGID_00000145741084529213544230000008787586563954425252_);}
	.st32{fill:url(#SVGID_00000016777650760137248150000012212545034882527364_);}
	.st33{fill:url(#SVGID_00000025420789012486333970000018034035418231737496_);}
	.st34{fill:url(#SVGID_00000053521308160837211320000008967876078546499970_);}
	.st35{fill:url(#SVGID_00000178925225033677730290000018435191800285673132_);}
	.st36{fill:url(#SVGID_00000090265660498337146180000012088613748123152796_);}
	.st37{fill:url(#SVGID_00000078011394566916392750000004908416786025771139_);}
	.st38{fill:url(#SVGID_00000005250762294270843780000005500364911884365746_);}
	.st39{fill:url(#SVGID_00000176764148448532672500000005751909678865540285_);}
	.st40{fill:url(#SVGID_00000134950032500864184690000010897213031748103570_);}
	.st41{fill:url(#SVGID_00000063591252852577525940000009597560839651096255_);}
	.st42{fill:url(#SVGID_00000119116192428571620890000000379890551350350212_);}
	.st43{fill:url(#SVGID_00000119095148672979105980000000456399713111456129_);}
	.st44{fill:url(#SVGID_00000142865458366001918760000006948090585083382948_);}
	.st45{fill:url(#SVGID_00000089548332069755612280000014787852463766086064_);}
	.st46{fill:url(#SVGID_00000078752322021198327360000002203992280162117770_);}
	.st47{fill:url(#SVGID_00000023996675433438201570000014130855663992301449_);}
	.st48{fill:url(#SVGID_00000145741342872924189520000009526181675144201104_);}
</style>
<g id="Background">
</g>
<g id="Illustration">
	<g>
		<linearGradient id="SVGID_1_" gradientUnits="userSpaceOnUse" x1="576.1891" y1="476.8432" x2="239.4356" y2="182.184">
			<stop  offset="0" style="stop-color:#B37CFF"/>
			<stop  offset="1" style="stop-color:#F895E7"/>
		</linearGradient>
		<path class="st0" d="M519,323.8c-43.5,102.5-159.5,159.9-260,144.4c-16.4-2.5-61.2-10-100.9-45.4
			c-76.4-68.2-92.8-203.2-31.1-298.3C171.8,55.3,252.3,16,328.7,18c16.5,0.4,79.6,3,135,48.8c8.1,6.7,26.1,22.7,42.3,48
			C544.1,174.2,547.3,257,519,323.8z"/>
		<g>
			
				<linearGradient id="SVGID_00000113314663448599625190000008525996586038026416_" gradientUnits="userSpaceOnUse" x1="-70.0602" y1="1112.1426" x2="89.5612" y2="1112.1426" gradientTransform="matrix(0.9365 0.3507 -0.3507 0.9365 555.4581 -912.053)">
				<stop  offset="0" style="stop-color:#A737D5"/>
				<stop  offset="1" style="stop-color:#EF497A"/>
			</linearGradient>
			<path style="fill:url(#SVGID_00000113314663448599625190000008525996586038026416_);" d="M135.1,11.6c-0.4-1.8,1.7-3,3.1-1.8
				c13.9,12.2,47.7,49.1,41.9,115.8c-7.3,83.7,11.1,113.5,33.3,131.3c0,0-30-7.7-49.7-37.9C115.3,144.7,142.6,43.2,135.1,11.6z"/>
			<path class="st2" d="M146.3,37.3c2,9.2,3.8,18.5,5.3,27.8c1.5,9.3,2.8,18.6,3.7,28c0.9,9.4,1.7,18.8,2,28.2
				c0.4,9.4,0.4,18.8,0.3,28.2c0,9.4-0.1,18.9,0.9,28.5c0.9,9.5,3,19.1,6.7,28c0.9,2.2,1.9,4.4,3,6.6c1.1,2.2,2.2,4.3,3.4,6.3
				c2.4,4.2,5.1,8.2,8.1,12c6,7.6,13.1,14.2,20.9,19.8c0.8,0.6,2,0.4,2.5-0.4c0.6-0.8,0.4-1.9-0.4-2.5l0,0c-1.9-1.4-3.7-2.8-5.5-4.3
				c-0.9-0.7-1.8-1.5-2.6-2.3c-0.8-0.8-1.7-1.6-2.5-2.4c-3.3-3.2-6.4-6.7-9.3-10.3c-5.7-7.3-10.3-15.4-13.9-23.9
				c-1.8-4.3-3.2-8.7-4.3-13.2c-1.1-4.5-1.8-9.1-2.3-13.7c-1-9.3-1-18.7-1.1-28.1c-0.1-9.4-0.2-18.9-0.8-28.4
				c-0.3-4.7-0.6-9.5-1-14.2c-0.2-2.4-0.4-4.7-0.7-7.1c-0.3-2.4-0.5-4.7-0.8-7.1c-1.2-9.4-2.7-18.7-4.5-28
				c-1.8-9.3-3.9-18.5-6.3-27.7c-0.1-0.3-0.3-0.4-0.6-0.3C146.4,36.8,146.2,37,146.3,37.3z"/>
		</g>
		<g>
			<g>
				
					<linearGradient id="SVGID_00000165939006251125132730000017638243120983171720_" gradientUnits="userSpaceOnUse" x1="-3591.6365" y1="-683.7053" x2="-3395.8208" y2="-683.7053" gradientTransform="matrix(0.1798 -0.9838 0.9838 0.1798 1423.2189 -3133.5342)">
					<stop  offset="0" style="stop-color:#B37CFF"/>
					<stop  offset="1" style="stop-color:#F895E7"/>
				</linearGradient>
				<path style="fill:url(#SVGID_00000165939006251125132730000017638243120983171720_);" d="M160.4,282.7c-0.8,3.3-4.7,4.6-7.4,2.6
					c-14.9-11.1-54-46.4-56.5-110.5c-2.1-54.1-8.4-83.2-12.2-96.3c-0.8-2.8,2.4-4.9,4.7-3.2C114,94.6,190.9,164.6,160.4,282.7z"/>
				<path class="st2" d="M155.8,283.1c-0.1,0.1-0.1,0.1-0.2,0.1c-0.6,0.3-1.4,0.1-1.8-0.5c-0.4-0.7-38.6-73.6-44.9-148.7
					c-0.1-0.7,0.5-1.4,1.2-1.4c0.7-0.1,1.4,0.5,1.4,1.2c6.3,74.5,44.2,146.9,44.6,147.6C156.5,282.1,156.3,282.8,155.8,283.1z"/>
			</g>
		</g>
		<g>
			
				<linearGradient id="SVGID_00000039107383694575053460000004482019943204949892_" gradientUnits="userSpaceOnUse" x1="319.8997" y1="145.0663" x2="328.3961" y2="478.1281">
				<stop  offset="0" style="stop-color:#2B3582"/>
				<stop  offset="1" style="stop-color:#150E42"/>
			</linearGradient>
			<path style="fill:url(#SVGID_00000039107383694575053460000004482019943204949892_);" d="M115.6,439.6c0,4.1,3.3,7.4,7.4,7.4
				h399.6c4.1,0,7.4-3.3,7.4-7.4l3.3-229.6c0-4.1-4.8-12-13.6-11.4l-390.5-10.1c-5.1-0.1-10,1.8-13.6,5.4c-3.6,3.6-5.6,8.5-5.5,13.6
				L115.6,439.6z"/>
			
				<linearGradient id="SVGID_00000157307432810149661390000000006446293218112428_" gradientUnits="userSpaceOnUse" x1="516.5649" y1="124.7691" x2="-285.4996" y2="916.6376">
				<stop  offset="0" style="stop-color:#FDF53F"/>
				<stop  offset="1" style="stop-color:#D93C65"/>
			</linearGradient>
			<path style="fill:url(#SVGID_00000157307432810149661390000000006446293218112428_);" d="M122.9,432.5c0,3.8,3.1,7,7,7h383
				c3.8,0,7-3.1,7-7l3.1-208.5c-0.4-12.5-11.4-17.1-18-16.8l-374.3-10c-3.6-0.1-7,1.3-9.6,3.8c-2.5,2.5-3.9,6-3.8,9.6L122.9,432.5z"
				/>
			<g>
				<path class="st2" d="M515.8,333.5C515.8,333.5,515.8,333.5,515.8,333.5c-0.6,0-1-0.5-1-1l0.2-16.9c0-0.6,0.5-1,1-1c0,0,0,0,0,0
					c0.6,0,1,0.5,1,1l-0.2,16.9C516.8,333.1,516.4,333.5,515.8,333.5z"/>
				<path class="st2" d="M516.4,292.1C516.4,292.1,516.4,292.1,516.4,292.1c-0.6,0-1-0.5-1-1l1-64.7c0-3.8-1.2-6.9-3.5-9.1
					c-4.3-4.1-11-3.9-11.3-3.9l-119.6-3.2c-0.6,0-1-0.5-1-1.1c0-0.6,0.4-1,1.1-1l119.6,3.2c0.7,0,8-0.2,12.8,4.4
					c2.7,2.6,4.1,6.2,4.1,10.6l-1,64.8C517.4,291.6,517,292.1,516.4,292.1z"/>
			</g>
			
				<linearGradient id="SVGID_00000134963980844256874110000003878216895510972035_" gradientUnits="userSpaceOnUse" x1="317.9576" y1="511.7676" x2="321.3646" y2="278.3948">
				<stop  offset="0" style="stop-color:#2B3582"/>
				<stop  offset="1" style="stop-color:#150E42"/>
			</linearGradient>
			<path style="fill:url(#SVGID_00000134963980844256874110000003878216895510972035_);" d="M84.2,466.1h469.2
				c0.5,0,0.9-0.4,0.9-0.9v-18.3c0-0.5-0.4-0.9-0.9-0.9H84.2c-0.5,0-0.9,0.4-0.9,0.9v18.3C83.2,465.6,83.7,466.1,84.2,466.1z"/>
		</g>
		<g>
			<g>
				<g class="st7">
					
						<linearGradient id="SVGID_00000147221858493986572860000004071324266883338940_" gradientUnits="userSpaceOnUse" x1="-2168.938" y1="132.1844" x2="-2073.52" y2="132.1844" gradientTransform="matrix(-0.998 6.330000e-02 6.330000e-02 0.998 -1679.6614 52.4629)">
						<stop  offset="0" style="stop-color:#B37CFF"/>
						<stop  offset="1" style="stop-color:#F895E7"/>
					</linearGradient>
					<path style="fill:url(#SVGID_00000147221858493986572860000004071324266883338940_);" d="M493.5,84.8c-0.9,0-1.6-0.8-1.6-1.7
						c0.1-1.8,0.1-3.6,0-5.4c0-0.9,0.7-1.7,1.6-1.7c0,0,0,0,0,0c0.9,0,1.7,0.7,1.7,1.6c0.1,1.9,0.1,3.8,0,5.7c0,0.9-0.7,1.5-1.6,1.6
						C493.6,84.8,493.6,84.8,493.5,84.8z M490.9,68.9c-0.3-1.8-0.7-3.6-1.2-5.3c-0.2-0.9,0.3-1.8,1.2-2.1c0.9-0.2,1.8,0.3,2.1,1.2
						c0.5,1.8,0.9,3.7,1.3,5.6c0.2,0.9-0.4,1.8-1.3,1.9c-0.1,0-0.1,0-0.2,0C491.8,70.3,491.1,69.7,490.9,68.9z M486.8,55.3
						c-0.7-1.7-1.5-3.3-2.3-4.9c-0.4-0.8-0.1-1.8,0.7-2.3c0.8-0.4,1.8-0.1,2.3,0.7c0.9,1.7,1.7,3.4,2.5,5.1c0.4,0.8,0,1.8-0.9,2.2
						c-0.2,0.1-0.4,0.1-0.6,0.1C487.8,56.4,487.1,56,486.8,55.3z M479.8,43c-1.1-1.5-2.2-2.9-3.4-4.2c-0.6-0.7-0.5-1.8,0.2-2.4
						c0.7-0.6,1.8-0.5,2.4,0.2c1.2,1.4,2.4,2.9,3.6,4.5c0.5,0.7,0.4,1.8-0.4,2.3c-0.3,0.2-0.6,0.3-0.9,0.3
						C480.7,43.7,480.1,43.5,479.8,43z M470.2,32.5c-1.4-1.2-2.8-2.3-4.2-3.4c-0.7-0.5-0.9-1.6-0.4-2.3c0.5-0.7,1.6-0.9,2.3-0.4
						c1.5,1.1,3,2.3,4.5,3.6c0.7,0.6,0.8,1.7,0.2,2.4c-0.3,0.4-0.7,0.5-1.2,0.6C470.9,33,470.5,32.8,470.2,32.5z M458.5,24.5
						c-1.6-0.9-3.2-1.6-4.9-2.4c-0.8-0.4-1.2-1.4-0.9-2.2c0.4-0.8,1.4-1.2,2.2-0.9c1.7,0.8,3.5,1.6,5.1,2.5c0.8,0.4,1.1,1.5,0.7,2.3
						c-0.3,0.5-0.8,0.8-1.4,0.9C459.1,24.7,458.8,24.6,458.5,24.5z M396.4,23.7c-0.4-0.8-0.1-1.8,0.7-2.3c1.7-0.9,3.4-1.7,5.1-2.5
						c0.8-0.4,1.8,0,2.2,0.9c0.4,0.8,0,1.8-0.9,2.2c-1.7,0.7-3.3,1.5-4.9,2.3c-0.2,0.1-0.4,0.2-0.7,0.2
						C397.3,24.6,396.7,24.3,396.4,23.7z M445.3,19.2c-1.7-0.5-3.5-0.9-5.3-1.2c-0.9-0.2-1.5-1-1.3-1.9c0.2-0.9,1-1.5,1.9-1.3
						c1.9,0.3,3.7,0.8,5.6,1.3c0.9,0.2,1.4,1.2,1.2,2.1c-0.2,0.7-0.8,1.2-1.5,1.2C445.7,19.2,445.5,19.2,445.3,19.2z M409.8,18
						c-0.2-0.9,0.3-1.8,1.2-2.1c1.8-0.5,3.7-0.9,5.6-1.3c0.9-0.2,1.8,0.4,1.9,1.3c0.2,0.9-0.4,1.8-1.3,1.9c-1.8,0.3-3.6,0.7-5.3,1.2
						c-0.1,0-0.2,0-0.3,0.1C410.7,19.2,410,18.7,409.8,18z M431.3,17c-1.8-0.1-3.6-0.1-5.4,0c-0.9,0-1.7-0.7-1.7-1.6
						c0-0.9,0.7-1.7,1.6-1.7c0,0,0,0,0,0c1.9-0.1,3.8-0.1,5.7,0c0.9,0,1.6,0.8,1.6,1.7c0,0.9-0.7,1.5-1.6,1.6
						C431.4,17,431.3,17,431.3,17z"/>
					
						<linearGradient id="SVGID_00000080923203393598939700000010050980092392438675_" gradientUnits="userSpaceOnUse" x1="-2068.8818" y1="107.0556" x2="-2063.3093" y2="107.0556" gradientTransform="matrix(-0.998 6.330000e-02 6.330000e-02 0.998 -1679.6614 52.4629)">
						<stop  offset="0" style="stop-color:#B37CFF"/>
						<stop  offset="1" style="stop-color:#F895E7"/>
					</linearGradient>
					<path style="fill:url(#SVGID_00000080923203393598939700000010050980092392438675_);" d="M388.1,31c0.3,0,0.7-0.1,0.9-0.4
						c0.7-0.5,1.4-1.1,2.1-1.6c0.7-0.5,0.9-1.6,0.4-2.3c-0.5-0.7-1.6-0.9-2.3-0.4c-0.7,0.5-1.5,1.1-2.2,1.7
						c-0.7,0.6-0.8,1.6-0.3,2.4C387.1,30.8,387.6,31,388.1,31z"/>
				</g>
				<g class="st7">
					
						<linearGradient id="SVGID_00000175289618341818320530000014930827944735495321_" gradientUnits="userSpaceOnUse" x1="-2039.9591" y1="149.6382" x2="-2036.1353" y2="149.6382" gradientTransform="matrix(-0.998 6.330000e-02 6.330000e-02 0.998 -1679.6614 52.4629)">
						<stop  offset="0" style="stop-color:#B37CFF"/>
						<stop  offset="1" style="stop-color:#F895E7"/>
					</linearGradient>
					<path style="fill:url(#SVGID_00000175289618341818320530000014930827944735495321_);" d="M363.7,75.8c0.8-0.1,1.5-0.7,1.6-1.5
						c0.1-0.9,0.2-1.7,0.3-2.6c0.1-0.9-0.5-1.8-1.4-1.9c-0.9-0.1-1.8,0.5-1.9,1.4c-0.1,0.9-0.2,1.8-0.3,2.7
						c-0.1,0.9,0.6,1.7,1.5,1.8C363.6,75.8,363.6,75.8,363.7,75.8z"/>
					
						<linearGradient id="SVGID_00000112619414314628815710000006242450195587499666_" gradientUnits="userSpaceOnUse" x1="-2133.6011" y1="193.1334" x2="-2035.3184" y2="193.1334" gradientTransform="matrix(-0.998 6.330000e-02 6.330000e-02 0.998 -1679.6614 52.4629)">
						<stop  offset="0" style="stop-color:#B37CFF"/>
						<stop  offset="1" style="stop-color:#F895E7"/>
					</linearGradient>
					<path style="fill:url(#SVGID_00000112619414314628815710000006242450195587499666_);" d="M429.4,147.2c-0.9,0-1.7-0.7-1.7-1.6
						c0-0.9,0.7-1.7,1.6-1.7c1.8,0,3.5-0.1,5.3-0.3c0.9-0.1,1.7,0.6,1.8,1.5c0.1,0.9-0.6,1.7-1.5,1.8c-0.8,0.1-1.5,0.1-2.3,0.2
						C431.6,147.1,430.4,147.2,429.4,147.2z M441.9,144.2c-0.2-0.9,0.3-1.8,1.2-2c1.7-0.4,3.5-0.9,5.1-1.4c0.9-0.3,1.8,0.2,2.1,1.1
						c0.3,0.9-0.2,1.8-1.1,2.1c-1.8,0.6-3.6,1.1-5.4,1.5c-0.1,0-0.2,0-0.3,0C442.9,145.5,442.1,145,441.9,144.2z M420.3,146.7
						c-1.8-0.2-3.7-0.5-5.5-0.9c-0.9-0.2-1.5-1.1-1.3-2c0.2-0.9,1.1-1.5,2-1.3c1.7,0.4,3.5,0.7,5.3,0.9c0.9,0.1,1.6,0.9,1.5,1.9
						c-0.1,0.8-0.8,1.4-1.6,1.5C420.5,146.7,420.4,146.7,420.3,146.7z M455.6,139.7c-0.4-0.8-0.1-1.8,0.8-2.2
						c1.6-0.8,3.2-1.6,4.7-2.5c0.8-0.5,1.8-0.2,2.3,0.6c0.5,0.8,0.2,1.8-0.6,2.3c-1.6,1-3.3,1.9-4.9,2.7c-0.2,0.1-0.4,0.2-0.6,0.2
						C456.5,140.7,455.9,140.3,455.6,139.7z M406,143.3c-1.8-0.6-3.5-1.3-5.2-2.1c-0.8-0.4-1.2-1.4-0.8-2.2c0.4-0.8,1.4-1.2,2.2-0.8
						c1.6,0.7,3.3,1.4,4.9,2c0.9,0.3,1.3,1.3,1,2.1c-0.2,0.6-0.8,1.1-1.5,1.1C406.4,143.4,406.2,143.4,406,143.3z M392.7,136.8
						c-1.6-1-3.1-2.1-4.6-3.2c-0.7-0.6-0.9-1.6-0.3-2.3c0.6-0.7,1.6-0.9,2.3-0.3c1.4,1.1,2.9,2.1,4.4,3c0.8,0.5,1,1.5,0.5,2.3
						c-0.3,0.5-0.8,0.7-1.3,0.8C393.4,137.1,393.1,137,392.7,136.8z M381.3,127.7c-1.3-1.3-2.6-2.7-3.8-4.1
						c-0.6-0.7-0.5-1.8,0.2-2.4c0.7-0.6,1.8-0.5,2.4,0.2c1.1,1.3,2.4,2.7,3.6,3.9c0.7,0.7,0.7,1.7,0,2.4c-0.3,0.3-0.7,0.5-1.1,0.5
						C382.1,128.2,381.6,128,381.3,127.7z M372.1,116.2c-1-1.6-1.9-3.2-2.8-4.9c-0.4-0.8-0.1-1.8,0.7-2.3c0.8-0.4,1.8-0.1,2.3,0.7
						c0.8,1.6,1.7,3.1,2.7,4.6c0.5,0.8,0.3,1.8-0.5,2.3c-0.2,0.2-0.5,0.2-0.8,0.3C373,117,372.4,116.7,372.1,116.2z M365.6,103
						c-0.6-1.8-1.2-3.6-1.7-5.4c-0.2-0.9,0.3-1.8,1.2-2c0.9-0.2,1.8,0.3,2,1.2c0.5,1.7,1,3.4,1.6,5.1c0.3,0.9-0.1,1.8-1,2.1
						c-0.2,0.1-0.3,0.1-0.5,0.1C366.5,104.1,365.8,103.7,365.6,103z M362.2,88.7c-0.2-1.4-0.3-2.7-0.4-4.1c0-0.5-0.1-1-0.1-1.5
						c0-0.9,0.7-1.7,1.6-1.7c0.9,0,1.7,0.7,1.7,1.6c0,0.5,0,0.9,0.1,1.4c0.1,1.3,0.2,2.6,0.4,3.9c0.1,0.9-0.5,1.8-1.5,1.9
						c0,0-0.1,0-0.1,0C363.1,90.2,362.3,89.6,362.2,88.7z"/>
					
						<linearGradient id="SVGID_00000029736135268618156370000001259900883327748997_" gradientUnits="userSpaceOnUse" x1="-2143.3972" y1="213.8461" x2="-2137.8958" y2="213.8461" gradientTransform="matrix(-0.998 6.330000e-02 6.330000e-02 0.998 -1679.6614 52.4629)">
						<stop  offset="0" style="stop-color:#B37CFF"/>
						<stop  offset="1" style="stop-color:#F895E7"/>
					</linearGradient>
					<path style="fill:url(#SVGID_00000029736135268618156370000001259900883327748997_);" d="M469.3,132.9c0.3,0,0.7-0.1,0.9-0.4
						c0.7-0.6,1.4-1.2,2.1-1.8c0.7-0.6,0.8-1.7,0.2-2.4c-0.6-0.7-1.7-0.8-2.4-0.2c-0.7,0.6-1.3,1.1-2,1.7c-0.7,0.6-0.8,1.6-0.3,2.4
						C468.3,132.7,468.8,132.9,469.3,132.9z"/>
				</g>
				<g>
					
						<linearGradient id="SVGID_00000173857249993471186080000018354585165744506531_" gradientUnits="userSpaceOnUse" x1="269.3398" y1="-134.1108" x2="635.0342" y2="357.8665">
						<stop  offset="0" style="stop-color:#A737D5"/>
						<stop  offset="1" style="stop-color:#EF497A"/>
					</linearGradient>
					<path style="fill:url(#SVGID_00000173857249993471186080000018354585165744506531_);" d="M472.5,104.4c0.2-0.3,0.2-0.6,0-0.9
						l-5.5-7.8c1.7-4.1,2.7-8.5,3-13.1l8.4-4.5c0.3-0.2,0.5-0.5,0.4-0.8l-1.9-11.3c-0.1-0.3-0.3-0.6-0.6-0.6l-9.4-1.6
						c-1.8-4.2-4.2-8.1-7.1-11.4l2.7-9.1c0.1-0.3,0-0.7-0.3-0.9l-9.3-6.6c-0.3-0.2-0.6-0.2-0.9,0l-7.8,5.5c-4.1-1.7-8.5-2.7-13.1-3
						l-4.5-8.4c-0.2-0.3-0.5-0.5-0.8-0.4l-11.3,1.9c-0.3,0.1-0.6,0.3-0.6,0.6l-1.6,9.4c-4.2,1.8-8.1,4.2-11.4,7.1l-9.1-2.7
						c-0.3-0.1-0.7,0-0.9,0.3l-6.6,9.3c-0.2,0.3-0.2,0.6,0,0.9l5.5,7.8c-1.7,4.1-2.7,8.5-3,13.1l-8.4,4.5c-0.3,0.2-0.5,0.5-0.4,0.8
						l1.9,11.3c0.1,0.3,0.3,0.6,0.6,0.6l9.4,1.6c1.8,4.2,4.2,8.1,7.1,11.4l-2.7,9.1c-0.1,0.3,0,0.7,0.3,0.9l9.3,6.6
						c0.3,0.2,0.6,0.2,0.9,0l7.8-5.5c4.1,1.7,8.5,2.7,13.1,3l4.5,8.4c0.2,0.3,0.5,0.5,0.8,0.4l11.3-1.9c0.3-0.1,0.6-0.3,0.6-0.6
						l1.6-9.4c4.2-1.8,8.1-4.2,11.4-7.1l9.1,2.7c0.3,0.1,0.7,0,0.9-0.3L472.5,104.4z"/>
					<path class="st14" d="M427.5,91.3c-6.3-0.5-11-6.1-10.5-12.4c0.3-3.1,1.7-5.8,4-7.8c2.3-2,5.3-2.9,8.4-2.7
						c6.3,0.5,11,6.1,10.5,12.4c-0.5,5.7-5.1,10.1-10.7,10.5C428.6,91.4,428,91.4,427.5,91.3z M422.7,73.2c-1.8,1.5-2.9,3.6-3.1,6
						c-0.4,4.8,3.2,9.1,8,9.5c4.8,0.4,9.1-3.2,9.5-8c0.4-4.8-3.2-9.1-8-9.5c-0.4,0-0.9,0-1.3,0C426,71.2,424.2,71.9,422.7,73.2z"/>
					<path class="st14" d="M430,107.9c1-0.1,1.9-0.2,2.9-0.3l0,0c0.3,0,0.6-0.1,0.9-0.2c1.5-0.3,2.9-0.7,4.3-1.2c0,0,0,0,0.1,0
						c0.1,0,0.1,0,0.2-0.1c0.1,0,0.2-0.1,0.3-0.1c0.3-0.1,0.4-0.4,0.4-0.7c0-0.1,0-0.1,0-0.2c-0.1-0.3-0.5-0.5-0.9-0.4
						c-1.8,0.7-3.6,1.2-5.5,1.5c-9.4,1.6-18.5-2-24.4-8.6c-3.3-3.7-5.6-8.3-6.5-13.5c-0.2-0.9-0.3-1.8-0.3-2.7
						c-0.4-6.2,1.3-12.2,5-17.3c4.2-5.8,10.4-9.7,17.5-10.9c14.6-2.4,28.5,7.5,30.9,22.1c0.1,0.9,0.3,1.8,0.3,2.7
						c0.2,3.9-0.4,7.9-1.8,11.5c0,0.1-0.1,0.2,0,0.3c0,0.3,0.2,0.5,0.4,0.6c0.3,0.1,0.7,0,0.9-0.4c1.5-3.8,2.2-8,1.9-12.1
						c-0.1-1-0.2-1.9-0.3-2.8c-2.5-15.3-17.1-25.8-32.4-23.2c-7.4,1.2-13.9,5.3-18.3,11.4c-3.8,5.3-5.6,11.7-5.2,18.1
						c0.1,1,0.2,1.9,0.3,2.9c1.2,7.4,5.3,13.9,11.4,18.3C417.1,106.5,423.5,108.3,430,107.9z"/>
				</g>
			</g>
			<g>
				<g class="st7">
					
						<linearGradient id="SVGID_00000110452578975483838890000011031174188436373684_" gradientUnits="userSpaceOnUse" x1="-2225.6975" y1="211.6505" x2="-2222.978" y2="211.6505" gradientTransform="matrix(-0.998 6.330000e-02 6.330000e-02 0.998 -1679.6614 52.4629)">
						<stop  offset="0" style="stop-color:#B37CFF"/>
						<stop  offset="1" style="stop-color:#F895E7"/>
					</linearGradient>
					<path style="fill:url(#SVGID_00000110452578975483838890000011031174188436373684_);" d="M553.4,125.2c0.4,0,0.8-0.3,0.9-0.8
						c0.2-0.9,0.4-1.7,0.5-2.6c0.1-0.6-0.3-1.1-0.9-1.2c-0.6-0.1-1.1,0.3-1.2,0.9c-0.1,0.8-0.3,1.7-0.5,2.5
						c-0.1,0.6,0.2,1.1,0.8,1.2C553.2,125.2,553.3,125.2,553.4,125.2z"/>
					
						<linearGradient id="SVGID_00000041992508860734983380000014363563613075751088_" gradientUnits="userSpaceOnUse" x1="-2226.7981" y1="181.0978" x2="-2173.4932" y2="181.0978" gradientTransform="matrix(-0.998 6.330000e-02 6.330000e-02 0.998 -1679.6614 52.4629)">
						<stop  offset="0" style="stop-color:#B37CFF"/>
						<stop  offset="1" style="stop-color:#F895E7"/>
					</linearGradient>
					<path style="fill:url(#SVGID_00000041992508860734983380000014363563613075751088_);" d="M554.4,117.3c-0.6,0-1-0.5-1-1.1
						c0.1-1.4,0-2.9-0.1-4.3c0-0.3,0-0.6-0.1-0.9c0-0.6,0.4-1.1,0.9-1.1c0.5,0,1.1,0.4,1.1,0.9c0,0.3,0.1,0.6,0.1,1
						c0.1,1.5,0.1,3,0.1,4.5c0,0.5-0.4,1-1,1C554.4,117.3,554.4,117.3,554.4,117.3z M552.5,105.8c-0.4-1.7-0.8-3.4-1.4-5.1
						c-0.2-0.5,0.1-1.1,0.6-1.3c0.5-0.2,1.1,0.1,1.3,0.6c0.6,1.7,1.1,3.5,1.5,5.3c0.1,0.6-0.2,1.1-0.8,1.2c0,0-0.1,0-0.1,0
						C553.1,106.7,552.6,106.3,552.5,105.8z M549.1,95.9c-0.8-1.6-1.6-3.1-2.6-4.6c-0.3-0.5-0.2-1.1,0.3-1.4
						c0.5-0.3,1.1-0.2,1.4,0.3c1,1.5,1.9,3.1,2.7,4.8c0.2,0.5,0,1.1-0.5,1.4c-0.1,0.1-0.3,0.1-0.4,0.1
						C549.7,96.5,549.3,96.3,549.1,95.9z M543.4,87.1c-1.1-1.3-2.3-2.6-3.6-3.8c-0.4-0.4-0.4-1-0.1-1.5c0.4-0.4,1-0.4,1.5-0.1
						c1.3,1.2,2.6,2.6,3.8,4c0.4,0.4,0.3,1.1-0.1,1.5c-0.2,0.1-0.4,0.2-0.6,0.2C543.9,87.5,543.6,87.4,543.4,87.1z M535.7,80
						c-1.4-1-2.9-2-4.4-2.8c-0.5-0.3-0.7-0.9-0.4-1.4c0.3-0.5,0.9-0.7,1.4-0.4c1.6,0.9,3.2,1.9,4.7,2.9c0.5,0.3,0.6,1,0.2,1.4
						c-0.2,0.3-0.5,0.4-0.8,0.4C536.1,80.2,535.9,80.2,535.7,80z M526.5,75c-1.6-0.6-3.3-1.2-5-1.6c-0.6-0.1-0.9-0.7-0.7-1.3
						c0.1-0.6,0.7-0.9,1.3-0.7c1.8,0.5,3.5,1,5.2,1.7c0.5,0.2,0.8,0.8,0.6,1.3c-0.2,0.4-0.5,0.6-0.9,0.7
						C526.8,75.1,526.7,75,526.5,75z M516.4,72.3c-1.7-0.2-3.5-0.3-5.2-0.4c-0.6,0-1-0.5-1-1c0-0.6,0.5-1,1-1c1.8,0,3.7,0.1,5.5,0.4
						c0.6,0.1,1,0.6,0.9,1.2c-0.1,0.5-0.5,0.9-1,0.9C516.5,72.4,516.4,72.4,516.4,72.3z M499.5,72.5c-0.1-0.6,0.2-1.1,0.8-1.2
						c1.5-0.4,3.1-0.7,4.7-0.9c0.2,0,0.5-0.1,0.7-0.1c0.6-0.1,1.1,0.3,1.1,0.9c0.1,0.6-0.3,1.1-0.9,1.1c-0.2,0-0.5,0.1-0.7,0.1
						c-1.5,0.2-3,0.5-4.5,0.8c-0.1,0-0.1,0-0.2,0C500.1,73.3,499.6,72.9,499.5,72.5z"/>
				</g>
				<g class="st7">
					
						<linearGradient id="SVGID_00000057146007300707170480000014891994494834485173_" gradientUnits="userSpaceOnUse" x1="-2203.0112" y1="232.1983" x2="-2142.1729" y2="232.1983" gradientTransform="matrix(-0.998 6.330000e-02 6.330000e-02 0.998 -1679.6614 52.4629)">
						<stop  offset="0" style="stop-color:#B37CFF"/>
						<stop  offset="1" style="stop-color:#F895E7"/>
					</linearGradient>
					<path style="fill:url(#SVGID_00000057146007300707170480000014891994494834485173_);" d="M513.1,159.1
						c-1.8,0.1-3.6,0.1-5.4-0.1c-0.6,0-1-0.5-1-1.1c0-0.6,0.5-1,1.1-1c1.7,0.1,3.4,0.1,5.2,0.1c0.6,0,1.1,0.4,1.1,1
						C514.1,158.6,513.6,159.1,513.1,159.1C513.1,159.1,513.1,159.1,513.1,159.1z M517.2,157.7c-0.1-0.6,0.3-1.1,0.8-1.2
						c1.7-0.3,3.4-0.7,5-1.2c0.5-0.2,1.1,0.1,1.3,0.7c0.2,0.5-0.1,1.1-0.7,1.3c-1.7,0.5-3.5,0.9-5.3,1.2c0,0-0.1,0-0.1,0
						C517.8,158.6,517.3,158.2,517.2,157.7z M502.3,158.4c-1.8-0.3-3.5-0.8-5.2-1.4c-0.5-0.2-0.8-0.8-0.7-1.3
						c0.2-0.5,0.8-0.8,1.3-0.7c1.6,0.5,3.3,1,5,1.3c0.6,0.1,0.9,0.7,0.8,1.2c-0.1,0.5-0.5,0.8-0.9,0.8
						C502.5,158.4,502.4,158.4,502.3,158.4z M527.4,154.9c-0.2-0.5,0-1.1,0.5-1.4c1.6-0.7,3.1-1.5,4.6-2.4c0.5-0.3,1.1-0.1,1.4,0.4
						c0.3,0.5,0.1,1.1-0.4,1.4c-1.5,0.9-3.2,1.7-4.8,2.5c-0.1,0-0.2,0.1-0.3,0.1C528,155.5,527.6,155.3,527.4,154.9z M492,155
						c-1.6-0.8-3.2-1.6-4.8-2.6c-0.5-0.3-0.6-0.9-0.3-1.4c0.3-0.5,0.9-0.6,1.4-0.3c1.5,0.9,3,1.7,4.5,2.5c0.5,0.2,0.7,0.9,0.5,1.4
						c-0.2,0.4-0.5,0.6-0.9,0.6C492.3,155.1,492.2,155.1,492,155z M482.8,149.3c-1.4-1.1-2.7-2.4-4-3.6c-0.4-0.4-0.4-1.1,0-1.5
						c0.4-0.4,1.1-0.4,1.5,0c1.2,1.2,2.5,2.4,3.8,3.5c0.4,0.4,0.5,1,0.2,1.5c-0.2,0.2-0.5,0.4-0.7,0.4
						C483.3,149.5,483.1,149.5,482.8,149.3z M475.3,141.6c-1.1-1.4-2.1-2.9-3-4.5c-0.3-0.5-0.1-1.1,0.4-1.4c0.5-0.3,1.1-0.1,1.4,0.4
						c0.9,1.5,1.8,2.9,2.9,4.3c0.3,0.5,0.3,1.1-0.2,1.4c-0.2,0.1-0.4,0.2-0.6,0.2C475.9,142,475.5,141.8,475.3,141.6z"/>
					
						<linearGradient id="SVGID_00000152244434143856908670000014225073255167684004_" gradientUnits="userSpaceOnUse" x1="-2209.699" y1="236.002" x2="-2205.5383" y2="236.002" gradientTransform="matrix(-0.998 6.330000e-02 6.330000e-02 0.998 -1679.6614 52.4629)">
						<stop  offset="0" style="stop-color:#B37CFF"/>
						<stop  offset="1" style="stop-color:#F895E7"/>
					</linearGradient>
					<path style="fill:url(#SVGID_00000152244434143856908670000014225073255167684004_);" d="M537.6,150.1c0.2,0,0.4-0.1,0.6-0.2
						c0.7-0.5,1.4-1.1,2-1.7c0.4-0.4,0.5-1,0.1-1.5c-0.4-0.4-1-0.5-1.5-0.1c-0.6,0.5-1.3,1.1-1.9,1.6c-0.5,0.3-0.5,1-0.2,1.4
						C536.9,150,537.2,150.1,537.6,150.1z"/>
				</g>
				<g>
					
						<linearGradient id="SVGID_00000013891825480849830950000001244140062648680117_" gradientUnits="userSpaceOnUse" x1="305.9724" y1="-161.3404" x2="671.6671" y2="330.6372">
						<stop  offset="0" style="stop-color:#A737D5"/>
						<stop  offset="1" style="stop-color:#EF497A"/>
					</linearGradient>
					<path style="fill:url(#SVGID_00000013891825480849830950000001244140062648680117_);" d="M540.3,130.6c0.1-0.2,0.1-0.4,0-0.6
						l-3.7-5.2c1.1-2.7,1.8-5.7,2-8.8l5.6-3c0.2-0.1,0.3-0.3,0.3-0.5l-1.2-7.5c0-0.2-0.2-0.4-0.4-0.4l-6.3-1.1
						c-1.2-2.8-2.8-5.4-4.8-7.6l1.8-6.1c0.1-0.2,0-0.4-0.2-0.6l-6.2-4.4c-0.2-0.1-0.4-0.1-0.6,0l-5.2,3.7c-2.7-1.1-5.7-1.8-8.8-2
						l-3-5.6c-0.1-0.2-0.3-0.3-0.5-0.3l-7.5,1.2c-0.2,0-0.4,0.2-0.4,0.4l-1.1,6.3c-2.8,1.2-5.4,2.8-7.6,4.8l-6.1-1.8
						c-0.2-0.1-0.4,0-0.6,0.2l-4.4,6.2c-0.1,0.2-0.1,0.4,0,0.6l3.7,5.2c-1.1,2.7-1.8,5.7-2,8.8l-5.6,3c-0.2,0.1-0.3,0.3-0.3,0.5
						l1.2,7.5c0,0.2,0.2,0.4,0.4,0.4l6.3,1.1c1.2,2.8,2.8,5.4,4.8,7.6l-1.8,6.1c-0.1,0.2,0,0.4,0.2,0.6l6.2,4.4
						c0.2,0.1,0.4,0.1,0.6,0l5.2-3.7c2.7,1.1,5.7,1.8,8.8,2l3,5.6c0.1,0.2,0.3,0.3,0.5,0.3l7.5-1.2c0.2,0,0.4-0.2,0.4-0.4l1.1-6.3
						c2.8-1.2,5.4-2.8,7.6-4.8l6.1,1.8c0.2,0.1,0.4,0,0.6-0.2L540.3,130.6z"/>
					<path class="st14" d="M510.1,122c-2.1-0.2-4-1.1-5.3-2.7c-1.3-1.6-2-3.6-1.8-5.7c0.4-4.3,4.1-7.5,8.4-7.1
						c4.3,0.4,7.5,4.1,7.1,8.4c-0.2,2.1-1.1,4-2.7,5.3c-1.3,1.1-2.9,1.7-4.5,1.8C510.9,122,510.5,122,510.1,122z M505.1,113.7
						c-0.1,1.5,0.3,3,1.3,4.2c1,1.2,2.4,1.9,3.9,2l0,0c1.5,0.1,3-0.3,4.2-1.3c1.2-1,1.9-2.4,2-3.9c0.3-3.2-2.1-5.9-5.3-6.2
						c-0.3,0-0.6,0-0.8,0C507.6,108.7,505.3,110.9,505.1,113.7z"/>
					<path class="st14" d="M511.9,133.5c0.7,0,1.3-0.1,2-0.2c1.3-0.2,2.6-0.6,3.8-1c0.1,0,0.1,0,0.2-0.1c0.4-0.2,0.7-0.6,0.7-1
						c0-0.1,0-0.2-0.1-0.3c-0.2-0.5-0.8-0.8-1.3-0.6c-1.1,0.5-2.3,0.8-3.6,1l0,0c-0.1,0-0.1,0-0.2,0c-2.9,0.5-5.8,0.2-8.5-0.8
						c-1.5-0.5-2.9-1.2-4.2-2.2c0,0,0,0,0,0c0,0-0.1,0-0.1-0.1c-3.8-2.7-6.3-6.7-7-11.3c-0.1-0.6-0.2-1.2-0.2-1.8
						c-0.3-4,0.9-7.9,3.2-11.2c2.7-3.8,6.7-6.3,11.3-7c4.6-0.8,9.2,0.3,13,3c3.8,2.7,6.3,6.7,7,11.3c0.1,0.6,0.2,1.2,0.2,1.8
						c0.2,2.5-0.2,5.1-1.2,7.5c-0.1,0.1-0.1,0.3-0.1,0.4c0,0.4,0.3,0.7,0.7,0.9c0.5,0.2,1.1-0.1,1.3-0.6c1-2.7,1.5-5.5,1.3-8.3
						c0-0.7-0.1-1.3-0.2-2c-0.9-5.1-3.6-9.6-7.9-12.6c-4.2-3-9.4-4.2-14.5-3.4c-5.1,0.9-9.6,3.6-12.6,7.9c-2.6,3.7-3.9,8.1-3.6,12.5
						c0,0.7,0.1,1.3,0.2,2C493.1,127.2,502.1,134.2,511.9,133.5z"/>
				</g>
			</g>
		</g>
		<g>
			
				<linearGradient id="SVGID_00000044164044024212736020000016451532636635021958_" gradientUnits="userSpaceOnUse" x1="320.2443" y1="101.5254" x2="253.6843" y2="535.7009">
				<stop  offset="0" style="stop-color:#53D8FF"/>
				<stop  offset="0.2057" style="stop-color:#4DB9FD"/>
				<stop  offset="1" style="stop-color:#3840F7"/>
			</linearGradient>
			<path style="fill:url(#SVGID_00000044164044024212736020000016451532636635021958_);" d="M414.2,68.7l-252.5-1.5
				c-8.3-0.1-14.9,6.9-14.5,15.2L164,431.5c0.3,5.3,4.7,9.5,10,9.5h261.9c5.4,0,9.8-4.2,10-9.6l15.1-311L414.2,68.7z"/>
			
				<linearGradient id="SVGID_00000109722251073393683210000017636093839325044103_" gradientUnits="userSpaceOnUse" x1="449.1458" y1="70.4262" x2="406.6678" y2="157.6476">
				<stop  offset="0" style="stop-color:#53D8FF"/>
				<stop  offset="0.2057" style="stop-color:#4DB9FD"/>
				<stop  offset="1" style="stop-color:#3840F7"/>
			</linearGradient>
			<path style="fill:url(#SVGID_00000109722251073393683210000017636093839325044103_);" d="M424.7,119c-8.2-0.3-14.5-7.4-13.9-15.6
				l2.7-34.3l47.7,51.2L424.7,119z"/>
			<g>
				<g>
					<path class="st22" d="M204.3,133.2c35,1,169.3,4.6,203.3,5.5c4.3,0.1,7.7,2.9,7.5,6.1l0,0c-0.2,3-3.5,5.4-7.6,5.3l-203.2-4.8
						c-3.9-0.1-7.2-2.4-7.5-5.3l-0.1-0.7C196.3,135.9,199.9,133.1,204.3,133.2z"/>
					<path class="st22" d="M200.3,168.7L200.3,168.7c0.6,0.8,1.6,1.3,2.8,1.3l139.4,4.9c1.8,0.1,3.2-0.9,3.3-2.2l0.4-6.9
						c0.1-1.4-1.4-2.5-3.2-2.6L207.3,160C201.3,159.9,197.4,164.6,200.3,168.7z"/>
				</g>
				<g>
					<path class="st22" d="M200.9,195.4c35,1,169.3,4.6,203.3,5.5c4.3,0.1,7.7,2.9,7.5,6.1l0,0c-0.2,3-3.5,5.4-7.6,5.3l-203.2-4.8
						c-3.9-0.1-7.2-2.4-7.5-5.3l-0.1-0.7C192.9,198,196.4,195.2,200.9,195.4z"/>
					<path class="st22" d="M196.9,230.8L196.9,230.8c0.6,0.8,1.6,1.3,2.8,1.3l139.4,4.9c1.8,0.1,3.2-0.9,3.3-2.2l0.4-6.9
						c0.1-1.4-1.4-2.5-3.2-2.6l-135.6-3.2C197.8,222.1,194,226.8,196.9,230.8z"/>
				</g>
				
					<linearGradient id="SVGID_00000035499312318740130350000009006681142645569954_" gradientUnits="userSpaceOnUse" x1="213.5808" y1="321.0338" x2="376.0226" y2="321.0338">
					<stop  offset="0" style="stop-color:#2B3582"/>
					<stop  offset="1" style="stop-color:#150E42"/>
				</linearGradient>
				<path style="fill:url(#SVGID_00000035499312318740130350000009006681142645569954_);" d="M213.6,343.9
					c1.2-15.2,6.3-30.1,14.4-43.2c4.1-6.5,8.8-12.6,14.3-18.1c1.4-1.3,2.8-2.7,4.2-4c1.5-1.2,2.9-2.5,4.4-3.7
					c1.5-1.2,3.1-2.3,4.7-3.5l2.4-1.6l1.2-0.8l0.6-0.4c0.2-0.1,0.5-0.3,0.8-0.5c4.3-2.4,10.4-2.5,14.5,1.7c1,1,1.7,2.2,2.2,3.4
					c0.2,0.6,0.5,1.2,0.6,1.8c0.2,0.6,0.3,1.2,0.4,1.7c0.4,2.3,0.3,4.4,0,6.5c-0.1,1-0.3,2-0.5,3l-0.6,2.8c-0.4,1.9-0.8,3.7-1.2,5.6
					c-0.8,3.7-1.7,7.4-2.7,11c-4,14.6-9.2,28.9-15.7,42.6l-2.5,5.1c-0.9,1.7-1.7,3.4-2.6,5l-1.3,2.5l-0.7,1.3l-0.7,1.3
					c-1,1.7-2.2,3.4-3.5,5c-1.3,1.6-2.9,3.1-4.7,4.4c-1.9,1.3-4.2,2.3-6.8,2.4c-0.6,0.1-1.3,0-1.9-0.1c-0.7,0-1.3-0.2-1.9-0.4
					c-1.2-0.3-2.4-0.9-3.4-1.7c-2.1-1.5-3.6-3.5-4.5-5.7c-0.9-2.2-1.3-4.4-1.3-6.6c0-2.2,0.3-4.3,0.8-6.3c0.5-2,1-3.8,1.7-5.6
					l0.9-2.7l1-2.7c2.8-7.2,6.5-14,10.9-20.3c4.3-6.3,9.4-12.1,15.1-17.3l1.1-1l1.1-0.9l2.2-1.9c0.7-0.6,1.5-1.2,2.3-1.8
					c0.8-0.6,1.5-1.2,2.3-1.7c1.6-1.1,3.1-2.2,4.8-3.2l1.2-0.8l0.6-0.4c0.1-0.1,0.2-0.1,0.3-0.2l0.4-0.2c1.1-0.6,2.3-0.9,3.5-1.1
					c2.4-0.3,5.1,0.4,6.9,2.2c1,0.9,1.8,2.1,2.1,3.4c0.4,1.3,0.4,2.5,0.3,3.6c-0.1,1.1-0.4,2.1-0.6,3.1l-0.8,2.7l-1.5,5.4
					c-2,7.2-4.1,14.4-6.1,21.6l0,0l-3.2-0.6c0.2-2.4,0.9-4.9,2.2-7.1c0.7-1.1,1.5-2.1,2.6-2.9c1-0.9,2.3-1.5,3.5-1.8
					c1.3-0.4,2.7-0.5,4-0.3c0.7,0.1,1.4,0.3,2,0.6c0.3,0.1,0.6,0.3,0.9,0.5l0.6,0.4c1.5,0.9,3.5,1,5.1,0.3c0.4-0.2,0.8-0.4,1.1-0.6
					c0.2-0.1,0.3-0.3,0.5-0.4l0.2-0.2l0.3-0.3l2.3-2.5l4.6-4.9l4.6-4.9l2.3-2.5c0.6-0.6,1.4-1.1,2.3-1.3c0.9-0.2,1.8-0.1,2.6,0.3
					c0.8,0.4,1.5,1,2,1.7c0.5,0.8,0.7,1.7,0.6,2.6c0,0.2-0.1,0.4-0.1,0.6c-0.1,0.2-0.1,0.5-0.2,0.5l-0.3,0.8l-0.5,1.6
					c-0.7,2.1-1.2,4.2-1.7,6.3c-0.5,2.1-0.8,4.3-1.1,6.5c0,0.3-0.1,0.6-0.1,0.8l0,0.7c0,0.2,0,0.4,0,0.7c0,0.2,0,0.4,0.1,0.6
					c0.2,0.8,0.6,1.6,1.2,2.3c0.6,0.7,1.3,1.2,2.1,1.5c0.4,0.2,0.8,0.3,1.3,0.4c0.4,0,0.9,0.1,1.3,0c0.9-0.1,1.7-0.3,2.4-0.8
					l0.3-0.2l0.3-0.2l0.5-0.4l1.2-1.2c3.2-3.1,6.2-6.4,9.1-9.7c5.7-6.8,10.9-14,15.3-21.7l1.6-2.9l0.8-1.5l0.4-0.7l0.1-0.2
					c0,0,0,0,0,0c0,0,0,0,0,0c0,0.1,0,0.1,0,0.1c0,0,0,0,0.1,0c0,0,0.1,0,0.1,0c0,0,0,0,0,0l-0.1,0.1l-0.3,0.3
					c-0.2,0.2-0.4,0.4-0.6,0.6c-0.4,0.4-0.7,0.8-1.1,1.2c-1.4,1.6-2.7,3.4-3.8,5.2c-0.6,0.9-1.1,1.9-1.6,2.8c-0.2,0.5-0.5,1-0.7,1.5
					l-0.3,0.7l-0.2,0.4l-0.1,0.3c-0.6,1.7-0.6,3.7,0.1,5.3c0.8,1.6,2.2,3,3.9,3.7c0.8,0.4,1.8,0.4,2.7,0.5c0.9-0.1,1.8-0.2,2.6-0.7
					l0.6-0.3l0.7-0.4c0.5-0.3,1-0.5,1.4-0.8c0.9-0.6,1.9-1.2,2.8-1.8c7.3-4.9,13.9-10.9,19.4-17.7l0,0c0.6-0.7,1.6-0.8,2.3-0.3
					c0.7,0.6,0.8,1.6,0.3,2.3c-5.7,7.2-12.5,13.4-20.1,18.4c-1,0.6-1.9,1.2-2.9,1.8c-0.5,0.3-1,0.6-1.5,0.9l-0.7,0.4l-0.9,0.4
					c-1.2,0.6-2.5,0.8-3.9,0.9c-1.3,0-2.7-0.2-3.9-0.7c-2.5-0.9-4.5-2.9-5.7-5.3c-1.2-2.4-1.2-5.3-0.2-7.8l0.2-0.5l0.2-0.4l0.4-0.8
					c0.2-0.5,0.5-1.1,0.8-1.6c0.5-1,1.1-2.1,1.7-3c1.2-2,2.6-3.9,4.1-5.6c0.4-0.4,0.8-0.9,1.2-1.3c0.2-0.2,0.4-0.4,0.6-0.6l0.3-0.3
					l0.2-0.2c0.1-0.1,0.2-0.2,0.3-0.3c0.4-0.3,1-0.6,1.7-0.6c0.6,0,1.2,0.1,1.7,0.4c1,0.5,1.7,1.7,1.6,2.9c0,0.3-0.1,0.6-0.2,0.9
					c0,0.1-0.1,0.3-0.2,0.4l-0.1,0.2l-0.4,0.7l-0.8,1.5l-1.7,3c-4.5,7.8-9.8,15.3-15.7,22.2c-2.9,3.5-6,6.8-9.3,9.9l-1.2,1.2
					l-0.8,0.6l-0.4,0.3l-0.4,0.3c-1.2,0.7-2.5,1.1-3.9,1.2c-0.7,0.1-1.4,0-2.1-0.1c-0.7-0.2-1.3-0.3-2-0.6c-1.2-0.5-2.4-1.3-3.3-2.4
					c-0.9-1-1.6-2.3-1.9-3.6c-0.1-0.3-0.1-0.7-0.2-1c0-0.3-0.1-0.7-0.1-1l0-1l0.1-0.9c0.3-2.3,0.7-4.5,1.2-6.8
					c0.5-2.2,1.1-4.5,1.8-6.6l0.5-1.6l0.3-0.8c0.1-0.2,0.1-0.2,0.1-0.3c0-0.1,0-0.1,0-0.2c0-0.2,0-0.4-0.1-0.6
					c-0.1-0.2-0.3-0.4-0.5-0.5c-0.5-0.2-0.8-0.1-1.2,0.3l-2.3,2.5l-4.6,4.9l-4.6,4.9l-2.3,2.5l-0.3,0.3l-0.4,0.4
					c-0.2,0.2-0.5,0.5-0.8,0.7c-0.6,0.4-1.2,0.8-1.8,1c-2.6,1.1-5.5,0.8-7.9-0.5l-0.8-0.5c-0.2-0.1-0.3-0.2-0.5-0.3
					c-0.4-0.2-0.8-0.3-1.2-0.4c-0.8-0.1-1.8-0.1-2.6,0.2c-1.8,0.5-3.2,1.7-4.2,3.4c-1,1.6-1.6,3.6-1.8,5.7l-3.2-0.6l0,0
					c1.8-7.3,3.6-14.5,5.4-21.8l1.4-5.4l0.7-2.7c0.2-0.9,0.4-1.7,0.4-2.4c0.1-0.8,0-1.4-0.2-2c-0.2-0.5-0.4-0.9-0.9-1.3
					c-0.9-0.8-2.2-1.1-3.5-0.9c-0.6,0.1-1.3,0.3-1.8,0.6l-0.2,0.1l-0.3,0.2l-0.6,0.4l-1.1,0.8c-1.5,1-3,2.1-4.5,3.2
					c-0.7,0.5-1.4,1.1-2.1,1.7c-0.7,0.6-1.4,1.1-2.1,1.7l-2,1.8l-1,0.9l-1,0.9c-5.3,5-10,10.6-14,16.7c-4,6.1-7.4,12.5-10,19.3
					l-0.9,2.5l-0.8,2.6c-0.6,1.7-1.1,3.5-1.4,5.1c-0.7,3.3-0.8,6.5,0.4,9.2c0.5,1.2,1.4,2.3,2.4,3c0.5,0.3,1,0.6,1.6,0.7
					c0.6,0.1,1.1,0.2,1.7,0.2c1.1-0.1,2.3-0.5,3.5-1.4c1.2-0.8,2.3-2,3.4-3.3c1-1.3,2-2.7,2.9-4.2l0.6-1.1l0.6-1.2l1.3-2.4
					c0.8-1.6,1.7-3.3,2.5-4.9l2.4-5c6.2-13.4,11.2-27.3,15.1-41.6c0.9-3.6,1.8-7.1,2.6-10.7c0.4-1.8,0.8-3.6,1.1-5.4l0.5-2.7
					c0.2-0.9,0.3-1.7,0.4-2.5c0.2-1.6,0.2-3.3,0-4.7c-0.2-1.4-0.7-2.5-1.3-3.2c-0.3-0.4-0.7-0.6-1.2-0.8c-0.5-0.2-1-0.4-1.6-0.4
					c-1.1-0.1-2.4,0.2-3.5,0.8c-0.1,0.1-0.3,0.1-0.4,0.2l-0.6,0.4l-1.1,0.7l-2.3,1.5c-1.5,1-2.9,2.1-4.4,3.2
					c-1.4,1.1-2.8,2.3-4.2,3.4c-1.4,1.2-2.7,2.4-4,3.6c-5.2,5-9.9,10.6-13.9,16.6c-8.1,12-13.7,25.9-16.2,40.4
					c-0.1,0.9-1,1.5-1.9,1.3C214.1,345.5,213.5,344.7,213.6,343.9z"/>
				
					<linearGradient id="SVGID_00000082339497612658243530000008076448468700711330_" gradientUnits="userSpaceOnUse" x1="379.3938" y1="288.353" x2="398.6857" y2="288.353">
					<stop  offset="0" style="stop-color:#2B3582"/>
					<stop  offset="1" style="stop-color:#150E42"/>
				</linearGradient>
				<path style="fill:url(#SVGID_00000082339497612658243530000008076448468700711330_);" d="M381,295c-0.5,0-1.1-0.3-1.4-0.8
					c-0.5-0.8-0.2-1.7,0.5-2.2l16.1-10.1c0.8-0.5,1.7-0.2,2.2,0.5c0.5,0.8,0.2,1.7-0.5,2.2l-16.1,10.1
					C381.6,294.9,381.3,295,381,295z"/>
			</g>
		</g>
		<g>
			<g>
				<g>
					
						<linearGradient id="SVGID_00000139283715224662086730000003198144977717352079_" gradientUnits="userSpaceOnUse" x1="152.8906" y1="468.9057" x2="181.8628" y2="468.9057" gradientTransform="matrix(-1 0 0 1 638.0585 0)">
						<stop  offset="0" style="stop-color:#2B3582"/>
						<stop  offset="1" style="stop-color:#150E42"/>
					</linearGradient>
					<path style="fill:url(#SVGID_00000139283715224662086730000003198144977717352079_);" d="M457,467.5c5,0.4,13.6,1.1,20.4,1.4
						c4.1,0.2,6.4-0.2,7.8-0.8c0,0.2,0,0.3,0,0.4c0,0.7-0.6,1.3-1.3,1.3c-12.8,0.7-23,0.2-26.7,0c-0.8,0-1.2-0.9-0.8-1.5
						C456.5,468.1,456.8,467.8,457,467.5z"/>
					
						<linearGradient id="SVGID_00000105420212404372549930000000262100677595116204_" gradientUnits="userSpaceOnUse" x1="483.2766" y1="447.7028" x2="470.25" y2="469.2251">
						<stop  offset="0" style="stop-color:#53D8FF"/>
						<stop  offset="0.2057" style="stop-color:#4DB9FD"/>
						<stop  offset="1" style="stop-color:#3840F7"/>
					</linearGradient>
					<path style="fill:url(#SVGID_00000105420212404372549930000000262100677595116204_);" d="M477.4,468.9
						c-6.8-0.3-15.4-1-20.4-1.4c4.9-6,20.4-10,20.4-10h4.4c3,4.3,3.4,8.5,3.4,10.7C483.8,468.7,481.5,469.1,477.4,468.9z"/>
					
						<linearGradient id="SVGID_00000038374482279232686960000006833784456285006004_" gradientUnits="userSpaceOnUse" x1="155.5655" y1="455.3" x2="163.7263" y2="455.3" gradientTransform="matrix(-1 0 0 1 638.0585 0)">
						<stop  offset="0" style="stop-color:#F9B776"/>
						<stop  offset="1" style="stop-color:#F47960"/>
					</linearGradient>
					<path style="fill:url(#SVGID_00000038374482279232686960000006833784456285006004_);" d="M482.5,450.3l-0.4,8.1
						c0,0.9-0.7,1.6-1.6,1.7c-0.9,0.1-2,0.1-3.3-0.3c-0.8-0.3-1.3-0.9-1.5-1.7l-1.4-7.9H482.5z"/>
				</g>
				<g>
					<g>
						
							<linearGradient id="SVGID_00000161589193009950787570000004732941836444542876_" gradientUnits="userSpaceOnUse" x1="95.1322" y1="468.2809" x2="106.2348" y2="468.2809" gradientTransform="matrix(-1 0 0 1 638.0585 0)">
							<stop  offset="0" style="stop-color:#2B3582"/>
							<stop  offset="1" style="stop-color:#150E42"/>
						</linearGradient>
						<path style="fill:url(#SVGID_00000161589193009950787570000004732941836444542876_);" d="M539.3,468.9
							c2.2-0.3,3.1-1.4,3.5-2.6c0,0,0,0,0,0c0.3,1.3-0.4,2.6-1.9,3.2c-1.8,0.8-3.7,0.9-5.2,0.8c-1.6-0.1-3.1-0.7-3.9-1.8l0,0
							C533.4,469.3,535.7,469.4,539.3,468.9z"/>
						
							<linearGradient id="SVGID_00000136409185291844012970000010924949896258791819_" gradientUnits="userSpaceOnUse" x1="548.158" y1="424.7915" x2="532.2996" y2="466.1367">
							<stop  offset="0" style="stop-color:#53D8FF"/>
							<stop  offset="0.2057" style="stop-color:#4DB9FD"/>
							<stop  offset="1" style="stop-color:#3840F7"/>
						</linearGradient>
						<path style="fill:url(#SVGID_00000136409185291844012970000010924949896258791819_);" d="M529.2,450.3h3.6
							c5.5-0.1,8.9,11.5,10.1,16c-0.4,1.2-1.4,2.3-3.5,2.6c-3.6,0.5-5.9,0.4-7.5-0.4c-3-3.9-4.4-9.6-5.1-13
							C525.9,451.7,529.2,450.3,529.2,450.3z"/>
					</g>
					
						<linearGradient id="SVGID_00000054259994697098147510000008729324717843308461_" gradientUnits="userSpaceOnUse" x1="103.6836" y1="448.4968" x2="113.4366" y2="448.4968" gradientTransform="matrix(-1 0 0 1 638.0585 0)">
						<stop  offset="0" style="stop-color:#F9B776"/>
						<stop  offset="1" style="stop-color:#F47960"/>
					</linearGradient>
					<path style="fill:url(#SVGID_00000054259994697098147510000008729324717843308461_);" d="M532.3,442.8l2,8c0.2,1-0.2,2-1.1,2.5
						c-1.1,0.6-2.7,1.2-4.1,1c-0.7-0.1-1.2-0.6-1.5-1.2l-2.9-8.4L532.3,442.8z"/>
				</g>
				
					<linearGradient id="SVGID_00000139974490145120349100000005783107161423382204_" gradientUnits="userSpaceOnUse" x1="396.1133" y1="530.5804" x2="524.3908" y2="354.73">
					<stop  offset="0" style="stop-color:#CB236D"/>
					<stop  offset="1" style="stop-color:#4C246D"/>
				</linearGradient>
				<path style="fill:url(#SVGID_00000139974490145120349100000005783107161423382204_);" d="M534.7,445.1
					c-2.5,2.2-10.6,2.5-10.6,2.5c-29.2-70.1-41.1-80-41.1-80c4.2,26.5,0.7,85,0.7,85c-4.8,2.1-11,0-11,0
					c-0.4-43.3-7-81.1-14.9-110.9c19.7-0.4,30.2-7.2,33.7-9.9C507.8,358.3,534.7,445.1,534.7,445.1z"/>
				
					<linearGradient id="SVGID_00000008851304374044477370000005993648307570199473_" gradientUnits="userSpaceOnUse" x1="439.9779" y1="344.3364" x2="498.881" y2="231.6277">
					<stop  offset="0" style="stop-color:#A737D5"/>
					<stop  offset="1" style="stop-color:#EF497A"/>
				</linearGradient>
				<path style="fill:url(#SVGID_00000008851304374044477370000005993648307570199473_);" d="M486.3,251.2c3.7,18.6,2.4,52,1.5,67.2
					c-0.2,4.3,2.7,10.2,5.2,14.2c0.4,0.6,0.1,1.4-0.5,1.8c-4,2.1-17.7,8.5-33.6,9.3c-1.1,0.1-2-0.7-2.3-1.7
					c-11.8-43.9-25.4-72-25.4-72C446.3,246,486.3,251.2,486.3,251.2z"/>
				
					<linearGradient id="SVGID_00000069379966634693581260000004641469428806516124_" gradientUnits="userSpaceOnUse" x1="488.4383" y1="331.6377" x2="465.4492" y2="381.6728">
					<stop  offset="0" style="stop-color:#CE1567"/>
					<stop  offset="1" style="stop-color:#7A1DBC"/>
				</linearGradient>
				<path style="fill:url(#SVGID_00000069379966634693581260000004641469428806516124_);" d="M481,365.9c0.2,0,0.3,0,0.5-0.1
					c0.4-0.3,0.6-0.8,0.3-1.3c-0.2-0.3-3.9-6.4-11.6-10.1c-0.5-0.2-1,0-1.2,0.4c-0.2,0.5,0,1,0.4,1.2c7.1,3.4,10.8,9.3,10.8,9.3
					C480.3,365.7,480.6,365.9,481,365.9z"/>
				<g>
					
						<linearGradient id="SVGID_00000067954200559118495630000008505932931630474142_" gradientUnits="userSpaceOnUse" x1="148.3668" y1="306.3334" x2="113.6476" y2="337.078" gradientTransform="matrix(-1 0 0 1 638.0585 0)">
						<stop  offset="0" style="stop-color:#F9B776"/>
						<stop  offset="1" style="stop-color:#F47960"/>
					</linearGradient>
					<path style="fill:url(#SVGID_00000067954200559118495630000008505932931630474142_);" d="M509.8,304.7
						c-1.2,8.7-4.7,18.1-11.8,28.2l-2.7-2.2c0,0,3.1-12.6,1.3-27C501,302.9,506.1,303.7,509.8,304.7z"/>
					
						<linearGradient id="SVGID_00000165200978832162129440000001583924996047415956_" gradientUnits="userSpaceOnUse" x1="458.3336" y1="353.9295" x2="517.2365" y2="241.2213">
						<stop  offset="0" style="stop-color:#A737D5"/>
						<stop  offset="1" style="stop-color:#EF497A"/>
					</linearGradient>
					<path style="fill:url(#SVGID_00000165200978832162129440000001583924996047415956_);" d="M482.2,274.2l4.2-23
						c0,0,27.9,21.3,23.4,53.5c-3.6-0.9-8.8-1.8-13.2-0.9C495.3,293.4,491.5,282.2,482.2,274.2z"/>
				</g>
				<g>
					
						<linearGradient id="SVGID_00000165944312291510738580000003054082620314531509_" gradientUnits="userSpaceOnUse" x1="415.2361" y1="331.4061" x2="474.1391" y2="218.6978">
						<stop  offset="0" style="stop-color:#A737D5"/>
						<stop  offset="1" style="stop-color:#EF497A"/>
					</linearGradient>
					<path style="fill:url(#SVGID_00000165944312291510738580000003054082620314531509_);" d="M430.8,270.2l16.1,19.8
						c1.7,14-4.1,21.7-11.4,25.9c-2.1-6.1-4.9-10.7-7.2-13.7C435.7,289.4,430.8,270.2,430.8,270.2z"/>
					
						<linearGradient id="SVGID_00000118395290058026239400000015807420554343836079_" gradientUnits="userSpaceOnUse" x1="313.0806" y1="201.9833" x2="341.8426" y2="201.9833" gradientTransform="matrix(-0.9695 0.2449 0.2449 0.9695 688.1428 37.7765)">
						<stop  offset="0" style="stop-color:#F9B776"/>
						<stop  offset="1" style="stop-color:#F47960"/>
					</linearGradient>
					<path style="fill:url(#SVGID_00000118395290058026239400000015807420554343836079_);" d="M428.3,302.3
						c2.3,3.1,5.1,7.7,7.2,13.7c-18.9,13.4-28.4,5.1-28.4,5.1v-2.7c0-2.4,1.6-4.4,3.8-5C418.6,311.4,425.6,307,428.3,302.3z"/>
				</g>
				
					<linearGradient id="SVGID_00000131363058759141060010000008322776930887476901_" gradientUnits="userSpaceOnUse" x1="186.8741" y1="236.1715" x2="186.5755" y2="287.2322" gradientTransform="matrix(-1 0 0 1 638.0585 0)">
					<stop  offset="0" style="stop-color:#F9B776"/>
					<stop  offset="1" style="stop-color:#F47960"/>
				</linearGradient>
				<path style="fill:url(#SVGID_00000131363058759141060010000008322776930887476901_);" d="M441.1,241.4l5.2,19.1
					c0.6,2.1,2.9,3.3,5,2.5c2.2-0.9,5.1-2.1,7.5-3.4c2.6-1.4,3.4-4.7,1.8-7.2l-10.8-16.1L441.1,241.4z"/>
			</g>
			<g>
				
					<linearGradient id="SVGID_00000160897496816956467200000017709226375684031391_" gradientUnits="userSpaceOnUse" x1="-151.326" y1="1942.9512" x2="-176.4604" y2="1976.202" gradientTransform="matrix(-0.9897 -0.1428 -0.1428 0.9897 562.3017 -1716.7727)">
					<stop  offset="0" style="stop-color:#F9B776"/>
					<stop  offset="1" style="stop-color:#F47960"/>
				</linearGradient>
				<path style="fill:url(#SVGID_00000160897496816956467200000017709226375684031391_);" d="M429.8,226.9c0,0.3,4.3,21.8,4.3,21.8
					l12.2-2.8l-1.1-21C445.2,225,430.5,221.4,429.8,226.9z"/>
				
					<linearGradient id="SVGID_00000018947115879201725800000003297327115678291329_" gradientUnits="userSpaceOnUse" x1="-170.5216" y1="1950.972" x2="-140.4982" y2="1950.972" gradientTransform="matrix(-0.9897 -0.1428 -0.1428 0.9897 562.3017 -1716.7727)">
					<stop  offset="0" style="stop-color:#2B3582"/>
					<stop  offset="1" style="stop-color:#150E42"/>
				</linearGradient>
				<path style="fill:url(#SVGID_00000018947115879201725800000003297327115678291329_);" d="M442.4,229.7l1.5,11c0,0.1,0,0.3,0,0.4
					c-0.1,0.9-0.8,3.8-3.7,3c-2.7-0.8-5.1-1.4-6.8-0.9c-0.8,0.2-1.2,1-1.1,1.8c0.4,2,1.4,6.3,2.8,10c0.3,0.7,1.1,1.1,1.9,0.9
					c2.3-0.7,7.2-2.2,10.8-4.4c0.5-0.3,0.8-0.8,0.8-1.4c-0.1-2.8-0.4-11.2-0.2-13.6c0.3-2.2,3-3.5,4.2-4c0.4-0.2,0.7-0.5,0.8-0.9
					c0.5-1.4,1.3-4.5-2.7-5.9c-0.8-0.3-1.3-1.2-1-2c0.6-1.7,0.8-4.2-2.3-5.6c-3.1-1.4-5.5,0.3-6.8,1.6c-0.5,0.6-1.3,0.6-2,0.2
					c-0.4-0.2-0.8-0.3-1.4,0c-0.8,0.5-1.8,0.2-2.2-0.7c-0.8-1.5-2.3-3.2-5.4-2.7c-5.5,0.9-6.1,7-4.6,10.5c1.4,3.6,7.3,2.2,10.3,0.4
					c2.2-1.4,5.1,0.1,6.4,0.8C442.1,228.8,442.4,229.2,442.4,229.7z"/>
				
					<linearGradient id="SVGID_00000102516432116554667660000008867265790267965575_" gradientUnits="userSpaceOnUse" x1="-188.138" y1="1969.2831" x2="-167.9783" y2="1948.5997" gradientTransform="matrix(-0.9897 -0.1428 -0.1428 0.9897 562.3017 -1716.7727)">
					<stop  offset="0" style="stop-color:#F9B776"/>
					<stop  offset="1" style="stop-color:#F47960"/>
				</linearGradient>
				<path style="fill:url(#SVGID_00000102516432116554667660000008867265790267965575_);" d="M448.8,240.5c0,0-2.2-6.3,0.1-7.8
					c2.3-1.5,5.7-0.7,5,3.8C452.9,242.1,448.8,240.5,448.8,240.5z"/>
			</g>
			<g>
				<g>
					
						<linearGradient id="SVGID_00000017489490900564926310000004235977136881456315_" gradientUnits="userSpaceOnUse" x1="461.9081" y1="-86.9344" x2="166.7227" y2="128.3982" gradientTransform="matrix(-0.7907 0.6122 0.6122 0.7907 734.6486 117.3001)">
						<stop  offset="0" style="stop-color:#2B3582"/>
						<stop  offset="1" style="stop-color:#150E42"/>
					</linearGradient>
					<path style="fill:url(#SVGID_00000017489490900564926310000004235977136881456315_);" d="M539.2,279.1L334,346.5l9.8,30.2
						L550.2,311c4.4-1.4,7.1-5.7,6.5-10.3c-0.6-4.7-2.7-11.1-8.5-18.8C546.1,279.2,542.5,278,539.2,279.1z"/>
					<g>
						
							<linearGradient id="SVGID_00000101811206409626275230000006782837703224433793_" gradientUnits="userSpaceOnUse" x1="472.2542" y1="-39.0177" x2="511.1355" y2="-72.8146" gradientTransform="matrix(-0.7907 0.6122 0.6122 0.7907 734.6486 117.3001)">
							<stop  offset="0" style="stop-color:#2B3582"/>
							<stop  offset="1" style="stop-color:#150E42"/>
						</linearGradient>
						<path style="fill:url(#SVGID_00000101811206409626275230000006782837703224433793_);" d="M279.4,378.9l24.3-14.5
							c2.3,3.1,4.4,7.8,4.5,15l-28,2.1C278.8,381.6,278.2,379.7,279.4,378.9z"/>
						
							<linearGradient id="SVGID_00000112616500978830471400000003569768826282638241_" gradientUnits="userSpaceOnUse" x1="506.2485" y1="-88.6205" x2="362.2895" y2="59.3264" gradientTransform="matrix(-0.7907 0.6122 0.6122 0.7907 734.6486 117.3001)">
							<stop  offset="0" style="stop-color:#FDF53F"/>
							<stop  offset="1" style="stop-color:#D93C65"/>
						</linearGradient>
						<path style="fill:url(#SVGID_00000112616500978830471400000003569768826282638241_);" d="M334,346.5
							c12.5,14,9.8,30.2,9.8,30.2l-35.4,2.7c-0.1-7.2-2.2-11.9-4.5-15L334,346.5z"/>
					</g>
				</g>
				
					<linearGradient id="SVGID_00000138534259173031999420000010941119096975254156_" gradientUnits="userSpaceOnUse" x1="418.4614" y1="-84.2985" x2="288.5394" y2="49.2225" gradientTransform="matrix(-0.7907 0.6122 0.6122 0.7907 734.6486 117.3001)">
					<stop  offset="0" style="stop-color:#A737D5"/>
					<stop  offset="1" style="stop-color:#EF497A"/>
				</linearGradient>
				<path style="fill:url(#SVGID_00000138534259173031999420000010941119096975254156_);" d="M542.8,287.9c0.2-0.2,0.3-0.4,0.2-0.7
					c-0.1-0.3-0.4-0.5-0.8-0.4l-196.1,64.8c-0.3,0.1-0.5,0.4-0.4,0.8c0.1,0.3,0.4,0.5,0.8,0.4L542.6,288
					C542.7,288,542.8,288,542.8,287.9z"/>
				
					<linearGradient id="SVGID_00000030467646892581224680000000453802712121203869_" gradientUnits="userSpaceOnUse" x1="421.8209" y1="-72.5652" x2="291.8986" y2="60.9562" gradientTransform="matrix(-0.7907 0.6122 0.6122 0.7907 734.6486 117.3001)">
					<stop  offset="0" style="stop-color:#A737D5"/>
					<stop  offset="1" style="stop-color:#EF497A"/>
				</linearGradient>
				<path style="fill:url(#SVGID_00000030467646892581224680000000453802712121203869_);" d="M547.3,299.3c0.2-0.2,0.3-0.4,0.2-0.7
					c-0.1-0.3-0.4-0.5-0.8-0.4L350.7,363c-0.3,0.1-0.5,0.4-0.4,0.8c0.1,0.3,0.4,0.5,0.8,0.4l196.1-64.8
					C547.2,299.3,547.3,299.3,547.3,299.3z"/>
			</g>
			
				<linearGradient id="SVGID_00000053544786850174261300000010490179426310760601_" gradientUnits="userSpaceOnUse" x1="162.0774" y1="321.8165" x2="127.3583" y2="352.5611" gradientTransform="matrix(-1 0 0 1 638.0585 0)">
				<stop  offset="0" style="stop-color:#F9B776"/>
				<stop  offset="1" style="stop-color:#F47960"/>
			</linearGradient>
			<path style="fill:url(#SVGID_00000053544786850174261300000010490179426310760601_);" d="M496.3,330.3l-12.6-1l-5.5,5
				c0,0,1.3,1.8,5.3,0.8c4-1,9.6-1.3,9.6-1.3s5.6,2.5,5.6-2.2L496.3,330.3z"/>
			
				<linearGradient id="SVGID_00000114785748597743424760000002255137566192826032_" gradientUnits="userSpaceOnUse" x1="221.2331" y1="321.7333" x2="231.0248" y2="321.7333" gradientTransform="matrix(-1 0 0 1 638.0585 0)">
				<stop  offset="0" style="stop-color:#F9B776"/>
				<stop  offset="1" style="stop-color:#F47960"/>
			</linearGradient>
			<path style="fill:url(#SVGID_00000114785748597743424760000002255137566192826032_);" d="M415.5,326.4c-1.1,0.9-4.8-0.9-7.1-2.2
				c-1.1-0.6-1.7-1.9-1.3-3.1c0.5-1.7,1.5-4,2.6-4.2C411.6,316.4,420,322.9,415.5,326.4z"/>
		</g>
	</g>
</g>
</svg>
